<?xml version="1.0" encoding="UTF-8" standalone="no"?>
<!-- Created with Inkscape (http://www.inkscape.org/) -->

<svg
   xmlns:dc="http://purl.org/dc/elements/1.1/"
   xmlns:cc="http://creativecommons.org/ns#"
   xmlns:rdf="http://www.w3.org/1999/02/22-rdf-syntax-ns#"
   xmlns:svg="http://www.w3.org/2000/svg"
   xmlns="http://www.w3.org/2000/svg"
   xmlns:sodipodi="http://sodipodi.sourceforge.net/DTD/sodipodi-0.dtd"
   xmlns:inkscape="http://www.inkscape.org/namespaces/inkscape"
   version="1.1"
   id="svg7532"
   xml:space="preserve"
   width="445.56531"
   height="433.93332"
   viewBox="0 0 445.56532 433.93332"
   sodipodi:docname="Algodon.svg"
   inkscape:version="0.92.4 5da689c313, 2019-01-14"><metadata
     id="metadata7538"><rdf:RDF><cc:Work
         rdf:about=""><dc:format>image/svg+xml</dc:format><dc:type
           rdf:resource="http://purl.org/dc/dcmitype/StillImage" /><dc:title></dc:title></cc:Work></rdf:RDF></metadata><defs
     id="defs7536"><clipPath
       clipPathUnits="userSpaceOnUse"
       id="clipPath7548"><path
         d="M 1,0 H 101 V 667 H 1 Z"
         id="path7546"
         inkscape:connector-curvature="0" /></clipPath><clipPath
       clipPathUnits="userSpaceOnUse"
       id="clipPath7564"><path
         d="M 1,0 H 80 V 667 H 1 Z"
         id="path7562"
         inkscape:connector-curvature="0" /></clipPath><clipPath
       clipPathUnits="userSpaceOnUse"
       id="clipPath7596"><path
         d="M 0,768 H 1366 V 0 H 0 Z"
         id="path7594"
         inkscape:connector-curvature="0" /></clipPath><clipPath
       clipPathUnits="userSpaceOnUse"
       id="clipPath7656"><path
         d="m 1209,752 h 94 v -94 h -94 z"
         id="path7654"
         inkscape:connector-curvature="0" /></clipPath><clipPath
       clipPathUnits="userSpaceOnUse"
       id="clipPath7672"><path
         d="M 0,768 H 1366 V 0 H 0 Z"
         id="path7670"
         inkscape:connector-curvature="0" /></clipPath><clipPath
       clipPathUnits="userSpaceOnUse"
       id="clipPath7680"><path
         d="M 826.021,551.285 H 1129.2 V 255.9 H 826.021 Z"
         id="path7678"
         inkscape:connector-curvature="0" /></clipPath><clipPath
       clipPathUnits="userSpaceOnUse"
       id="clipPath7696"><path
         d="M 293.707,548.168 H 596.885 V 252.782 H 293.707 Z"
         id="path7694"
         inkscape:connector-curvature="0" /></clipPath><clipPath
       clipPathUnits="userSpaceOnUse"
       id="clipPath7716"><path
         d="M 885.988,512.118 H 1095.57 V 295.629 H 885.988 Z"
         id="path7714"
         inkscape:connector-curvature="0" /></clipPath><clipPath
       clipPathUnits="userSpaceOnUse"
       id="clipPath7720"><path
         d="M 885.988,512.118 H 1095.57 V 295.629 H 885.988 Z"
         id="path7718"
         inkscape:connector-curvature="0" /></clipPath><clipPath
       clipPathUnits="userSpaceOnUse"
       id="clipPath7724"><path
         d="m 1038.688,509.054 h -61.487 v -25.225 h 61.487 z"
         id="path7722"
         inkscape:connector-curvature="0" /></clipPath><clipPath
       clipPathUnits="userSpaceOnUse"
       id="clipPath7728"><path
         d="m 1002.427,483.828 h 25.225 v 25.225 h -25.225 z"
         id="path7726"
         inkscape:connector-curvature="0" /></clipPath><clipPath
       clipPathUnits="userSpaceOnUse"
       id="clipPath7834"><path
         d="M 650.742,318.082 H 800.389 V 467.73 H 650.742 Z"
         id="path7832"
         inkscape:connector-curvature="0" /></clipPath><clipPath
       clipPathUnits="userSpaceOnUse"
       id="clipPath7846"><path
         d="M 0,768 H 1366 V 0 H 0 Z"
         id="path7844"
         inkscape:connector-curvature="0" /></clipPath><clipPath
       clipPathUnits="userSpaceOnUse"
       id="clipPath7858"><path
         d="M 605.281,516.489 H 819 V 295.724 H 605.281 Z"
         id="path7856"
         inkscape:connector-curvature="0" /></clipPath><clipPath
       clipPathUnits="userSpaceOnUse"
       id="clipPath7874"><path
         d="M 374.07,464.105 H 484.415 V 317.88 H 374.07 Z"
         id="path7872"
         inkscape:connector-curvature="0" /></clipPath><clipPath
       clipPathUnits="userSpaceOnUse"
       id="clipPath7910"><path
         d="M 336.281,488 H 522.668 V 302 H 336.281 Z"
         id="path7908"
         inkscape:connector-curvature="0" /></clipPath></defs><sodipodi:namedview
     pagecolor="#ffffff"
     bordercolor="#666666"
     borderopacity="1"
     objecttolerance="10"
     gridtolerance="10"
     guidetolerance="10"
     inkscape:pageopacity="0"
     inkscape:pageshadow="2"
     inkscape:window-width="1366"
     inkscape:window-height="715"
     id="namedview7534"
     showgrid="false"
     fit-margin-top="0.3"
     fit-margin-bottom="0.3"
     fit-margin-left="0.4"
     fit-margin-right="0.4"
     inkscape:zoom="0.34260616"
     inkscape:cx="404.9745"
     inkscape:cy="198.42582"
     inkscape:window-x="0"
     inkscape:window-y="0"
     inkscape:window-maximized="1"
     inkscape:current-layer="g7540" /><g
     id="g7540"
     inkscape:groupmode="layer"
     inkscape:label="Falsos"
     transform="matrix(1.3333333,0,0,-1.3333333,-718.54678,757.13785)"><g
       id="g7706"
       transform="translate(816.0791,242.6284)"><path
         d="m 0,0 h -220.164 c -31.317,0 -56.705,25.388 -56.705,56.705 v 211.59 c 0,31.318 25.388,56.705 56.705,56.705 H 0 c 31.317,0 56.705,-25.387 56.705,-56.705 V 56.705 C 56.705,25.388 31.317,0 0,0"
         style="fill:#f8b238;fill-opacity:1;fill-rule:nonzero;stroke:none"
         id="path7708"
         inkscape:connector-curvature="0" /></g><g
       id="g7828"><g
         id="g7830"
         clip-path="url(#clipPath7834)"><g
           id="g7836"
           transform="translate(800.3901,462.0044)"><path
             d="m 0,0 v -46.665 c 0,-3.162 -2.8,-5.725 -6.254,-5.725 h -19.141 v -85.807 c 0,-3.162 -2.8,-5.725 -6.255,-5.725 h -56.549 l -75.282,68.364 v 23.168 h -19.14 c -3.455,0 -6.255,2.563 -6.255,5.725 V 0 c 0,3.162 2.8,5.726 6.255,5.726 h 50.575 c 3.385,0 6.268,-2.539 6.268,-5.658 -0.126,-15.934 14.041,-28.981 31.34,-28.981 17.299,0 31.466,13.047 31.34,28.981 0,3.119 2.883,5.658 6.268,5.658 H -6.254 C -2.8,5.726 0,3.162 0,0"
             style="fill:#94c282;fill-opacity:1;fill-rule:nonzero;stroke:none"
             id="path7838"
             inkscape:connector-curvature="0" /></g></g></g><g
       id="g7848"
       transform="translate(627.4961,461.7056)"><path
         d="m 0,0 v -45.578 c 0,-3.188 2.607,-5.772 5.822,-5.772 H 23.64 v -86.502 c 0,-3.187 2.607,-5.772 5.823,-5.772 h 51.925 l 5.785,5.717 v 109.379 c -15.968,0 -29.045,12.919 -28.929,28.698 0,3.087 -2.661,5.602 -5.786,5.602 H 5.822 C 2.607,5.772 0,3.188 0,0"
         style="fill:#ceeabe;fill-opacity:1;fill-rule:nonzero;stroke:none"
         id="path7850"
         inkscape:connector-curvature="0" /></g><g
       id="g7852"><g
         id="g7854" /><g
         id="g7866"><g
           clip-path="url(#clipPath7858)"
           id="g7864"
           style="opacity:0.25999505"><g
             transform="translate(819,406.1064)"
             id="g7862"><path
               d="m 0,0 c 0,-60.962 -47.843,-110.382 -106.86,-110.382 -59.016,0 -106.859,49.42 -106.859,110.382 0,60.963 47.843,110.383 106.859,110.383 C -47.843,110.383 0,60.963 0,0"
               style="fill:#ffffff;fill-opacity:1;fill-rule:nonzero;stroke:none"
               id="path7860"
               inkscape:connector-curvature="0" /></g></g></g></g></g></svg>