<?xml version="1.0" encoding="UTF-8" standalone="no"?>
<!-- Created with Inkscape (http://www.inkscape.org/) -->

<svg
   xmlns:dc="http://purl.org/dc/elements/1.1/"
   xmlns:cc="http://creativecommons.org/ns#"
   xmlns:rdf="http://www.w3.org/1999/02/22-rdf-syntax-ns#"
   xmlns:svg="http://www.w3.org/2000/svg"
   xmlns="http://www.w3.org/2000/svg"
   xmlns:sodipodi="http://sodipodi.sourceforge.net/DTD/sodipodi-0.dtd"
   xmlns:inkscape="http://www.inkscape.org/namespaces/inkscape"
   version="1.1"
   id="svg6074"
   xml:space="preserve"
   width="571.46613"
   height="556.59998"
   viewBox="0 0 571.46614 556.59998"
   sodipodi:docname="Consumidor.svg"
   inkscape:version="0.92.4 5da689c313, 2019-01-14"><metadata
     id="metadata6080"><rdf:RDF><cc:Work
         rdf:about=""><dc:format>image/svg+xml</dc:format><dc:type
           rdf:resource="http://purl.org/dc/dcmitype/StillImage" /><dc:title></dc:title></cc:Work></rdf:RDF></metadata><defs
     id="defs6078"><clipPath
       clipPathUnits="userSpaceOnUse"
       id="clipPath6090"><path
         d="M 2,1 H 102 V 668 H 2 Z"
         id="path6088"
         inkscape:connector-curvature="0" /></clipPath><clipPath
       clipPathUnits="userSpaceOnUse"
       id="clipPath6106"><path
         d="M 2,1 H 81 V 668 H 2 Z"
         id="path6104"
         inkscape:connector-curvature="0" /></clipPath><clipPath
       clipPathUnits="userSpaceOnUse"
       id="clipPath6138"><path
         d="M 0,768 H 1366 V 0 H 0 Z"
         id="path6136"
         inkscape:connector-curvature="0" /></clipPath><clipPath
       clipPathUnits="userSpaceOnUse"
       id="clipPath6198"><path
         d="m 1210,753 h 94 v -94 h -94 z"
         id="path6196"
         inkscape:connector-curvature="0" /></clipPath><clipPath
       clipPathUnits="userSpaceOnUse"
       id="clipPath6214"><path
         d="m 1518,16 h -100 v 667 h 100 z"
         id="path6212"
         inkscape:connector-curvature="0" /></clipPath><clipPath
       clipPathUnits="userSpaceOnUse"
       id="clipPath6222"><path
         d="M 1549,-361 H 1418 V 705 h 131 z"
         id="path6220"
         inkscape:connector-curvature="0" /></clipPath><clipPath
       clipPathUnits="userSpaceOnUse"
       id="clipPath6230"><path
         d="m 1527,13 h -188 v 670 h 188 z"
         id="path6228"
         inkscape:connector-curvature="0" /></clipPath><clipPath
       clipPathUnits="userSpaceOnUse"
       id="clipPath6242"><path
         d="m 1497,16 h -188 v 670 h 188 z"
         id="path6240"
         inkscape:connector-curvature="0" /></clipPath><clipPath
       clipPathUnits="userSpaceOnUse"
       id="clipPath6254"><path
         d="M 0,768 H 1366 V 0 H 0 Z"
         id="path6252"
         inkscape:connector-curvature="0" /></clipPath><clipPath
       clipPathUnits="userSpaceOnUse"
       id="clipPath6262"><path
         d="m 816,550 h 428 V 133 H 816 Z"
         id="path6260"
         inkscape:connector-curvature="0" /></clipPath><clipPath
       clipPathUnits="userSpaceOnUse"
       id="clipPath6278"><path
         d="m 1014.57,616.17 h 35.49 v -20.85 h -35.49 z"
         id="path6276"
         inkscape:connector-curvature="0" /></clipPath><clipPath
       clipPathUnits="userSpaceOnUse"
       id="clipPath6320"><path
         d="M 0,768 H 1366 V 0 H 0 Z"
         id="path6318"
         inkscape:connector-curvature="0" /></clipPath><clipPath
       clipPathUnits="userSpaceOnUse"
       id="clipPath6448"><path
         d="m 888,489 h 285 V 204 H 888 Z"
         id="path6446"
         inkscape:connector-curvature="0" /></clipPath></defs><sodipodi:namedview
     pagecolor="#ffffff"
     bordercolor="#666666"
     borderopacity="1"
     objecttolerance="10"
     gridtolerance="10"
     guidetolerance="10"
     inkscape:pageopacity="0"
     inkscape:pageshadow="2"
     inkscape:window-width="1366"
     inkscape:window-height="715"
     id="namedview6076"
     showgrid="false"
     fit-margin-top="0.3"
     fit-margin-right="0.4"
     fit-margin-left="0.4"
     fit-margin-bottom="0.3"
     inkscape:zoom="0.48451828"
     inkscape:cx="87.364712"
     inkscape:cy="297.01459"
     inkscape:window-x="0"
     inkscape:window-y="0"
     inkscape:window-maximized="1"
     inkscape:current-layer="g6250" /><g
     id="g6082"
     inkscape:groupmode="layer"
     inkscape:label="Falsos"
     transform="matrix(1.3333333,0,0,-1.3333333,-1087.6005,733.63332)"><g
       id="g6248"><g
         id="g6250"
         clip-path="url(#clipPath6254)"><g
           id="g6256"><g
             id="g6258" /><g
             id="g6270"><g
               clip-path="url(#clipPath6262)"
               id="g6268"
               style="opacity:0.60000598"><g
                 transform="translate(1187.2954,133)"
                 id="g6266"><path
                   d="m 0,0 h -314.591 c -31.317,0 -56.704,25.388 -56.704,56.705 v 303.59 c 0,31.318 25.387,56.705 56.704,56.705 L 0,417 c 31.317,0 56.705,-25.387 56.705,-56.705 V 56.705 C 56.705,25.388 31.317,0 0,0"
                   style="fill:#f8b238;fill-opacity:1;fill-rule:nonzero;stroke:none"
                   id="path6264"
                   inkscape:connector-curvature="0" /></g></g></g></g></g></g><g
       id="g6314"><g
         id="g6316"
         clip-path="url(#clipPath6320)"><g
           id="g6322"
           transform="translate(1081.6602,311.3677)"><path
             d="m 0,0 h -1.034 -9.823 l -3.274,1.784 -3.275,-3.367 H -89.882 L -93.157,1.794 -96.431,0 h -9.824 c -1.808,-0.168 -2.871,3.106 -2.871,3.106 v 8.37 c 0,16.372 13.647,29.692 30.422,29.692 h 51.576 c 16.775,0 30.422,-13.32 30.422,-29.692 V 3.22 C 3.294,2.366 2.947,1.547 2.329,0.943 1.711,0.339 0.874,0 0,0"
             style="fill:#fbb03b;fill-opacity:1;fill-rule:nonzero;stroke:none"
             id="path6324"
             inkscape:connector-curvature="0" /></g><g
           id="g6326"
           transform="translate(1054.0923,352.5359)"><path
             d="m 0,0 h -26.14 v -42.692 h 37.339 l 3.368,1.85 3.368,-3.492 9.586,-10e-4 v 0 c 0.886,0 1.736,0.365 2.362,1.016 0.627,0.65 0.979,1.532 0.979,2.452 v 8.891 C 30.862,-14.344 17.018,0 0,0"
             style="fill:#f7931e;fill-opacity:1;fill-rule:nonzero;stroke:none"
             id="path6328"
             inkscape:connector-curvature="0" /></g><g
           id="g6330"
           transform="translate(1044.3882,349.2041)"><path
             d="m 0,0 c -0.101,-8.97 -7.401,-16.188 -16.372,-16.188 -9.042,0 -16.372,7.33 -16.372,16.372 0,0.573 0.03,1.145 0.09,1.714 z"
             style="fill:#fdd1a3;fill-opacity:1;fill-rule:nonzero;stroke:none"
             id="path6332"
             inkscape:connector-curvature="0" /></g><g
           id="g6334"
           transform="translate(1027.9526,350.1545)"><path
             d="m 0,0 v -17.138 c 8.961,0.011 16.25,7.225 16.351,16.188 z"
             style="fill:#ffbb85;fill-opacity:1;fill-rule:nonzero;stroke:none"
             id="path6336"
             inkscape:connector-curvature="0" /></g><g
           id="g6338"
           transform="translate(1015.0361,347.6301)"><path
             d="m 0,0 c 0.861,-6.394 6.354,-11.34 12.98,-11.34 6.073,0 11.23,4.201 12.687,9.848 z m 12.98,-17.889 c -10.833,0 -19.647,8.814 -19.647,19.647 0,0.685 0.037,1.377 0.108,2.057 0.184,1.739 1.704,3.028 3.447,2.926 L 29.542,4.843 c 1.746,-0.102 3.104,-1.557 3.084,-3.306 -0.058,-5.206 -2.129,-10.089 -5.831,-13.75 -3.702,-3.66 -8.608,-5.676 -13.815,-5.676"
             style="fill:#fe5857;fill-opacity:1;fill-rule:nonzero;stroke:none"
             id="path6340"
             inkscape:connector-curvature="0" /></g><g
           id="g6342"
           transform="translate(1044.4937,352.4731)"><path
             d="m 0,0 -16.541,0.961 v -6.559 l 12.666,-0.737 c -1.456,-5.641 -6.603,-9.838 -12.666,-9.848 v -6.549 c 5.198,0.006 10.097,2.021 13.794,5.677 3.702,3.66 5.773,8.543 5.831,13.749 C 3.104,-1.557 1.746,-0.102 0,0"
             style="fill:#ce0202;fill-opacity:1;fill-rule:nonzero;stroke:none"
             id="path6344"
             inkscape:connector-curvature="0" /></g><g
           id="g6346"
           transform="translate(1070.7036,309.7834)"><path
             d="m 0,0 v 9.513 c 0,1.505 -0.945,2.941 -2.408,3.293 -2.078,0.498 -3.925,-1.12 -3.925,-3.184 V 0.001 Z"
             style="fill:#ff4d05;fill-opacity:1;fill-rule:nonzero;stroke:none"
             id="path6348"
             inkscape:connector-curvature="0" /></g><g
           id="g6350"
           transform="translate(991.5347,311.3669)"><path
             d="m 0,0 v 9.513 c 0,1.505 -0.945,2.941 -2.409,3.292 -2.078,0.499 -3.924,-1.119 -3.924,-3.183 V 0.001 Z"
             style="fill:#f7931e;fill-opacity:1;fill-rule:nonzero;stroke:none"
             id="path6352"
             inkscape:connector-curvature="0" /></g><g
           id="g6354"
           transform="translate(1028.7441,343.0493)"><path
             d="m 0,0 c -18.771,0 -34.043,15.333 -34.043,34.18 v 11.788 c 0,18.848 15.272,34.181 34.043,34.181 18.771,0 34.043,-15.333 34.043,-34.18 V 34.181 C 34.043,15.333 18.771,0 0,0"
             style="fill:#ffe4c1;fill-opacity:1;fill-rule:nonzero;stroke:none"
             id="path6356"
             inkscape:connector-curvature="0" /></g><g
           id="g6358"
           transform="translate(1029.5356,423.7861)"><path
             d="m 0,0 v -79.635 c 0.001,0 0.001,0 0.001,0 18.321,-0.08 33.25,15.186 33.25,33.961 v 11.713 C 33.251,-15.185 18.322,0.081 0.002,0.002 0.001,0.001 0.001,0.001 0,0"
             style="fill:#fdd1a3;fill-opacity:1;fill-rule:nonzero;stroke:none"
             id="path6360"
             inkscape:connector-curvature="0" /></g><g
           id="g6362"
           transform="translate(1006.8989,285.7737)"><path
             d="M 0,0 H -1.126 -11.83 l -3.567,1.944 -3.568,-3.669 h -78.967 l -3.567,3.68 L -105.067,0 h -10.704 c -1.97,-0.183 -3.128,3.384 -3.128,3.384 v 9.12 c 0,17.838 14.87,32.351 33.147,32.351 h 56.194 c 18.277,0 33.147,-14.513 33.147,-32.351 V 3.508 C 3.589,2.578 3.211,1.685 2.538,1.027 1.865,0.37 0.952,0 0,0"
             style="fill:#ceeabe;fill-opacity:1;fill-rule:nonzero;stroke:none"
             id="path6364"
             inkscape:connector-curvature="0" /></g><g
           id="g6366"
           transform="translate(976.8618,330.6284)"><path
             d="m 0,0 h -28.48 v -46.515 h 40.682 l 3.67,2.016 3.67,-3.805 10.443,-10e-4 h 0.001 c 0.965,0 1.891,0.398 2.574,1.106 0.682,0.709 1.066,1.67 1.066,2.672 v 9.688 C 33.626,-15.629 18.542,0 0,0"
             style="fill:#94c282;fill-opacity:1;fill-rule:nonzero;stroke:none"
             id="path6368"
             inkscape:connector-curvature="0" /></g><g
           id="g6370"
           transform="translate(966.2891,326.9983)"><path
             d="m 0,0 c -0.11,-9.773 -8.064,-17.638 -17.838,-17.638 -9.852,0 -17.839,7.987 -17.839,17.838 0,0.624 0.033,1.248 0.098,1.868 z"
             style="fill:#fdd1a3;fill-opacity:1;fill-rule:nonzero;stroke:none"
             id="path6372"
             inkscape:connector-curvature="0" /></g><g
           id="g6374"
           transform="translate(948.3813,328.0339)"><path
             d="m 0,0 v -18.673 c 9.764,0.012 17.706,7.872 17.815,17.638 z"
             style="fill:#ffbb85;fill-opacity:1;fill-rule:nonzero;stroke:none"
             id="path6376"
             inkscape:connector-curvature="0" /></g><g
           id="g6378"
           transform="translate(934.3086,325.2834)"><path
             d="m 0,0 c 0.938,-6.967 6.923,-12.356 14.143,-12.356 6.616,0 12.235,4.577 13.823,10.731 z m 14.143,-19.491 c -11.804,0 -21.407,9.603 -21.407,21.406 0,0.747 0.04,1.501 0.118,2.242 0.2,1.895 1.856,3.299 3.755,3.187 L 32.188,5.276 c 1.902,-0.11 3.381,-1.696 3.36,-3.601 -0.064,-5.673 -2.32,-10.993 -6.354,-14.981 -4.033,-3.989 -9.379,-6.185 -15.051,-6.185"
             style="fill:#74c4fb;fill-opacity:1;fill-rule:nonzero;stroke:none"
             id="path6380"
             inkscape:connector-curvature="0" /></g><g
           id="g6382"
           transform="translate(966.4038,330.5601)"><path
             d="M 0,0 -18.022,1.048 V -6.1 l 13.8,-0.802 c -1.586,-6.147 -7.194,-10.72 -13.8,-10.73 v -7.135 c 5.664,0.006 11.001,2.201 15.029,6.184 4.034,3.989 6.29,9.309 6.353,14.981 C 3.382,-1.696 1.902,-0.111 0,0"
             style="fill:#28b6e8;fill-opacity:1;fill-rule:nonzero;stroke:none"
             id="path6384"
             inkscape:connector-curvature="0" /></g><g
           id="g6386"
           transform="translate(994.9614,284.0474)"><path
             d="m 0,0 v 10.365 c 0,1.64 -1.03,3.205 -2.625,3.587 -2.264,0.544 -4.276,-1.219 -4.276,-3.468 V 0.001 Z"
             style="fill:#28b6e8;fill-opacity:1;fill-rule:nonzero;stroke:none"
             id="path6388"
             inkscape:connector-curvature="0" /></g><g
           id="g6390"
           transform="translate(908.7021,285.7727)"><path
             d="m 0,0 v 10.365 c 0,1.64 -1.03,3.205 -2.624,3.587 -2.264,0.544 -4.277,-1.22 -4.277,-3.468 V 0.001 Z"
             style="fill:#94c282;fill-opacity:1;fill-rule:nonzero;stroke:none"
             id="path6392"
             inkscape:connector-curvature="0" /></g><g
           id="g6394"
           transform="translate(949.2441,320.2922)"><path
             d="m 0,0 c -20.453,0 -37.092,16.707 -37.092,37.241 v 12.844 c 0,20.535 16.639,37.242 37.092,37.242 20.452,0 37.091,-16.707 37.091,-37.242 V 37.242 C 37.091,16.707 20.452,0 0,0"
             style="fill:#ffe4c1;fill-opacity:1;fill-rule:nonzero;stroke:none"
             id="path6396"
             inkscape:connector-curvature="0" /></g><g
           id="g6398"
           transform="translate(950.1064,408.2595)"><path
             d="m 0,0 v -86.766 l 0.002,-0.002 c 19.961,-0.086 36.227,16.547 36.227,37.004 v 12.762 C 36.229,-16.545 19.963,0.088 0.002,0.002 0.001,0.001 0.001,0 0,0"
             style="fill:#fdd1a3;fill-opacity:1;fill-rule:nonzero;stroke:none"
             id="path6400"
             inkscape:connector-curvature="0" /></g><g
           id="g6402"
           transform="translate(1163.8906,282.3232)"><path
             d="M 0,0 H -1.127 -11.83 l -3.567,1.944 -3.568,-3.669 H -97.932 L -101.5,1.955 -105.067,0 h -10.704 c -1.97,-0.183 -3.128,3.384 -3.128,3.384 v 9.12 c 0,17.838 14.87,32.351 33.147,32.351 h 56.194 c 18.277,0 33.147,-14.513 33.147,-32.351 V 3.509 C 3.589,2.578 3.21,1.686 2.538,1.028 1.864,0.37 0.952,0 0,0"
             style="fill:#fe5857;fill-opacity:1;fill-rule:nonzero;stroke:none"
             id="path6404"
             inkscape:connector-curvature="0" /></g><g
           id="g6406"
           transform="translate(1133.8535,327.178)"><path
             d="m 0,0 h -28.48 v -46.515 h 40.682 l 3.67,2.016 3.67,-3.805 10.443,-10e-4 c 0.966,0 1.892,0.398 2.575,1.107 0.682,0.708 1.066,1.669 1.066,2.671 v 9.688 C 33.626,-15.629 18.542,0 0,0"
             style="fill:#ce0202;fill-opacity:1;fill-rule:nonzero;stroke:none"
             id="path6408"
             inkscape:connector-curvature="0" /></g><g
           id="g6410"
           transform="translate(1123.2803,323.5481)"><path
             d="m 0,0 c -0.109,-9.773 -8.063,-17.638 -17.837,-17.638 -9.852,0 -17.839,7.986 -17.839,17.838 0,0.624 0.032,1.248 0.098,1.868 z"
             style="fill:#fdd1a3;fill-opacity:1;fill-rule:nonzero;stroke:none"
             id="path6412"
             inkscape:connector-curvature="0" /></g><g
           id="g6414"
           transform="translate(1105.373,324.5835)"><path
             d="m 0,0 v -18.673 c 9.764,0.012 17.706,7.872 17.815,17.638 z"
             style="fill:#ffbb85;fill-opacity:1;fill-rule:nonzero;stroke:none"
             id="path6416"
             inkscape:connector-curvature="0" /></g><g
           id="g6418"
           transform="translate(1091.2998,321.833)"><path
             d="m 0,0 c 0.939,-6.967 6.923,-12.355 14.143,-12.355 6.616,0 12.235,4.576 13.823,10.73 z m 14.143,-19.491 c -11.804,0 -21.407,9.603 -21.407,21.407 0,0.746 0.04,1.5 0.118,2.241 0.2,1.895 1.856,3.299 3.755,3.187 L 32.188,5.277 c 1.902,-0.111 3.381,-1.697 3.36,-3.602 -0.064,-5.673 -2.32,-10.993 -6.354,-14.981 -4.033,-3.988 -9.379,-6.185 -15.051,-6.185"
             style="fill:#fbb03b;fill-opacity:1;fill-rule:nonzero;stroke:none"
             id="path6420"
             inkscape:connector-curvature="0" /></g><g
           id="g6422"
           transform="translate(1123.3955,327.1099)"><path
             d="M 0,0 -18.022,1.047 V -6.1 l 13.8,-0.802 c -1.586,-6.147 -7.194,-10.72 -13.8,-10.73 v -7.135 c 5.664,0.005 11.001,2.201 15.029,6.184 4.033,3.989 6.289,9.309 6.353,14.981 C 3.382,-1.697 1.902,-0.111 0,0"
             style="fill:#f7931e;fill-opacity:1;fill-rule:nonzero;stroke:none"
             id="path6424"
             inkscape:connector-curvature="0" /></g><g
           id="g6426"
           transform="translate(1151.9526,280.5972)"><path
             d="m 0,0 v 10.365 c 0,1.64 -1.03,3.205 -2.624,3.587 C -4.888,14.496 -6.9,12.732 -6.9,10.484 V 0.001 Z"
             style="fill:#f7931e;fill-opacity:1;fill-rule:nonzero;stroke:none"
             id="path6428"
             inkscape:connector-curvature="0" /></g><g
           id="g6430"
           transform="translate(1065.6938,282.3223)"><path
             d="m 0,0 v 10.365 c 0,1.64 -1.03,3.205 -2.625,3.587 -2.264,0.544 -4.276,-1.219 -4.276,-3.468 V 0.001 Z"
             style="fill:#ce0202;fill-opacity:1;fill-rule:nonzero;stroke:none"
             id="path6432"
             inkscape:connector-curvature="0" /></g><g
           id="g6434"
           transform="translate(1106.2354,316.8418)"><path
             d="m 0,0 c -20.452,0 -37.091,16.707 -37.091,37.241 v 12.844 c 0,20.535 16.639,37.242 37.091,37.242 20.452,0 37.091,-16.707 37.091,-37.242 V 37.242 C 37.091,16.707 20.452,0 0,0"
             style="fill:#ffe4c1;fill-opacity:1;fill-rule:nonzero;stroke:none"
             id="path6436"
             inkscape:connector-curvature="0" /></g><g
           id="g6438"
           transform="translate(1107.0981,404.8091)"><path
             d="m 0,0 v -86.766 l 0.001,-0.002 c 19.962,-0.086 36.228,16.547 36.228,37.004 v 12.762 C 36.229,-16.545 19.963,0.088 0.001,0.002 0.001,0.001 0,0.001 0,0"
             style="fill:#fdd1a3;fill-opacity:1;fill-rule:nonzero;stroke:none"
             id="path6440"
             inkscape:connector-curvature="0" /></g><g
           id="g6442"><g
             id="g6444" /><g
             id="g6456"><g
               clip-path="url(#clipPath6448)"
               id="g6454"
               style="opacity:0.25999505"><g
                 transform="translate(1173,346.5)"
                 id="g6452"><path
                   d="m 0,0 c 0,-78.701 -63.799,-142.5 -142.5,-142.5 -78.701,0 -142.5,63.799 -142.5,142.5 0,78.701 63.799,142.5 142.5,142.5 C -63.799,142.5 0,78.701 0,0"
                   style="fill:#ffffff;fill-opacity:1;fill-rule:nonzero;stroke:none"
                   id="path6450"
                   inkscape:connector-curvature="0" /></g></g></g></g></g></g></g></svg>