<?xml version="1.0" encoding="UTF-8" standalone="no"?>
<!-- Created with Inkscape (http://www.inkscape.org/) -->

<svg
   xmlns:dc="http://purl.org/dc/elements/1.1/"
   xmlns:cc="http://creativecommons.org/ns#"
   xmlns:rdf="http://www.w3.org/1999/02/22-rdf-syntax-ns#"
   xmlns:svg="http://www.w3.org/2000/svg"
   xmlns="http://www.w3.org/2000/svg"
   xmlns:sodipodi="http://sodipodi.sourceforge.net/DTD/sodipodi-0.dtd"
   xmlns:inkscape="http://www.inkscape.org/namespaces/inkscape"
   version="1.1"
   id="svg8117"
   xml:space="preserve"
   width="445.56531"
   height="433.93332"
   viewBox="0 0 445.56532 433.93332"
   sodipodi:docname="Desconocido.svg"
   inkscape:version="0.92.4 5da689c313, 2019-01-14"><metadata
     id="metadata8123"><rdf:RDF><cc:Work
         rdf:about=""><dc:format>image/svg+xml</dc:format><dc:type
           rdf:resource="http://purl.org/dc/dcmitype/StillImage" /><dc:title></dc:title></cc:Work></rdf:RDF></metadata><defs
     id="defs8121"><clipPath
       clipPathUnits="userSpaceOnUse"
       id="clipPath8133"><path
         d="M 1,0 H 101 V 667 H 1 Z"
         id="path8131"
         inkscape:connector-curvature="0" /></clipPath><clipPath
       clipPathUnits="userSpaceOnUse"
       id="clipPath8149"><path
         d="M 1,0 H 80 V 667 H 1 Z"
         id="path8147"
         inkscape:connector-curvature="0" /></clipPath><clipPath
       clipPathUnits="userSpaceOnUse"
       id="clipPath8181"><path
         d="M 0,768 H 1366 V 0 H 0 Z"
         id="path8179"
         inkscape:connector-curvature="0" /></clipPath><clipPath
       clipPathUnits="userSpaceOnUse"
       id="clipPath8241"><path
         d="m 1209,752 h 94 v -94 h -94 z"
         id="path8239"
         inkscape:connector-curvature="0" /></clipPath><clipPath
       clipPathUnits="userSpaceOnUse"
       id="clipPath8257"><path
         d="M 0,768 H 1366 V 0 H 0 Z"
         id="path8255"
         inkscape:connector-curvature="0" /></clipPath><clipPath
       clipPathUnits="userSpaceOnUse"
       id="clipPath8265"><path
         d="M 823.314,558.657 H 1126.49 V 263.271 H 823.314 Z"
         id="path8263"
         inkscape:connector-curvature="0" /></clipPath><clipPath
       clipPathUnits="userSpaceOnUse"
       id="clipPath8281"><path
         d="M 291,555.539 H 594.177 V 260.154 H 291 Z"
         id="path8279"
         inkscape:connector-curvature="0" /></clipPath><clipPath
       clipPathUnits="userSpaceOnUse"
       id="clipPath8301"><path
         d="m 598.281,520.489 h 209.58 V 304 h -209.58 z"
         id="path8299"
         inkscape:connector-curvature="0" /></clipPath><clipPath
       clipPathUnits="userSpaceOnUse"
       id="clipPath8321"><path
         d="m 689.495,492.2 h 61.487 v 25.225 h -61.487 z"
         id="path8319"
         inkscape:connector-curvature="0" /></clipPath><clipPath
       clipPathUnits="userSpaceOnUse"
       id="clipPath8333"><path
         d="M 0,768 H 1366 V 0 H 0 Z"
         id="path8331"
         inkscape:connector-curvature="0" /></clipPath><clipPath
       clipPathUnits="userSpaceOnUse"
       id="clipPath8357"><path
         d="m 714.72,492.2 h 25.225 v 25.225 H 714.72 Z"
         id="path8355"
         inkscape:connector-curvature="0" /></clipPath><clipPath
       clipPathUnits="userSpaceOnUse"
       id="clipPath8369"><path
         d="M 0,768 H 1366 V 0 H 0 Z"
         id="path8367"
         inkscape:connector-curvature="0" /></clipPath><clipPath
       clipPathUnits="userSpaceOnUse"
       id="clipPath8419"><path
         d="M 0,768 H 1366 V 0 H 0 Z"
         id="path8417"
         inkscape:connector-curvature="0" /></clipPath><clipPath
       clipPathUnits="userSpaceOnUse"
       id="clipPath8427"><path
         d="M 879.281,522.489 H 1088.86 V 306 H 879.281 Z"
         id="path8425"
         inkscape:connector-curvature="0" /></clipPath><clipPath
       clipPathUnits="userSpaceOnUse"
       id="clipPath8443"><path
         d="M 928.425,497 H 1041.19 V 350.042 H 928.425 Z"
         id="path8441"
         inkscape:connector-curvature="0" /></clipPath><clipPath
       clipPathUnits="userSpaceOnUse"
       id="clipPath8447"><path
         d="m 1018.44,495.4 h -62.382 v -25.593 h 62.382 z"
         id="path8445"
         inkscape:connector-curvature="0" /></clipPath><clipPath
       clipPathUnits="userSpaceOnUse"
       id="clipPath8451"><path
         d="m 981.651,469.808 h 25.592 V 495.4 h -25.592 z"
         id="path8449"
         inkscape:connector-curvature="0" /></clipPath><clipPath
       clipPathUnits="userSpaceOnUse"
       id="clipPath8503"><path
         d="M 332.164,479.468 H 510.435 V 338.222 H 332.164 Z"
         id="path8501"
         inkscape:connector-curvature="0" /></clipPath><clipPath
       clipPathUnits="userSpaceOnUse"
       id="clipPath8507"><path
         d="M 510.435,338.222 H 369.19 v 141.245 h 141.245 z"
         id="path8505"
         inkscape:connector-curvature="0" /></clipPath><clipPath
       clipPathUnits="userSpaceOnUse"
       id="clipPath8531"><path
         d="M 328.281,522.489 H 530 V 314.12 H 328.281 Z"
         id="path8529"
         inkscape:connector-curvature="0" /></clipPath></defs><sodipodi:namedview
     pagecolor="#ffffff"
     bordercolor="#666666"
     borderopacity="1"
     objecttolerance="10"
     gridtolerance="10"
     guidetolerance="10"
     inkscape:pageopacity="0"
     inkscape:pageshadow="2"
     inkscape:window-width="1366"
     inkscape:window-height="715"
     id="namedview8119"
     showgrid="false"
     fit-margin-top="0.3"
     fit-margin-bottom="0.3"
     fit-margin-left="0.4"
     fit-margin-right="0.4"
     inkscape:zoom="0.34260616"
     inkscape:cx="142.48534"
     inkscape:cy="106.66828"
     inkscape:window-x="0"
     inkscape:window-y="0"
     inkscape:window-maximized="1"
     inkscape:current-layer="g8125" /><g
     id="g8125"
     inkscape:groupmode="layer"
     inkscape:label="Falsos"
     transform="matrix(1.3333333,0,0,-1.3333333,-714.93745,766.96665)"><g
       clip-path="url(#clipPath8257)"
       id="g8253"><g
         id="g8259"><g
           id="g8261" /></g><g
         id="g8275"><g
           id="g8277" /></g><g
         transform="translate(813.3721,250)"
         id="g8291"><path
           inkscape:connector-curvature="0"
           id="path8293"
           style="fill:#f8b238;fill-opacity:1;fill-rule:nonzero;stroke:none"
           d="m 0,0 h -220.164 c -31.317,0 -56.705,25.387 -56.705,56.705 v 211.59 c 0,31.318 25.388,56.705 56.705,56.705 H 0 c 31.317,0 56.705,-25.387 56.705,-56.705 V 56.705 C 56.705,25.387 31.317,0 0,0" /></g><g
         id="g8295"><g
           id="g8297" /><g
           id="g8309"><g
             style="opacity:0.25999505"
             id="g8307"
             clip-path="url(#clipPath8301)"><g
               id="g8305"
               transform="translate(807.8604,412.2446)"><path
                 inkscape:connector-curvature="0"
                 id="path8303"
                 style="fill:#ffffff;fill-opacity:1;fill-rule:nonzero;stroke:none"
                 d="m 0,0 c 0,-59.782 -46.916,-108.245 -104.79,-108.245 -57.874,0 -104.79,48.463 -104.79,108.245 0,59.782 46.916,108.244 104.79,108.244 C -46.916,108.244 0,59.782 0,0" /></g></g></g></g><path
         inkscape:connector-curvature="0"
         id="path8311"
         style="fill:#f7931e;fill-opacity:1;fill-rule:nonzero;stroke:none"
         d="M 663.522,471.161 H 773.405 V 405.412 H 663.522 Z" /><path
         inkscape:connector-curvature="0"
         id="path8313"
         style="fill:#fbb03b;fill-opacity:1;fill-rule:nonzero;stroke:none"
         d="m 662.258,471.161 h 48.529 v -65.749 h -48.529 z" /></g><g
       id="g8315"><g
         id="g8317"
         clip-path="url(#clipPath8321)"><g
           id="g8323"
           transform="translate(737.8057,492.2)"><path
             d="m 0,0 c 0,10.449 -9.832,18.919 -21.959,18.919 -12.128,0 -21.96,-8.47 -21.96,-18.919 0,-10.449 9.832,-18.919 21.96,-18.919 C -9.832,-18.919 0,-10.449 0,0 Z"
             style="fill:none;stroke:#f99273;stroke-width:3;stroke-linecap:butt;stroke-linejoin:miter;stroke-miterlimit:10;stroke-dasharray:none;stroke-opacity:1"
             id="path8325"
             inkscape:connector-curvature="0" /></g></g></g><g
       id="g8327"><g
         id="g8329"
         clip-path="url(#clipPath8333)"><g
           id="g8335"
           transform="translate(737.8057,446.4792)"><path
             d="m 0,0 v 44.172 1.549"
             style="fill:none;stroke:#f37e53;stroke-width:3;stroke-linecap:butt;stroke-linejoin:miter;stroke-miterlimit:10;stroke-dasharray:none;stroke-opacity:1"
             id="path8337"
             inkscape:connector-curvature="0" /></g><g
           id="g8339"
           transform="translate(694.2246,446.4792)"><path
             d="m 0,0 v 44.172 1.549"
             style="fill:none;stroke:#f99273;stroke-width:3;stroke-linecap:butt;stroke-linejoin:miter;stroke-miterlimit:10;stroke-dasharray:none;stroke-opacity:1"
             id="path8341"
             inkscape:connector-curvature="0" /></g><g
           id="g8343"
           transform="translate(688.7065,447.2673)"><path
             d="M 0,0 H 11.036"
             style="fill:none;stroke:#f99273;stroke-width:3;stroke-linecap:butt;stroke-linejoin:miter;stroke-miterlimit:10;stroke-dasharray:none;stroke-opacity:1"
             id="path8345"
             inkscape:connector-curvature="0" /></g><g
           id="g8347"
           transform="translate(732.0625,447.2673)"><path
             d="M 0,0 H 11.036"
             style="fill:none;stroke:#f27e53;stroke-width:3;stroke-linecap:butt;stroke-linejoin:miter;stroke-miterlimit:10;stroke-dasharray:none;stroke-opacity:1"
             id="path8349"
             inkscape:connector-curvature="0" /></g></g></g><g
       id="g8351"><g
         id="g8353"
         clip-path="url(#clipPath8357)"><g
           id="g8359"
           transform="translate(737.8057,492.2)"><path
             d="m 0,0 c 0,10.449 -9.832,18.919 -21.959,18.919 -12.128,0 -21.96,-8.47 -21.96,-18.919 0,-10.449 9.832,-18.919 21.96,-18.919 C -9.832,-18.919 0,-10.449 0,0 Z"
             style="fill:none;stroke:#f37e53;stroke-width:3;stroke-linecap:butt;stroke-linejoin:miter;stroke-miterlimit:10;stroke-dasharray:none;stroke-opacity:1"
             id="path8361"
             inkscape:connector-curvature="0" /></g></g></g><g
       id="g8363"><g
         id="g8365"
         clip-path="url(#clipPath8369)"><path
           d="M 662.258,405.461 H 773.405 V 374.152 H 662.258 Z"
           style="fill:#f37e53;fill-opacity:1;fill-rule:nonzero;stroke:none"
           id="path8371"
           inkscape:connector-curvature="0" /><path
           d="m 669.167,400.981 h 41.584 v -26.829 h -41.584 z"
           style="fill:#f99273;fill-opacity:1;fill-rule:nonzero;stroke:none"
           id="path8373"
           inkscape:connector-curvature="0" /><g
           id="g8375"
           transform="translate(646.5684,331.5776)"><path
             d="m 0,0 c -1.917,0 -3.74,1.122 -4.543,2.996 l -19.763,46.112 c -0.516,1.205 -0.532,2.564 -0.046,3.781 0.487,1.216 1.437,2.19 2.642,2.706 l 18.163,7.784 c 2.508,1.075 5.412,-0.087 6.487,-2.595 L 22.703,14.672 c 0.516,-1.204 0.533,-2.565 0.046,-3.781 C 22.262,9.675 21.312,8.701 20.108,8.185 L 1.944,0.401 C 1.31,0.129 0.649,0 0,0"
             style="fill:#fe5857;fill-opacity:1;fill-rule:nonzero;stroke:none"
             id="path8377"
             inkscape:connector-curvature="0" /></g><g
           id="g8379"
           transform="translate(665.4019,339.363)"><path
             d="m 0,0 h 69.797 c 3.219,0 6.325,1.19 8.72,3.34 l 45.294,40.67 c 1.397,1.254 2.266,3.037 2.257,4.915 -0.065,13.826 -13.361,18.057 -20.903,11.482 L 70.946,30.582 C 70.47,30.167 69.861,29.939 69.23,29.939 H 32.809 l 6.253,22.508 -4.511,5.143 c -1.562,1.782 -3.387,3.329 -5.422,4.545 -16.756,10.017 -35.838,8.107 -49.139,-3.11 l -4.41,-3.72 z"
             style="fill:#ffc2aa;fill-opacity:1;fill-rule:nonzero;stroke:none"
             id="path8381"
             inkscape:connector-curvature="0" /></g><g
           id="g8383"
           transform="translate(741.3872,381.9822)"><path
             d="m 0,0 c 0,-7.003 -5.677,-12.68 -12.68,-12.68 h -37.347 c -1.278,0 -2.538,0.356 -3.49,1.066 -1.624,1.211 -2.115,3.092 -1.35,4.712 l 7.975,16.877 c 0.764,1.614 2.632,2.676 4.714,2.679 l 29.487,0.026 C -5.684,12.687 0,7.008 0,0"
             style="fill:#ffc2aa;fill-opacity:1;fill-rule:nonzero;stroke:none"
             id="path8385"
             inkscape:connector-curvature="0" /></g><g
           id="g8387"
           transform="translate(727.7271,394.6357)"><path
             d="m 0,0 -22.689,-0.02 v -25.314 h 22.54 c 5.476,0 10.567,3.379 12.196,8.607 C 14.766,-8 8.316,0.007 0,0"
             style="fill:#fab493;fill-opacity:1;fill-rule:nonzero;stroke:none"
             id="path8389"
             inkscape:connector-curvature="0" /></g><g
           id="g8391"
           transform="translate(769.2104,399.5242)"><path
             d="m 0,0 -33.282,-29.009 c -0.897,-0.782 -2.048,-1.213 -3.238,-1.213 h -27.652 v -29.939 h 24.645 c 6.079,0 11.943,2.246 16.466,6.307 l 39.683,35.631 c 5.686,5.106 5.523,14.305 -0.965,19.146 C 10.979,4.413 4.399,3.834 0,0"
             style="fill:#fab493;fill-opacity:1;fill-rule:nonzero;stroke:none"
             id="path8393"
             inkscape:connector-curvature="0" /></g><g
           id="g8395"
           transform="translate(691.2197,360.0896)"><path
             d="m 0,0 h 33.902 c 11.66,0 21.101,9.679 20.711,21.424 -0.004,0.002 -0.002,0.001 -0.006,0.003 L 41.988,10.428 C 41.088,9.644 39.936,9.212 38.742,9.212 H 0 Z"
             style="fill:#fab493;fill-opacity:1;fill-rule:nonzero;stroke:none"
             id="path8397"
             inkscape:connector-curvature="0" /></g><g
           id="g8399"
           transform="translate(730.5054,369.302)"><path
             d="M 0,0 H -25.467 V -9.212 H -4.84 c 11.659,0 21.101,9.679 20.711,21.423 -0.004,0.002 -0.002,10e-4 -0.007,0.003 L 3.246,1.216 C 2.346,0.432 1.193,0 0,0"
             style="fill:#f5a07d;fill-opacity:1;fill-rule:nonzero;stroke:none"
             id="path8401"
             inkscape:connector-curvature="0" /></g></g></g></g></svg>