<?xml version="1.0" encoding="UTF-8" standalone="no"?>
<!-- Created with Inkscape (http://www.inkscape.org/) -->

<svg
   xmlns:dc="http://purl.org/dc/elements/1.1/"
   xmlns:cc="http://creativecommons.org/ns#"
   xmlns:rdf="http://www.w3.org/1999/02/22-rdf-syntax-ns#"
   xmlns:svg="http://www.w3.org/2000/svg"
   xmlns="http://www.w3.org/2000/svg"
   xmlns:sodipodi="http://sodipodi.sourceforge.net/DTD/sodipodi-0.dtd"
   xmlns:inkscape="http://www.inkscape.org/namespaces/inkscape"
   version="1.1"
   id="svg5455"
   xml:space="preserve"
   width="560.26215"
   height="125.93333"
   viewBox="0 0 560.26216 125.93333"
   sodipodi:docname="Falsoicono.svg"
   inkscape:version="0.92.4 5da689c313, 2019-01-14"><metadata
     id="metadata5461"><rdf:RDF><cc:Work
         rdf:about=""><dc:format>image/svg+xml</dc:format><dc:type
           rdf:resource="http://purl.org/dc/dcmitype/StillImage" /><dc:title></dc:title></cc:Work></rdf:RDF></metadata><defs
     id="defs5459"><clipPath
       clipPathUnits="userSpaceOnUse"
       id="clipPath5519"><path
         d="M 0,768 H 1366 V 0 H 0 Z"
         id="path5517"
         inkscape:connector-curvature="0" /></clipPath><clipPath
       clipPathUnits="userSpaceOnUse"
       id="clipPath5579"><path
         d="m 1209,752 h 94 v -94 h -94 z"
         id="path5577"
         inkscape:connector-curvature="0" /></clipPath></defs><sodipodi:namedview
     pagecolor="#ffffff"
     bordercolor="#666666"
     borderopacity="1"
     objecttolerance="10"
     gridtolerance="10"
     guidetolerance="10"
     inkscape:pageopacity="0"
     inkscape:pageshadow="2"
     inkscape:window-width="1366"
     inkscape:window-height="715"
     id="namedview5457"
     showgrid="false"
     fit-margin-top="0.3"
     fit-margin-left="0.4"
     fit-margin-right="0.4"
     fit-margin-bottom="0.3"
     inkscape:zoom="0.34260616"
     inkscape:cx="-334.56942"
     inkscape:cy="-305.76265"
     inkscape:window-x="0"
     inkscape:window-y="0"
     inkscape:window-maximized="1"
     inkscape:current-layer="g5463" /><g
     id="g5463"
     inkscape:groupmode="layer"
     inkscape:label="Falsos"
     transform="matrix(1.3333333,0,0,-1.3333333,-1177.4712,1002.9666)"><text
       transform="matrix(1,0,0,-1,878.7368,687.2598)"
       style="font-variant:normal;font-weight:300;font-stretch:normal;font-size:47.5481987px;font-family:'Helvetica Light';-inkscape-font-specification:Helvetica-Light;writing-mode:lr-tb;fill:#94c282;fill-opacity:1;fill-rule:nonzero;stroke:none"
       id="text5495"><tspan
         x="0 26.4368 52.8736 63.429298 87.2034 113.6402 137.41429 150.63269 179.68465 206.12144 221.955 251.00694 277.44376"
         y="0"
         sodipodi:role="line"
         id="tspan5493">Falsos Verdes</tspan></text>
<g
       id="g5505"
       transform="translate(1275.7344,706.4551)"><path
         d="M 0,0 -1.482,3.305 -17.863,-1.038 V 12.67 h -4.546 V -1.038 L -38.79,3.305 -40.271,0 -22.409,-4.736 v -25.55 h 4.546 v 25.55 z"
         style="fill:#4d9b2c;fill-opacity:1;fill-rule:nonzero;stroke:none"
         id="path5507"
         inkscape:connector-curvature="0" /></g><g
       id="g5509"
       transform="translate(1275.5852,706.4551)"><path
         d="m 0,0 -1.463,3.305 -16.18,-4.343 V 12.67 h -2.244 v -42.956 h 2.244 v 25.55 z"
         style="fill:#306318;fill-opacity:1;fill-rule:nonzero;stroke:none"
         id="path5511"
         inkscape:connector-curvature="0" /></g><g
       id="g5513"><g
         id="g5515"
         clip-path="url(#clipPath5519)"><g
           id="g5521"
           transform="translate(1256.9209,713.6133)"><path
             d="m 0,0 -1.573,-0.792 -1.579,0.775 c -0.233,0.116 -3.761,1.881 -6.651,5.33 -1.698,2.027 -3.178,4.637 -3.637,7.834 -0.891,6.203 2.244,12.631 9.32,19.11 l 2.368,2.166 2.388,-2.145 C 7.777,25.874 10.979,19.478 10.151,13.266 8.999,4.622 0.365,0.186 0,0"
             style="fill:#ceeabe;fill-opacity:1;fill-rule:nonzero;stroke:none"
             id="path5523"
             inkscape:connector-curvature="0" /></g><g
           id="g5525"
           transform="translate(1257.2708,713.6133)"><path
             d="M 0,0 -1.573,-0.792 -1.752,34.423 0.636,32.278 C 7.777,25.874 10.979,19.478 10.151,13.266 8.999,4.622 0.365,0.186 0,0"
             style="fill:#94c282;fill-opacity:1;fill-rule:nonzero;stroke:none"
             id="path5527"
             inkscape:connector-curvature="0" /></g><g
           id="g5529"
           transform="translate(1261.6091,702.6748)"><path
             d="m 0,0 -1.332,1.152 0.113,1.755 c 0.018,0.259 0.303,4.194 2.387,8.182 1.225,2.343 3.073,4.707 5.853,6.352 5.392,3.191 12.531,2.748 21.22,-1.32 l 2.906,-1.361 -1.07,-3.026 C 26.884,2.689 22.194,-2.713 16.137,-4.318 7.707,-6.553 0.311,-0.267 0,0"
             style="fill:#ceeabe;fill-opacity:1;fill-rule:nonzero;stroke:none"
             id="path5531"
             inkscape:connector-curvature="0" /></g><g
           id="g5533"
           transform="translate(1261.6091,702.6748)"><path
             d="M 0,0 -1.332,1.152 31.147,14.76 30.077,11.734 C 26.884,2.688 22.194,-2.713 16.136,-4.318 7.707,-6.553 0.311,-0.267 0,0"
             style="fill:#94c282;fill-opacity:1;fill-rule:nonzero;stroke:none"
             id="path5535"
             inkscape:connector-curvature="0" /></g><g
           id="g5537"
           transform="translate(1251.053,705.5657)"><path
             d="m 0,0 -0.107,-1.758 -1.464,-0.975 c -0.217,-0.142 -3.518,-2.303 -7.953,-3.066 -2.606,-0.448 -5.606,-0.413 -8.6,0.799 -5.808,2.35 -9.787,8.294 -11.825,17.669 l -0.681,3.136 3.055,0.986 c 9.127,2.949 16.266,2.498 21.217,-1.343 C 0.534,10.103 0.023,0.409 0,0"
             style="fill:#ceeabe;fill-opacity:1;fill-rule:nonzero;stroke:none"
             id="path5539"
             inkscape:connector-curvature="0" /></g><g
           id="g5541"
           transform="translate(1251.053,705.5657)"><path
             d="m 0,0 -0.107,-1.758 -30.523,17.563 3.055,0.986 c 9.127,2.949 16.266,2.498 21.217,-1.343 C 0.534,10.103 0.023,0.409 0,0"
             style="fill:#94c282;fill-opacity:1;fill-rule:nonzero;stroke:none"
             id="path5543"
             inkscape:connector-curvature="0" /></g><g
           id="g5545"
           transform="translate(1273.9553,682.4541)"><path
             d="M 0,0 -34.42,-12.606 -39.928,2.624 -5.507,15.23 Z"
             style="fill:#ffffff;fill-opacity:1;fill-rule:nonzero;stroke:none"
             id="path5547"
             inkscape:connector-curvature="0" /></g><g
           id="g5549"
           transform="translate(1239.5349,668.6057)"><path
             d="m 0,0 c -0.18,0 -0.359,0.039 -0.525,0.116 -0.3,0.14 -0.531,0.393 -0.643,0.704 l -5.508,15.23 c -0.232,0.643 0.099,1.354 0.741,1.589 l 34.421,12.606 c 0.31,0.114 0.653,0.099 0.952,-0.04 0.3,-0.14 0.531,-0.393 0.644,-0.704 l 5.507,-15.23 C 35.822,13.627 35.49,12.917 34.848,12.682 L 0.427,0.076 C 0.289,0.025 0.145,0 0,0"
             style="fill:#ce0202;fill-opacity:1;fill-rule:nonzero;stroke:none"
             id="path5551"
             inkscape:connector-curvature="0" /></g><g
           id="g5553"
           transform="translate(1255.698,690.1597)"><path
             d="m 0,0 v 4.208 l -22.177,-8.123 c -0.643,-0.235 -0.974,-0.946 -0.741,-1.589 l 5.509,-15.237 c 0.031,-0.084 0.066,-0.168 0.116,-0.242 0.254,-0.379 0.651,-0.571 1.05,-0.571 0.145,0 0.289,0.025 0.428,0.076 L 0,-15.686 Z"
             style="fill:#fe5857;fill-opacity:1;fill-rule:nonzero;stroke:none"
             id="path5555"
             inkscape:connector-curvature="0" /></g><g
           id="g5557"
           transform="translate(1240.3645,682.6829)"><path
             d="M 0,0 C -0.128,0.351 0.181,0.663 0.555,0.799 L 4.364,2.185 C 4.726,2.317 5.019,1.988 5.147,1.637 5.295,1.231 5.236,0.812 4.907,0.692 l -2.843,-1.035 0.675,-1.855 1.657,0.604 c 0.33,0.119 0.632,-0.131 0.76,-0.482 0.108,-0.297 0.082,-0.704 -0.28,-0.835 L 3.219,-3.515 4.249,-6.347 C 4.377,-6.698 4.013,-7.029 3.585,-7.185 3.157,-7.341 2.665,-7.321 2.537,-6.97 Z"
             style="fill:#ffffff;fill-opacity:1;fill-rule:nonzero;stroke:none"
             id="path5559"
             inkscape:connector-curvature="0" /></g><g
           id="g5561"
           transform="translate(1250.8013,681.3975)"><path
             d="m 0,0 -1.872,2.65 0.269,-3.233 z m -3.145,-3.755 c -0.012,0.033 -0.017,0.081 -0.022,0.129 l -0.396,7.438 c -0.019,0.428 0.407,0.795 0.912,0.978 0.505,0.184 1.067,0.177 1.327,-0.163 l 4.49,-5.948 C 3.193,-1.361 3.22,-1.401 3.232,-1.434 3.379,-1.84 2.862,-2.364 2.39,-2.536 2.115,-2.636 1.864,-2.628 1.714,-2.421 l -0.872,1.236 -2.316,-0.843 0.126,-1.508 c 0.018,-0.255 -0.17,-0.422 -0.444,-0.522 -0.472,-0.172 -1.206,-0.103 -1.353,0.303"
             style="fill:#ffffff;fill-opacity:1;fill-rule:nonzero;stroke:none"
             id="path5563"
             inkscape:connector-curvature="0" /></g><g
           id="g5565"
           transform="translate(1252.7412,687.2)"><path
             d="M 0,0 C -0.132,0.362 0.24,0.672 0.668,0.827 1.096,0.983 1.58,0.985 1.712,0.623 L 2.671,-2.011 3.665,1.645 C 3.722,1.864 3.851,1.986 4.027,2.05 4.466,2.21 5.2,1.968 5.356,1.539 5.388,1.451 5.41,1.323 5.366,1.17 L 4.389,-1.746 7.928,-4.399 C 8.015,-4.466 8.083,-4.553 8.119,-4.652 8.275,-5.08 7.893,-5.704 7.399,-5.884 7.169,-5.968 6.917,-5.96 6.691,-5.781 L 3.775,-3.611 3.53,-4.371 4.253,-6.358 C 4.381,-6.709 4.017,-7.04 3.588,-7.196 3.16,-7.352 2.668,-7.332 2.541,-6.981 Z"
             style="fill:#ffffff;fill-opacity:1;fill-rule:nonzero;stroke:none"
             id="path5567"
             inkscape:connector-curvature="0" /></g><g
           id="g5569"
           transform="translate(1262.2449,687.4521)"><path
             d="m 0,0 1.646,0.599 c 0.33,0.12 0.632,-0.13 0.76,-0.482 0.108,-0.296 0.082,-0.703 -0.28,-0.835 L 0.479,-1.317 1.159,-3.183 4.1,-2.113 C 4.429,-1.993 4.744,-2.276 4.892,-2.682 5.02,-3.033 5.006,-3.473 4.644,-3.605 L 0.736,-5.028 c -0.373,-0.135 -0.81,-0.096 -0.938,0.256 l -2.537,6.97 c -0.128,0.351 0.182,0.662 0.555,0.798 L 1.723,4.418 C 2.085,4.55 2.379,4.222 2.507,3.871 2.655,3.465 2.596,3.045 2.267,2.926 L -0.675,1.855 Z"
             style="fill:#ffffff;fill-opacity:1;fill-rule:nonzero;stroke:none"
             id="path5571"
             inkscape:connector-curvature="0" /></g><g
           id="g5573"><g
             id="g5575" /><g
             id="g5587"><g
               clip-path="url(#clipPath5579)"
               id="g5585"
               style="opacity:0.25999505"><g
                 transform="translate(1303,705)"
                 id="g5583"><path
                   d="m 0,0 c 0,-25.957 -21.043,-47 -47,-47 -25.957,0 -47,21.043 -47,47 0,25.957 21.043,47 47,47 C -21.043,47 0,25.957 0,0"
                   style="fill:#ffffff;fill-opacity:1;fill-rule:nonzero;stroke:none"
                   id="path5581"
                   inkscape:connector-curvature="0" /></g></g></g></g></g></g></g></svg>