<?xml version="1.0" encoding="UTF-8" standalone="no"?>
<!-- Created with Inkscape (http://www.inkscape.org/) -->

<svg
   xmlns:dc="http://purl.org/dc/elements/1.1/"
   xmlns:cc="http://creativecommons.org/ns#"
   xmlns:rdf="http://www.w3.org/1999/02/22-rdf-syntax-ns#"
   xmlns:svg="http://www.w3.org/2000/svg"
   xmlns="http://www.w3.org/2000/svg"
   xmlns:sodipodi="http://sodipodi.sourceforge.net/DTD/sodipodi-0.dtd"
   xmlns:inkscape="http://www.inkscape.org/namespaces/inkscape"
   version="1.1"
   id="svg4994"
   xml:space="preserve"
   width="604.97601"
   height="885.37494"
   viewBox="0 0 604.97603 885.37494"
   sodipodi:docname="Falsos.svg"
   inkscape:version="0.92.4 5da689c313, 2019-01-14"><metadata
     id="metadata5000"><rdf:RDF><cc:Work
         rdf:about=""><dc:format>image/svg+xml</dc:format><dc:type
           rdf:resource="http://purl.org/dc/dcmitype/StillImage" /><dc:title></dc:title></cc:Work></rdf:RDF></metadata><defs
     id="defs4998"><clipPath
       clipPathUnits="userSpaceOnUse"
       id="clipPath5010"><path
         d="M 0,768 H 1366 V 0 H 0 Z"
         id="path5008"
         inkscape:connector-curvature="0" /></clipPath><clipPath
       clipPathUnits="userSpaceOnUse"
       id="clipPath5022"><path
         d="M 30,0 H 218 V 668 H 30 Z"
         id="path5020"
         inkscape:connector-curvature="0" /></clipPath><clipPath
       clipPathUnits="userSpaceOnUse"
       id="clipPath5034"><path
         d="M 0,1 H 188 V 671 H 0 Z"
         id="path5032"
         inkscape:connector-curvature="0" /></clipPath><clipPath
       clipPathUnits="userSpaceOnUse"
       id="clipPath5072"><path
         d="M 0,768 H 1366 V 0 H 0 Z"
         id="path5070"
         inkscape:connector-curvature="0" /></clipPath><clipPath
       clipPathUnits="userSpaceOnUse"
       id="clipPath5084"><path
         d="M 83,219.5 C 83,213.701 87.701,209 93.5,209 v 0 c 5.799,0 10.5,4.701 10.5,10.5 v 0 c 0,5.799 -4.701,10.5 -10.5,10.5 v 0 C 87.701,230 83,225.299 83,219.5"
         id="path5082"
         inkscape:connector-curvature="0" /></clipPath><clipPath
       clipPathUnits="userSpaceOnUse"
       id="clipPath5094"><path
         d="M 65,226.5 C 65,220.701 69.701,216 75.5,216 v 0 c 5.799,0 10.5,4.701 10.5,10.5 v 0 c 0,5.799 -4.701,10.5 -10.5,10.5 v 0 C 69.701,237 65,232.299 65,226.5"
         id="path5092"
         inkscape:connector-curvature="0" /></clipPath><clipPath
       clipPathUnits="userSpaceOnUse"
       id="clipPath5104"><path
         d="M 46,219.5 C 46,213.701 50.701,209 56.5,209 v 0 c 5.799,0 10.5,4.701 10.5,10.5 v 0 c 0,5.799 -4.701,10.5 -10.5,10.5 v 0 C 50.701,230 46,225.299 46,219.5"
         id="path5102"
         inkscape:connector-curvature="0" /></clipPath><clipPath
       clipPathUnits="userSpaceOnUse"
       id="clipPath5114"><path
         d="M 0,768 H 1366 V 0 H 0 Z"
         id="path5112"
         inkscape:connector-curvature="0" /></clipPath><clipPath
       clipPathUnits="userSpaceOnUse"
       id="clipPath5232"><path
         d="M 0,768 H 1366 V 0 H 0 Z"
         id="path5230"
         inkscape:connector-curvature="0" /></clipPath><clipPath
       clipPathUnits="userSpaceOnUse"
       id="clipPath5252"><path
         d="M 0,768 H 1366 V 0 H 0 Z"
         id="path5250"
         inkscape:connector-curvature="0" /></clipPath><clipPath
       clipPathUnits="userSpaceOnUse"
       id="clipPath5264"><path
         d="m 814,0 h 469.001 V 392 H 814 Z"
         id="path5262"
         inkscape:connector-curvature="0" /></clipPath><clipPath
       clipPathUnits="userSpaceOnUse"
       id="clipPath5276"><path
         d="M 861.396,379.471 C 837.429,379.471 818,360.041 818,336.074 v 0 V 0 h 451 v 336.074 c 0,23.967 -19.429,43.397 -43.396,43.397 v 0 z"
         id="path5274"
         inkscape:connector-curvature="0" /></clipPath><clipPath
       clipPathUnits="userSpaceOnUse"
       id="clipPath5292"><path
         d="M 0,768 H 1366 V 0 H 0 Z"
         id="path5290"
         inkscape:connector-curvature="0" /></clipPath><clipPath
       clipPathUnits="userSpaceOnUse"
       id="clipPath5360"><path
         d="m 846,577 h 395 V 182 H 846 Z"
         id="path5358"
         inkscape:connector-curvature="0" /></clipPath><clipPath
       clipPathUnits="userSpaceOnUse"
       id="clipPath5376"><path
         d="m 1583,0 h -100 v 667 h 100 z"
         id="path5374"
         inkscape:connector-curvature="0" /></clipPath><clipPath
       clipPathUnits="userSpaceOnUse"
       id="clipPath5384"><path
         d="M 1614,-377 H 1483 V 689 h 131 z"
         id="path5382"
         inkscape:connector-curvature="0" /></clipPath><clipPath
       clipPathUnits="userSpaceOnUse"
       id="clipPath5392"><path
         d="m 1562,0 h -188 v 670 h 188 z"
         id="path5390"
         inkscape:connector-curvature="0" /></clipPath><clipPath
       clipPathUnits="userSpaceOnUse"
       id="clipPath5420"><rect
         style="fill:#ffffff;stroke-width:0.75"
         id="rect5422"
         width="454.97998"
         height="664.4126"
         x="816.15204"
         y="-665.38458"
         transform="scale(1,-1)" /></clipPath><clipPath
       clipPathUnits="userSpaceOnUse"
       id="clipPath5424"><rect
         style="fill:#ffffff;stroke-width:0.80170023"
         id="rect5426"
         width="454.97998"
         height="759.17047"
         x="-113.17076"
         y="-643.07245" /></clipPath><clipPath
       clipPathUnits="userSpaceOnUse"
       id="clipPath5428"><rect
         style="fill:#ffffff;stroke-width:0.75"
         id="rect5430"
         width="454.97998"
         height="664.4126"
         x="816.15204"
         y="-665.38458"
         transform="scale(1,-1)" /></clipPath><clipPath
       clipPathUnits="userSpaceOnUse"
       id="clipPath5432"><rect
         style="fill:#ffffff;stroke-width:0.75"
         id="rect5434"
         width="454.97998"
         height="664.4126"
         x="816.15204"
         y="-665.38458"
         transform="scale(1,-1)" /></clipPath></defs><sodipodi:namedview
     pagecolor="#ffffff"
     bordercolor="#666666"
     borderopacity="1"
     objecttolerance="10"
     gridtolerance="10"
     guidetolerance="10"
     inkscape:pageopacity="0"
     inkscape:pageshadow="2"
     inkscape:window-width="1366"
     inkscape:window-height="715"
     id="namedview4996"
     showgrid="false"
     fit-margin-top="0.3"
     fit-margin-bottom="0.3"
     fit-margin-right="0.4"
     fit-margin-left="0.4"
     inkscape:zoom="0.48451828"
     inkscape:cx="110.7028"
     inkscape:cy="459.02829"
     inkscape:window-x="0"
     inkscape:window-y="0"
     inkscape:window-maximized="1"
     inkscape:current-layer="g5002" /><g
     id="g5002"
     inkscape:groupmode="layer"
     inkscape:label="Falsos"
     transform="matrix(1.3333333,0,0,-1.3333333,-1090.2666,886.37091)"><g
       id="g5258"
       clip-path="url(#clipPath5432)"><g
         id="g5260"
         clip-path="url(#clipPath5264)"><g
           id="g5266"
           transform="translate(1225.6041,379.4705)"><path
             d="m 0,0 h -364.208 c -23.967,0 -43.396,-19.429 -43.396,-43.396 v -347.149 c 0,-23.967 19.429,-43.396 43.396,-43.396 H 0 c 23.967,0 43.396,19.429 43.396,43.396 V -43.396 C 43.396,-19.429 23.967,0 0,0"
             style="fill:#f8b238;fill-opacity:1;fill-rule:nonzero;stroke:none"
             id="path5268"
             inkscape:connector-curvature="0" /></g></g></g><g
       id="g5270"
       clip-path="url(#clipPath5428)"><g
         id="g5272"
         clip-path="url(#clipPath5276)"><path
           d="m 818,380.537 h 453.132 V 0.972 H 818 Z"
           style="fill:#f8b238;fill-opacity:1;fill-rule:nonzero;stroke:none"
           id="path5278"
           inkscape:connector-curvature="0" /></g></g><text
       transform="matrix(1,0,0,-0.87518235,929.3228,102.5789)"
       style="font-variant:normal;font-weight:500;font-stretch:normal;font-size:56.96469879px;font-family:Futura;-inkscape-font-specification:Futura-Medium;writing-mode:lr-tb;fill:#ffffff;fill-opacity:1;fill-rule:nonzero;stroke:none"
       id="text5284"
       clip-path="url(#clipPath5424)"><tspan
         x="0 26.118315 68.329155 93.752502 126.96292 177.88936 211.09979"
         y="0"
         sodipodi:role="line"
         id="tspan5280">FALSOS </tspan><tspan
         x="8.4307756 46.938911 79.12397 113.41672 154.77309 186.95815"
         y="68.357643"
         sodipodi:role="line"
         id="tspan5282">VERDES</tspan></text>
<g
       id="g5286"
       clip-path="url(#clipPath5420)"><g
         id="g5288"
         clip-path="url(#clipPath5292)"><g
           id="g5294"
           transform="translate(1126.4261,385.6147)"><path
             d="M 0,0 -6.226,13.89 -75.062,-4.361 V 53.243 H -94.164 V -4.361 L -163,13.89 -169.226,0 -94.164,-19.902 v -107.365 h 19.102 v 107.365 z"
             style="fill:#4d9b2c;fill-opacity:1;fill-rule:nonzero;stroke:none"
             id="path5296"
             inkscape:connector-curvature="0" /></g><g
           id="g5298"
           transform="translate(1125.7999,385.6147)"><path
             d="M 0,0 -6.149,13.89 -74.136,-4.361 v 57.604 h -9.433 v -180.51 h 9.433 v 107.365 z"
             style="fill:#306318;fill-opacity:1;fill-rule:nonzero;stroke:none"
             id="path5300"
             inkscape:connector-curvature="0" /></g><g
           id="g5302"
           transform="translate(1047.3695,415.6938)"><path
             d="m 0,0 -6.61,-3.325 -6.635,3.252 c -0.977,0.488 -15.803,7.906 -27.948,22.399 -7.136,8.516 -13.353,19.485 -15.282,32.922 -3.746,26.062 9.429,53.076 39.164,80.3 l 9.948,9.101 10.037,-9.011 C 32.681,108.728 46.137,81.847 42.656,55.746 37.815,19.421 1.534,0.78 0,0"
             style="fill:#ceeabe;fill-opacity:1;fill-rule:nonzero;stroke:none"
             id="path5304"
             inkscape:connector-curvature="0" /></g><g
           id="g5306"
           transform="translate(1048.8401,415.6938)"><path
             d="M 0,0 -6.61,-3.325 -7.363,144.649 2.674,135.638 C 32.681,108.728 46.137,81.847 42.656,55.746 37.815,19.421 1.534,0.78 0,0"
             style="fill:#94c282;fill-opacity:1;fill-rule:nonzero;stroke:none"
             id="path5308"
             inkscape:connector-curvature="0" /></g><g
           id="g5310"
           transform="translate(1067.0701,369.7288)"><path
             d="m 0,0 -5.597,4.84 0.474,7.376 c 0.077,1.09 1.274,17.623 10.032,34.381 5.146,9.847 12.911,19.779 24.595,26.692 22.657,13.41 52.654,11.547 89.169,-5.544 l 12.212,-5.721 -4.497,-12.716 C 112.971,11.299 93.262,-11.398 67.809,-18.143 32.387,-27.538 1.307,-1.121 0,0"
             style="fill:#ceeabe;fill-opacity:1;fill-rule:nonzero;stroke:none"
             id="path5312"
             inkscape:connector-curvature="0" /></g><g
           id="g5314"
           transform="translate(1067.0701,369.7288)"><path
             d="M 0,0 -5.597,4.84 130.884,62.023 126.387,49.307 C 112.971,11.298 93.262,-11.399 67.808,-18.144 32.387,-27.538 1.307,-1.121 0,0"
             style="fill:#94c282;fill-opacity:1;fill-rule:nonzero;stroke:none"
             id="path5316"
             inkscape:connector-curvature="0" /></g><g
           id="g5318"
           transform="translate(1022.7122,381.877)"><path
             d="m 0,0 -0.451,-7.386 -6.151,-4.098 c -0.913,-0.599 -14.783,-9.679 -33.418,-12.884 -10.951,-1.883 -23.558,-1.737 -36.14,3.357 -24.407,9.874 -41.125,34.852 -49.692,74.247 l -2.86,13.178 12.837,4.142 C -77.522,82.95 -47.52,81.054 -26.716,64.913 2.242,42.453 0.097,1.72 0,0"
             style="fill:#ceeabe;fill-opacity:1;fill-rule:nonzero;stroke:none"
             id="path5320"
             inkscape:connector-curvature="0" /></g><g
           id="g5322"
           transform="translate(1022.7122,381.877)"><path
             d="m 0,0 -0.451,-7.386 -128.261,73.8 12.837,4.142 C -77.522,82.95 -47.52,81.054 -26.716,64.913 2.242,42.453 0.097,1.72 0,0"
             style="fill:#94c282;fill-opacity:1;fill-rule:nonzero;stroke:none"
             id="path5324"
             inkscape:connector-curvature="0" /></g><g
           id="g5326"
           transform="translate(1118.9501,284.7595)"><path
             d="m 0,0 -144.638,-52.972 -23.143,63.999 144.639,52.972 z"
             style="fill:#ffffff;fill-opacity:1;fill-rule:nonzero;stroke:none"
             id="path5328"
             inkscape:connector-curvature="0" /></g><g
           id="g5330"
           transform="translate(974.3118,226.5662)"><path
             d="M 0,0 C -0.755,0 -1.509,0.164 -2.207,0.489 -3.465,1.076 -4.438,2.14 -4.911,3.446 l -23.141,63.999 c -0.978,2.703 0.414,5.689 3.114,6.678 l 144.639,52.972 c 1.304,0.478 2.744,0.416 4.002,-0.17 1.259,-0.588 2.232,-1.652 2.704,-2.957 l 23.142,-63.999 c 0.978,-2.704 -0.415,-5.69 -3.115,-6.679 L 1.796,0.318 C 1.215,0.105 0.607,0 0,0"
             style="fill:#ce0202;fill-opacity:1;fill-rule:nonzero;stroke:none"
             id="path5332"
             inkscape:connector-curvature="0" /></g><g
           id="g5334"
           transform="translate(1042.2305,317.1387)"><path
             d="m 0,0 v 17.681 l -93.191,-34.13 c -2.7,-0.989 -4.093,-3.975 -3.115,-6.679 l 23.153,-64.03 c 0.128,-0.353 0.275,-0.702 0.484,-1.014 1.069,-1.594 2.738,-2.401 4.415,-2.401 0.607,0 1.215,0.106 1.796,0.319 L 0,-65.914 Z"
             style="fill:#fe5857;fill-opacity:1;fill-rule:nonzero;stroke:none"
             id="path5336"
             inkscape:connector-curvature="0" /></g><g
           id="g5338"
           transform="translate(977.798,285.7205)"><path
             d="M 0,0 C -0.537,1.476 0.762,2.785 2.33,3.356 L 18.335,9.181 C 19.857,9.735 21.091,8.355 21.628,6.879 22.249,5.173 22.002,3.411 20.619,2.908 L 8.673,-1.44 11.51,-9.235 18.475,-6.7 c 1.383,0.503 2.654,-0.549 3.191,-2.024 0.454,-1.246 0.345,-2.956 -1.177,-3.51 l -6.965,-2.535 4.331,-11.9 c 0.537,-1.476 -0.993,-2.869 -2.792,-3.524 -1.798,-0.654 -3.866,-0.571 -4.403,0.905 z"
             style="fill:#ffffff;fill-opacity:1;fill-rule:nonzero;stroke:none"
             id="path5340"
             inkscape:connector-curvature="0" /></g><g
           id="g5342"
           transform="translate(1021.6541,280.3191)"><path
             d="m 0,0 -7.866,11.136 1.132,-13.587 z m -13.217,-15.78 c -0.05,0.139 -0.071,0.34 -0.093,0.541 l -1.661,31.258 c -0.08,1.799 1.71,3.338 3.832,4.111 2.122,0.772 4.482,0.743 5.577,-0.686 L 13.303,-5.552 c 0.114,-0.168 0.227,-0.336 0.277,-0.474 0.621,-1.706 -1.554,-3.909 -3.538,-4.631 -1.153,-0.42 -2.21,-0.386 -2.839,0.482 l -3.666,5.194 -9.732,-3.542 0.53,-6.336 c 0.076,-1.069 -0.712,-1.774 -1.865,-2.194 -1.984,-0.722 -5.066,-0.433 -5.687,1.273"
             style="fill:#ffffff;fill-opacity:1;fill-rule:nonzero;stroke:none"
             id="path5344"
             inkscape:connector-curvature="0" /></g><g
           id="g5346"
           transform="translate(1029.8057,304.7017)"><path
             d="M 0,0 C -0.554,1.522 1.01,2.823 2.808,3.478 4.607,4.132 6.641,4.141 7.195,2.619 L 11.224,-8.451 15.4,6.911 c 0.239,0.922 0.784,1.434 1.522,1.703 1.844,0.672 4.932,-0.346 5.586,-2.145 0.135,-0.369 0.227,-0.91 0.043,-1.552 L 18.445,-7.337 33.314,-18.483 c 0.365,-0.285 0.654,-0.65 0.805,-1.066 0.655,-1.798 -0.95,-4.419 -3.026,-5.175 -0.969,-0.353 -2.025,-0.319 -2.978,0.431 l -12.251,9.121 -1.031,-3.196 3.039,-8.348 c 0.537,-1.476 -0.993,-2.868 -2.792,-3.523 -1.799,-0.655 -3.866,-0.572 -4.403,0.905 z"
             style="fill:#ffffff;fill-opacity:1;fill-rule:nonzero;stroke:none"
             id="path5348"
             inkscape:connector-curvature="0" /></g><g
           id="g5350"
           transform="translate(1069.7419,305.7612)"><path
             d="M 0,0 6.918,2.518 C 8.303,3.021 9.573,1.969 10.11,0.494 10.564,-0.752 10.455,-2.463 8.933,-3.017 l -6.919,-2.518 2.855,-7.841 12.36,4.499 c 1.384,0.504 2.705,-0.686 3.327,-2.393 0.537,-1.476 0.479,-3.325 -1.044,-3.88 L 3.093,-21.126 c -1.568,-0.571 -3.405,-0.404 -3.942,1.073 l -10.66,29.288 c -0.537,1.475 0.762,2.785 2.33,3.356 l 16.42,5.976 c 1.522,0.554 2.755,-0.826 3.293,-2.302 0.621,-1.706 0.374,-3.468 -1.01,-3.971 L -2.837,7.795 Z"
             style="fill:#ffffff;fill-opacity:1;fill-rule:nonzero;stroke:none"
             id="path5352"
             inkscape:connector-curvature="0" /></g><g
           id="g5354"><g
             id="g5356" /><g
             id="g5368"><g
               clip-path="url(#clipPath5360)"
               id="g5366"
               style="opacity:0.25999505"><g
                 transform="translate(1241,379.5)"
                 id="g5364"><path
                   d="m 0,0 c 0,-109.076 -88.424,-197.5 -197.5,-197.5 -109.076,0 -197.5,88.424 -197.5,197.5 0,109.076 88.424,197.5 197.5,197.5 C -88.424,197.5 0,109.076 0,0"
                   style="fill:#ffffff;fill-opacity:1;fill-rule:nonzero;stroke:none"
                   id="path5362"
                   inkscape:connector-curvature="0" /></g></g></g></g><g
           id="g5370"><g
             id="g5372"
             clip-path="url(#clipPath5376)"><g
               id="g5378"><g
                 id="g5380"
                 clip-path="url(#clipPath5384)"><g
                   id="g5386"><g
                     id="g5388"
                     clip-path="url(#clipPath5392)"><g
                       id="g5394"
                       transform="translate(1483.6071,-33.5908)"><path
                         d="m 0,0 h -105.214 c -16.233,0 -29.393,13.16 -29.393,29.393 v 639.358 c 0,16.233 13.16,29.393 29.393,29.393 H 0 c 16.233,0 29.393,-13.16 29.393,-29.393 V 29.393 C 29.393,13.16 16.233,0 0,0"
                         style="fill:#4d9b2c;fill-opacity:1;fill-rule:nonzero;stroke:none"
                         id="path5396"
                         inkscape:connector-curvature="0" /></g></g></g></g></g></g></g></g></g></g></svg>