<?xml version="1.0" encoding="UTF-8" standalone="no"?>
<!-- Created with Inkscape (http://www.inkscape.org/) -->

<svg
   xmlns:dc="http://purl.org/dc/elements/1.1/"
   xmlns:cc="http://creativecommons.org/ns#"
   xmlns:rdf="http://www.w3.org/1999/02/22-rdf-syntax-ns#"
   xmlns:svg="http://www.w3.org/2000/svg"
   xmlns="http://www.w3.org/2000/svg"
   xmlns:sodipodi="http://sodipodi.sourceforge.net/DTD/sodipodi-0.dtd"
   xmlns:inkscape="http://www.inkscape.org/namespaces/inkscape"
   version="1.1"
   id="svg2"
   xml:space="preserve"
   width="48.117065"
   height="28.399872"
   viewBox="0 0 48.117067 28.399872"
   sodipodi:docname="Flecha.svg"
   inkscape:version="0.92.4 5da689c313, 2019-01-14"><metadata
     id="metadata8"><rdf:RDF><cc:Work
         rdf:about=""><dc:format>image/svg+xml</dc:format><dc:type
           rdf:resource="http://purl.org/dc/dcmitype/StillImage" /><dc:title></dc:title></cc:Work></rdf:RDF></metadata><defs
     id="defs6"><clipPath
       clipPathUnits="userSpaceOnUse"
       id="clipPath18"><path
         d="M 0,1 H 100 V 668 H 0 Z"
         id="path16"
         inkscape:connector-curvature="0" /></clipPath><clipPath
       clipPathUnits="userSpaceOnUse"
       id="clipPath34"><path
         d="M 0,1 H 79 V 668 H 0 Z"
         id="path32"
         inkscape:connector-curvature="0" /></clipPath><clipPath
       clipPathUnits="userSpaceOnUse"
       id="clipPath66"><path
         d="M 0,768 H 1366 V 0 H 0 Z"
         id="path64"
         inkscape:connector-curvature="0" /></clipPath><clipPath
       clipPathUnits="userSpaceOnUse"
       id="clipPath126"><path
         d="m 1208,753 h 94 v -94 h -94 z"
         id="path124"
         inkscape:connector-curvature="0" /></clipPath><clipPath
       clipPathUnits="userSpaceOnUse"
       id="clipPath142"><path
         d="m 1509,4 h -100 v 667 h 100 z"
         id="path140"
         inkscape:connector-curvature="0" /></clipPath><clipPath
       clipPathUnits="userSpaceOnUse"
       id="clipPath150"><path
         d="M 1540,-373 H 1409 V 693 h 131 z"
         id="path148"
         inkscape:connector-curvature="0" /></clipPath><clipPath
       clipPathUnits="userSpaceOnUse"
       id="clipPath158"><path
         d="m 1518,1 h -188 v 670 h 188 z"
         id="path156"
         inkscape:connector-curvature="0" /></clipPath><clipPath
       clipPathUnits="userSpaceOnUse"
       id="clipPath170"><path
         d="m 1488,4 h -188 v 670 h 188 z"
         id="path168"
         inkscape:connector-curvature="0" /></clipPath><clipPath
       clipPathUnits="userSpaceOnUse"
       id="clipPath188"><path
         d="M 0,768 H 1366 V 0 H 0 Z"
         id="path186"
         inkscape:connector-curvature="0" /></clipPath><clipPath
       clipPathUnits="userSpaceOnUse"
       id="clipPath196"><path
         d="m 830,544 h 428 V 127 H 830 Z"
         id="path194"
         inkscape:connector-curvature="0" /></clipPath><clipPath
       clipPathUnits="userSpaceOnUse"
       id="clipPath212"><path
         d="m 1027.57,86.1699 h 35.49 v -20.85 h -35.49 z"
         id="path210"
         inkscape:connector-curvature="0" /></clipPath><clipPath
       clipPathUnits="userSpaceOnUse"
       id="clipPath256"><path
         d="M 0,768 H 1366 V 0 H 0 Z"
         id="path254"
         inkscape:connector-curvature="0" /></clipPath><clipPath
       clipPathUnits="userSpaceOnUse"
       id="clipPath264"><path
         d="M 973.813,315.196 H 1146.64 V 296.585 H 973.813 Z"
         id="path262"
         inkscape:connector-curvature="0" /></clipPath><clipPath
       clipPathUnits="userSpaceOnUse"
       id="clipPath284"><path
         d="M 0,768 H 1366 V 0 H 0 Z"
         id="path282"
         inkscape:connector-curvature="0" /></clipPath><clipPath
       clipPathUnits="userSpaceOnUse"
       id="clipPath312"><path
         d="m 1058.896,216.82 h 114.329 v 226 h -114.329 z"
         id="path310"
         inkscape:connector-curvature="0" /></clipPath><clipPath
       clipPathUnits="userSpaceOnUse"
       id="clipPath324"><path
         d="M 973.813,315.196 H 1146.64 V 296.585 H 973.813 Z"
         id="path322"
         inkscape:connector-curvature="0" /></clipPath><clipPath
       clipPathUnits="userSpaceOnUse"
       id="clipPath364"><path
         d="M 0,768 H 1366 V 0 H 0 Z"
         id="path362"
         inkscape:connector-curvature="0" /></clipPath><clipPath
       clipPathUnits="userSpaceOnUse"
       id="clipPath372"><path
         d="m 916,483 h 285 V 198 H 916 Z"
         id="path370"
         inkscape:connector-curvature="0" /></clipPath></defs><sodipodi:namedview
     pagecolor="#ffffff"
     bordercolor="#666666"
     borderopacity="1"
     objecttolerance="10"
     gridtolerance="10"
     guidetolerance="10"
     inkscape:pageopacity="0"
     inkscape:pageshadow="2"
     inkscape:window-width="1366"
     inkscape:window-height="715"
     id="namedview4"
     showgrid="false"
     fit-margin-top="0.3"
     fit-margin-bottom="0.3"
     fit-margin-left="0.4"
     fit-margin-right="0.4"
     inkscape:zoom="0.34260616"
     inkscape:cx="-628.43888"
     inkscape:cy="515.06707"
     inkscape:window-x="0"
     inkscape:window-y="0"
     inkscape:window-maximized="1"
     inkscape:current-layer="g10" /><g
     id="g10"
     inkscape:groupmode="layer"
     inkscape:label="Falsos"
     transform="matrix(1.3333333,0,0,-1.3333333,-1369.6933,115.1932)"><g
       id="g206"><g
         id="g208" /><g
         id="g220"><g
           clip-path="url(#clipPath212)"
           id="g218"
           style="opacity:0.60000598"><g
             transform="translate(1046.6978,65.886)"
             id="g216"><path
               d="m 0,0 15.793,15.793 c 0.366,0.366 0.567,0.853 0.567,1.373 0,0.52 -0.201,1.008 -0.567,1.373 l -1.163,1.163 c -0.757,0.757 -1.989,0.757 -2.745,0 L -1.377,6.44 -14.654,19.717 c -0.366,0.365 -0.853,0.567 -1.373,0.567 -0.52,0 -1.007,-0.202 -1.373,-0.567 l -1.162,-1.163 c -0.366,-0.366 -0.567,-0.853 -0.567,-1.373 0,-0.52 0.201,-1.008 0.567,-1.373 L -2.755,0 c 0.367,-0.366 0.856,-0.567 1.377,-0.566 C -0.855,-0.567 -0.366,-0.366 0,0"
               style="fill:#f8b238;fill-opacity:1;fill-rule:nonzero;stroke:none"
               id="path214"
               inkscape:connector-curvature="0" /></g></g></g></g></g></svg>