<?xml version="1.0" encoding="UTF-8" standalone="no"?>
<!-- Created with Inkscape (http://www.inkscape.org/) -->

<svg
   xmlns:dc="http://purl.org/dc/elements/1.1/"
   xmlns:cc="http://creativecommons.org/ns#"
   xmlns:rdf="http://www.w3.org/1999/02/22-rdf-syntax-ns#"
   xmlns:svg="http://www.w3.org/2000/svg"
   xmlns="http://www.w3.org/2000/svg"
   xmlns:sodipodi="http://sodipodi.sourceforge.net/DTD/sodipodi-0.dtd"
   xmlns:inkscape="http://www.inkscape.org/namespaces/inkscape"
   version="1.1"
   id="svg5675"
   xml:space="preserve"
   width="571.46613"
   height="556.59998"
   viewBox="0 0 571.46614 556.59998"
   sodipodi:docname="Marketing.svg"
   inkscape:version="0.92.4 5da689c313, 2019-01-14"><metadata
     id="metadata5681"><rdf:RDF><cc:Work
         rdf:about=""><dc:format>image/svg+xml</dc:format><dc:type
           rdf:resource="http://purl.org/dc/dcmitype/StillImage" /><dc:title></dc:title></cc:Work></rdf:RDF></metadata><defs
     id="defs5679"><clipPath
       clipPathUnits="userSpaceOnUse"
       id="clipPath5691"><path
         d="M 0,1 H 100 V 668 H 0 Z"
         id="path5689"
         inkscape:connector-curvature="0" /></clipPath><clipPath
       clipPathUnits="userSpaceOnUse"
       id="clipPath5707"><path
         d="M 0,1 H 79 V 668 H 0 Z"
         id="path5705"
         inkscape:connector-curvature="0" /></clipPath><clipPath
       clipPathUnits="userSpaceOnUse"
       id="clipPath5739"><path
         d="M 0,768 H 1366 V 0 H 0 Z"
         id="path5737"
         inkscape:connector-curvature="0" /></clipPath><clipPath
       clipPathUnits="userSpaceOnUse"
       id="clipPath5799"><path
         d="m 1208,753 h 94 v -94 h -94 z"
         id="path5797"
         inkscape:connector-curvature="0" /></clipPath><clipPath
       clipPathUnits="userSpaceOnUse"
       id="clipPath5815"><path
         d="m 1509,4 h -100 v 667 h 100 z"
         id="path5813"
         inkscape:connector-curvature="0" /></clipPath><clipPath
       clipPathUnits="userSpaceOnUse"
       id="clipPath5823"><path
         d="M 1540,-373 H 1409 V 693 h 131 z"
         id="path5821"
         inkscape:connector-curvature="0" /></clipPath><clipPath
       clipPathUnits="userSpaceOnUse"
       id="clipPath5831"><path
         d="m 1518,1 h -188 v 670 h 188 z"
         id="path5829"
         inkscape:connector-curvature="0" /></clipPath><clipPath
       clipPathUnits="userSpaceOnUse"
       id="clipPath5843"><path
         d="m 1488,4 h -188 v 670 h 188 z"
         id="path5841"
         inkscape:connector-curvature="0" /></clipPath><clipPath
       clipPathUnits="userSpaceOnUse"
       id="clipPath5861"><path
         d="M 0,768 H 1366 V 0 H 0 Z"
         id="path5859"
         inkscape:connector-curvature="0" /></clipPath><clipPath
       clipPathUnits="userSpaceOnUse"
       id="clipPath5869"><path
         d="m 830,544 h 428 V 127 H 830 Z"
         id="path5867"
         inkscape:connector-curvature="0" /></clipPath><clipPath
       clipPathUnits="userSpaceOnUse"
       id="clipPath5885"><path
         d="m 1027.57,86.1699 h 35.49 v -20.85 h -35.49 z"
         id="path5883"
         inkscape:connector-curvature="0" /></clipPath><clipPath
       clipPathUnits="userSpaceOnUse"
       id="clipPath5929"><path
         d="M 0,768 H 1366 V 0 H 0 Z"
         id="path5927"
         inkscape:connector-curvature="0" /></clipPath><clipPath
       clipPathUnits="userSpaceOnUse"
       id="clipPath5937"><path
         d="M 973.813,315.196 H 1146.64 V 296.585 H 973.813 Z"
         id="path5935"
         inkscape:connector-curvature="0" /></clipPath><clipPath
       clipPathUnits="userSpaceOnUse"
       id="clipPath5957"><path
         d="M 0,768 H 1366 V 0 H 0 Z"
         id="path5955"
         inkscape:connector-curvature="0" /></clipPath><clipPath
       clipPathUnits="userSpaceOnUse"
       id="clipPath5985"><path
         d="m 1058.896,216.82 h 114.329 v 226 h -114.329 z"
         id="path5983"
         inkscape:connector-curvature="0" /></clipPath><clipPath
       clipPathUnits="userSpaceOnUse"
       id="clipPath5997"><path
         d="M 973.813,315.196 H 1146.64 V 296.585 H 973.813 Z"
         id="path5995"
         inkscape:connector-curvature="0" /></clipPath><clipPath
       clipPathUnits="userSpaceOnUse"
       id="clipPath6037"><path
         d="M 0,768 H 1366 V 0 H 0 Z"
         id="path6035"
         inkscape:connector-curvature="0" /></clipPath><clipPath
       clipPathUnits="userSpaceOnUse"
       id="clipPath6045"><path
         d="m 916,483 h 285 V 198 H 916 Z"
         id="path6043"
         inkscape:connector-curvature="0" /></clipPath></defs><sodipodi:namedview
     pagecolor="#ffffff"
     bordercolor="#666666"
     borderopacity="1"
     objecttolerance="10"
     gridtolerance="10"
     guidetolerance="10"
     inkscape:pageopacity="0"
     inkscape:pageshadow="2"
     inkscape:window-width="1366"
     inkscape:window-height="715"
     id="namedview5677"
     showgrid="false"
     fit-margin-top="0.3"
     fit-margin-left="0.4"
     fit-margin-right="0.4"
     fit-margin-bottom="0.3"
     inkscape:zoom="0.48451828"
     inkscape:cx="30.434558"
     inkscape:cy="366.24007"
     inkscape:window-x="0"
     inkscape:window-y="0"
     inkscape:window-maximized="1"
     inkscape:current-layer="g5857" /><g
     id="g5683"
     inkscape:groupmode="layer"
     inkscape:label="Falsos"
     transform="matrix(1.3333333,0,0,-1.3333333,-1106.2672,725.63332)"><g
       id="g5855"><g
         id="g5857"
         clip-path="url(#clipPath5861)"><g
           id="g5863"><g
             id="g5865" /><g
             id="g5877"><g
               clip-path="url(#clipPath5869)"
               id="g5875"
               style="opacity:0.60000598"><g
                 transform="translate(1201.2954,127)"
                 id="g5873"><path
                   d="m 0,0 h -314.591 c -31.317,0 -56.704,25.387 -56.704,56.705 v 303.59 c 0,31.318 25.387,56.705 56.704,56.705 L 0,417 c 31.317,0 56.705,-25.387 56.705,-56.705 V 56.705 C 56.705,25.387 31.317,0 0,0"
                   style="fill:#f8b238;fill-opacity:1;fill-rule:nonzero;stroke:none"
                   id="path5871"
                   inkscape:connector-curvature="0" /></g></g></g></g></g></g><path
       d="m 1125.366,315.196 h 21.271 V 216.82 h -21.271 z"
       style="fill:#cacaca;fill-opacity:1;fill-rule:nonzero;stroke:none"
       id="path5919"
       inkscape:connector-curvature="0" /><path
       d="m 973.813,315.196 h 21.268 V 216.82 h -21.268 z"
       style="fill:#cacaca;fill-opacity:1;fill-rule:nonzero;stroke:none"
       id="path5921"
       inkscape:connector-curvature="0" /><g
       id="g5923"><g
         id="g5925"
         clip-path="url(#clipPath5929)"><g
           id="g5931"><g
             id="g5933" /><g
             id="g5945"><g
               clip-path="url(#clipPath5937)"
               id="g5943"
               style="opacity:0.119995"><path
                 d="m 1125.366,315.196 h 21.271 v -18.612 h -21.271 z"
                 style="fill:#010101;fill-opacity:1;fill-rule:nonzero;stroke:none"
                 id="path5939"
                 inkscape:connector-curvature="0" /><path
                 d="m 973.813,315.196 h 21.268 v -18.612 h -21.268 z"
                 style="fill:#010101;fill-opacity:1;fill-rule:nonzero;stroke:none"
                 id="path5941"
                 inkscape:connector-curvature="0" /></g></g></g></g></g><path
       d="m 944.566,442.82 h 228.659 V 304.561 H 944.566 Z"
       style="fill:#ffbe66;fill-opacity:1;fill-rule:nonzero;stroke:none"
       id="path5947"
       inkscape:connector-curvature="0" /><path
       d="m 965.837,418.89 h 87.741 v -87.741 h -87.741 z"
       style="fill:#e95454;fill-opacity:1;fill-rule:nonzero;stroke:none"
       id="path5949"
       inkscape:connector-curvature="0" /><g
       id="g5951"><g
         id="g5953"
         clip-path="url(#clipPath5957)"><g
           id="g5959"
           transform="translate(965.8369,373.5491)"><path
             d="m 0,0 c 0,-3.079 1.982,-5.966 4.98,-6.666 4.395,-1.026 8.314,2.145 8.314,6.2 v 8.414 c 0,3.018 2.469,5.487 5.487,5.487 h -0.843 c 0.139,0 0.276,0.007 0.407,0.014 3.031,0.177 5.584,-2.163 5.584,-5.119 V -9.324 c 0,-3.068 1.965,-5.946 4.946,-6.672 4.4,-1.07 8.349,2.158 8.349,6.273 v 9.673 c 0,3.03 2.478,5.509 5.508,5.509 h -0.86 0.999 c 2.743,0 4.988,-2.244 4.988,-4.988 V -13.45 c 0,-2.132 1.075,-4.21 2.974,-5.177 5.125,-2.61 10.32,0.733 10.32,5.177 V 11.1 c 0,2.747 2.247,4.994 4.993,4.994 h 2.307 0.186 c 3.194,0 5.808,-2.613 5.808,-5.808 V -1.269 c 0,-3.063 1.96,-5.931 4.932,-6.668 4.411,-1.095 8.362,2.172 8.362,6.339 v 44.28 H 0 Z"
             style="fill:#ed6362;fill-opacity:1;fill-rule:nonzero;stroke:none"
             id="path5961"
             inkscape:connector-curvature="0" /></g><g
           id="g5963"
           transform="translate(1148.4385,376.3491)"><path
             d="m 0,0 h -65.693 c -3.109,0 -6.048,-1.975 -6.776,-4.998 -1.056,-4.382 2.242,-8.296 6.448,-8.296 H 0.47 c 3.861,0 6.956,3.29 6.622,7.229 C 6.793,-2.543 3.535,0 0,0"
             style="fill:#ffffff;fill-opacity:1;fill-rule:nonzero;stroke:none"
             id="path5965"
             inkscape:connector-curvature="0" /></g><g
           id="g5967"
           transform="translate(1150.1255,349.761)"><path
             d="m 0,0 h -32.243 c -3.528,0 -6.785,-2.531 -7.094,-6.047 -0.346,-3.939 2.753,-7.247 6.62,-7.247 h 32.243 c 3.529,0 6.786,2.532 7.095,6.047 C 6.967,-3.308 3.868,0 0,0"
             style="fill:#ffffff;fill-opacity:1;fill-rule:nonzero;stroke:none"
             id="path5969"
             inkscape:connector-curvature="0" /></g><g
           id="g5971"
           transform="translate(995.502,371.0315)"><path
             d="M 0,0 -5.409,14.566 -10.711,0 Z M 14.911,-15.953 H 5.972 l -3.428,7.977 h -15.692 l -3.243,-7.977 h -8.725 l 15.532,39.882 h 8.515 z"
             style="fill:#ffffff;fill-opacity:1;fill-rule:nonzero;stroke:none"
             id="path5973"
             inkscape:connector-curvature="0" /></g><g
           id="g5975"
           transform="translate(1021.6724,386.9773)"><path
             d="m 0,0 v -26.581 h 6.047 c 2.266,0 3.899,0.124 4.904,0.386 1.312,0.328 2.405,0.882 3.272,1.669 0.867,0.787 1.574,2.076 2.12,3.876 0.547,1.8 0.824,4.248 0.824,7.352 0,3.104 -0.277,5.487 -0.824,7.148 -0.546,1.661 -1.311,2.958 -2.302,3.884 -0.984,0.933 -2.237,1.559 -3.753,1.887 C 9.159,-0.124 6.937,0.007 3.636,0.007 H 0 Z M -7.977,7.984 H 6.747 c 3.316,0 5.851,-0.254 7.589,-0.761 2.339,-0.688 4.346,-1.912 6.011,-3.671 1.666,-1.76 2.941,-3.911 3.81,-6.46 0.869,-2.55 1.303,-5.693 1.303,-9.43 0,-3.28 -0.405,-6.112 -1.224,-8.487 -0.999,-2.904 -2.419,-5.251 -4.273,-7.047 -1.397,-1.362 -3.28,-2.419 -5.663,-3.187 -1.774,-0.565 -4.15,-0.84 -7.126,-0.84 H -7.977 Z"
             style="fill:#ffffff;fill-opacity:1;fill-rule:nonzero;stroke:none"
             id="path5977"
             inkscape:connector-curvature="0" /></g></g></g><g
       id="g5979"><g
         id="g5981"
         clip-path="url(#clipPath5985)"><path
           d="m 1125.366,315.196 h 21.271 V 216.82 h -21.271 z"
           style="fill:#cacaca;fill-opacity:1;fill-rule:nonzero;stroke:none"
           id="path5987"
           inkscape:connector-curvature="0" /><path
           d="m 973.813,315.196 h 21.268 V 216.82 h -21.268 z"
           style="fill:#cacaca;fill-opacity:1;fill-rule:nonzero;stroke:none"
           id="path5989"
           inkscape:connector-curvature="0" /><g
           id="g5991"><g
             id="g5993" /><g
             id="g6005"><g
               clip-path="url(#clipPath5997)"
               id="g6003"
               style="opacity:0.119995"><path
                 d="m 1125.366,315.196 h 21.271 v -18.612 h -21.271 z"
                 style="fill:#010101;fill-opacity:1;fill-rule:nonzero;stroke:none"
                 id="path5999"
                 inkscape:connector-curvature="0" /><path
                 d="m 973.813,315.196 h 21.268 v -18.612 h -21.268 z"
                 style="fill:#010101;fill-opacity:1;fill-rule:nonzero;stroke:none"
                 id="path6001"
                 inkscape:connector-curvature="0" /></g></g></g><path
           d="m 944.566,442.82 h 228.659 V 304.561 H 944.566 Z"
           style="fill:#f8b238;fill-opacity:1;fill-rule:nonzero;stroke:none"
           id="path6007"
           inkscape:connector-curvature="0" /><path
           d="m 965.837,418.89 h 87.741 v -87.741 h -87.741 z"
           style="fill:#e95454;fill-opacity:1;fill-rule:nonzero;stroke:none"
           id="path6009"
           inkscape:connector-curvature="0" /><g
           id="g6011"
           transform="translate(965.8369,373.5491)"><path
             d="m 0,0 c 0,-3.079 1.982,-5.966 4.98,-6.666 4.395,-1.026 8.314,2.145 8.314,6.2 v 8.414 c 0,3.018 2.469,5.487 5.487,5.487 h -0.843 c 0.139,0 0.276,0.007 0.407,0.014 3.031,0.177 5.584,-2.163 5.584,-5.119 V -9.324 c 0,-3.068 1.965,-5.946 4.946,-6.672 4.4,-1.07 8.349,2.158 8.349,6.273 v 9.673 c 0,3.03 2.478,5.509 5.508,5.509 h -0.86 0.999 c 2.743,0 4.988,-2.244 4.988,-4.988 V -13.45 c 0,-2.132 1.075,-4.21 2.974,-5.177 5.125,-2.61 10.32,0.733 10.32,5.177 V 11.1 c 0,2.747 2.247,4.994 4.993,4.994 h 2.307 0.186 c 3.194,0 5.808,-2.613 5.808,-5.808 V -1.269 c 0,-3.063 1.96,-5.931 4.932,-6.668 4.411,-1.095 8.362,2.172 8.362,6.339 v 44.28 H 0 Z"
             style="fill:#ed6362;fill-opacity:1;fill-rule:nonzero;stroke:none"
             id="path6013"
             inkscape:connector-curvature="0" /></g><g
           id="g6015"
           transform="translate(1148.4385,376.3491)"><path
             d="m 0,0 h -65.693 c -3.109,0 -6.048,-1.975 -6.776,-4.998 -1.056,-4.382 2.242,-8.296 6.448,-8.296 H 0.47 c 3.861,0 6.956,3.29 6.622,7.229 C 6.793,-2.543 3.535,0 0,0"
             style="fill:#ffffff;fill-opacity:1;fill-rule:nonzero;stroke:none"
             id="path6017"
             inkscape:connector-curvature="0" /></g><g
           id="g6019"
           transform="translate(1150.1255,349.761)"><path
             d="m 0,0 h -32.243 c -3.528,0 -6.785,-2.531 -7.094,-6.047 -0.346,-3.939 2.753,-7.247 6.62,-7.247 h 32.243 c 3.529,0 6.786,2.532 7.095,6.047 C 6.967,-3.308 3.868,0 0,0"
             style="fill:#ffffff;fill-opacity:1;fill-rule:nonzero;stroke:none"
             id="path6021"
             inkscape:connector-curvature="0" /></g><g
           id="g6023"
           transform="translate(995.502,371.0315)"><path
             d="M 0,0 -5.409,14.566 -10.711,0 Z M 14.911,-15.953 H 5.972 l -3.428,7.977 h -15.692 l -3.243,-7.977 h -8.725 l 15.532,39.882 h 8.515 z"
             style="fill:#ffffff;fill-opacity:1;fill-rule:nonzero;stroke:none"
             id="path6025"
             inkscape:connector-curvature="0" /></g><g
           id="g6027"
           transform="translate(1021.6724,386.9773)"><path
             d="m 0,0 v -26.581 h 6.047 c 2.266,0 3.899,0.124 4.904,0.386 1.312,0.328 2.405,0.882 3.272,1.669 0.867,0.787 1.574,2.076 2.12,3.876 0.547,1.8 0.824,4.248 0.824,7.352 0,3.104 -0.277,5.487 -0.824,7.148 -0.546,1.661 -1.311,2.958 -2.302,3.884 -0.984,0.933 -2.237,1.559 -3.753,1.887 C 9.159,-0.124 6.937,0.007 3.636,0.007 H 0 Z M -7.977,7.984 H 6.747 c 3.316,0 5.851,-0.254 7.589,-0.761 2.339,-0.688 4.346,-1.912 6.011,-3.671 1.666,-1.76 2.941,-3.911 3.81,-6.46 0.869,-2.55 1.303,-5.693 1.303,-9.43 0,-3.28 -0.405,-6.112 -1.224,-8.487 -0.999,-2.904 -2.419,-5.251 -4.273,-7.047 -1.397,-1.362 -3.28,-2.419 -5.663,-3.187 -1.774,-0.565 -4.15,-0.84 -7.126,-0.84 H -7.977 Z"
             style="fill:#ffffff;fill-opacity:1;fill-rule:nonzero;stroke:none"
             id="path6029"
             inkscape:connector-curvature="0" /></g></g></g><g
       id="g6031"><g
         id="g6033"
         clip-path="url(#clipPath6037)"><g
           id="g6039"><g
             id="g6041" /><g
             id="g6053"><g
               clip-path="url(#clipPath6045)"
               id="g6051"
               style="opacity:0.25999505"><g
                 transform="translate(1201,340.5)"
                 id="g6049"><path
                   d="m 0,0 c 0,-78.701 -63.799,-142.5 -142.5,-142.5 -78.701,0 -142.5,63.799 -142.5,142.5 0,78.701 63.799,142.5 142.5,142.5 C -63.799,142.5 0,78.701 0,0"
                   style="fill:#ffffff;fill-opacity:1;fill-rule:nonzero;stroke:none"
                   id="path6047"
                   inkscape:connector-curvature="0" /></g></g></g></g></g></g></g></svg>