<?xml version="1.0" encoding="UTF-8" standalone="no"?>
<!-- Created with Inkscape (http://www.inkscape.org/) -->

<svg
   xmlns:dc="http://purl.org/dc/elements/1.1/"
   xmlns:cc="http://creativecommons.org/ns#"
   xmlns:rdf="http://www.w3.org/1999/02/22-rdf-syntax-ns#"
   xmlns:svg="http://www.w3.org/2000/svg"
   xmlns="http://www.w3.org/2000/svg"
   xmlns:sodipodi="http://sodipodi.sourceforge.net/DTD/sodipodi-0.dtd"
   xmlns:inkscape="http://www.inkscape.org/namespaces/inkscape"
   version="1.1"
   id="svg4548"
   xml:space="preserve"
   width="128.8"
   height="128.59999"
   viewBox="0 0 128.80001 128.59999"
   sodipodi:docname="Question.svg"
   inkscape:version="0.92.4 5da689c313, 2019-01-14"><metadata
     id="metadata4554"><rdf:RDF><cc:Work
         rdf:about=""><dc:format>image/svg+xml</dc:format><dc:type
           rdf:resource="http://purl.org/dc/dcmitype/StillImage" /><dc:title></dc:title></cc:Work></rdf:RDF></metadata><defs
     id="defs4552"><clipPath
       clipPathUnits="userSpaceOnUse"
       id="clipPath4564"><path
         d="M 0,768 H 1366 V 0 H 0 Z"
         id="path4562"
         inkscape:connector-curvature="0" /></clipPath><clipPath
       clipPathUnits="userSpaceOnUse"
       id="clipPath4576"><path
         d="M 30,0 H 218 V 668 H 30 Z"
         id="path4574"
         inkscape:connector-curvature="0" /></clipPath><clipPath
       clipPathUnits="userSpaceOnUse"
       id="clipPath4588"><path
         d="M 0,1 H 188 V 671 H 0 Z"
         id="path4586"
         inkscape:connector-curvature="0" /></clipPath><clipPath
       clipPathUnits="userSpaceOnUse"
       id="clipPath4626"><path
         d="M 0,768 H 1366 V 0 H 0 Z"
         id="path4624"
         inkscape:connector-curvature="0" /></clipPath><clipPath
       clipPathUnits="userSpaceOnUse"
       id="clipPath4638"><path
         d="M 83,219.5 C 83,213.701 87.701,209 93.5,209 v 0 c 5.799,0 10.5,4.701 10.5,10.5 v 0 c 0,5.799 -4.701,10.5 -10.5,10.5 v 0 C 87.701,230 83,225.299 83,219.5"
         id="path4636"
         inkscape:connector-curvature="0" /></clipPath><clipPath
       clipPathUnits="userSpaceOnUse"
       id="clipPath4648"><path
         d="M 65,226.5 C 65,220.701 69.701,216 75.5,216 v 0 c 5.799,0 10.5,4.701 10.5,10.5 v 0 c 0,5.799 -4.701,10.5 -10.5,10.5 v 0 C 69.701,237 65,232.299 65,226.5"
         id="path4646"
         inkscape:connector-curvature="0" /></clipPath><clipPath
       clipPathUnits="userSpaceOnUse"
       id="clipPath4658"><path
         d="M 46,219.5 C 46,213.701 50.701,209 56.5,209 v 0 c 5.799,0 10.5,4.701 10.5,10.5 v 0 c 0,5.799 -4.701,10.5 -10.5,10.5 v 0 C 50.701,230 46,225.299 46,219.5"
         id="path4656"
         inkscape:connector-curvature="0" /></clipPath><clipPath
       clipPathUnits="userSpaceOnUse"
       id="clipPath4668"><path
         d="M 0,768 H 1366 V 0 H 0 Z"
         id="path4666"
         inkscape:connector-curvature="0" /></clipPath><clipPath
       clipPathUnits="userSpaceOnUse"
       id="clipPath4786"><path
         d="M 0,768 H 1366 V 0 H 0 Z"
         id="path4784"
         inkscape:connector-curvature="0" /></clipPath><clipPath
       clipPathUnits="userSpaceOnUse"
       id="clipPath4806"><path
         d="M 0,768 H 1366 V 0 H 0 Z"
         id="path4804"
         inkscape:connector-curvature="0" /></clipPath><clipPath
       clipPathUnits="userSpaceOnUse"
       id="clipPath4818"><path
         d="m 814,0 h 469.001 V 392 H 814 Z"
         id="path4816"
         inkscape:connector-curvature="0" /></clipPath><clipPath
       clipPathUnits="userSpaceOnUse"
       id="clipPath4830"><path
         d="M 861.396,379.471 C 837.429,379.471 818,360.041 818,336.074 v 0 V 0 h 451 v 336.074 c 0,23.967 -19.429,43.397 -43.396,43.397 v 0 z"
         id="path4828"
         inkscape:connector-curvature="0" /></clipPath><clipPath
       clipPathUnits="userSpaceOnUse"
       id="clipPath4846"><path
         d="M 0,768 H 1366 V 0 H 0 Z"
         id="path4844"
         inkscape:connector-curvature="0" /></clipPath><clipPath
       clipPathUnits="userSpaceOnUse"
       id="clipPath4914"><path
         d="m 846,577 h 395 V 182 H 846 Z"
         id="path4912"
         inkscape:connector-curvature="0" /></clipPath><clipPath
       clipPathUnits="userSpaceOnUse"
       id="clipPath4930"><path
         d="m 1583,0 h -100 v 667 h 100 z"
         id="path4928"
         inkscape:connector-curvature="0" /></clipPath><clipPath
       clipPathUnits="userSpaceOnUse"
       id="clipPath4938"><path
         d="M 1614,-377 H 1483 V 689 h 131 z"
         id="path4936"
         inkscape:connector-curvature="0" /></clipPath><clipPath
       clipPathUnits="userSpaceOnUse"
       id="clipPath4946"><path
         d="m 1562,0 h -188 v 670 h 188 z"
         id="path4944"
         inkscape:connector-curvature="0" /></clipPath></defs><sodipodi:namedview
     pagecolor="#ffffff"
     bordercolor="#666666"
     borderopacity="1"
     objecttolerance="10"
     gridtolerance="10"
     guidetolerance="10"
     inkscape:pageopacity="0"
     inkscape:pageshadow="2"
     inkscape:window-width="1366"
     inkscape:window-height="715"
     id="namedview4550"
     showgrid="false"
     inkscape:zoom="0.34260616"
     inkscape:cx="314.74121"
     inkscape:cy="284.08481"
     inkscape:window-x="0"
     inkscape:window-y="0"
     inkscape:window-maximized="1"
     inkscape:current-layer="g4556"
     fit-margin-top="0.3"
     fit-margin-left="0.4"
     fit-margin-right="0.4"
     fit-margin-bottom="0.3" /><g
     id="g4556"
     inkscape:groupmode="layer"
     inkscape:label="Falsos"
     transform="matrix(1.3333333,0,0,-1.3333333,-578.15945,397.67079)"><g
       id="g4780"><g
         id="g4782"
         clip-path="url(#clipPath4786)"><g
           id="g4788"
           transform="translate(517.9196,202.0281)"><path
             d="m 0,0 h -72 c -6.6,0 -12,5.4 -12,12 v 72 c 0,6.6 5.4,12 12,12 H 0 C 6.6,96 12,90.6 12,84 V 12 C 12,5.4 6.6,0 0,0"
             style="fill:#f8b238;fill-opacity:1;fill-rule:nonzero;stroke:none"
             id="path4790"
             inkscape:connector-curvature="0" /></g><g
           id="g4792"
           transform="translate(504.9899,220.5979)"><path
             d="m 0,0 h -48.042 c -4.844,0 -8.771,3.927 -8.771,8.771 V 50.6 c 0,4.844 3.927,8.771 8.771,8.771 H 0 c 4.844,0 8.771,-3.927 8.771,-8.771 V 8.771 C 8.771,3.927 4.844,0 0,0 Z"
             style="fill:none;stroke:#fcfcfc;stroke-width:3;stroke-linecap:butt;stroke-linejoin:miter;stroke-miterlimit:10;stroke-dasharray:none;stroke-opacity:1"
             id="path4794"
             inkscape:connector-curvature="0" /></g></g></g><text
       transform="matrix(1,0,0,-0.87518081,469.7788,229.8501)"
       style="font-variant:normal;font-weight:bold;font-stretch:normal;font-size:42.51589966px;font-family:Comfortaa;-inkscape-font-specification:Comfortaa-Bold;writing-mode:lr-tb;fill:#fcfcfc;fill-opacity:1;fill-rule:nonzero;stroke:none"
       id="text4798"><tspan
         x="0"
         y="0"
         id="tspan4796">?</tspan></text>
<g
       id="g4800"><g
         id="g4802"
         clip-path="url(#clipPath4806)"><g
           id="g4808"
           transform="translate(492.8281,268.2998)"><path
             d="m 0,0 h -22.096 c -1.094,0 -1.981,0.887 -1.981,1.981 v 2.305 c 0,1.094 0.887,1.981 1.981,1.981 H 0 c 1.094,0 1.981,-0.887 1.981,-1.981 V 1.981 C 1.981,0.887 1.094,0 0,0 Z"
             style="fill:none;stroke:#fcfcfc;stroke-width:2;stroke-linecap:butt;stroke-linejoin:miter;stroke-miterlimit:10;stroke-dasharray:none;stroke-opacity:1"
             id="path4810"
             inkscape:connector-curvature="0" /></g></g></g></g></svg>