<?xml version="1.0" encoding="UTF-8" standalone="no"?>
<!-- Created with Inkscape (http://www.inkscape.org/) -->

<svg
   xmlns:dc="http://purl.org/dc/elements/1.1/"
   xmlns:cc="http://creativecommons.org/ns#"
   xmlns:rdf="http://www.w3.org/1999/02/22-rdf-syntax-ns#"
   xmlns:svg="http://www.w3.org/2000/svg"
   xmlns="http://www.w3.org/2000/svg"
   xmlns:sodipodi="http://sodipodi.sourceforge.net/DTD/sodipodi-0.dtd"
   xmlns:inkscape="http://www.inkscape.org/namespaces/inkscape"
   version="1.1"
   id="svg6477"
   xml:space="preserve"
   width="445.56531"
   height="433.93332"
   viewBox="0 0 445.56532 433.93332"
   sodipodi:docname="Vidrio.svg"
   inkscape:version="0.92.4 5da689c313, 2019-01-14"><metadata
     id="metadata6483"><rdf:RDF><cc:Work
         rdf:about=""><dc:format>image/svg+xml</dc:format><dc:type
           rdf:resource="http://purl.org/dc/dcmitype/StillImage" /><dc:title></dc:title></cc:Work></rdf:RDF></metadata><defs
     id="defs6481"><clipPath
       clipPathUnits="userSpaceOnUse"
       id="clipPath6493"><path
         d="M 2,0 H 102 V 664 H 2 Z"
         id="path6491"
         inkscape:connector-curvature="0" /></clipPath><clipPath
       clipPathUnits="userSpaceOnUse"
       id="clipPath6509"><path
         d="M 2,0 H 81 V 664 H 2 Z"
         id="path6507"
         inkscape:connector-curvature="0" /></clipPath><clipPath
       clipPathUnits="userSpaceOnUse"
       id="clipPath6541"><path
         d="M 0,768 H 1366 V 0 H 0 Z"
         id="path6539"
         inkscape:connector-curvature="0" /></clipPath><clipPath
       clipPathUnits="userSpaceOnUse"
       id="clipPath6601"><path
         d="m 1210,749 h 94 v -94 h -94 z"
         id="path6599"
         inkscape:connector-curvature="0" /></clipPath><clipPath
       clipPathUnits="userSpaceOnUse"
       id="clipPath6617"><path
         d="M 0,768 H 1366 V 0 H 0 Z"
         id="path6615"
         inkscape:connector-curvature="0" /></clipPath><clipPath
       clipPathUnits="userSpaceOnUse"
       id="clipPath6625"><path
         d="M 831.314,567.657 H 1134.49 V 272.271 H 831.314 Z"
         id="path6623"
         inkscape:connector-curvature="0" /></clipPath><clipPath
       clipPathUnits="userSpaceOnUse"
       id="clipPath6641"><path
         d="M 299,564.539 H 602.177 V 269.154 H 299 Z"
         id="path6639"
         inkscape:connector-curvature="0" /></clipPath><clipPath
       clipPathUnits="userSpaceOnUse"
       id="clipPath6677"><path
         d="M 0,768 H 1366 V 0 H 0 Z"
         id="path6675"
         inkscape:connector-curvature="0" /></clipPath><clipPath
       clipPathUnits="userSpaceOnUse"
       id="clipPath6685"><path
         d="M 917.812,481.366 H 1079.93 V 352.919 H 917.812 Z"
         id="path6683"
         inkscape:connector-curvature="0" /></clipPath><clipPath
       clipPathUnits="userSpaceOnUse"
       id="clipPath6689"><path
         d="M 1079.93,352.919 H 951.483 v 128.447 h 128.447 z"
         id="path6687"
         inkscape:connector-curvature="0" /></clipPath><clipPath
       clipPathUnits="userSpaceOnUse"
       id="clipPath6713"><path
         d="M 914.281,520.489 H 1097.72 V 331 H 914.281 Z"
         id="path6711"
         inkscape:connector-curvature="0" /></clipPath><clipPath
       clipPathUnits="userSpaceOnUse"
       id="clipPath6729"><path
         d="M 347.281,503.489 H 527.818 V 317 H 347.281 Z"
         id="path6727"
         inkscape:connector-curvature="0" /></clipPath><clipPath
       clipPathUnits="userSpaceOnUse"
       id="clipPath6745"><path
         d="m 389.615,481.532 h 97.139 V 354.939 h -97.139 z"
         id="path6743"
         inkscape:connector-curvature="0" /></clipPath><clipPath
       clipPathUnits="userSpaceOnUse"
       id="clipPath6749"><path
         d="m 467.156,480.154 h -53.737 v -22.046 h 53.737 z"
         id="path6747"
         inkscape:connector-curvature="0" /></clipPath><clipPath
       clipPathUnits="userSpaceOnUse"
       id="clipPath6753"><path
         d="m 435.465,458.108 h 22.046 v 22.046 h -22.046 z"
         id="path6751"
         inkscape:connector-curvature="0" /></clipPath><clipPath
       clipPathUnits="userSpaceOnUse"
       id="clipPath6813"><path
         d="M 0,768 H 1366 V 0 H 0 Z"
         id="path6811"
         inkscape:connector-curvature="0" /></clipPath><clipPath
       clipPathUnits="userSpaceOnUse"
       id="clipPath6837"><path
         d="M 590.281,548.489 H 841 V 298.291 H 590.281 Z"
         id="path6835"
         inkscape:connector-curvature="0" /></clipPath></defs><sodipodi:namedview
     pagecolor="#ffffff"
     bordercolor="#666666"
     borderopacity="1"
     objecttolerance="10"
     gridtolerance="10"
     guidetolerance="10"
     inkscape:pageopacity="0"
     inkscape:pageshadow="2"
     inkscape:window-width="1366"
     inkscape:window-height="715"
     id="namedview6479"
     showgrid="false"
     inkscape:zoom="0.48451828"
     inkscape:cx="-45.176735"
     inkscape:cy="210.30033"
     inkscape:window-x="0"
     inkscape:window-y="0"
     inkscape:window-maximized="1"
     inkscape:current-layer="g6485"
     fit-margin-top="0.3"
     fit-margin-left="0.4"
     fit-margin-right="0.4"
     fit-margin-bottom="0.3" /><g
     id="g6485"
     inkscape:groupmode="layer"
     inkscape:label="Falsos"
     transform="matrix(1.3333333,0,0,-1.3333333,-725.60412,778.96665)"><g
       id="g6651"
       transform="translate(821.3721,259)"><path
         d="m 0,0 h -220.164 c -31.317,0 -56.705,25.388 -56.705,56.705 v 211.59 c 0,31.317 25.388,56.705 56.705,56.705 H 0 c 31.317,0 56.705,-25.388 56.705,-56.705 V 56.705 C 56.705,25.388 31.317,0 0,0"
         style="fill:#f8b238;fill-opacity:1;fill-rule:nonzero;stroke:none"
         id="path6653"
         inkscape:connector-curvature="0" /></g><g
       id="g6799"
       transform="translate(642.5547,514.9038)"><path
         d="M 0,0 2.014,-50.662 21.382,-194.205 H 127.049 L 146.417,-50.662 148.431,0 Z"
         style="fill:#74c4fb;fill-opacity:1;fill-rule:nonzero;stroke:none"
         id="path6801"
         inkscape:connector-curvature="0" /></g><g
       id="g6803"
       transform="translate(716.5615,514.9038)"><path
         d="M 0,0 V -194.205 H 52.862 L 72.229,-50.662 74.244,0 Z"
         style="fill:#0aaeef;fill-opacity:1;fill-rule:nonzero;stroke:none"
         id="path6805"
         inkscape:connector-curvature="0" /></g><g
       id="g6807"><g
         id="g6809"
         clip-path="url(#clipPath6813)"><g
           id="g6815"
           transform="translate(732.0088,318.2095)"><path
             d="m 0,0 h -30.477 l -5.931,110.021 c -0.655,12.139 9.012,22.341 21.169,22.341 12.157,0 21.823,-10.202 21.169,-22.341 z"
             style="fill:#89cff7;fill-opacity:1;fill-rule:nonzero;stroke:none"
             id="path6817"
             inkscape:connector-curvature="0" /></g><g
           id="g6819"
           transform="translate(716.5898,450.5713)"><path
             d="m 0,0 v 0 c -0.009,0 -0.019,0 -0.028,0 v -132.362 h 15.266 l 5.931,110.021 C 21.824,-10.202 12.157,0 0,0"
             style="fill:#74c4fb;fill-opacity:1;fill-rule:nonzero;stroke:none"
             id="path6821"
             inkscape:connector-curvature="0" /></g><g
           id="g6823"
           transform="translate(646.0845,452.6582)"><path
             d="M 0,0 17.805,-131.959 H 44.146 L 38.521,-20.135 C 37.954,-8.854 28.643,0 17.348,0 Z"
             style="fill:#89cff7;fill-opacity:1;fill-rule:nonzero;stroke:none"
             id="path6825"
             inkscape:connector-curvature="0" /></g><g
           id="g6827"
           transform="translate(748.9341,432.5239)"><path
             d="M 0,0 -5.624,-111.825 H 20.717 L 38.522,20.135 H 21.173 C 9.878,20.135 0.567,11.28 0,0"
             style="fill:#74c4fb;fill-opacity:1;fill-rule:nonzero;stroke:none"
             id="path6829"
             inkscape:connector-curvature="0" /></g><g
           id="g6831"><g
             id="g6833" /><g
             id="g6845"><g
               clip-path="url(#clipPath6837)"
               id="g6843"
               style="opacity:0.25999505"><g
                 transform="translate(841,423.3901)"
                 id="g6841"><path
                   d="m 0,0 c 0,-69.09 -56.125,-125.099 -125.36,-125.099 -69.234,0 -125.359,56.009 -125.359,125.099 0,69.09 56.125,125.099 125.359,125.099 C -56.125,125.099 0,69.09 0,0"
                   style="fill:#ffffff;fill-opacity:1;fill-rule:nonzero;stroke:none"
                   id="path6839"
                   inkscape:connector-curvature="0" /></g></g></g></g></g></g></g></svg>