<svg id="Capa_1" data-name="Capa 1" xmlns="http://www.w3.org/2000/svg" xmlns:xlink="http://www.w3.org/1999/xlink" viewBox="0 0 453.13 571.03"><defs><style>.cls-1,.cls-11,.cls-12,.cls-13{fill:none;}.cls-2{clip-path:url(#clip-path);}.cls-3{fill:#e52929;}.cls-4{font-size:49.85px;font-family:Futura-Medium, Futura;}.cls-20,.cls-4{fill:#fff;}.cls-5{letter-spacing:0em;}.cls-6{fill:#f7931e;}.cls-7{fill:#fbb03b;}.cls-8{fill:#f37e53;}.cls-9{fill:#f99273;}.cls-10{clip-path:url(#clip-path-2);}.cls-11{stroke:#f99273;}.cls-11,.cls-12,.cls-13{stroke-miterlimit:10;stroke-width:3px;}.cls-12{stroke:#f37e53;}.cls-13{stroke:#f27e53;}.cls-14{clip-path:url(#clip-path-3);}.cls-15{clip-path:url(#clip-path-4);}.cls-16{clip-path:url(#clip-path-6);}.cls-17{clip-path:url(#clip-path-7);}.cls-18{clip-path:url(#clip-path-9);}.cls-19{clip-path:url(#clip-path-10);}.cls-20{opacity:0.26;}</style><clipPath id="clip-path" transform="translate(-450 -75)"><rect class="cls-1" x="450" y="267.53" width="451" height="433.94" rx="43.4" ry="43.4"/></clipPath><clipPath id="clip-path-2" transform="translate(-450 -75)"><rect class="cls-1" x="734.56" y="159.43" width="85.83" height="35.21"/></clipPath><clipPath id="clip-path-3" transform="translate(-450 -75)"><rect class="cls-1" x="666.03" y="211.63" width="61.57" height="25.26"/></clipPath><clipPath id="clip-path-4" transform="translate(-450 -75)"><rect class="cls-1" x="691.29" y="210.05" width="25.26" height="26.84"/></clipPath><clipPath id="clip-path-6" transform="translate(-450 -75)"><rect class="cls-1" x="551.59" y="233.63" width="61.57" height="25.26"/></clipPath><clipPath id="clip-path-7" transform="translate(-450 -75)"><rect class="cls-1" x="576.85" y="232.06" width="25.26" height="26.84"/></clipPath><clipPath id="clip-path-9" transform="translate(-450 -75)"><rect class="cls-1" x="602.52" y="69.2" width="85.83" height="35.21"/></clipPath><clipPath id="clip-path-10" transform="translate(-450 -75)"><rect class="cls-1" x="637.73" y="67" width="35.21" height="37.41"/></clipPath></defs><title>Consumismo</title><g class="cls-2"><rect class="cls-3" y="191.46" width="453.13" height="379.57"/></g><text class="cls-4" transform="translate(13.64 499.42) scale(1.14 1)"><tspan class="cls-5">C</tspan><tspan x="34.69" y="0">ONSUMISMO</tspan></text><g id="_Grupo_" data-name="&lt;Grupo&gt;"><g id="_Grupo_2" data-name="&lt;Grupo&gt;"><rect class="cls-6" x="121.71" y="64.62" width="140.85" height="228.88"/></g><g id="_Grupo_3" data-name="&lt;Grupo&gt;"><rect class="cls-7" x="121.71" y="64.62" width="57.22" height="228.88"/></g><g id="_Grupo_4" data-name="&lt;Grupo&gt;"><rect class="cls-8" x="121.71" y="253.89" width="145.25" height="33.01"/></g><g id="_Grupo_5" data-name="&lt;Grupo&gt;"><rect class="cls-9" x="121.71" y="253.89" width="57.22" height="33.01"/></g><g id="_Grupo_6" data-name="&lt;Grupo&gt;"><rect class="cls-8" x="242.75" y="150.45" width="156.25" height="44.01"/></g><g id="_Grupo_7" data-name="&lt;Grupo&gt;"><rect class="cls-9" x="242.75" y="150.45" width="68.22" height="44.01"/></g><g id="_Grupo_8" data-name="&lt;Grupo&gt;"><rect class="cls-6" x="244.95" y="194.47" width="154.05" height="92.43"/></g><g id="_Grupo_9" data-name="&lt;Grupo&gt;"><rect class="cls-7" x="242.75" y="194.47" width="68.22" height="92.43"/></g><g id="_Grupo_10" data-name="&lt;Grupo&gt;"><rect class="cls-6" x="205.33" y="183.47" width="76.83" height="124.84"/></g><g id="_Grupo_11" data-name="&lt;Grupo&gt;"><rect class="cls-7" x="205.33" y="183.47" width="31.21" height="124.84"/></g><g id="_Grupo_12" data-name="&lt;Grupo&gt;"><rect class="cls-8" x="205.33" y="286.7" width="79.23" height="18.01"/></g><g id="_Grupo_13" data-name="&lt;Grupo&gt;"><rect class="cls-9" x="205.33" y="286.7" width="31.21" height="18.01"/></g></g><g class="cls-10"><ellipse class="cls-11" cx="321.35" cy="119.64" rx="30.65" ry="26.41"/></g><path class="cls-12" d="M802,258.47V194.64" transform="translate(-450 -75)"/><path class="cls-11" d="M741.16,258.47V194.64" transform="translate(-450 -75)"/><line class="cls-11" x1="283.46" y1="182.36" x2="298.87" y2="182.36"/><line class="cls-13" x1="343.98" y1="182.36" x2="359.39" y2="182.36"/><g class="cls-14"><ellipse class="cls-11" cx="242.42" cy="161.89" rx="21.99" ry="18.95"/></g><path class="cls-12" d="M714.41,282.67V236.89" transform="translate(-450 -75)"/><path class="cls-11" d="M670.76,282.67V236.89" transform="translate(-450 -75)"/><line class="cls-11" x1="215.24" y1="206.88" x2="226.29" y2="206.88"/><line class="cls-13" x1="258.65" y1="206.88" x2="269.71" y2="206.88"/><g class="cls-15"><g class="cls-14"><ellipse class="cls-12" cx="242.42" cy="161.89" rx="21.99" ry="18.95"/></g></g><g class="cls-16"><ellipse class="cls-11" cx="127.98" cy="183.9" rx="21.99" ry="18.95"/></g><path class="cls-12" d="M600,304.68V258.9" transform="translate(-450 -75)"/><path class="cls-11" d="M556.32,304.68V258.9" transform="translate(-450 -75)"/><line class="cls-11" x1="100.8" y1="228.89" x2="111.85" y2="228.89"/><line class="cls-13" x1="144.22" y1="228.89" x2="155.27" y2="228.89"/><g class="cls-17"><g class="cls-16"><ellipse class="cls-12" cx="127.98" cy="183.9" rx="21.99" ry="18.95"/></g></g><g class="cls-18"><ellipse class="cls-11" cx="189.3" cy="29.41" rx="30.65" ry="26.41"/></g><path class="cls-12" d="M670,168.23V104.41" transform="translate(-450 -75)"/><path class="cls-11" d="M609.12,168.23V104.41" transform="translate(-450 -75)"/><line class="cls-11" x1="151.42" y1="92.13" x2="166.82" y2="92.13"/><line class="cls-13" x1="211.94" y1="92.13" x2="227.34" y2="92.13"/><g class="cls-19"><g class="cls-18"><ellipse class="cls-12" cx="189.3" cy="29.41" rx="30.65" ry="26.41"/></g></g><g id="_Grupo_14" data-name="&lt;Grupo&gt;"><rect class="cls-8" x="76.42" y="209.51" width="111.3" height="31.35"/></g><g id="_Grupo_15" data-name="&lt;Grupo&gt;"><rect class="cls-9" x="76.42" y="209.51" width="48.6" height="31.35"/></g><g id="_Grupo_16" data-name="&lt;Grupo&gt;"><rect class="cls-6" x="77.69" y="240.87" width="110.04" height="65.84"/></g><g id="_Grupo_17" data-name="&lt;Grupo&gt;"><rect class="cls-7" x="76.42" y="240.87" width="48.6" height="65.84"/></g><circle class="cls-20" cx="230.5" cy="197.5" r="197.5"/></svg>