<svg id="Capa_1" data-name="Capa 1" xmlns="http://www.w3.org/2000/svg" xmlns:xlink="http://www.w3.org/1999/xlink" viewBox="0 0 504 643.47"><defs><style>.cls-1{fill:none;}.cls-2{fill:#f37e53;}.cls-3{clip-path:url(#clip-path);}.cls-4{clip-path:url(#clip-path-2);}.cls-5{font-size:49.85px;font-family:Futura-Medium, Futura;}.cls-10,.cls-15,.cls-5{fill:#fff;}.cls-6{letter-spacing:0.01em;}.cls-7{letter-spacing:0em;}.cls-8{fill:#353535;}.cls-9{fill:#272525;}.cls-11{fill:#efefef;}.cls-12{fill:#cc7400;}.cls-13{fill:#aa6100;}.cls-14{clip-path:url(#clip-path-3);}.cls-15{opacity:0.26;}</style><clipPath id="clip-path" transform="translate(-431 -62)"><rect class="cls-1" x="436" y="268" width="471" height="385"/></clipPath><clipPath id="clip-path-2" transform="translate(-431 -62)"><rect class="cls-2" x="452" y="271.53" width="451" height="433.94" rx="43.4" ry="43.4"/></clipPath><clipPath id="clip-path-3" transform="translate(-431 -62)"><path class="cls-1" d="M702.86,362.38a18.48,18.48,0,0,0-9.61,2.68,33,33,0,0,0-31.57-23,33.65,33.65,0,0,0-4.85.35,43.9,43.9,0,0,0-80,0,33.67,33.67,0,0,0-4.85-.35,33,33,0,0,0-31.57,23,18.47,18.47,0,0,0-9.61-2.68,18.14,18.14,0,1,0,13.69,30.25,33.27,33.27,0,0,0,51.16,4.65,44.17,44.17,0,0,0,42.41,0,33.27,33.27,0,0,0,51.16-4.65,18.27,18.27,0,1,0,13.69-30.25Z"/></clipPath></defs><title>post consumo</title><g class="cls-3"><rect class="cls-2" x="21" y="209.53" width="451" height="433.94" rx="43.4" ry="43.4"/><g class="cls-4"><rect class="cls-2" x="21" y="208.46" width="453.13" height="379.57"/><rect class="cls-2" y="203" width="504" height="388"/></g></g><text class="cls-5" transform="translate(166.27 486.42) scale(1.14 1)">PO<tspan class="cls-6" x="71.47" y="0">S</tspan><tspan x="101.24" y="0">T </tspan><tspan class="cls-7" x="-69.51" y="59.83">C</tspan><tspan x="-34.82" y="59.83">ONSUMO</tspan></text><path class="cls-8" d="M633.44,92H575a7.23,7.23,0,0,0-7.31,7.09c-.07,20,16.33,36.18,36.54,36.18s36.61-16.22,36.54-36.18A7.23,7.23,0,0,0,633.44,92Z" transform="translate(-431 -62)"/><path class="cls-9" d="M641.44,99.09c.07,20-16.33,36.18-36.54,36.18V92h29.23A7.23,7.23,0,0,1,641.44,99.09Z" transform="translate(-431 -62)"/><path class="cls-8" d="M604.2,121.67c-54.38,0-109.63,80.73-109.63,138,0,49.62,40.93,79.34,109.63,79.34s109.63-29.72,109.63-79.34C713.83,202.4,658.58,121.67,604.2,121.67Z" transform="translate(-431 -62)"/><path class="cls-9" d="M714.52,259.67c0,49.62-40.93,79.34-109.63,79.34V121.67C659.27,121.67,714.52,202.4,714.52,259.67Z" transform="translate(-431 -62)"/><path class="cls-10" d="M626.13,157.73a7.31,7.31,0,0,1-14.62,0c0-14-5.55-21.64-7.31-21.64s-7.31,7.64-7.31,21.64a7.31,7.31,0,0,1-14.62,0c0-20.63,9.5-36.06,21.93-36.06S626.13,137.11,626.13,157.73Z" transform="translate(-431 -62)"/><path class="cls-11" d="M604.9,136.1V121.67c12.37,0,21.84,15.3,21.93,35.8a7.61,7.61,0,0,1-6.84,7.46,7.21,7.21,0,0,1-7.78-7.2C612.2,143.74,606.65,136.1,604.9,136.1Z" transform="translate(-431 -62)"/><path class="cls-8" d="M767.91,165H709.45a7.23,7.23,0,0,0-7.31,7.09c-.07,20,16.33,36.18,36.54,36.18s36.61-16.22,36.54-36.18A7.23,7.23,0,0,0,767.91,165Z" transform="translate(-431 -62)"/><path class="cls-9" d="M775.91,172.08c.07,20-16.33,36.18-36.54,36.18V165h29.23A7.23,7.23,0,0,1,775.91,172.08Z" transform="translate(-431 -62)"/><path class="cls-8" d="M738.68,194.66c-54.38,0-109.63,80.73-109.63,138C629.05,382.28,670,412,738.68,412s109.63-29.72,109.63-79.34C848.31,275.39,793.05,194.66,738.68,194.66Z" transform="translate(-431 -62)"/><path class="cls-9" d="M849,332.66C849,382.28,808.07,412,739.37,412V194.66C793.75,194.66,849,275.39,849,332.66Z" transform="translate(-431 -62)"/><path class="cls-10" d="M760.61,230.72a7.31,7.31,0,0,1-14.62,0c0-14-5.55-21.64-7.31-21.64s-7.31,7.64-7.31,21.64a7.31,7.31,0,0,1-14.62,0c0-20.63,9.5-36.06,21.93-36.06S760.61,210.1,760.61,230.72Z" transform="translate(-431 -62)"/><path class="cls-11" d="M739.37,209.09V194.66c12.37,0,21.84,15.3,21.93,35.8a7.61,7.61,0,0,1-6.84,7.46,7.21,7.21,0,0,1-7.78-7.2C746.68,216.73,741.13,209.09,739.37,209.09Z" transform="translate(-431 -62)"/><path class="cls-12" d="M702.86,362.38a18.48,18.48,0,0,0-9.61,2.68,33,33,0,0,0-31.57-23,33.65,33.65,0,0,0-4.85.35,43.9,43.9,0,0,0-80,0,33.67,33.67,0,0,0-4.85-.35,33,33,0,0,0-31.57,23,18.47,18.47,0,0,0-9.61-2.68,18.14,18.14,0,1,0,13.69,30.25,33.27,33.27,0,0,0,51.16,4.65,44.17,44.17,0,0,0,42.41,0,33.27,33.27,0,0,0,51.16-4.65,18.27,18.27,0,1,0,13.69-30.25Z" transform="translate(-431 -62)"/><ellipse class="cls-12" cx="243.01" cy="259.54" rx="7.92" ry="7.81"/><ellipse class="cls-12" cx="260.8" cy="277.01" rx="3.05" ry="3.01"/><ellipse class="cls-12" cx="260.8" cy="262.54" rx="3.05" ry="3.01"/><ellipse class="cls-13" cx="128.63" cy="246.83" rx="7.92" ry="7.81"/><ellipse class="cls-13" cx="115.48" cy="264.05" rx="3.05" ry="3.01"/><ellipse class="cls-13" cx="168.97" cy="280" rx="7.92" ry="7.81"/><ellipse class="cls-13" cx="155.83" cy="297.22" rx="3.05" ry="3.01"/><g class="cls-14"><rect class="cls-13" x="186.03" y="252.29" width="104.22" height="92.9"/></g><ellipse class="cls-12" cx="223.83" cy="312.62" rx="7.54" ry="7.81"/><ellipse class="cls-12" cx="240.77" cy="330.09" rx="2.9" ry="3.01"/><ellipse class="cls-12" cx="240.77" cy="315.63" rx="2.9" ry="3.01"/><circle class="cls-15" cx="247.5" cy="197.5" r="197.5"/></svg>