<?xml version="1.0" encoding="UTF-8" standalone="no"?>
<!-- Created with Inkscape (http://www.inkscape.org/) -->

<svg
   xmlns:dc="http://purl.org/dc/elements/1.1/"
   xmlns:cc="http://creativecommons.org/ns#"
   xmlns:rdf="http://www.w3.org/1999/02/22-rdf-syntax-ns#"
   xmlns:svg="http://www.w3.org/2000/svg"
   xmlns="http://www.w3.org/2000/svg"
   xmlns:sodipodi="http://sodipodi.sourceforge.net/DTD/sodipodi-0.dtd"
   xmlns:inkscape="http://www.inkscape.org/namespaces/inkscape"
   version="1.1"
   id="svg2"
   xml:space="preserve"
   width="128.8"
   height="128.59999"
   viewBox="0 0 128.80001 128.59999"
   sodipodi:docname="Consumismo.svg"
   inkscape:version="0.92.4 5da689c313, 2019-01-14"><metadata
     id="metadata8"><rdf:RDF><cc:Work
         rdf:about=""><dc:format>image/svg+xml</dc:format><dc:type
           rdf:resource="http://purl.org/dc/dcmitype/StillImage" /><dc:title></dc:title></cc:Work></rdf:RDF></metadata><defs
     id="defs6"><clipPath
       clipPathUnits="userSpaceOnUse"
       id="clipPath18"><path
         d="M 863.396,376.47 C 839.429,376.47 820,357.042 820,333.075 v 0 V 0 h 451 v 333.075 c 0,23.967 -19.429,43.395 -43.396,43.395 v 0 z"
         id="path16"
         inkscape:connector-curvature="0" /></clipPath><clipPath
       clipPathUnits="userSpaceOnUse"
       id="clipPath28"><path
         d="M 0,768 H 1366 V 0 H 0 Z"
         id="path26"
         inkscape:connector-curvature="0" /></clipPath><clipPath
       clipPathUnits="userSpaceOnUse"
       id="clipPath52"><path
         d="m 862.5,733 h 418 v -44 h -418 z"
         id="path50"
         inkscape:connector-curvature="0" /></clipPath><clipPath
       clipPathUnits="userSpaceOnUse"
       id="clipPath76"><path
         d="M 32,1 H 219.999 V 671 H 32 Z"
         id="path74"
         inkscape:connector-curvature="0" /></clipPath><clipPath
       clipPathUnits="userSpaceOnUse"
       id="clipPath88"><path
         d="M 0,0 H 187 V 669 H 0 Z"
         id="path86"
         inkscape:connector-curvature="0" /></clipPath><clipPath
       clipPathUnits="userSpaceOnUse"
       id="clipPath126"><path
         d="M 0,768 H 1366 V 0 H 0 Z"
         id="path124"
         inkscape:connector-curvature="0" /></clipPath><clipPath
       clipPathUnits="userSpaceOnUse"
       id="clipPath138"><path
         d="M 85,222.5 C 85,216.701 89.701,212 95.5,212 v 0 c 5.799,0 10.5,4.701 10.5,10.5 v 0 c 0,5.799 -4.701,10.5 -10.5,10.5 v 0 C 89.701,233 85,228.299 85,222.5"
         id="path136"
         inkscape:connector-curvature="0" /></clipPath><clipPath
       clipPathUnits="userSpaceOnUse"
       id="clipPath148"><path
         d="M 67,229.5 C 67,223.701 71.701,219 77.5,219 v 0 c 5.799,0 10.5,4.701 10.5,10.5 v 0 c 0,5.799 -4.701,10.5 -10.5,10.5 v 0 C 71.701,240 67,235.299 67,229.5"
         id="path146"
         inkscape:connector-curvature="0" /></clipPath><clipPath
       clipPathUnits="userSpaceOnUse"
       id="clipPath158"><path
         d="M 48,222.5 C 48,216.701 52.701,212 58.5,212 v 0 c 5.799,0 10.5,4.701 10.5,10.5 v 0 c 0,5.799 -4.701,10.5 -10.5,10.5 v 0 C 52.701,233 48,228.299 48,222.5"
         id="path156"
         inkscape:connector-curvature="0" /></clipPath><clipPath
       clipPathUnits="userSpaceOnUse"
       id="clipPath168"><path
         d="M 0,768 H 1366 V 0 H 0 Z"
         id="path166"
         inkscape:connector-curvature="0" /></clipPath><clipPath
       clipPathUnits="userSpaceOnUse"
       id="clipPath282"><path
         d="M 0,768 H 1366 V 0 H 0 Z"
         id="path280"
         inkscape:connector-curvature="0" /></clipPath><clipPath
       clipPathUnits="userSpaceOnUse"
       id="clipPath314"><path
         d="m 1104.561,449.357 h 85.829 v 35.212 h -85.829 z"
         id="path312"
         inkscape:connector-curvature="0" /></clipPath><clipPath
       clipPathUnits="userSpaceOnUse"
       id="clipPath326"><path
         d="M 0,768 H 1366 V 0 H 0 Z"
         id="path324"
         inkscape:connector-curvature="0" /></clipPath><clipPath
       clipPathUnits="userSpaceOnUse"
       id="clipPath350"><path
         d="m 1036.027,407.111 h 61.573 v 25.261 h -61.573 z"
         id="path348"
         inkscape:connector-curvature="0" /></clipPath><clipPath
       clipPathUnits="userSpaceOnUse"
       id="clipPath362"><path
         d="M 0,768 H 1366 V 0 H 0 Z"
         id="path360"
         inkscape:connector-curvature="0" /></clipPath><clipPath
       clipPathUnits="userSpaceOnUse"
       id="clipPath386"><path
         d="m 1061.288,407.111 h 25.26 v 25.261 h -25.26 z"
         id="path384"
         inkscape:connector-curvature="0" /></clipPath><clipPath
       clipPathUnits="userSpaceOnUse"
       id="clipPath398"><path
         d="m 921.588,385.105 h 61.573 v 25.26 h -61.573 z"
         id="path396"
         inkscape:connector-curvature="0" /></clipPath><clipPath
       clipPathUnits="userSpaceOnUse"
       id="clipPath410"><path
         d="M 0,768 H 1366 V 0 H 0 Z"
         id="path408"
         inkscape:connector-curvature="0" /></clipPath><clipPath
       clipPathUnits="userSpaceOnUse"
       id="clipPath434"><path
         d="m 946.849,385.105 h 25.261 v 25.26 h -25.261 z"
         id="path432"
         inkscape:connector-curvature="0" /></clipPath><clipPath
       clipPathUnits="userSpaceOnUse"
       id="clipPath446"><path
         d="m 972.517,539.588 h 85.828 V 574.8 h -85.828 z"
         id="path444"
         inkscape:connector-curvature="0" /></clipPath><clipPath
       clipPathUnits="userSpaceOnUse"
       id="clipPath458"><path
         d="M 0,768 H 1366 V 0 H 0 Z"
         id="path456"
         inkscape:connector-curvature="0" /></clipPath><clipPath
       clipPathUnits="userSpaceOnUse"
       id="clipPath482"><path
         d="m 1007.728,539.588 h 35.212 V 574.8 h -35.212 z"
         id="path480"
         inkscape:connector-curvature="0" /></clipPath><clipPath
       clipPathUnits="userSpaceOnUse"
       id="clipPath494"><path
         d="M 0,768 H 1366 V 0 H 0 Z"
         id="path492"
         inkscape:connector-curvature="0" /></clipPath><clipPath
       clipPathUnits="userSpaceOnUse"
       id="clipPath510"><path
         d="m 853,569 h 395 V 174 H 853 Z"
         id="path508"
         inkscape:connector-curvature="0" /></clipPath><clipPath
       clipPathUnits="userSpaceOnUse"
       id="clipPath534"><path
         d="M 0,768 H 1366 V 0 H 0 Z"
         id="path532"
         inkscape:connector-curvature="0" /></clipPath><clipPath
       clipPathUnits="userSpaceOnUse"
       id="clipPath554"><path
         d="M 0,768 H 1366 V 0 H 0 Z"
         id="path552"
         inkscape:connector-curvature="0" /></clipPath><clipPath
       clipPathUnits="userSpaceOnUse"
       id="clipPath566"><path
         d="M 1613,-376 H 1482 V 690 h 131 z"
         id="path564"
         inkscape:connector-curvature="0" /></clipPath><clipPath
       clipPathUnits="userSpaceOnUse"
       id="clipPath574"><path
         d="m 1561,1 h -188 v 670 h 188 z"
         id="path572"
         inkscape:connector-curvature="0" /></clipPath></defs><sodipodi:namedview
     pagecolor="#ffffff"
     bordercolor="#666666"
     borderopacity="1"
     objecttolerance="10"
     gridtolerance="10"
     guidetolerance="10"
     inkscape:pageopacity="0"
     inkscape:pageshadow="2"
     inkscape:window-width="1366"
     inkscape:window-height="715"
     id="namedview4"
     showgrid="false"
     fit-margin-left="0.4"
     fit-margin-right="0.4"
     fit-margin-top="0.3"
     fit-margin-bottom="0.3"
     inkscape:zoom="0.49538889"
     inkscape:cx="-328.68394"
     inkscape:cy="173.70583"
     inkscape:window-x="0"
     inkscape:window-y="0"
     inkscape:window-maximized="1"
     inkscape:current-layer="g10" /><g
     id="g10"
     inkscape:groupmode="layer"
     inkscape:label="Consumismo"
     transform="matrix(1.3333333,0,0,-1.3333333,-1146.7194,477.15634)"><g
       id="g528"
       transform="translate(416.33958,69.642263)"><g
         id="g530"
         clip-path="url(#clipPath534)"><g
           id="g536"
           transform="translate(528,192)"><path
             d="m 0,0 h -72 c -6.6,0 -12,5.4 -12,12 v 72 c 0,6.6 5.4,12 12,12 H 0 C 6.6,96 12,90.6 12,84 V 12 C 12,5.4 6.6,0 0,0"
             style="fill:#e52929;fill-opacity:1;fill-rule:nonzero;stroke:none"
             id="path538"
             inkscape:connector-curvature="0" /></g><g
           id="g540"
           transform="translate(515.0703,210.5696)"><path
             d="m 0,0 h -48.042 c -4.844,0 -8.771,3.927 -8.771,8.771 V 50.6 c 0,4.844 3.927,8.771 8.771,8.771 H 0 c 4.844,0 8.771,-3.927 8.771,-8.771 V 8.771 C 8.771,3.927 4.844,0 0,0 Z"
             style="fill:none;stroke:#fcfcfc;stroke-width:3;stroke-linecap:butt;stroke-linejoin:miter;stroke-miterlimit:10;stroke-dasharray:none;stroke-opacity:1"
             id="path542"
             inkscape:connector-curvature="0" /></g></g></g><text
       transform="scale(1.0689345,-0.935511)"
       style="font-variant:normal;font-weight:bold;font-stretch:normal;font-size:39.77408981px;font-family:Comfortaa;-inkscape-font-specification:Comfortaa-Bold;writing-mode:lr-tb;fill:#fcfcfc;fill-opacity:1;fill-rule:nonzero;stroke:none;stroke-width:0.93551099"
       id="text546"
       x="838.40369"
       y="-309.41812"><tspan
         x="838.40369"
         y="-309.41812"
         id="tspan544"
         style="stroke-width:0.93551099">?</tspan></text>
<g
       id="g548"><g
         id="g550"
         clip-path="url(#clipPath554)"><g
           id="g556"
           transform="translate(502.9085,258.2717)"><path
             d="m 0,0 h -22.096 c -1.094,0 -1.981,0.887 -1.981,1.981 v 2.305 c 0,1.094 0.887,1.981 1.981,1.981 H 0 c 1.094,0 1.981,-0.887 1.981,-1.981 V 1.981 C 1.981,0.887 1.094,0 0,0 Z"
             style="fill:none;stroke:#fcfcfc;stroke-width:2;stroke-linecap:butt;stroke-linejoin:miter;stroke-miterlimit:10;stroke-dasharray:none;stroke-opacity:1"
             id="path558"
             inkscape:connector-curvature="0" /></g><g
           id="g560"><g
             id="g562"
             clip-path="url(#clipPath566)"><g
               id="g568"><g
                 id="g570"
                 clip-path="url(#clipPath574)"><g
                   id="g576"
                   transform="translate(1482.6071,-32.5908)"><path
                     d="m 0,0 h -105.214 c -16.233,0 -29.393,13.16 -29.393,29.393 v 639.358 c 0,16.233 13.16,29.393 29.393,29.393 H 0 c 16.233,0 29.393,-13.16 29.393,-29.393 V 29.393 C 29.393,13.16 16.233,0 0,0"
                     style="fill:#4d9b2c;fill-opacity:1;fill-rule:nonzero;stroke:none"
                     id="path578"
                     inkscape:connector-curvature="0" /></g></g></g></g></g></g></g></g></svg>