<svg xmlns="http://www.w3.org/2000/svg" viewBox="0 0 228 227"><defs><style>.cls-1{fill:#fff;opacity:0.26;}.cls-2{fill:#af663e;}.cls-3{fill:#ffc1b8;}.cls-4{fill:#ffb3a8;}.cls-5{fill:#f2f2f2;}.cls-6{fill:#ececec;}.cls-7{fill:#353535;}</style></defs><title>area ganaderíaRecurso 3</title><g id="Capa_2" data-name="Capa 2"><g id="Interfaz"><ellipse class="cls-1" cx="114" cy="113.5" rx="114" ry="113.5"/><path class="cls-2" d="M72.79,86.24S46.64,73.35,49.86,37.76A53,53,0,0,1,55.19,19l1.34-2.71a2.19,2.19,0,0,1,4.1.48c2.74,11.91,11.35,36.5,36,39.28l6.2.88Z"/><path class="cls-2" d="M80.67,78.58l-7.88,7.66S46.64,73.35,49.86,37.76A53,53,0,0,1,55.19,19l1.35-2.72a2.14,2.14,0,0,1,.21-.34,61.47,61.47,0,0,0-1,6.71C52.57,57.93,73.82,74.27,80.67,78.58Z"/><path class="cls-3" d="M62.49,86.3S48.7,70.42,19.1,76.63a3.78,3.78,0,0,0-2.92,4.59c2.17,8.86,10.51,30.63,40.32,33.42Z"/><path class="cls-4" d="M58.13,106.91l-1.63,7.73c-29.81-2.79-38.15-24.57-40.32-33.43a3.79,3.79,0,0,1,2.92-4.59l1.61-.32C23.7,86,32.59,103.61,58.13,106.91Z"/><path class="cls-2" d="M152.23,86.24s26.15-12.89,22.93-48.48A53,53,0,0,0,169.83,19l-1.34-2.71a2.19,2.19,0,0,0-4.09.48c-2.74,11.91-11.35,36.5-36,39.28l-6.2.88Z"/><path class="cls-2" d="M144.35,78.58l7.88,7.66s26.15-12.9,22.93-48.48A53,53,0,0,0,169.83,19l-1.35-2.72a1.94,1.94,0,0,0-.21-.34,61.11,61.11,0,0,1,1,6.71C172.46,57.93,151.2,74.27,144.35,78.58Z"/><path class="cls-3" d="M162.53,86.3s13.79-15.88,43.39-9.67a3.78,3.78,0,0,1,2.92,4.59c-2.17,8.86-10.51,30.63-40.32,33.42Z"/><path class="cls-4" d="M166.89,106.91l1.63,7.73c29.81-2.79,38.15-24.57,40.32-33.43a3.79,3.79,0,0,0-2.93-4.59l-1.61-.32C201.32,86,192.43,103.61,166.89,106.91Z"/><path class="cls-5" d="M114.36,47.29c-16.7-.4-33.55,5.4-45,17.09C52.44,81.65,52.19,106.5,56.52,128.07c.34,1.69.77,3.36,1.27,5,1.93,6.39,7.31,25,7.31,34.29,0,12.35,1.83,25.14,12.82,33.87a37,37,0,0,0,14.94,6.85,56.72,56.72,0,0,0,10.74,1.28c14.11.42,30.29,1.35,42.2-7,7.59-5.35,11.79-13.47,13.48-21.86.89-4.41.78-8.66.78-13.09,0-9.31,5.37-27.88,7.31-34.28a57.28,57.28,0,0,0,1.4-5.68c4.93-25.55,2.59-55.14-23.13-71.11A62.29,62.29,0,0,0,114.36,47.29Z"/><path class="cls-6" d="M168.77,127.41a56.83,56.83,0,0,1-1.4,5.68c-1.94,6.4-7.31,25-7.31,34.29,0,4.43.11,8.68-.78,13.09-1.7,8.38-5.89,16.5-13.48,21.85-9.95,7-22.87,7.52-35.08,7.26,9.6-.28,19.13-1.8,26.87-7.26s11.78-13.47,13.48-21.85c.89-4.41.78-8.66.78-13.09,0-9.31,5.37-27.88,7.3-34.29a56,56,0,0,0,1.4-5.68c4.93-25.55,2.59-55.14-23.13-71.11a61.81,61.81,0,0,0-28.82-8.9q2.87-.17,5.75-.11a62.3,62.3,0,0,1,31.28,9C171.36,72.27,173.7,101.86,168.77,127.41Z"/><path class="cls-3" d="M152.1,155.35c-5.18-4.21-11.39-6.71-17.55-8.41a81.45,81.45,0,0,0-44.07,0c-6.17,1.7-12.38,4.2-17.55,8.41-9.56,7.77-14.26,23.56-9.53,36.06C68.92,206,81.86,210.2,95,210.37c11.72.15,23.27.15,35,0,13.15-.17,26.09-4.35,31.63-19C166.36,178.91,161.66,163.12,152.1,155.35Z"/><path class="cls-4" d="M161.63,191.41c-5.53,14.62-18.48,18.79-31.63,19-7.1.09-14.14.13-21.18.11,4.59,0,9.19,0,13.81-.11,13.15-.17,26.1-4.35,31.63-19,4.73-12.49,0-28.29-9.54-36.06-5.18-4.21-11.39-6.71-17.55-8.4A83.17,83.17,0,0,0,108.83,144a82,82,0,0,1,25.72,2.95c6.17,1.7,12.37,4.2,17.55,8.4C161.66,163.12,166.36,178.91,161.63,191.41Z"/><path class="cls-7" d="M111,86.53c-5.2,4.29-13.07,2.32-19.44,4.51-5.41,1.86-9.32,6.58-12.37,11.42s-5.63,10.1-9.72,14.1c-3.61,3.54-8.74,4.74-14.07,5-3-19.92-1.26-41.63,14-57.19C80.68,52.82,97.27,47,113.77,47.28c-.08.29-.15.58-.22.86-1.58,6.44-1.45,11.66.51,19.59C115.68,74.24,116.16,82.26,111,86.53Z"/><path class="cls-7" d="M93.18,125.18a4.33,4.33,0,1,1-4.33-4.33A4.33,4.33,0,0,1,93.18,125.18Z"/><path class="cls-7" d="M140.5,125.18a4.33,4.33,0,1,1-4.33-4.33A4.33,4.33,0,0,1,140.5,125.18Z"/><path class="cls-7" d="M104.12,179.29c0-3.36-1.6-6.09-3.56-6.09S97,175.92,97,179.29s1.6,6.09,3.57,6.09S104.12,182.65,104.12,179.29Z"/><path class="cls-7" d="M128,179.29c0-3.36-1.59-6.09-3.56-6.09s-3.56,2.73-3.56,6.09,1.59,6.09,3.56,6.09S128,182.65,128,179.29Z"/></g></g></svg>