<svg xmlns="http://www.w3.org/2000/svg" xmlns:xlink="http://www.w3.org/1999/xlink" viewBox="0 0 267 267"><defs><style>.cls-1{fill:none;}.cls-2{fill:#fff;opacity:0.26;}.cls-3{clip-path:url(#clip-path);}.cls-4{fill:#94c282;}.cls-5{fill:#ceeabe;}</style><clipPath id="clip-path"><rect class="cls-1" x="55.28" y="51.84" width="185.87" height="185.87" transform="translate(296.43 289.56) rotate(180)"/></clipPath></defs><title>Area textilRecurso 1</title><g id="Capa_2" data-name="Capa 2"><g id="Interfaz"><circle class="cls-2" cx="133.5" cy="133.5" r="133.5"/><g class="cls-3"><path class="cls-4" d="M241.15,59v58c0,3.93-3.48,7.11-7.77,7.11H209.61V230.61c0,3.93-3.48,7.11-7.77,7.11H131.6L38.1,152.81V124H14.32c-4.29,0-7.77-3.18-7.77-7.11V59c0-3.93,3.48-7.11,7.77-7.11H77.14c4.2,0,7.79,3.15,7.79,7-.16,19.79,17.44,36,38.93,36s39.08-16.2,38.93-36c0-3.87,3.58-7,7.79-7h62.82C237.67,51.84,241.15,55,241.15,59Z"/></g><path class="cls-5" d="M26.4,59.33v56.61a7.2,7.2,0,0,0,7.23,7.17H55.77V230.55A7.2,7.2,0,0,0,63,237.72h64.49l7.19-7.1V94.76c-19.83,0-36.08-16-35.93-35.65a7.14,7.14,0,0,0-7.19-7H33.64A7.2,7.2,0,0,0,26.4,59.33Z"/></g></g></svg>