<svg xmlns="http://www.w3.org/2000/svg" xmlns:xlink="http://www.w3.org/1999/xlink" viewBox="0 0 245.05 245"><defs><style>.cls-1{fill:none;}.cls-17,.cls-2{fill:#fff;}.cls-2{opacity:0.26;}.cls-3{fill:#ffbe66;}.cls-4{fill:#f8b238;}.cls-5{fill:#272525;}.cls-6{clip-path:url(#clip-path);}.cls-7{fill:#e52929;}.cls-8{clip-path:url(#clip-path-2);}.cls-9{clip-path:url(#clip-path-3);}.cls-10{clip-path:url(#clip-path-4);}.cls-11{fill:#ce0202;}.cls-12{clip-path:url(#clip-path-5);}.cls-13{clip-path:url(#clip-path-6);}.cls-14{clip-path:url(#clip-path-7);}.cls-15{clip-path:url(#clip-path-8);}.cls-16{fill:#e8e9ea;}.cls-18{clip-path:url(#clip-path-9);}.cls-19{fill:#f2f2f2;}.cls-20{clip-path:url(#clip-path-12);}.cls-21{fill:#f0d5df;}.cls-22{clip-path:url(#clip-path-13);}.cls-23{fill:#f2bbd0;}</style><clipPath id="clip-path"><rect class="cls-1" x="47.75" y="105.24" width="144.09" height="49.29"/></clipPath><clipPath id="clip-path-2"><rect class="cls-1" x="51.54" y="154.53" width="147.88" height="58.77"/></clipPath><clipPath id="clip-path-3"><rect class="cls-1" x="121.69" y="154.53" width="64.46" height="43.61"/></clipPath><clipPath id="clip-path-4"><rect class="cls-1" x="53.44" y="152.63" width="147.88" height="60.67"/></clipPath><clipPath id="clip-path-5"><rect class="cls-1" x="121.69" y="110.92" width="64.46" height="43.61"/></clipPath><clipPath id="clip-path-6"><rect class="cls-1" x="49.64" y="105.24" width="144.09" height="49.29"/></clipPath><clipPath id="clip-path-7"><rect class="cls-1" x="74.29" y="114.72" width="94.79" height="22.75"/></clipPath><clipPath id="clip-path-8"><rect class="cls-1" x="103.68" y="161.16" width="91" height="24.65" rx="3.2" ry="3.2"/></clipPath><clipPath id="clip-path-9"><rect class="cls-1" x="121.69" y="114.72" width="53.08" height="32.23"/></clipPath><clipPath id="clip-path-12"><ellipse class="cls-1" cx="121.69" cy="162.91" rx="54.98" ry="33.33"/></clipPath><clipPath id="clip-path-13"><rect class="cls-1" x="121.69" y="143.15" width="54.98" height="54.98"/></clipPath></defs><title>Area nosostros</title><g id="Capa_2" data-name="Capa 2"><g id="Interfaz"><ellipse class="cls-2" cx="122.52" cy="122.5" rx="122.52" ry="122.5"/><circle class="cls-3" cx="122.42" cy="121.54" r="106.03"/><path class="cls-4" d="M227.72,121.54a106,106,0,0,0-106-106V227.58A106,106,0,0,0,227.72,121.54Z"/><path class="cls-5" d="M105.47,85a4.24,4.24,0,0,1-4.24-4.24,8.49,8.49,0,0,0-17,0,4.24,4.24,0,1,1-8.49,0,17,17,0,1,1,33.94,0A4.24,4.24,0,0,1,105.47,85Z"/><path class="cls-5" d="M170.53,85a4.24,4.24,0,0,1-4.24-4.24,8.49,8.49,0,0,0-17,0,4.24,4.24,0,1,1-8.49,0,17,17,0,1,1,33.94,0A4.24,4.24,0,0,1,170.53,85Z"/><g class="cls-6"><rect class="cls-7" x="62.16" y="114.11" width="119.11" height="59.15" rx="7.79" ry="7.79"/></g><g class="cls-8"><ellipse class="cls-7" cx="121.69" cy="149.32" rx="59.72" ry="45.98"/></g><g class="cls-9"><g class="cls-10"><ellipse class="cls-11" cx="123.58" cy="147.25" rx="59.72" ry="47.46"/></g></g><g class="cls-12"><g class="cls-13"><rect class="cls-11" x="64.05" y="114.11" width="119.11" height="59.15" rx="7.79" ry="7.79"/></g></g><g class="cls-14"><g class="cls-15"><rect class="cls-16" x="117.9" y="114.72" width="49.29" height="22.75"/></g><rect class="cls-17" x="75.24" y="109.98" width="91" height="24.65" rx="3.2" ry="3.2"/></g><g class="cls-18"><g class="cls-14"><g class="cls-15"><rect class="cls-16" x="117.9" y="114.72" width="49.29" height="22.75"/></g><rect class="cls-19" x="75.24" y="109.98" width="91" height="24.65" rx="3.2" ry="3.2"/></g></g><g class="cls-20"><ellipse class="cls-21" cx="120.57" cy="180.61" rx="54.98" ry="33.33"/></g><g class="cls-22"><g class="cls-20"><ellipse class="cls-23" cx="120.57" cy="180.61" rx="54.98" ry="33.33"/></g></g></g></g></svg>