<svg xmlns="http://www.w3.org/2000/svg" viewBox="0 0 222 212"><defs><style>.cls-1,.cls-6{fill:#fff;}.cls-1{opacity:0.26;}.cls-2{fill:#74c4fb;}.cls-3{fill:#0aaeef;}.cls-4{fill:#f2f2f2;}.cls-5{fill:#ececec;}</style></defs><title>area plasticoRecurso 2</title><g id="Capa_2" data-name="Capa 2"><g id="Interfaz"><ellipse class="cls-1" cx="111" cy="106" rx="111" ry="106"/><path class="cls-2" d="M70.63,53.46V72.52l5.74,12.41v40.35l-5.74,12.41v50.49c-.13,6.69,12,12.7,12,12.7h56.76s12.12-6,11.64-12.7V137.69l-5.74-12.41V84.93L151,72.52V53.46c.48-15.94-28.38-28.68-28.38-28.68H99.37S70.5,37.52,70.63,53.46Z"/><path class="cls-3" d="M151,72.52V53.64a28.87,28.87,0,0,0-28.87-28.87H110.83V200.88h28.56s12.12-6,11.64-12.7V137.69l-5.74-12.41V84.93Z"/><path class="cls-4" d="M76.37,84.12H147.2v40.2H76.37Z"/><path class="cls-5" d="M110.83,84.12H147.2v40.2H110.83Z"/><path class="cls-6" d="M93.6,7.55h34.46V24.78H93.6Z"/><path class="cls-5" d="M110.83,7.55h17.23V24.78H110.83Z"/><path class="cls-2" d="M119.89,108.89a8.9,8.9,0,1,1-17.8,0c0-4.92,8.9-16.46,8.9-16.46S119.89,104,119.89,108.89Z"/><path class="cls-3" d="M110.83,117.79a8.9,8.9,0,0,0,8.9-8.9c0-4.92-8.9-16.46-8.9-16.46Z"/></g></g></svg>