<svg id="Capa_1" data-name="Capa 1" xmlns="http://www.w3.org/2000/svg" xmlns:xlink="http://www.w3.org/1999/xlink" viewBox="0 0 425 586"><defs><style>.cls-1{fill:none;}.cls-2{fill:#74c4fb;}.cls-3{clip-path:url(#clip-path);}.cls-4{clip-path:url(#clip-path-2);}.cls-5{font-size:49.85px;font-family:Futura-Medium, Futura;}.cls-21,.cls-28,.cls-5{fill:#fff;}.cls-6{letter-spacing:0em;}.cls-7{fill:#ffbe66;}.cls-8{fill:#f8b238;}.cls-9{fill:#272525;}.cls-10{clip-path:url(#clip-path-3);}.cls-11{fill:#e52929;}.cls-12{clip-path:url(#clip-path-4);}.cls-13{clip-path:url(#clip-path-5);}.cls-14{clip-path:url(#clip-path-6);}.cls-15{fill:#ce0202;}.cls-16{clip-path:url(#clip-path-7);}.cls-17{clip-path:url(#clip-path-8);}.cls-18{clip-path:url(#clip-path-9);}.cls-19{clip-path:url(#clip-path-10);}.cls-20{fill:#e8e9ea;}.cls-22{clip-path:url(#clip-path-11);}.cls-23{fill:#f2f2f2;}.cls-24{clip-path:url(#clip-path-14);}.cls-25{fill:#f0d5df;}.cls-26{clip-path:url(#clip-path-15);}.cls-27{fill:#f2bbd0;}.cls-28{opacity:0.26;}</style><clipPath id="clip-path" transform="translate(-470 -91)"><rect class="cls-1" x="460" y="268" width="446" height="364"/></clipPath><clipPath id="clip-path-2" transform="translate(-470 -91)"><rect class="cls-2" x="470" y="270" width="423" height="407" rx="43.4" ry="43.4"/></clipPath><clipPath id="clip-path-3" transform="translate(-470 -91)"><rect class="cls-1" x="559.53" y="260.78" width="234.63" height="80.27"/></clipPath><clipPath id="clip-path-4" transform="translate(-470 -91)"><rect class="cls-1" x="565.71" y="341.05" width="240.8" height="95.7"/></clipPath><clipPath id="clip-path-5" transform="translate(-470 -91)"><rect class="cls-1" x="679.93" y="341.05" width="104.96" height="71.01"/></clipPath><clipPath id="clip-path-6" transform="translate(-470 -91)"><rect class="cls-1" x="568.79" y="337.96" width="240.8" height="98.79"/></clipPath><clipPath id="clip-path-7" transform="translate(-470 -91)"><rect class="cls-1" x="679.93" y="270.04" width="104.96" height="71.01"/></clipPath><clipPath id="clip-path-8" transform="translate(-470 -91)"><rect class="cls-1" x="562.62" y="260.78" width="234.63" height="80.27"/></clipPath><clipPath id="clip-path-9" transform="translate(-470 -91)"><rect class="cls-1" x="602.75" y="276.22" width="154.36" height="37.05"/></clipPath><clipPath id="clip-path-10" transform="translate(-470 -91)"><rect class="cls-1" x="650.6" y="351.85" width="148.19" height="40.13" rx="3.2" ry="3.2"/></clipPath><clipPath id="clip-path-11" transform="translate(-470 -91)"><rect class="cls-1" x="679.93" y="276.22" width="86.44" height="52.48"/></clipPath><clipPath id="clip-path-14" transform="translate(-470 -91)"><ellipse class="cls-1" cx="679.93" cy="354.69" rx="89.53" ry="54.28"/></clipPath><clipPath id="clip-path-15" transform="translate(-470 -91)"><rect class="cls-1" x="679.93" y="322.53" width="89.53" height="89.53"/></clipPath></defs><title>consumo</title><g class="cls-3"><rect class="cls-2" y="179" width="423" height="407" rx="43.4" ry="43.4"/><g class="cls-4"><rect class="cls-2" y="178" width="425" height="356"/></g></g><text class="cls-5" transform="translate(49.64 474.42) scale(1.14 1)"><tspan class="cls-6">C</tspan><tspan x="34.69" y="0">ONSUMO</tspan></text><circle class="cls-7" cx="211.12" cy="196.34" r="172.66"/><path class="cls-8" d="M852.6,287.34A172.66,172.66,0,0,0,679.93,114.67V460A172.66,172.66,0,0,0,852.6,287.34Z" transform="translate(-470 -91)"/><path class="cls-9" d="M653.52,227.8a6.91,6.91,0,0,1-6.91-6.91,13.82,13.82,0,0,0-27.64,0,6.91,6.91,0,1,1-13.82,0,27.64,27.64,0,0,1,55.27,0A6.91,6.91,0,0,1,653.52,227.8Z" transform="translate(-470 -91)"/><path class="cls-9" d="M759.47,227.8a6.91,6.91,0,0,1-6.91-6.91,13.82,13.82,0,0,0-27.64,0,6.91,6.91,0,0,1-13.82,0,27.64,27.64,0,1,1,55.27,0A6.91,6.91,0,0,1,759.47,227.8Z" transform="translate(-470 -91)"/><g class="cls-10"><rect class="cls-11" x="112.99" y="184.23" width="193.96" height="96.32" rx="7.79" ry="7.79"/></g><g class="cls-12"><ellipse class="cls-11" cx="209.93" cy="241.56" rx="97.25" ry="74.86"/></g><g class="cls-13"><g class="cls-14"><ellipse class="cls-15" cx="213.02" cy="238.2" rx="97.25" ry="77.28"/></g></g><g class="cls-16"><g class="cls-17"><rect class="cls-15" x="116.08" y="184.23" width="193.96" height="96.32" rx="7.79" ry="7.79"/></g></g><g class="cls-18"><g class="cls-19"><rect class="cls-20" x="203.76" y="185.22" width="80.27" height="37.05"/></g><rect class="cls-21" x="134.3" y="177.5" width="148.19" height="40.13" rx="3.2" ry="3.2"/></g><g class="cls-22"><g class="cls-18"><g class="cls-19"><rect class="cls-20" x="203.76" y="185.22" width="80.27" height="37.05"/></g><rect class="cls-23" x="134.3" y="177.5" width="148.19" height="40.13" rx="3.2" ry="3.2"/></g></g><g class="cls-24"><ellipse class="cls-25" cx="208.1" cy="292.52" rx="89.53" ry="54.28"/></g><g class="cls-26"><g class="cls-24"><ellipse class="cls-27" cx="208.1" cy="292.52" rx="89.53" ry="54.28"/></g></g><circle class="cls-28" cx="208.5" cy="197.5" r="197.5"/></svg>