<?xml version="1.0" encoding="UTF-8" standalone="no"?>
<!-- Created with Inkscape (http://www.inkscape.org/) -->

<svg
   xmlns:dc="http://purl.org/dc/elements/1.1/"
   xmlns:cc="http://creativecommons.org/ns#"
   xmlns:rdf="http://www.w3.org/1999/02/22-rdf-syntax-ns#"
   xmlns:svg="http://www.w3.org/2000/svg"
   xmlns="http://www.w3.org/2000/svg"
   xmlns:sodipodi="http://sodipodi.sourceforge.net/DTD/sodipodi-0.dtd"
   xmlns:inkscape="http://www.inkscape.org/namespaces/inkscape"
   version="1.1"
   id="svg3751"
   xml:space="preserve"
   width="1231.105"
   height="617.03973"
   viewBox="0 0 1231.105 617.03973"
   sodipodi:docname="earth.svg"
   inkscape:version="0.92.4 5da689c313, 2019-01-14"><metadata
     id="metadata3757"><rdf:RDF><cc:Work
         rdf:about=""><dc:format>image/svg+xml</dc:format><dc:type
           rdf:resource="http://purl.org/dc/dcmitype/StillImage" /><dc:title></dc:title></cc:Work></rdf:RDF></metadata><defs
     id="defs3755"><clipPath
       clipPathUnits="userSpaceOnUse"
       id="clipPath3767"><path
         d="M 1,0 H 682 V 768 H 1 Z"
         id="path3765"
         inkscape:connector-curvature="0" /></clipPath><clipPath
       clipPathUnits="userSpaceOnUse"
       id="clipPath3775"><path
         d="M -99,768 H 622 V 0 H -99 Z"
         id="path3773"
         inkscape:connector-curvature="0" /></clipPath><clipPath
       clipPathUnits="userSpaceOnUse"
       id="clipPath3823"><path
         d="M 39,511.997 60.356,316.089 398.054,352.901 376.698,548.809 Z"
         id="path3821"
         inkscape:connector-curvature="0" /></clipPath><clipPath
       clipPathUnits="userSpaceOnUse"
       id="clipPath3835"><path
         d="M 201.649,345.356 539.548,302.611 567,519.619 229.1,562.363 Z"
         id="path3833"
         inkscape:connector-curvature="0" /></clipPath><clipPath
       clipPathUnits="userSpaceOnUse"
       id="clipPath3847"><path
         d="M 96,593.148 98.832,305.358 490.381,309.21 487.55,597 Z"
         id="path3845"
         inkscape:connector-curvature="0" /></clipPath><clipPath
       id="clipPath3941"
       clipPathUnits="userSpaceOnUse"><path
         inkscape:connector-curvature="0"
         id="path3939"
         d="M 0,768 H 1366 V 0 H 0 Z" /></clipPath><clipPath
       id="clipPath3949"
       clipPathUnits="userSpaceOnUse"><path
         inkscape:connector-curvature="0"
         id="path3947"
         d="M 120,478 H 1290 V -461 H 120 Z" /></clipPath><clipPath
       id="clipPath3953"
       clipPathUnits="userSpaceOnUse"><path
         inkscape:connector-curvature="0"
         id="path3951"
         d="M 1290,478 H 120 V 0 h 1170 z" /></clipPath><clipPath
       id="clipPath3957"
       clipPathUnits="userSpaceOnUse"><path
         inkscape:connector-curvature="0"
         id="path3955"
         d="M 223.101,461.88 H 1145.98 V -461 H 223.101 Z" /></clipPath><clipPath
       id="clipPath3961"
       clipPathUnits="userSpaceOnUse"><path
         inkscape:connector-curvature="0"
         id="path3959"
         d="M 513.827,324.708 H 1058.84 V -294.795 H 513.827 Z" /></clipPath><clipPath
       id="clipPath3965"
       clipPathUnits="userSpaceOnUse"><path
         inkscape:connector-curvature="0"
         id="path3963"
         d="m 709.134,329.507 c -7.517,-0.173 -13.402,-6.124 -19.216,-10.894 v 0 c -24.282,-19.922 -50.161,-18.191 -75.132,-16.461 v 0 c -32.133,2.227 -62.763,4.455 -86.549,-39.458 v 0 c 43.518,7.77 75.734,-34.023 82.27,-73.135 v 0 c 1.887,-11.293 2.672,-23.017 7.537,-33.381 v 0 c 5.095,-10.853 14.21,-19.226 23.389,-26.942 v 0 C 701.1,79.082 773.45,44.139 849.829,28.585 v 0 C 854.488,18.718 850.314,9.421 844.069,0 v 0 h 143.349 c -2.834,4.673 -5.658,9.374 -8.885,13.599 v 0 C 938.802,65.627 848.694,37.391 798.011,78.826 v 0 c -9.133,7.466 -17.032,17.242 -28.269,20.829 v 0 c -10.125,3.232 -21.394,0.841 -31.521,4.067 v 0 c -10.126,3.228 -17.881,17.534 -9.547,24.13 v 0 c 12.889,5.743 28.598,4.267 43.782,2.791 v 0 c 20.686,-2.011 40.399,-4.022 50.679,12.225 v 0 c 5.427,8.578 5.313,19.363 6.543,29.439 v 0 c 3.108,25.472 16.263,49.583 36,65.981 v 0 c -11.999,1.467 -23.999,2.934 -36,4.4 v 0 c 12.379,2.796 13.281,22.132 3.902,30.68 v 0 c -9.379,8.548 -23.307,9.168 -35.996,9.324 v 0 c -15.807,0.194 -31.613,0.389 -47.419,0.583 v 0 c -2.766,-20.423 2.85,-41.855 15.276,-58.298 v 0 c -28.852,19.575 -57.706,39.149 -86.558,58.723 v 0 c 14.36,0.89 30.27,2.494 39.899,13.185 v 0 c 9.558,10.612 4.806,32.624 -9.332,32.626 v 0 c -0.105,0 -0.209,-0.001 -0.316,-0.004" /></clipPath><linearGradient
       id="linearGradient3971"
       spreadMethod="pad"
       gradientTransform="matrix(0,-1095.4446,-1095.4446,0,800.745,440.10721)"
       gradientUnits="userSpaceOnUse"
       y2="0"
       x2="1"
       y1="0"
       x1="0"><stop
         id="stop3967"
         offset="0"
         style="stop-opacity:1;stop-color:#098c3c" /><stop
         id="stop3969"
         offset="1"
         style="stop-opacity:1;stop-color:#1a472d" /></linearGradient><clipPath
       id="clipPath3975"
       clipPathUnits="userSpaceOnUse"><path
         inkscape:connector-curvature="0"
         id="path3973"
         d="M 1290,478 H 120 V 0 h 1170 z" /></clipPath><clipPath
       id="clipPath3979"
       clipPathUnits="userSpaceOnUse"><path
         inkscape:connector-curvature="0"
         id="path3977"
         d="M 390.952,37.035 H 549.5 V -183.248 H 390.952 Z" /></clipPath><clipPath
       id="clipPath3983"
       clipPathUnits="userSpaceOnUse"><path
         inkscape:connector-curvature="0"
         id="path3981"
         d="M 410.101,0 H 517.14 c -1.295,6.042 -3.583,11.768 -7.231,16.897 v 0 c -9.932,13.965 -25.659,20.136 -41.821,20.138 v 0 C 443.525,37.038 417.946,22.791 410.101,0" /></clipPath><linearGradient
       id="linearGradient3989"
       spreadMethod="pad"
       gradientTransform="matrix(0,-1095.441,-1095.441,0,484.63535,440.10672)"
       gradientUnits="userSpaceOnUse"
       y2="0"
       x2="1"
       y1="0"
       x1="0"><stop
         id="stop3985"
         offset="0"
         style="stop-opacity:1;stop-color:#098c3c" /><stop
         id="stop3987"
         offset="1"
         style="stop-opacity:1;stop-color:#1a472d" /></linearGradient><clipPath
       id="clipPath3993"
       clipPathUnits="userSpaceOnUse"><path
         inkscape:connector-curvature="0"
         id="path3991"
         d="M 1290,478 H 120 V 0 h 1170 z" /></clipPath><clipPath
       id="clipPath3997"
       clipPathUnits="userSpaceOnUse"><path
         inkscape:connector-curvature="0"
         id="path3995"
         d="M 348.425,329.511 H 454 V 210.142 H 348.425 Z" /></clipPath><clipPath
       id="clipPath4001"
       clipPathUnits="userSpaceOnUse"><path
         inkscape:connector-curvature="0"
         id="path3999"
         d="m 338.818,238.783 c 79.726,-64.435 128.412,21.205 94.789,30.015 v 0 c -33.622,8.809 -9.908,60.713 -9.908,60.713 v 0 c -58.107,-38.722 -84.881,-90.728 -84.881,-90.728" /></clipPath><linearGradient
       id="linearGradient4007"
       spreadMethod="pad"
       gradientTransform="matrix(0,-1095.4415,-1095.4415,0,391.60584,440.10703)"
       gradientUnits="userSpaceOnUse"
       y2="0"
       x2="1"
       y1="0"
       x1="0"><stop
         id="stop4003"
         offset="0"
         style="stop-opacity:1;stop-color:#098c3c" /><stop
         id="stop4005"
         offset="1"
         style="stop-opacity:1;stop-color:#1a472d" /></linearGradient><clipPath
       id="clipPath4011"
       clipPathUnits="userSpaceOnUse"><path
         inkscape:connector-curvature="0"
         id="path4009"
         d="M 1290,478 H 120 V 0 h 1170 z" /></clipPath><clipPath
       id="clipPath4015"
       clipPathUnits="userSpaceOnUse"><path
         inkscape:connector-curvature="0"
         id="path4013"
         d="m 528.327,420.349 h 175.416 v -62.24 H 528.327 Z" /></clipPath><clipPath
       id="clipPath4019"
       clipPathUnits="userSpaceOnUse"><path
         inkscape:connector-curvature="0"
         id="path4017"
         d="m 538.827,394.361 c -27.826,-9.187 8.456,-35.107 8.456,-23.872 v 0 c 0,11.235 59.239,23.988 91.26,17.584 v 0 c 32.021,-6.405 40.026,-36.825 45.998,-6.405 v 0 c 5.972,30.42 19.202,38.681 19.202,38.681 v 0 c -117.32,-1.346 -137.089,-16.8 -164.916,-25.988" /></clipPath><linearGradient
       id="linearGradient4025"
       spreadMethod="pad"
       gradientTransform="matrix(0,-1095.443,-1095.443,0,616.03479,440.10703)"
       gradientUnits="userSpaceOnUse"
       y2="0"
       x2="1"
       y1="0"
       x1="0"><stop
         id="stop4021"
         offset="0"
         style="stop-opacity:1;stop-color:#098c3c" /><stop
         id="stop4023"
         offset="1"
         style="stop-opacity:1;stop-color:#1a472d" /></linearGradient><clipPath
       id="clipPath4029"
       clipPathUnits="userSpaceOnUse"><path
         inkscape:connector-curvature="0"
         id="path4027"
         d="M 1290,478 H 120 V 0 h 1170 z" /></clipPath><clipPath
       id="clipPath4033"
       clipPathUnits="userSpaceOnUse"><path
         inkscape:connector-curvature="0"
         id="path4031"
         d="M 404.766,367.381 H 651.887 V 187.016 H 404.766 Z" /></clipPath><clipPath
       id="clipPath4185"
       clipPathUnits="userSpaceOnUse"><path
         inkscape:connector-curvature="0"
         id="path4183"
         d="M 465,246 H 928 V 196 H 465 Z" /></clipPath><clipPath
       id="clipPath4199"
       clipPathUnits="userSpaceOnUse"><path
         inkscape:connector-curvature="0"
         id="path4197"
         d="M 465,164 H 928 V 114 H 465 Z" /></clipPath></defs><sodipodi:namedview
     pagecolor="#ffffff"
     bordercolor="#666666"
     borderopacity="1"
     objecttolerance="10"
     gridtolerance="10"
     guidetolerance="10"
     inkscape:pageopacity="0"
     inkscape:pageshadow="2"
     inkscape:window-width="1366"
     inkscape:window-height="715"
     id="namedview3753"
     showgrid="false"
     inkscape:zoom="0.50390625"
     inkscape:cx="435.30686"
     inkscape:cy="153.0169"
     inkscape:window-x="0"
     inkscape:window-y="0"
     inkscape:window-maximized="1"
     inkscape:current-layer="g3759"
     fit-margin-left="0.3"
     fit-margin-right="0.3"
     fit-margin-top="1.2"
     fit-margin-bottom="0" /><g
     id="g3759"
     inkscape:groupmode="layer"
     inkscape:label="esquema básico"
     transform="matrix(1.3333333,0,0,-1.3333333,-475.35976,979.12184)"><g
       id="g3943"
       transform="translate(133.64363,271.5616)"><g
         id="g3945" /><g
         id="g4177"><g
           clip-path="url(#clipPath3949)"
           id="g4175"
           style="opacity:0.85000598"><g
             id="g4069"><g
               clip-path="url(#clipPath3953)"
               id="g4067"><g
                 id="g4045"><g
                   id="g4035" /><g
                   id="g4043"><g
                     clip-path="url(#clipPath3957)"
                     id="g4041"
                     style="opacity:0.10000598"><g
                       transform="translate(1095.6292,210.2508)"
                       id="g4039"><path
                         d="m 0,0 c -11.404,22.299 -24.605,43.521 -39.347,63.536 -84.011,114.061 -219.215,188.093 -371.741,188.093 -254.846,0 -461.44,-206.594 -461.44,-461.44 0,-50.355 8.095,-98.814 23.006,-144.18 5.483,-16.685 11.922,-32.934 19.196,-48.719 73.045,-158.5 233.267,-268.541 419.238,-268.541 254.846,0 461.44,206.594 461.44,461.44 C 50.352,-134.257 32.191,-62.946 0,0"
                         style="fill:#ffffff;fill-opacity:1;fill-rule:nonzero;stroke:none"
                         id="path4037"
                         inkscape:connector-curvature="0" /></g></g></g></g><g
                 transform="translate(1058.6304,191.3673)"
                 id="g4049"><path
                   d="M 0,0 C -10.378,20.292 -22.391,39.604 -35.806,57.818 -11.182,4.397 2.592,-55.055 2.592,-117.737 c 0,-231.91 -188,-419.909 -419.91,-419.909 -138.804,0 -261.835,67.376 -338.277,171.181 66.471,-144.235 212.273,-244.372 381.506,-244.372 231.91,0 419.909,188 419.909,419.91 C 45.82,-122.173 29.293,-57.28 0,0"
                   style="fill:#2293bd;fill-opacity:1;fill-rule:nonzero;stroke:none"
                   id="path4047"
                   inkscape:connector-curvature="0" /></g><g
                 transform="translate(641.3127,-346.2791)"
                 id="g4053"><path
                   d="m 0,0 c 231.91,0 419.909,188 419.909,419.909 0,62.682 -13.774,122.134 -38.398,175.555 -76.449,103.795 -199.484,171.164 -338.282,171.164 -231.91,0 -419.91,-188 -419.91,-419.909 0,-45.823 7.367,-89.92 20.935,-131.203 4.99,-15.184 10.849,-29.971 17.469,-44.335 C -261.836,67.377 -138.804,0 0,0"
                   style="fill:#2bc4fd;fill-opacity:1;fill-rule:nonzero;stroke:none"
                   id="path4051"
                   inkscape:connector-curvature="0" /></g><g
                 id="g4065"><g
                   id="g4055" /><g
                   id="g4063"><g
                     clip-path="url(#clipPath3961)"
                     id="g4061"
                     style="opacity:0.19999701"><g
                       transform="translate(596.0977,184.7556)"
                       id="g4059"><path
                         d="m 0,0 c 1.887,-11.293 2.672,-23.016 7.537,-33.381 5.095,-10.853 14.21,-19.226 23.389,-26.941 59.667,-50.154 132.017,-85.098 208.396,-100.652 10.7,-22.664 -25.197,-42.32 -25.758,-67.376 -0.35,-15.644 13.04,-27.638 20.508,-41.389 17.983,-33.115 0.667,-73.469 -15.421,-107.545 -16.089,-34.076 -15.891,-71.971 6.518,-102.267 8.455,23.617 2.501,42.431 10.956,66.047 26.965,-0.879 54.497,-1.688 80.322,6.118 25.826,7.805 50.106,25.899 58.054,51.681 4.295,13.931 3.742,29.478 10.974,42.135 10.785,18.875 34.542,24.869 53.225,35.984 18.683,11.115 33.221,38.671 17.095,53.249 -14.205,12.843 -37.829,2.205 -55.466,9.665 -15.725,6.653 -21.94,25.142 -32.303,38.712 -39.732,52.029 -129.839,23.793 -180.522,65.227 -9.133,7.466 -17.031,17.242 -28.269,20.829 -10.125,3.232 -21.394,0.841 -31.521,4.068 -10.127,3.227 -17.881,17.533 -9.547,24.129 30.45,13.568 76.636,-13.154 94.46,15.016 5.427,8.578 5.314,19.363 6.544,29.439 3.108,25.473 16.263,49.583 36.001,65.982 -12,1.466 -24,2.933 -36,4.399 12.378,2.796 13.28,22.132 3.901,30.68 -9.38,8.548 -23.307,9.168 -35.997,9.324 -15.806,0.195 -17.202,5.192 -33.008,5.386 -2.767,-20.423 -11.56,-46.659 0.866,-63.1 -28.853,19.574 -57.706,39.148 -86.559,58.722 14.361,0.891 30.271,2.494 39.9,13.185 9.63,10.691 4.736,32.952 -9.648,32.622 C 91.11,139.776 85.226,133.824 79.412,129.054 23.882,83.497 -39.999,151.172 -82.27,73.135 -38.752,80.906 -6.536,39.112 0,0"
                         style="fill:#272626;fill-opacity:1;fill-rule:nonzero;stroke:none"
                         id="path4057"
                         inkscape:connector-curvature="0" /></g></g></g></g></g></g><g
             id="g4079"><g
               clip-path="url(#clipPath3965)"
               id="g4077"><g
                 id="g4075"><g
                   id="g4073"><path
                     d="m 709.134,329.507 c -7.517,-0.173 -13.402,-6.124 -19.216,-10.894 v 0 c -24.282,-19.922 -50.161,-18.191 -75.132,-16.461 v 0 c -32.133,2.227 -62.763,4.455 -86.549,-39.458 v 0 c 43.518,7.77 75.734,-34.023 82.27,-73.135 v 0 c 1.887,-11.293 2.672,-23.017 7.537,-33.381 v 0 c 5.095,-10.853 14.21,-19.226 23.389,-26.942 v 0 C 701.1,79.082 773.45,44.139 849.829,28.585 v 0 C 854.488,18.718 850.314,9.421 844.069,0 v 0 h 143.349 c -2.834,4.673 -5.658,9.374 -8.885,13.599 v 0 C 938.802,65.627 848.694,37.391 798.011,78.826 v 0 c -9.133,7.466 -17.032,17.242 -28.269,20.829 v 0 c -10.125,3.232 -21.394,0.841 -31.521,4.067 v 0 c -10.126,3.228 -17.881,17.534 -9.547,24.13 v 0 c 12.889,5.743 28.598,4.267 43.782,2.791 v 0 c 20.686,-2.011 40.399,-4.022 50.679,12.225 v 0 c 5.427,8.578 5.313,19.363 6.543,29.439 v 0 c 3.108,25.472 16.263,49.583 36,65.981 v 0 c -11.999,1.467 -23.999,2.934 -36,4.4 v 0 c 12.379,2.796 13.281,22.132 3.902,30.68 v 0 c -9.379,8.548 -23.307,9.168 -35.996,9.324 v 0 c -15.807,0.194 -31.613,0.389 -47.419,0.583 v 0 c -2.766,-20.423 2.85,-41.855 15.276,-58.298 v 0 c -28.852,19.575 -57.706,39.149 -86.558,58.723 v 0 c 14.36,0.89 30.27,2.494 39.899,13.185 v 0 c 9.558,10.612 4.806,32.624 -9.332,32.626 v 0 c -0.105,0 -0.209,-0.001 -0.316,-0.004"
                     style="fill:url(#linearGradient3971);stroke:none"
                     id="path4071"
                     inkscape:connector-curvature="0" /></g></g></g></g><g
             id="g4095"><g
               clip-path="url(#clipPath3975)"
               id="g4093"><g
                 id="g4091"><g
                   id="g4081" /><g
                   id="g4089"><g
                     clip-path="url(#clipPath3979)"
                     id="g4087"
                     style="opacity:0.19999701"><g
                       transform="translate(431.2051,-141.0507)"
                       id="g4085"><path
                         d="m 0,0 c 11.022,-8.739 24.083,-14.448 36.981,-20.06 11.628,-5.06 23.256,-10.12 34.884,-15.18 8.41,-3.66 17.204,-7.393 26.364,-6.916 9.159,0.477 18.728,6.57 19.929,15.663 1.463,11.085 -9.081,19.568 -17.957,26.367 C 84.58,11.839 70.045,27.017 65.46,46.152 c -4.444,18.548 1.058,37.806 4.757,56.517 3.698,18.71 5.132,39.735 -5.922,55.278 C 38.271,194.539 -27.488,177.621 -36.831,136.423 -46.609,93.302 -35.771,28.359 0,0"
                         style="fill:#272626;fill-opacity:1;fill-rule:nonzero;stroke:none"
                         id="path4083"
                         inkscape:connector-curvature="0" /></g></g></g></g></g></g><g
             id="g4105"><g
               clip-path="url(#clipPath3983)"
               id="g4103"><g
                 id="g4101"><g
                   id="g4099"><path
                     d="M 410.101,0 H 517.14 c -1.295,6.042 -3.583,11.768 -7.231,16.897 v 0 c -9.932,13.965 -25.659,20.136 -41.821,20.138 v 0 C 443.525,37.038 417.946,22.791 410.101,0"
                     style="fill:url(#linearGradient3989);stroke:none"
                     id="path4097"
                     inkscape:connector-curvature="0" /></g></g></g></g><g
             id="g4121"><g
               clip-path="url(#clipPath3993)"
               id="g4119"><g
                 id="g4117"><g
                   id="g4107" /><g
                   id="g4115"><g
                     clip-path="url(#clipPath3997)"
                     id="g4113"
                     style="opacity:0.19999701"><g
                       transform="translate(348.4248,233.9791)"
                       id="g4111"><path
                         d="m 0,0 c 0,0 17.167,56.81 75.275,95.532 0,0 -14.108,-56.707 19.514,-65.517 C 128.411,21.206 79.726,-64.434 0,0"
                         style="fill:#272626;fill-opacity:1;fill-rule:nonzero;stroke:none"
                         id="path4109"
                         inkscape:connector-curvature="0" /></g></g></g></g></g></g><g
             id="g4131"><g
               clip-path="url(#clipPath4001)"
               id="g4129"><g
                 id="g4127"><g
                   id="g4125"><path
                     d="m 338.818,238.783 c 79.726,-64.435 128.412,21.205 94.789,30.015 v 0 c -33.622,8.809 -9.908,60.713 -9.908,60.713 v 0 c -58.107,-38.722 -84.881,-90.728 -84.881,-90.728"
                     style="fill:url(#linearGradient4007);stroke:none"
                     id="path4123"
                     inkscape:connector-curvature="0" /></g></g></g></g><g
             id="g4147"><g
               clip-path="url(#clipPath4011)"
               id="g4145"><g
                 id="g4143"><g
                   id="g4133" /><g
                   id="g4141"><g
                     clip-path="url(#clipPath4015)"
                     id="g4139"
                     style="opacity:0.19999701"><g
                       transform="translate(703.7429,420.3491)"
                       id="g4137"><path
                         d="m 0,0 c 0,0 -13.23,-17.867 -19.202,-48.287 -5.972,-30.42 -13.977,0 -45.998,6.404 -32.021,6.405 -91.26,-6.348 -91.26,-17.583 0,-11.236 -36.282,14.685 -8.456,23.872 C -137.089,-26.406 -117.32,-1.346 0,0"
                         style="fill:#272626;fill-opacity:1;fill-rule:nonzero;stroke:none"
                         id="path4135"
                         inkscape:connector-curvature="0" /></g></g></g></g></g></g><g
             id="g4157"><g
               clip-path="url(#clipPath4019)"
               id="g4155"><g
                 id="g4153"><g
                   id="g4151"><path
                     d="m 538.827,394.361 c -27.826,-9.187 8.456,-35.107 8.456,-23.872 v 0 c 0,11.235 59.239,23.988 91.26,17.584 v 0 c 32.021,-6.405 40.026,-36.825 45.998,-6.405 v 0 c 5.972,30.42 19.202,38.681 19.202,38.681 v 0 c -117.32,-1.346 -137.089,-16.8 -164.916,-25.988"
                     style="fill:url(#linearGradient4025);stroke:none"
                     id="path4149"
                     inkscape:connector-curvature="0" /></g></g></g></g><g
             id="g4173"><g
               clip-path="url(#clipPath4029)"
               id="g4171"><g
                 id="g4169"><g
                   id="g4159" /><g
                   id="g4167"><g
                     clip-path="url(#clipPath4033)"
                     id="g4165"
                     style="opacity:0.69999701"><g
                       transform="translate(470.2688,297.231)"
                       id="g4163"><path
                         d="m 0,0 c 13.813,9.773 27.625,19.545 41.438,29.318 30.79,21.785 65.41,44.621 102.88,40.302 16.461,-1.897 34.136,-11.599 36.921,-27.933 1.613,-9.468 -2.154,-19.019 -6.803,-27.422 C 159.729,-12.312 135.094,-33.24 106.49,-43.457 96.913,-46.878 86.901,-49.149 77.683,-53.447 66.051,-58.87 56.141,-67.298 45.723,-74.793 22.673,-91.374 -38.851,-132.276 -60.655,-95.012 -82.52,-57.643 -24.757,-17.516 0,0"
                         style="fill:#ffffff;fill-opacity:1;fill-rule:nonzero;stroke:none"
                         id="path4161"
                         inkscape:connector-curvature="0" /></g></g></g></g></g></g></g></g></g></g></svg>