<svg id="Capa_1" data-name="Capa 1" xmlns="http://www.w3.org/2000/svg" xmlns:xlink="http://www.w3.org/1999/xlink" viewBox="0 0 453.13 631.47"><defs><style>.cls-1{fill:none;}.cls-2{fill:#f8b238;}.cls-3{clip-path:url(#clip-path);}.cls-4{clip-path:url(#clip-path-2);}.cls-5{font-size:49.85px;font-family:Futura-Medium, Futura;}.cls-12,.cls-15,.cls-5{fill:#fff;}.cls-6{letter-spacing:-0.05em;}.cls-7{letter-spacing:0em;}.cls-8{fill:#4d9b2c;}.cls-9{fill:#306318;}.cls-10{fill:#ceeabe;}.cls-11{fill:#94c282;}.cls-13{fill:#ce0202;}.cls-14{fill:#fe5857;}.cls-15{opacity:0.26;}</style><clipPath id="clip-path" transform="translate(-452 -68)"><rect class="cls-1" x="448" y="253" width="469" height="393"/></clipPath><clipPath id="clip-path-2" transform="translate(-452 -68)"><rect class="cls-2" x="452" y="265.53" width="451" height="433.94" rx="43.4" ry="43.4"/></clipPath></defs><title>falsos</title><g class="cls-3"><rect class="cls-2" y="197.53" width="451" height="433.94" rx="43.4" ry="43.4"/><g class="cls-4"><rect class="cls-2" y="196.46" width="453.13" height="379.57"/></g></g><text class="cls-5" transform="translate(111.32 474.42) scale(1.14 1)"><tspan class="cls-6">F</tspan><tspan x="22.86" y="0">A</tspan><tspan class="cls-7" x="59.79" y="0">L</tspan><tspan x="82.04" y="0">SOS </tspan><tspan x="7.36" y="59.83">VERDES</tspan></text><polygon class="cls-8" points="308.43 191.38 302.2 177.5 233.36 195.75 233.36 138.14 214.26 138.14 214.26 195.75 145.43 177.5 139.2 191.38 214.26 211.29 214.26 318.65 233.36 318.65 233.36 211.29 308.43 191.38"/><polygon class="cls-9" points="307.8 191.38 301.65 177.5 233.66 195.75 233.66 138.14 224.23 138.14 224.23 318.65 233.66 318.65 233.66 211.29 307.8 191.38"/><path class="cls-10" d="M681.37,229.31l-6.61,3.33-6.64-3.25A94.86,94.86,0,0,1,640.18,207c-7.14-8.52-13.35-19.49-15.28-32.92-3.75-26.06,9.43-53.08,39.16-80.3l9.95-9.1,10,9c30,26.91,43.46,53.79,40,79.89C719.18,209.89,682.9,228.53,681.37,229.31Z" transform="translate(-452 -68)"/><path class="cls-11" d="M682.84,229.31l-6.61,3.33-.75-148,10,9c30,26.91,43.46,53.79,40,79.89C720.66,209.89,684.37,228.53,682.84,229.31Z" transform="translate(-452 -68)"/><path class="cls-10" d="M701.07,275.27l-5.6-4.84.47-7.38a94.85,94.85,0,0,1,10-34.38c5.15-9.85,12.91-19.78,24.59-26.69,22.66-13.41,52.65-11.55,89.17,5.54L832,213.25,827.46,226c-13.42,38-33.13,60.71-58.58,67.45C733.46,302.81,702.38,276.39,701.07,275.27Z" transform="translate(-452 -68)"/><path class="cls-11" d="M701.07,275.27l-5.6-4.84L832,213.25,827.46,226c-13.42,38-33.13,60.71-58.58,67.45C733.46,302.81,702.38,276.39,701.07,275.27Z" transform="translate(-452 -68)"/><path class="cls-10" d="M656.71,263.12l-.45,7.39-6.15,4.1a94.87,94.87,0,0,1-33.42,12.88c-11,1.88-23.56,1.74-36.14-3.36-24.41-9.87-41.13-34.85-49.69-74.25L528,196.71l12.84-4.14c38.35-12.39,68.36-10.5,89.16,5.64C659,220.67,656.81,261.4,656.71,263.12Z" transform="translate(-452 -68)"/><path class="cls-11" d="M656.71,263.12l-.45,7.39L528,196.71l12.84-4.14c38.35-12.39,68.36-10.5,89.16,5.64C659,220.67,656.81,261.4,656.71,263.12Z" transform="translate(-452 -68)"/><polygon class="cls-12" points="300.95 292.24 156.31 345.21 133.17 281.21 277.81 228.24 300.95 292.24"/><path class="cls-13" d="M608.31,418.43A5.22,5.22,0,0,1,603.4,415l-23.14-64a5.22,5.22,0,0,1,3.11-6.68l144.64-53a5.22,5.22,0,0,1,6.71,3.13l23.14,64a5.22,5.22,0,0,1-3.11,6.68l-144.64,53A5.21,5.21,0,0,1,608.31,418.43Z" transform="translate(-452 -68)"/><path class="cls-14" d="M676.23,327.86V310.18L583,344.31a5.22,5.22,0,0,0-3.11,6.68l23.15,64a4.63,4.63,0,0,0,.48,1,5.29,5.29,0,0,0,4.42,2.4,5.22,5.22,0,0,0,1.8-.32l66.46-24.34Z" transform="translate(-452 -68)"/><path class="cls-12" d="M611.8,359.28c-.54-1.48.76-2.78,2.33-3.36l16-5.82c1.52-.55,2.76.83,3.29,2.3.62,1.71.37,3.47-1,4l-11.95,4.35,2.84,7.79,7-2.53c1.38-.5,2.65.55,3.19,2,.45,1.25.34,3-1.18,3.51l-7,2.53,4.33,11.9c.54,1.48-1,2.87-2.79,3.52s-3.87.57-4.4-.9Z" transform="translate(-452 -68)"/><path class="cls-12" d="M642.44,380.46a2.54,2.54,0,0,1-.09-.54l-1.66-31.26c-.08-1.8,1.71-3.34,3.83-4.11s4.48-.74,5.58.69l18.86,25a2.54,2.54,0,0,1,.28.47c.62,1.71-1.55,3.91-3.54,4.63-1.15.42-2.21.39-2.84-.48l-3.67-5.19-9.73,3.54.53,6.34c.08,1.07-.71,1.77-1.87,2.19C646.14,382.46,643.06,382.17,642.44,380.46Zm13.22-15.78-7.87-11.14,1.13,13.59Z" transform="translate(-452 -68)"/><path class="cls-12" d="M663.81,340.3c-.55-1.52,1-2.82,2.81-3.48s3.83-.66,4.39.86l4,11.07,4.18-15.36a2.3,2.3,0,0,1,1.52-1.7c1.84-.67,4.93.35,5.59,2.15a2.49,2.49,0,0,1,0,1.55l-4.11,12.25,14.87,11.15a2.43,2.43,0,0,1,.81,1.07c.65,1.8-1,4.42-3,5.18a3,3,0,0,1-3-.43l-12.25-9.12-1,3.2,3,8.35c.54,1.48-1,2.87-2.79,3.52s-3.87.57-4.4-.9Z" transform="translate(-452 -68)"/><path class="cls-12" d="M703.74,339.24l6.92-2.52c1.38-.5,2.65.55,3.19,2,.45,1.25.34,3-1.18,3.51l-6.92,2.52,2.85,7.84,12.36-4.5c1.38-.5,2.71.69,3.33,2.39.54,1.48.48,3.33-1,3.88l-16.42,6c-1.57.57-3.4.4-3.94-1.07L692.23,330c-.54-1.48.76-2.78,2.33-3.36l16.42-6c1.52-.55,2.76.83,3.29,2.3.62,1.71.37,3.47-1,4l-12.36,4.5Z" transform="translate(-452 -68)"/><circle class="cls-15" cx="225.5" cy="197.5" r="197.5"/></svg>