<svg id="Capa_1" data-name="Capa 1" xmlns="http://www.w3.org/2000/svg" xmlns:xlink="http://www.w3.org/1999/xlink" viewBox="0 0 453.13 645.16"><defs><style>.cls-1,.cls-19,.cls-20,.cls-21{fill:none;}.cls-2{fill:#94c282;}.cls-3{clip-path:url(#clip-path);}.cls-4{clip-path:url(#clip-path-2);}.cls-5{font-size:49.85px;font-family:Futura-Medium, Futura;}.cls-13,.cls-25,.cls-5{fill:#fff;}.cls-6{letter-spacing:-0.02em;}.cls-7{letter-spacing:0em;}.cls-8{letter-spacing:0em;}.cls-9{letter-spacing:0.01em;}.cls-10{fill:#28b6e8;}.cls-11{fill:#74c4fb;}.cls-12{fill:#ececec;}.cls-14{fill:#272525;}.cls-15{fill:#353535;}.cls-16{fill:#f7931e;}.cls-17{fill:#fbb03b;}.cls-18{clip-path:url(#clip-path-3);}.cls-19{stroke:#f99273;}.cls-19,.cls-20,.cls-21{stroke-miterlimit:10;stroke-width:3px;}.cls-20{stroke:#f37e53;}.cls-21{stroke:#f27e53;}.cls-22{clip-path:url(#clip-path-4);}.cls-23{fill:#f37e53;}.cls-24{fill:#f99273;}.cls-25{opacity:0.26;}</style><clipPath id="clip-path" transform="translate(-454 -69)"><rect class="cls-1" x="453" y="252" width="454" height="409"/></clipPath><clipPath id="clip-path-2" transform="translate(-454 -69)"><rect class="cls-2" x="454" y="265.97" width="451" height="448.19" rx="43.4" ry="43.4"/></clipPath><clipPath id="clip-path-3" transform="translate(-454 -69)"><rect class="cls-1" x="684.2" y="159.79" width="103.91" height="42.63"/></clipPath><clipPath id="clip-path-4" transform="translate(-454 -69)"><rect class="cls-1" x="726.83" y="157.12" width="42.63" height="45.29"/></clipPath></defs><title>hábitos</title><g class="cls-3"><rect class="cls-2" y="196.97" width="451" height="448.19" rx="43.4" ry="43.4"/><g class="cls-4"><rect class="cls-2" y="195.87" width="453.13" height="392.03"/></g></g><text class="cls-5" transform="translate(51.93 450.42) scale(1.14 1)">HÁBI<tspan class="cls-6" x="117.67" y="0">T</tspan><tspan class="cls-7" x="140.53" y="0">OS DE </tspan><tspan class="cls-8" x="14.8" y="59.83">C</tspan><tspan x="49.49" y="59.83">ONSUMO</tspan><tspan x="8.56" y="119.65">SO</tspan><tspan class="cls-9" x="82.17" y="119.65">S</tspan><tspan x="111.94" y="119.65">TENIBLE</tspan></text><path class="cls-10" d="M715.09,122a116.62,116.62,0,1,0,34.16,82.47A115.86,115.86,0,0,0,715.09,122Z" transform="translate(-454 -69)"/><path class="cls-11" d="M632.72,87.87a116.62,116.62,0,0,0,0,233.25V87.87Z" transform="translate(-454 -69)"/><path class="cls-12" d="M632.62,115.14A89.35,89.35,0,1,0,722,204.49,89.45,89.45,0,0,0,632.62,115.14Z" transform="translate(-454 -69)"/><path class="cls-13" d="M632.72,115.14a89.35,89.35,0,0,0,0,178.7Z" transform="translate(-454 -69)"/><path class="cls-14" d="M671.42,223.88H627a7.33,7.33,0,0,1-7.33-7.33V172.11a7.51,7.51,0,0,1,6.61-7.6,7.26,7.26,0,0,1,7.91,7.23v37.64H671a7.51,7.51,0,0,1,7.6,6.61A7.26,7.26,0,0,1,671.42,223.88Z" transform="translate(-454 -69)"/><path class="cls-15" d="M632.72,223.88h-5.53a7.53,7.53,0,0,1-7.53-7.53V170.06a8.25,8.25,0,0,1,5.44-7.49,8.13,8.13,0,0,1,7.62,1.58Z" transform="translate(-454 -69)"/><g id="_Grupo_" data-name="&lt;Grupo&gt;"><rect class="cls-16" x="186.3" y="168.97" width="185.7" height="111.11"/></g><g id="_Grupo_2" data-name="&lt;Grupo&gt;"><rect class="cls-17" x="184.17" y="168.97" width="82.01" height="111.11"/></g><g class="cls-18"><ellipse class="cls-19" cx="274.73" cy="133.42" rx="37.11" ry="31.97"/></g><path class="cls-20" d="M765.84,279.68V202.42" transform="translate(-454 -69)"/><path class="cls-19" d="M692.19,279.68V202.42" transform="translate(-454 -69)"/><line class="cls-19" x1="228.86" y1="209.35" x2="247.51" y2="209.35"/><line class="cls-21" x1="302.13" y1="209.35" x2="320.78" y2="209.35"/><g class="cls-22"><g class="cls-18"><ellipse class="cls-20" cx="274.73" cy="133.42" rx="37.11" ry="31.97"/></g></g><g id="_Grupo_3" data-name="&lt;Grupo&gt;"><rect class="cls-23" x="184.17" y="280" width="187.83" height="52.91"/></g><g id="_Grupo_4" data-name="&lt;Grupo&gt;"><rect class="cls-24" x="184.17" y="280" width="82.01" height="52.91"/></g><circle class="cls-25" cx="220.5" cy="197.5" r="197.5"/></svg>