<?xml version="1.0" encoding="UTF-8" standalone="no"?>
<!-- Created with Inkscape (http://www.inkscape.org/) -->

<svg
   xmlns:dc="http://purl.org/dc/elements/1.1/"
   xmlns:cc="http://creativecommons.org/ns#"
   xmlns:rdf="http://www.w3.org/1999/02/22-rdf-syntax-ns#"
   xmlns:svg="http://www.w3.org/2000/svg"
   xmlns="http://www.w3.org/2000/svg"
   xmlns:sodipodi="http://sodipodi.sourceforge.net/DTD/sodipodi-0.dtd"
   xmlns:inkscape="http://www.inkscape.org/namespaces/inkscape"
   version="1.1"
   id="svg1236"
   xml:space="preserve"
   width="571.46667"
   height="556.59998"
   viewBox="0 0 571.46669 556.59998"
   sodipodi:docname="Alimentos.svg"
   inkscape:version="0.92.4 5da689c313, 2019-01-14"><metadata
     id="metadata1242"><rdf:RDF><cc:Work
         rdf:about=""><dc:format>image/svg+xml</dc:format><dc:type
           rdf:resource="http://purl.org/dc/dcmitype/StillImage" /><dc:title></dc:title></cc:Work></rdf:RDF></metadata><defs
     id="defs1240"><clipPath
       clipPathUnits="userSpaceOnUse"
       id="clipPath1252"><path
         d="M 0,768 H 1366 V 0 H 0 Z"
         id="path1250"
         inkscape:connector-curvature="0" /></clipPath><clipPath
       clipPathUnits="userSpaceOnUse"
       id="clipPath1260"><path
         d="m 1502,3 h -100 v 667 h 100 z"
         id="path1258"
         inkscape:connector-curvature="0" /></clipPath><clipPath
       clipPathUnits="userSpaceOnUse"
       id="clipPath1268"><path
         d="M 1533,-374 H 1402 V 692 h 131 z"
         id="path1266"
         inkscape:connector-curvature="0" /></clipPath><clipPath
       clipPathUnits="userSpaceOnUse"
       id="clipPath1276"><path
         d="m 1511,0 h -188 v 670 h 188 z"
         id="path1274"
         inkscape:connector-curvature="0" /></clipPath><clipPath
       clipPathUnits="userSpaceOnUse"
       id="clipPath1288"><path
         d="m 1481,3 h -188 v 670 h 188 z"
         id="path1286"
         inkscape:connector-curvature="0" /></clipPath><clipPath
       clipPathUnits="userSpaceOnUse"
       id="clipPath1300"><path
         d="M 0,768 H 1366 V 0 H 0 Z"
         id="path1298"
         inkscape:connector-curvature="0" /></clipPath><clipPath
       clipPathUnits="userSpaceOnUse"
       id="clipPath1346"><path
         d="M 0,768 H 1366 V 0 H 0 Z"
         id="path1344"
         inkscape:connector-curvature="0" /></clipPath><clipPath
       clipPathUnits="userSpaceOnUse"
       id="clipPath1358"><path
         d="M 2,0 H 102 V 667 H 2 Z"
         id="path1356"
         inkscape:connector-curvature="0" /></clipPath><clipPath
       clipPathUnits="userSpaceOnUse"
       id="clipPath1374"><path
         d="M 2,0 H 81 V 667 H 2 Z"
         id="path1372"
         inkscape:connector-curvature="0" /></clipPath><clipPath
       clipPathUnits="userSpaceOnUse"
       id="clipPath1398"><path
         d="M 0,768 H 1366 V 0 H 0 Z"
         id="path1396"
         inkscape:connector-curvature="0" /></clipPath><clipPath
       clipPathUnits="userSpaceOnUse"
       id="clipPath1422"><path
         d="m 1236.959,680.335 h 60.961 v 20.856 h -60.961 z"
         id="path1420"
         inkscape:connector-curvature="0" /></clipPath><clipPath
       clipPathUnits="userSpaceOnUse"
       id="clipPath1434"><path
         d="m 1238.564,655.469 h 62.565 v 24.866 h -62.565 z"
         id="path1432"
         inkscape:connector-curvature="0" /></clipPath><clipPath
       clipPathUnits="userSpaceOnUse"
       id="clipPath1446"><path
         d="m 1268.242,661.886 h 27.273 v 18.449 h -27.273 z"
         id="path1444"
         inkscape:connector-curvature="0" /></clipPath><clipPath
       clipPathUnits="userSpaceOnUse"
       id="clipPath1458"><path
         d="m 1268.242,680.335 h 27.273 v 18.449 h -27.273 z"
         id="path1456"
         inkscape:connector-curvature="0" /></clipPath><clipPath
       clipPathUnits="userSpaceOnUse"
       id="clipPath1470"><path
         d="m 1248.189,687.554 h 40.106 v 9.625 h -40.106 z"
         id="path1468"
         inkscape:connector-curvature="0" /></clipPath><clipPath
       clipPathUnits="userSpaceOnUse"
       id="clipPath1478"><path
         d="m 1295.926,667.1 h -32.106 c -1.766,0 -3.197,1.432 -3.197,3.198 v 4.032 c 0,1.766 1.431,3.198 3.197,3.198 h 32.106 c 1.766,0 3.199,-1.432 3.199,-3.198 v -4.032 c 0,-1.766 -1.433,-3.198 -3.199,-3.198"
         id="path1476"
         inkscape:connector-curvature="0" /></clipPath><clipPath
       clipPathUnits="userSpaceOnUse"
       id="clipPath1492"><path
         d="m 1268.242,687.554 h 20.053 v 9.625 h -20.053 z"
         id="path1490"
         inkscape:connector-curvature="0" /></clipPath><clipPath
       clipPathUnits="userSpaceOnUse"
       id="clipPath1500"><path
         d="m 1295.926,667.1 h -32.106 c -1.766,0 -3.197,1.432 -3.197,3.198 v 4.032 c 0,1.766 1.431,3.198 3.197,3.198 h 32.106 c 1.766,0 3.199,-1.432 3.199,-3.198 v -4.032 c 0,-1.766 -1.433,-3.198 -3.199,-3.198"
         id="path1498"
         inkscape:connector-curvature="0" /></clipPath><clipPath
       clipPathUnits="userSpaceOnUse"
       id="clipPath1514"><path
         d="m 1244.981,676.792 c 0,-7.79 10.415,-14.103 23.261,-14.103 v 0 c 12.848,0 23.262,6.313 23.262,14.103 v 0 c 0,7.789 -10.414,14.102 -23.262,14.102 v 0 c -12.846,0 -23.261,-6.313 -23.261,-14.102"
         id="path1512"
         inkscape:connector-curvature="0" /></clipPath><clipPath
       clipPathUnits="userSpaceOnUse"
       id="clipPath1526"><path
         d="m 1268.242,685.148 v -22.459 c 12.848,0 23.262,6.313 23.262,14.103 v 0 c 0,3.128 -1.68,6.018 -4.522,8.356 v 0 z"
         id="path1524"
         inkscape:connector-curvature="0" /></clipPath><clipPath
       clipPathUnits="userSpaceOnUse"
       id="clipPath1538"><path
         d="M 0,768 H 1366 V 0 H 0 Z"
         id="path1536"
         inkscape:connector-curvature="0" /></clipPath><clipPath
       clipPathUnits="userSpaceOnUse"
       id="clipPath1546"><path
         d="m 1216.56,745.304 h 102.63 v -102.63 h -102.63 z"
         id="path1544"
         inkscape:connector-curvature="0" /></clipPath><clipPath
       clipPathUnits="userSpaceOnUse"
       id="clipPath1562"><path
         d="m 917,262.031 h 323.2 V 176.934 H 917 Z"
         id="path1560"
         inkscape:connector-curvature="0" /></clipPath><clipPath
       clipPathUnits="userSpaceOnUse"
       id="clipPath1582"><path
         d="m 1077.311,174 h 156.374 v 289.293 h -156.374 z"
         id="path1580"
         inkscape:connector-curvature="0" /></clipPath><clipPath
       clipPathUnits="userSpaceOnUse"
       id="clipPath1594"><path
         d="M 0,768 H 1366 V 0 H 0 Z"
         id="path1592"
         inkscape:connector-curvature="0" /></clipPath><clipPath
       clipPathUnits="userSpaceOnUse"
       id="clipPath1610"><path
         d="m 1073.459,407.723 21.835,-21.835 74.278,74.277 -21.835,21.835 z"
         id="path1608"
         inkscape:connector-curvature="0" /></clipPath></defs><sodipodi:namedview
     pagecolor="#ffffff"
     bordercolor="#666666"
     borderopacity="1"
     objecttolerance="10"
     gridtolerance="10"
     guidetolerance="10"
     inkscape:pageopacity="0"
     inkscape:pageshadow="2"
     inkscape:window-width="1366"
     inkscape:window-height="715"
     id="namedview1238"
     showgrid="false"
     fit-margin-left="0.4"
     fit-margin-right="0.4"
     fit-margin-top="0.3"
     fit-margin-bottom="0.3"
     inkscape:zoom="0.48451828"
     inkscape:cx="-294.75512"
     inkscape:cy="372.98874"
     inkscape:window-x="0"
     inkscape:window-y="0"
     inkscape:window-maximized="1"
     inkscape:current-layer="g1244" /><g
     id="g1244"
     inkscape:groupmode="layer"
     inkscape:label="Consumo"
     transform="matrix(1.3333333,0,0,-1.3333333,-1143.6005,708.29998)"><g
       id="g1246"><g
         id="g1248"
         clip-path="url(#clipPath1252)"><g
           id="g1254"><g
             id="g1256"
             clip-path="url(#clipPath1260)"><g
               id="g1262"><g
                 id="g1264"
                 clip-path="url(#clipPath1268)"><g
                   id="g1270"><g
                     id="g1272"
                     clip-path="url(#clipPath1276)"><g
                       id="g1278"
                       transform="translate(1432.6069,-33.5908)"><path
                         d="m 0,0 h -105.214 c -16.233,0 -29.393,13.16 -29.393,29.393 v 639.358 c 0,16.233 13.16,29.393 29.393,29.393 H 0 c 16.233,0 29.393,-13.16 29.393,-29.393 V 29.393 C 29.393,13.16 16.233,0 0,0"
                         style="fill:#5cc4f2;fill-opacity:1;fill-rule:nonzero;stroke:none"
                         id="path1280"
                         inkscape:connector-curvature="0" /></g></g></g><g
                   id="g1282"><g
                     id="g1284"
                     clip-path="url(#clipPath1288)"><g
                       id="g1290"
                       transform="translate(1402.6069,-30.5908)"><path
                         d="m 0,0 h -105.214 c -16.233,0 -29.393,13.16 -29.393,29.393 v 639.358 c 0,16.233 13.16,29.393 29.393,29.393 H 0 c 16.233,0 29.393,-13.16 29.393,-29.393 V 29.393 C 29.393,13.16 16.233,0 0,0"
                         style="fill:#4d9b2c;fill-opacity:1;fill-rule:nonzero;stroke:none"
                         id="path1292"
                         inkscape:connector-curvature="0" /></g></g></g></g></g></g></g></g></g><g
       id="g1340"><g
         id="g1342"
         clip-path="url(#clipPath1346)"><g
           id="g1348"
           transform="translate(1229.2954,114)"><path
             d="m 0,0 h -314.591 c -31.317,0 -56.704,25.388 -56.704,56.705 v 303.59 c 0,31.318 25.387,56.705 56.704,56.705 L 0,417 c 31.317,0 56.705,-25.387 56.705,-56.705 V 56.705 C 56.705,25.388 31.317,0 0,0"
             style="fill:#74c4fb;fill-opacity:1;fill-rule:nonzero;stroke:none"
             id="path1350"
             inkscape:connector-curvature="0" /></g></g></g><g
       id="g1532"><g
         id="g1534"
         clip-path="url(#clipPath1538)"><g
           id="g1540"><g
             id="g1542" /><g
             id="g1554"><g
               clip-path="url(#clipPath1546)"
               id="g1552"
               style="opacity:0.25999505"><g
                 transform="translate(1319.1855,693.9888)"
                 id="g1550"><path
                   d="m 0,0 c 0,-28.341 -22.975,-51.315 -51.315,-51.315 -28.34,0 -51.315,22.974 -51.315,51.315 0,28.34 22.975,51.315 51.315,51.315 C -22.975,51.315 0,28.34 0,0"
                   style="fill:#ffffff;fill-opacity:1;fill-rule:nonzero;stroke:none"
                   id="path1548"
                   inkscape:connector-curvature="0" /></g></g></g></g><g
           id="g1556"><g
             id="g1558" /><g
             id="g1570"><g
               clip-path="url(#clipPath1562)"
               id="g1568"
               style="opacity:0.25999505"><g
                 transform="translate(1240.2031,219.4824)"
                 id="g1566"><path
                   d="m 0,0 c 0,-23.499 -72.352,-42.548 -161.602,-42.548 -89.25,0 -161.601,19.049 -161.601,42.548 0,23.499 72.351,42.548 161.601,42.548 C -72.352,42.548 0,23.499 0,0"
                   style="fill:#ffffff;fill-opacity:1;fill-rule:nonzero;stroke:none"
                   id="path1564"
                   inkscape:connector-curvature="0" /></g></g></g></g><g
           id="g1572"
           transform="translate(1072.6812,432.583)"><path
             d="M 0,0 C 61.724,0 120.901,-26.052 116.935,-89.782 110.726,-189.54 41.393,-258.372 0,-215.476 -41.393,-258.372 -110.725,-189.54 -116.934,-89.782 -120.901,-26.052 -61.724,0 0,0"
             style="fill:#fe5857;fill-opacity:1;fill-rule:nonzero;stroke:none"
             id="path1574"
             inkscape:connector-curvature="0" /></g></g></g><g
       id="g1576"><g
         id="g1578"
         clip-path="url(#clipPath1582)"><g
           id="g1584"
           transform="translate(1077.3726,431.0193)"><path
             d="M 0,0 C 61.724,0 120.901,-26.052 116.934,-89.782 110.725,-189.539 41.393,-258.372 0,-215.476 -41.393,-258.372 -110.726,-189.539 -116.935,-89.782 -120.901,-26.052 -61.724,0 0,0"
             style="fill:#ce0202;fill-opacity:1;fill-rule:nonzero;stroke:none"
             id="path1586"
             inkscape:connector-curvature="0" /></g></g></g><g
       id="g1588"><g
         id="g1590"
         clip-path="url(#clipPath1594)"><g
           id="g1596"
           transform="translate(1128.1904,424.9807)"><path
             d="m 0,0 c -19.721,-19.721 -55.892,-15.525 -55.892,-15.525 0,0 -4.196,36.17 15.526,55.892 16.668,16.667 45.085,16.251 53.485,15.723 1.4,-0.089 2.516,-1.205 2.604,-2.604 C 16.252,45.085 16.667,16.667 0,0"
             style="fill:#98db7c;fill-opacity:1;fill-rule:nonzero;stroke:none"
             id="path1598"
             inkscape:connector-curvature="0" /></g><g
           id="g1600"
           transform="translate(1072.6865,386.4836)"><path
             d="m 0,0 c -0.188,0 -0.379,0.013 -0.571,0.039 -2.292,0.313 -3.897,2.423 -3.587,4.714 0.033,0.252 1.628,13.004 -2.51,28.842 -5.51,21.091 -18.082,37.466 -37.368,48.672 -2.001,1.163 -2.681,3.728 -1.518,5.729 1.164,2.001 3.729,2.68 5.729,1.518 C -13.171,74.026 -2.625,51.521 1.53,35.37 6.019,17.921 4.226,4.2 4.147,3.624 3.86,1.524 2.063,0 0,0"
             style="fill:#62c136;fill-opacity:1;fill-rule:nonzero;stroke:none"
             id="path1602"
             inkscape:connector-curvature="0" /></g></g></g><g
       id="g1604"><g
         id="g1606"
         clip-path="url(#clipPath1610)"><g
           id="g1612"
           transform="translate(1131.3184,423.417)"><path
             d="m 0,0 c -19.722,-19.721 -55.892,-15.525 -55.892,-15.525 0,0 -4.196,36.17 15.525,55.892 16.668,16.667 45.085,16.251 53.486,15.723 1.4,-0.089 2.515,-1.205 2.604,-2.604 C 16.251,45.085 16.667,16.667 0,0"
             style="fill:#94c282;fill-opacity:1;fill-rule:nonzero;stroke:none"
             id="path1614"
             inkscape:connector-curvature="0" /></g></g></g></g></svg>