<?xml version="1.0" encoding="UTF-8" standalone="no"?>
<!-- Created with Inkscape (http://www.inkscape.org/) -->

<svg
   xmlns:dc="http://purl.org/dc/elements/1.1/"
   xmlns:cc="http://creativecommons.org/ns#"
   xmlns:rdf="http://www.w3.org/1999/02/22-rdf-syntax-ns#"
   xmlns:svg="http://www.w3.org/2000/svg"
   xmlns="http://www.w3.org/2000/svg"
   xmlns:sodipodi="http://sodipodi.sourceforge.net/DTD/sodipodi-0.dtd"
   xmlns:inkscape="http://www.inkscape.org/namespaces/inkscape"
   version="1.1"
   id="svg2"
   xml:space="preserve"
   width="571.46667"
   height="556.59998"
   viewBox="0 0 571.46669 556.59998"
   sodipodi:docname="Carro.svg"
   inkscape:version="0.92.4 5da689c313, 2019-01-14"><metadata
     id="metadata8"><rdf:RDF><cc:Work
         rdf:about=""><dc:format>image/svg+xml</dc:format><dc:type
           rdf:resource="http://purl.org/dc/dcmitype/StillImage" /><dc:title></dc:title></cc:Work></rdf:RDF></metadata><defs
     id="defs6"><clipPath
       clipPathUnits="userSpaceOnUse"
       id="clipPath18"><path
         d="M 0,768 H 1366 V 0 H 0 Z"
         id="path16"
         inkscape:connector-curvature="0" /></clipPath><clipPath
       clipPathUnits="userSpaceOnUse"
       id="clipPath26"><path
         d="m 1519,147 h -100 v 667 h 100 z"
         id="path24"
         inkscape:connector-curvature="0" /></clipPath><clipPath
       clipPathUnits="userSpaceOnUse"
       id="clipPath34"><path
         d="M 1550,-230 H 1419 V 836 h 131 z"
         id="path32"
         inkscape:connector-curvature="0" /></clipPath><clipPath
       clipPathUnits="userSpaceOnUse"
       id="clipPath42"><path
         d="m 1528,144 h -188 v 670 h 188 z"
         id="path40"
         inkscape:connector-curvature="0" /></clipPath><clipPath
       clipPathUnits="userSpaceOnUse"
       id="clipPath54"><path
         d="m 1498,147 h -188 v 670 h 188 z"
         id="path52"
         inkscape:connector-curvature="0" /></clipPath><clipPath
       clipPathUnits="userSpaceOnUse"
       id="clipPath88"><path
         d="M 0,768 H 1366 V 0 H 0 Z"
         id="path86"
         inkscape:connector-curvature="0" /></clipPath><clipPath
       clipPathUnits="userSpaceOnUse"
       id="clipPath116"><path
         d="M 1,1 H 101 V 668 H 1 Z"
         id="path114"
         inkscape:connector-curvature="0" /></clipPath><clipPath
       clipPathUnits="userSpaceOnUse"
       id="clipPath132"><path
         d="M 1,1 H 80 V 668 H 1 Z"
         id="path130"
         inkscape:connector-curvature="0" /></clipPath><clipPath
       clipPathUnits="userSpaceOnUse"
       id="clipPath156"><path
         d="M 0,768 H 1366 V 0 H 0 Z"
         id="path154"
         inkscape:connector-curvature="0" /></clipPath><clipPath
       clipPathUnits="userSpaceOnUse"
       id="clipPath180"><path
         d="m 1231.96,682.335 h 60.961 v 20.856 h -60.961 z"
         id="path178"
         inkscape:connector-curvature="0" /></clipPath><clipPath
       clipPathUnits="userSpaceOnUse"
       id="clipPath192"><path
         d="m 1233.564,657.47 h 62.565 v 24.865 h -62.565 z"
         id="path190"
         inkscape:connector-curvature="0" /></clipPath><clipPath
       clipPathUnits="userSpaceOnUse"
       id="clipPath204"><path
         d="m 1263.243,663.887 h 27.272 v 18.448 h -27.272 z"
         id="path202"
         inkscape:connector-curvature="0" /></clipPath><clipPath
       clipPathUnits="userSpaceOnUse"
       id="clipPath216"><path
         d="m 1263.243,682.335 h 27.272 v 18.449 h -27.272 z"
         id="path214"
         inkscape:connector-curvature="0" /></clipPath><clipPath
       clipPathUnits="userSpaceOnUse"
       id="clipPath228"><path
         d="m 1243.19,689.555 h 40.106 v 9.625 h -40.106 z"
         id="path226"
         inkscape:connector-curvature="0" /></clipPath><clipPath
       clipPathUnits="userSpaceOnUse"
       id="clipPath236"><path
         d="m 1290.926,669.101 h -32.106 c -1.766,0 -3.197,1.431 -3.197,3.197 v 4.032 c 0,1.766 1.431,3.198 3.197,3.198 h 32.106 c 1.766,0 3.199,-1.432 3.199,-3.198 v -4.032 c 0,-1.766 -1.433,-3.197 -3.199,-3.197"
         id="path234"
         inkscape:connector-curvature="0" /></clipPath><clipPath
       clipPathUnits="userSpaceOnUse"
       id="clipPath250"><path
         d="m 1263.243,689.555 h 20.053 v 9.625 h -20.053 z"
         id="path248"
         inkscape:connector-curvature="0" /></clipPath><clipPath
       clipPathUnits="userSpaceOnUse"
       id="clipPath258"><path
         d="m 1290.926,669.101 h -32.106 c -1.766,0 -3.197,1.431 -3.197,3.197 v 4.032 c 0,1.766 1.431,3.198 3.197,3.198 h 32.106 c 1.766,0 3.199,-1.432 3.199,-3.198 v -4.032 c 0,-1.766 -1.433,-3.197 -3.199,-3.197"
         id="path256"
         inkscape:connector-curvature="0" /></clipPath><clipPath
       clipPathUnits="userSpaceOnUse"
       id="clipPath272"><path
         d="m 1239.981,678.792 c 0,-7.789 10.414,-14.103 23.262,-14.103 v 0 c 12.846,0 23.261,6.314 23.261,14.103 v 0 c 0,7.788 -10.415,14.103 -23.261,14.103 v 0 c -12.848,0 -23.262,-6.315 -23.262,-14.103"
         id="path270"
         inkscape:connector-curvature="0" /></clipPath><clipPath
       clipPathUnits="userSpaceOnUse"
       id="clipPath284"><path
         d="m 1263.243,687.148 v -22.459 c 12.846,0 23.261,6.314 23.261,14.103 v 0 c 0,3.127 -1.68,6.017 -4.522,8.356 v 0 z"
         id="path282"
         inkscape:connector-curvature="0" /></clipPath><clipPath
       clipPathUnits="userSpaceOnUse"
       id="clipPath296"><path
         d="M 0,768 H 1366 V 0 H 0 Z"
         id="path294"
         inkscape:connector-curvature="0" /></clipPath><clipPath
       clipPathUnits="userSpaceOnUse"
       id="clipPath304"><path
         d="m 1211.56,747.304 h 102.63 v -102.63 h -102.63 z"
         id="path302"
         inkscape:connector-curvature="0" /></clipPath><clipPath
       clipPathUnits="userSpaceOnUse"
       id="clipPath320"><path
         d="m 882,325.036 h 372.96 V 198.888 H 882 Z"
         id="path318"
         inkscape:connector-curvature="0" /></clipPath></defs><sodipodi:namedview
     pagecolor="#ffffff"
     bordercolor="#666666"
     borderopacity="1"
     objecttolerance="10"
     gridtolerance="10"
     guidetolerance="10"
     inkscape:pageopacity="0"
     inkscape:pageshadow="2"
     inkscape:window-width="1366"
     inkscape:window-height="715"
     id="namedview4"
     showgrid="false"
     fit-margin-bottom="0.3"
     fit-margin-left="0.4"
     fit-margin-right="0.4"
     fit-margin-top="0.3"
     inkscape:zoom="0.34260616"
     inkscape:cx="-318.9064"
     inkscape:cy="328.74229"
     inkscape:window-x="0"
     inkscape:window-y="0"
     inkscape:window-maximized="1"
     inkscape:current-layer="g84" /><g
     id="g10"
     inkscape:groupmode="layer"
     inkscape:label="Consumo"
     transform="matrix(1.3333333,0,0,-1.3333333,-1136.9338,710.96665)"><g
       id="g12"><g
         id="g14"
         clip-path="url(#clipPath18)"><g
           id="g20"><g
             id="g22"
             clip-path="url(#clipPath26)"><g
               id="g28"><g
                 id="g30"
                 clip-path="url(#clipPath34)"><g
                   id="g36"><g
                     id="g38"
                     clip-path="url(#clipPath42)"><g
                       id="g44"
                       transform="translate(1449.6069,110.4092)"><path
                         d="m 0,0 h -105.214 c -16.233,0 -29.393,13.16 -29.393,29.393 V 668.75 c 0,16.234 13.16,29.394 29.393,29.394 H 0 c 16.233,0 29.393,-13.16 29.393,-29.394 V 29.393 C 29.393,13.16 16.233,0 0,0"
                         style="fill:#5cc4f2;fill-opacity:1;fill-rule:nonzero;stroke:none"
                         id="path46"
                         inkscape:connector-curvature="0" /></g></g></g><g
                   id="g48"><g
                     id="g50"
                     clip-path="url(#clipPath54)"><g
                       id="g56"
                       transform="translate(1419.6069,113.4092)"><path
                         d="m 0,0 h -105.214 c -16.233,0 -29.393,13.16 -29.393,29.393 V 668.75 c 0,16.234 13.16,29.394 29.393,29.394 H 0 c 16.233,0 29.393,-13.16 29.393,-29.394 V 29.393 C 29.393,13.16 16.233,0 0,0"
                         style="fill:#4d9b2c;fill-opacity:1;fill-rule:nonzero;stroke:none"
                         id="path58"
                         inkscape:connector-curvature="0" /></g></g></g></g></g></g></g></g></g><g
       id="g82"><g
         id="g84"
         clip-path="url(#clipPath88)"><g
           id="g102"
           transform="translate(1075.1934,54.4639)" /><g
           id="g106"
           transform="translate(1224.2954,116)"><path
             d="m 0,0 h -314.591 c -31.317,0 -56.704,25.388 -56.704,56.705 v 303.59 c 0,31.317 25.387,56.705 56.704,56.705 L 0,417 c 31.317,0 56.705,-25.388 56.705,-56.705 V 56.705 C 56.705,25.388 31.317,0 0,0"
             style="fill:#74c4fb;fill-opacity:1;fill-rule:nonzero;stroke:none"
             id="path108"
             inkscape:connector-curvature="0" /></g></g></g><g
       id="g150" /><g
       id="g290"><g
         id="g292"
         clip-path="url(#clipPath296)"><g
           id="g314"><g
             id="g316" /><g
             id="g328"><g
               clip-path="url(#clipPath320)"
               id="g326"
               style="opacity:0.25999505"><g
                 transform="translate(1254.96,261.9624)"
                 id="g324"><path
                   d="m 0,0 c 0,-34.835 -83.49,-63.074 -186.48,-63.074 -102.99,0 -186.48,28.239 -186.48,63.074 0,34.834 83.49,63.074 186.48,63.074 C -83.49,63.074 0,34.834 0,0"
                   style="fill:#ffffff;fill-opacity:1;fill-rule:nonzero;stroke:none"
                   id="path322"
                   inkscape:connector-curvature="0" /></g></g></g></g><g
           id="g330"
           transform="translate(1148.708,347.1118)"><path
             d="m 0,0 -15.979,36.487 c -5.961,13.609 -19.41,22.401 -34.267,22.401 h -83.362 c -14.857,0 -28.306,-8.792 -34.267,-22.401 L -183.854,0 h -29.574 V -81.322 H 58.581 v 25.265 C 58.581,-25.098 33.483,0 2.524,0 Z"
             style="fill:#ffbe66;fill-opacity:1;fill-rule:nonzero;stroke:none"
             id="path332"
             inkscape:connector-curvature="0" /></g><g
           id="g334"
           transform="translate(1210.0928,291.0552)"><path
             d="m 0,0 c 0,30.959 -25.097,56.057 -56.056,56.057 h -3.732 l -16.12,36.808 c -5.874,13.414 -19.13,22.08 -33.774,22.08 H -140.21 V -25.266 H 0 Z"
             style="fill:#f8b238;fill-opacity:1;fill-rule:nonzero;stroke:none"
             id="path336"
             inkscape:connector-curvature="0" /></g><g
           id="g338"
           transform="translate(921.2588,280.0161)"><path
             d="m 0,0 v -0.411 c 0,-7.63 6.58,-13.816 14.696,-13.816 h 270.659 c 8.141,0 14.73,6.222 14.696,13.875 -10e-4,0.137 -0.002,0.274 -0.002,0.411 -0.035,7.608 -6.605,13.756 -14.696,13.756 H 14.696 C 6.58,13.815 0,7.63 0,0"
             style="fill:#353535;fill-opacity:1;fill-rule:nonzero;stroke:none"
             id="path340"
             inkscape:connector-curvature="0" /></g><g
           id="g342"
           transform="translate(1221.3081,280.0757)"><path
             d="M 0,0 C -0.035,7.607 -6.594,13.756 -14.674,13.756 H -154.23 v -28.042 h 139.558 c 8.129,0 14.708,6.221 14.673,13.874 C 0,-0.274 0,-0.137 0,0"
             style="fill:#272525;fill-opacity:1;fill-rule:nonzero;stroke:none"
             id="path344"
             inkscape:connector-curvature="0" /></g><g
           id="g346"
           transform="translate(1012.2246,394.7827)"><path
             d="m 0,0 c -6.287,0 -11.977,-3.721 -14.499,-9.479 l -16.727,-38.192 h 66.45 V 0 Z"
             style="fill:#ffffff;fill-opacity:1;fill-rule:nonzero;stroke:none"
             id="path348"
             inkscape:connector-curvature="0" /></g><g
           id="g350"
           transform="translate(1099.3711,394.7832)"><path
             d="M 0,0 H -35.098 V -47.671 H 33.753 L 18.04,-11.794 C 14.902,-4.629 7.822,0 0,0"
             style="fill:#ffffff;fill-opacity:1;fill-rule:nonzero;stroke:none"
             id="path352"
             inkscape:connector-curvature="0" /></g><g
           id="g354"
           transform="translate(1099.2334,394.7832)"><path
             d="m 0,0 h -32.156 v -47.671 h 65.91 L 18.041,-11.793 C 14.902,-4.629 7.822,0 0,0"
             style="fill:#ececec;fill-opacity:1;fill-rule:nonzero;stroke:none"
             id="path356"
             inkscape:connector-curvature="0" /></g><g
           id="g358"
           transform="translate(982.73,301.6182)"><path
             d="M 0,0 C 17.181,0 31.109,-13.928 31.109,-31.109 31.109,-48.29 17.181,-62.218 0,-62.218 c -17.181,0 -31.109,13.928 -31.109,31.109 C -31.109,-13.928 -17.181,0 0,0"
             style="fill:#545454;fill-opacity:1;fill-rule:nonzero;stroke:none"
             id="path360"
             inkscape:connector-curvature="0" /></g><g
           id="g362"
           transform="translate(982.73,284.6641)"><path
             d="M 0,0 C 7.817,0 14.154,-6.337 14.154,-14.155 14.154,-21.972 7.817,-28.31 0,-28.31 c -7.817,0 -14.155,6.338 -14.155,14.155 C -14.155,-6.337 -7.817,0 0,0"
             style="fill:#969696;fill-opacity:1;fill-rule:nonzero;stroke:none"
             id="path364"
             inkscape:connector-curvature="0" /></g><g
           id="g366"
           transform="translate(1162.4116,301.6182)"><path
             d="M 0,0 C 17.181,0 31.109,-13.928 31.109,-31.109 31.109,-48.29 17.181,-62.218 0,-62.218 c -17.181,0 -31.108,13.928 -31.108,31.109 C -31.108,-13.928 -17.181,0 0,0"
             style="fill:#353535;fill-opacity:1;fill-rule:nonzero;stroke:none"
             id="path368"
             inkscape:connector-curvature="0" /></g><g
           id="g370"
           transform="translate(1162.4116,284.6641)"><path
             d="M 0,0 C 7.817,0 14.155,-6.337 14.155,-14.155 14.155,-21.972 7.817,-28.31 0,-28.31 c -7.817,0 -14.154,6.338 -14.154,14.155 C -14.154,-6.337 -7.817,0 0,0"
             style="fill:#969696;fill-opacity:1;fill-rule:nonzero;stroke:none"
             id="path372"
             inkscape:connector-curvature="0" /></g><g
           id="g374"
           transform="translate(1197.0723,324.6777)"><path
             d="m 0,0 h -17.101 c 0,-10.841 8.789,-19.629 19.63,-19.629 H 9.526 C 7.746,-12.372 4.453,-5.714 0,0"
             style="fill:#e9edf5;fill-opacity:1;fill-rule:nonzero;stroke:none"
             id="path376"
             inkscape:connector-curvature="0" /></g></g></g></g></svg>