<?xml version="1.0" encoding="UTF-8" standalone="no"?>
<!-- Created with Inkscape (http://www.inkscape.org/) -->

<svg
   xmlns:dc="http://purl.org/dc/elements/1.1/"
   xmlns:cc="http://creativecommons.org/ns#"
   xmlns:rdf="http://www.w3.org/1999/02/22-rdf-syntax-ns#"
   xmlns:svg="http://www.w3.org/2000/svg"
   xmlns="http://www.w3.org/2000/svg"
   xmlns:sodipodi="http://sodipodi.sourceforge.net/DTD/sodipodi-0.dtd"
   xmlns:inkscape="http://www.inkscape.org/namespaces/inkscape"
   version="1.1"
   id="svg29"
   xml:space="preserve"
   width="571.46667"
   height="556.59998"
   viewBox="0 0 571.46669 556.59998"
   sodipodi:docname="Colores.svg"
   inkscape:version="0.92.4 5da689c313, 2019-01-14"><metadata
     id="metadata35"><rdf:RDF><cc:Work
         rdf:about=""><dc:format>image/svg+xml</dc:format><dc:type
           rdf:resource="http://purl.org/dc/dcmitype/StillImage" /><dc:title></dc:title></cc:Work></rdf:RDF></metadata><defs
     id="defs33"><clipPath
       clipPathUnits="userSpaceOnUse"
       id="clipPath45"><path
         d="M 0,768 H 1366 V 0 H 0 Z"
         id="path43"
         inkscape:connector-curvature="0" /></clipPath><clipPath
       clipPathUnits="userSpaceOnUse"
       id="clipPath61"><path
         d="M 0,768 H 1366 V 0 H 0 Z"
         id="path59"
         inkscape:connector-curvature="0" /></clipPath><clipPath
       clipPathUnits="userSpaceOnUse"
       id="clipPath69"><path
         d="m 1510,4 h -100 v 667 h 100 z"
         id="path67"
         inkscape:connector-curvature="0" /></clipPath><clipPath
       clipPathUnits="userSpaceOnUse"
       id="clipPath77"><path
         d="M 1541,-373 H 1410 V 693 h 131 z"
         id="path75"
         inkscape:connector-curvature="0" /></clipPath><clipPath
       clipPathUnits="userSpaceOnUse"
       id="clipPath85"><path
         d="m 1519,1 h -188 v 670 h 188 z"
         id="path83"
         inkscape:connector-curvature="0" /></clipPath><clipPath
       clipPathUnits="userSpaceOnUse"
       id="clipPath97"><path
         d="m 1489,4 h -188 v 670 h 188 z"
         id="path95"
         inkscape:connector-curvature="0" /></clipPath><clipPath
       clipPathUnits="userSpaceOnUse"
       id="clipPath109"><path
         d="M 0,1 H 100 V 668 H 0 Z"
         id="path107"
         inkscape:connector-curvature="0" /></clipPath><clipPath
       clipPathUnits="userSpaceOnUse"
       id="clipPath125"><path
         d="M 0,1 H 79 V 668 H 0 Z"
         id="path123"
         inkscape:connector-curvature="0" /></clipPath><clipPath
       clipPathUnits="userSpaceOnUse"
       id="clipPath137"><path
         d="M 0,768 H 1366 V 0 H 0 Z"
         id="path135"
         inkscape:connector-curvature="0" /></clipPath><clipPath
       clipPathUnits="userSpaceOnUse"
       id="clipPath177"><path
         d="M 0,768 H 1366 V 0 H 0 Z"
         id="path175"
         inkscape:connector-curvature="0" /></clipPath><clipPath
       clipPathUnits="userSpaceOnUse"
       id="clipPath201"><path
         d="m 1230.96,682.335 h 60.961 v 20.856 h -60.961 z"
         id="path199"
         inkscape:connector-curvature="0" /></clipPath><clipPath
       clipPathUnits="userSpaceOnUse"
       id="clipPath213"><path
         d="m 1232.563,657.47 h 62.566 v 24.865 h -62.566 z"
         id="path211"
         inkscape:connector-curvature="0" /></clipPath><clipPath
       clipPathUnits="userSpaceOnUse"
       id="clipPath225"><path
         d="m 1262.243,663.887 h 27.272 v 18.448 h -27.272 z"
         id="path223"
         inkscape:connector-curvature="0" /></clipPath><clipPath
       clipPathUnits="userSpaceOnUse"
       id="clipPath237"><path
         d="m 1262.243,682.335 h 27.272 v 18.449 h -27.272 z"
         id="path235"
         inkscape:connector-curvature="0" /></clipPath><clipPath
       clipPathUnits="userSpaceOnUse"
       id="clipPath249"><path
         d="m 1242.189,689.555 h 40.107 v 9.625 h -40.107 z"
         id="path247"
         inkscape:connector-curvature="0" /></clipPath><clipPath
       clipPathUnits="userSpaceOnUse"
       id="clipPath257"><path
         d="m 1289.926,669.1 h -32.106 c -1.766,0 -3.197,1.432 -3.197,3.198 v 4.032 c 0,1.766 1.431,3.198 3.197,3.198 h 32.106 c 1.766,0 3.199,-1.432 3.199,-3.198 v -4.032 c 0,-1.766 -1.433,-3.198 -3.199,-3.198"
         id="path255"
         inkscape:connector-curvature="0" /></clipPath><clipPath
       clipPathUnits="userSpaceOnUse"
       id="clipPath271"><path
         d="m 1262.243,689.555 h 20.053 v 9.625 h -20.053 z"
         id="path269"
         inkscape:connector-curvature="0" /></clipPath><clipPath
       clipPathUnits="userSpaceOnUse"
       id="clipPath279"><path
         d="m 1289.926,669.1 h -32.106 c -1.766,0 -3.197,1.432 -3.197,3.198 v 4.032 c 0,1.766 1.431,3.198 3.197,3.198 h 32.106 c 1.766,0 3.199,-1.432 3.199,-3.198 v -4.032 c 0,-1.766 -1.433,-3.198 -3.199,-3.198"
         id="path277"
         inkscape:connector-curvature="0" /></clipPath><clipPath
       clipPathUnits="userSpaceOnUse"
       id="clipPath293"><path
         d="m 1238.98,678.792 c 0,-7.789 10.415,-14.103 23.263,-14.103 v 0 c 12.846,0 23.261,6.314 23.261,14.103 v 0 c 0,7.788 -10.415,14.103 -23.261,14.103 v 0 c -12.848,0 -23.263,-6.315 -23.263,-14.103"
         id="path291"
         inkscape:connector-curvature="0" /></clipPath><clipPath
       clipPathUnits="userSpaceOnUse"
       id="clipPath305"><path
         d="m 1262.243,687.148 v -22.459 c 12.846,0 23.261,6.314 23.261,14.103 v 0 c 0,3.127 -1.68,6.017 -4.521,8.356 v 0 z"
         id="path303"
         inkscape:connector-curvature="0" /></clipPath><clipPath
       clipPathUnits="userSpaceOnUse"
       id="clipPath317"><path
         d="M 0,768 H 1366 V 0 H 0 Z"
         id="path315"
         inkscape:connector-curvature="0" /></clipPath><clipPath
       clipPathUnits="userSpaceOnUse"
       id="clipPath325"><path
         d="m 1210.56,747.304 h 102.63 v -102.63 h -102.63 z"
         id="path323"
         inkscape:connector-curvature="0" /></clipPath><clipPath
       clipPathUnits="userSpaceOnUse"
       id="clipPath341"><path
         d="M 0,768 H 1366 V 0 H 0 Z"
         id="path339"
         inkscape:connector-curvature="0" /></clipPath><clipPath
       clipPathUnits="userSpaceOnUse"
       id="clipPath373"><path
         d="m 982,369 h 53 v 124 h -53 z"
         id="path371"
         inkscape:connector-curvature="0" /></clipPath><clipPath
       clipPathUnits="userSpaceOnUse"
       id="clipPath385"><path
         d="m 1161,369 h 56 v 119 h -56 z"
         id="path383"
         inkscape:connector-curvature="0" /></clipPath><clipPath
       clipPathUnits="userSpaceOnUse"
       id="clipPath397"><path
         d="m 980,194 h 58 v 119 h -58 z"
         id="path395"
         inkscape:connector-curvature="0" /></clipPath><clipPath
       clipPathUnits="userSpaceOnUse"
       id="clipPath409"><path
         d="m 1158,193 h 59 v 117 h -59 z"
         id="path407"
         inkscape:connector-curvature="0" /></clipPath></defs><sodipodi:namedview
     pagecolor="#ffffff"
     bordercolor="#666666"
     borderopacity="1"
     objecttolerance="10"
     gridtolerance="10"
     guidetolerance="10"
     inkscape:pageopacity="0"
     inkscape:pageshadow="2"
     inkscape:window-width="1366"
     inkscape:window-height="715"
     id="namedview31"
     showgrid="false"
     fit-margin-left="0.4"
     fit-margin-right="0.4"
     fit-margin-top="0.3"
     fit-margin-bottom="0.3"
     inkscape:zoom="0.50390625"
     inkscape:cx="346.601"
     inkscape:cy="234.59458"
     inkscape:window-x="0"
     inkscape:window-y="0"
     inkscape:window-maximized="1"
     inkscape:current-layer="g37" /><g
     id="g37"
     inkscape:groupmode="layer"
     inkscape:label="Consumo"
     transform="matrix(1.3333333,0,0,-1.3333333,-564.06563,834.00541)"><g
       id="g39"
       transform="translate(-428.65117,92.279072)"><g
         id="g41"
         clip-path="url(#clipPath45)"><g
           id="g47"
           transform="translate(1223.2954,116)"><path
             d="m 0,0 h -314.591 c -31.317,0 -56.704,25.387 -56.704,56.705 v 303.59 c 0,31.318 25.387,56.705 56.704,56.705 L 0,417 c 31.317,0 56.705,-25.387 56.705,-56.705 V 56.705 C 56.705,25.387 31.317,0 0,0"
             style="fill:#74c4fb;fill-opacity:1;fill-rule:nonzero;stroke:none"
             id="path49"
             inkscape:connector-curvature="0" /></g><g
           id="g51"
           transform="translate(1223.2954,116)"><path
             d="m 0,0 h -314.591 c -31.317,0 -56.704,25.387 -56.704,56.705 v 303.59 c 0,31.318 25.387,56.705 56.704,56.705 L 0,417 c 31.317,0 56.705,-25.387 56.705,-56.705 V 56.705 C 56.705,25.387 31.317,0 0,0"
             style="fill:#74c4fb;fill-opacity:1;fill-rule:nonzero;stroke:none"
             id="path53"
             inkscape:connector-curvature="0" /></g></g></g><g
       id="g55"><g
         id="g57"
         clip-path="url(#clipPath61)"><g
           id="g63"><g
             id="g65"
             clip-path="url(#clipPath69)"><g
               id="g71"><g
                 id="g73"
                 clip-path="url(#clipPath77)"><g
                   id="g79"><g
                     id="g81"
                     clip-path="url(#clipPath85)"><g
                       id="g87"
                       transform="translate(1440.6069,-32.5908)"><path
                         d="m 0,0 h -105.214 c -16.233,0 -29.393,13.16 -29.393,29.393 v 639.358 c 0,16.233 13.16,29.393 29.393,29.393 H 0 c 16.233,0 29.393,-13.16 29.393,-29.393 V 29.393 C 29.393,13.16 16.233,0 0,0"
                         style="fill:#5cc4f2;fill-opacity:1;fill-rule:nonzero;stroke:none"
                         id="path89"
                         inkscape:connector-curvature="0" /></g></g></g><g
                   id="g91"><g
                     id="g93"
                     clip-path="url(#clipPath97)"><g
                       id="g99"
                       transform="translate(1410.6069,-29.5908)"><path
                         d="m 0,0 h -105.214 c -16.233,0 -29.393,13.16 -29.393,29.393 v 639.358 c 0,16.233 13.16,29.393 29.393,29.393 H 0 c 16.233,0 29.393,-13.16 29.393,-29.393 V 29.393 C 29.393,13.16 16.233,0 0,0"
                         style="fill:#4d9b2c;fill-opacity:1;fill-rule:nonzero;stroke:none"
                         id="path101"
                         inkscape:connector-curvature="0" /></g></g></g></g></g></g></g></g></g><g
       id="g335"
       transform="translate(-428.65117,92.279072)"><g
         id="g337"
         clip-path="url(#clipPath341)"><g
           id="g343"
           transform="translate(979.8286,369.2571)"><path
             d="m 0,0 v 0 c -30.454,0 -55.372,24.917 -55.372,55.371 v 10e-4 c 0,30.454 24.918,55.371 55.372,55.371 30.455,0 55.372,-24.917 55.372,-55.371 V 55.371 C 55.372,24.917 30.455,0 0,0"
             style="fill:#fe5857;fill-opacity:1;fill-rule:nonzero;stroke:none"
             id="path345"
             inkscape:connector-curvature="0" /></g><g
           id="g347"
           transform="translate(1159.7856,193.9141)"><path
             d="m 0,0 v 0 c -30.454,0 -55.372,24.917 -55.372,55.372 0,30.454 24.918,55.371 55.372,55.371 30.455,0 55.372,-24.917 55.372,-55.371 C 55.372,24.917 30.455,0 0,0"
             style="fill:#353535;fill-opacity:1;fill-rule:nonzero;stroke:none"
             id="path349"
             inkscape:connector-curvature="0" /></g><g
           id="g351"
           transform="translate(1159.7856,369.2571)"><path
             d="m 0,0 v 0 c -30.454,0 -55.372,24.917 -55.372,55.371 v 10e-4 c 0,30.454 24.918,55.371 55.372,55.371 30.455,0 55.372,-24.917 55.372,-55.371 V 55.371 C 55.372,24.917 30.455,0 0,0"
             style="fill:#ffbe66;fill-opacity:1;fill-rule:nonzero;stroke:none"
             id="path353"
             inkscape:connector-curvature="0" /></g><g
           id="g355"
           transform="translate(979.8286,193.9141)"><path
             d="m 0,0 v 0 c -30.454,0 -55.372,24.917 -55.372,55.372 0,30.454 24.918,55.371 55.372,55.371 30.455,0 55.372,-24.917 55.372,-55.371 C 55.372,24.917 30.455,0 0,0"
             style="fill:#94c282;fill-opacity:1;fill-rule:nonzero;stroke:none"
             id="path357"
             inkscape:connector-curvature="0" /></g><g
           id="g359"
           transform="translate(1073,494)"><path
             d="M 0,0 V -323"
             style="fill:none;stroke:#ffffff;stroke-width:4;stroke-linecap:butt;stroke-linejoin:miter;stroke-miterlimit:10;stroke-dasharray:none;stroke-opacity:1"
             id="path361"
             inkscape:connector-curvature="0" /></g><g
           id="g363"
           transform="translate(1235,332)"><path
             d="M 0,0 H -323"
             style="fill:none;stroke:#ffffff;stroke-width:4;stroke-linecap:butt;stroke-linejoin:miter;stroke-miterlimit:10;stroke-dasharray:none;stroke-opacity:1"
             id="path365"
             inkscape:connector-curvature="0" /></g></g></g><g
       id="g367"
       transform="translate(-428.65117,92.279072)"><g
         id="g369"
         clip-path="url(#clipPath373)"><g
           id="g375"
           transform="translate(980.8286,369.2571)"><path
             d="m 0,0 v 0 c -30.454,0 -55.372,24.917 -55.372,55.371 v 10e-4 c 0,30.454 24.918,55.371 55.372,55.371 30.455,0 55.372,-24.917 55.372,-55.371 V 55.371 C 55.372,24.917 30.455,0 0,0"
             style="fill:#ce0202;fill-opacity:1;fill-rule:nonzero;stroke:none"
             id="path377"
             inkscape:connector-curvature="0" /></g></g></g><g
       id="g379"
       transform="translate(-428.65117,92.279072)"><g
         id="g381"
         clip-path="url(#clipPath385)"><g
           id="g387"
           transform="translate(1160.7856,369.2571)"><path
             d="m 0,0 v 0 c -30.454,0 -55.372,24.917 -55.372,55.371 v 10e-4 c 0,30.454 24.918,55.371 55.372,55.371 30.455,0 55.372,-24.917 55.372,-55.371 V 55.371 C 55.372,24.917 30.455,0 0,0"
             style="fill:#f8b238;fill-opacity:1;fill-rule:nonzero;stroke:none"
             id="path389"
             inkscape:connector-curvature="0" /></g></g></g><g
       id="g391"
       transform="translate(-428.65117,92.279072)"><g
         id="g393"
         clip-path="url(#clipPath397)"><g
           id="g399"
           transform="translate(980.8286,193.9141)"><path
             d="m 0,0 v 0 c -30.454,0 -55.372,24.917 -55.372,55.372 0,30.454 24.918,55.371 55.372,55.371 30.455,0 55.372,-24.917 55.372,-55.371 C 55.372,24.917 30.455,0 0,0"
             style="fill:#4d9b2c;fill-opacity:1;fill-rule:nonzero;stroke:none"
             id="path401"
             inkscape:connector-curvature="0" /></g></g></g><g
       id="g403"
       transform="translate(-428.65117,92.279072)"><g
         id="g405"
         clip-path="url(#clipPath409)"><g
           id="g411"
           transform="translate(1159.7856,193.9141)"><path
             d="m 0,0 v 0 c -30.454,0 -55.372,24.917 -55.372,55.372 0,30.454 24.918,55.371 55.372,55.371 30.455,0 55.372,-24.917 55.372,-55.371 C 55.372,24.917 30.455,0 0,0"
             style="fill:#272525;fill-opacity:1;fill-rule:nonzero;stroke:none"
             id="path413"
             inkscape:connector-curvature="0" /></g></g></g></g></svg>