<?xml version="1.0" encoding="UTF-8" standalone="no"?>
<!-- Created with Inkscape (http://www.inkscape.org/) -->

<svg
   xmlns:dc="http://purl.org/dc/elements/1.1/"
   xmlns:cc="http://creativecommons.org/ns#"
   xmlns:rdf="http://www.w3.org/1999/02/22-rdf-syntax-ns#"
   xmlns:svg="http://www.w3.org/2000/svg"
   xmlns="http://www.w3.org/2000/svg"
   xmlns:sodipodi="http://sodipodi.sourceforge.net/DTD/sodipodi-0.dtd"
   xmlns:inkscape="http://www.inkscape.org/namespaces/inkscape"
   version="1.1"
   id="svg2"
   xml:space="preserve"
   width="565.00012"
   height="721.93329"
   viewBox="0 0 565.00014 721.93329"
   sodipodi:docname="Consumoicono.svg"
   inkscape:version="0.92.4 5da689c313, 2019-01-14"><metadata
     id="metadata8"><rdf:RDF><cc:Work
         rdf:about=""><dc:format>image/svg+xml</dc:format><dc:type
           rdf:resource="http://purl.org/dc/dcmitype/StillImage" /><dc:title></dc:title></cc:Work></rdf:RDF></metadata><defs
     id="defs6"><clipPath
       clipPathUnits="userSpaceOnUse"
       id="clipPath18"><path
         d="M 0,768 H 1366 V 0 H 0 Z"
         id="path16"
         inkscape:connector-curvature="0" /></clipPath><clipPath
       clipPathUnits="userSpaceOnUse"
       id="clipPath30"><path
         d="m 860.5,736 h 418 v -44 h -418 z"
         id="path28"
         inkscape:connector-curvature="0" /></clipPath><clipPath
       clipPathUnits="userSpaceOnUse"
       id="clipPath66"><path
         d="M 30,4 H 218 V 674 H 30 Z"
         id="path64"
         inkscape:connector-curvature="0" /></clipPath><clipPath
       clipPathUnits="userSpaceOnUse"
       id="clipPath78"><path
         d="M 0,7 H 188 V 677 H 0 Z"
         id="path76"
         inkscape:connector-curvature="0" /></clipPath><clipPath
       clipPathUnits="userSpaceOnUse"
       id="clipPath116"><path
         d="M 0,768 H 1366 V 0 H 0 Z"
         id="path114"
         inkscape:connector-curvature="0" /></clipPath><clipPath
       clipPathUnits="userSpaceOnUse"
       id="clipPath128"><path
         d="M 83,225.5 C 83,219.701 87.701,215 93.5,215 v 0 c 5.799,0 10.5,4.701 10.5,10.5 v 0 c 0,5.799 -4.701,10.5 -10.5,10.5 v 0 C 87.701,236 83,231.299 83,225.5"
         id="path126"
         inkscape:connector-curvature="0" /></clipPath><clipPath
       clipPathUnits="userSpaceOnUse"
       id="clipPath138"><path
         d="M 65,232.5 C 65,226.701 69.701,222 75.5,222 v 0 c 5.799,0 10.5,4.701 10.5,10.5 v 0 c 0,5.799 -4.701,10.5 -10.5,10.5 v 0 C 69.701,243 65,238.299 65,232.5"
         id="path136"
         inkscape:connector-curvature="0" /></clipPath><clipPath
       clipPathUnits="userSpaceOnUse"
       id="clipPath148"><path
         d="M 46,225.5 C 46,219.701 50.701,215 56.5,215 v 0 c 5.799,0 10.5,4.701 10.5,10.5 v 0 c 0,5.799 -4.701,10.5 -10.5,10.5 v 0 C 50.701,236 46,231.299 46,225.5"
         id="path146"
         inkscape:connector-curvature="0" /></clipPath><clipPath
       clipPathUnits="userSpaceOnUse"
       id="clipPath158"><path
         d="M 0,768 H 1366 V 0 H 0 Z"
         id="path156"
         inkscape:connector-curvature="0" /></clipPath><clipPath
       clipPathUnits="userSpaceOnUse"
       id="clipPath268"><path
         d="m 830,0 h 446 V 364 H 830 Z"
         id="path266"
         inkscape:connector-curvature="0" /></clipPath><clipPath
       clipPathUnits="userSpaceOnUse"
       id="clipPath280"><path
         d="M 883.396,362 C 859.429,362 840,342.571 840,318.604 v 0 V 0 h 423 v 318.604 c 0,23.967 -19.429,43.396 -43.396,43.396 v 0 z"
         id="path278"
         inkscape:connector-curvature="0" /></clipPath><clipPath
       clipPathUnits="userSpaceOnUse"
       id="clipPath290"><path
         d="M 0,768 H 1366 V 0 H 0 Z"
         id="path288"
         inkscape:connector-curvature="0" /></clipPath><clipPath
       clipPathUnits="userSpaceOnUse"
       id="clipPath298"><path
         d="m 1582,1 h -100 v 667 h 100 z"
         id="path296"
         inkscape:connector-curvature="0" /></clipPath><clipPath
       clipPathUnits="userSpaceOnUse"
       id="clipPath306"><path
         d="M 1613,-376 H 1482 V 690 h 131 z"
         id="path304"
         inkscape:connector-curvature="0" /></clipPath><clipPath
       clipPathUnits="userSpaceOnUse"
       id="clipPath314"><path
         d="m 1561,1 h -188 v 670 h 188 z"
         id="path312"
         inkscape:connector-curvature="0" /></clipPath><clipPath
       clipPathUnits="userSpaceOnUse"
       id="clipPath330"><path
         d="M 0,768 H 1366 V 0 H 0 Z"
         id="path328"
         inkscape:connector-curvature="0" /></clipPath><clipPath
       clipPathUnits="userSpaceOnUse"
       id="clipPath354"><path
         d="m 929.531,290.952 h 234.627 v 80.267 H 929.531 Z"
         id="path352"
         inkscape:connector-curvature="0" /></clipPath><clipPath
       clipPathUnits="userSpaceOnUse"
       id="clipPath366"><path
         d="m 935.706,195.249 h 240.801 v 95.703 H 935.706 Z"
         id="path364"
         inkscape:connector-curvature="0" /></clipPath><clipPath
       clipPathUnits="userSpaceOnUse"
       id="clipPath378"><path
         d="m 1049.932,219.946 h 104.965 v 71.006 h -104.965 z"
         id="path376"
         inkscape:connector-curvature="0" /></clipPath><clipPath
       clipPathUnits="userSpaceOnUse"
       id="clipPath390"><path
         d="m 1049.932,290.952 h 104.965 v 71.005 h -104.965 z"
         id="path388"
         inkscape:connector-curvature="0" /></clipPath><clipPath
       clipPathUnits="userSpaceOnUse"
       id="clipPath402"><path
         d="m 972.751,318.736 h 154.361 v 37.047 H 972.751 Z"
         id="path400"
         inkscape:connector-curvature="0" /></clipPath><clipPath
       clipPathUnits="userSpaceOnUse"
       id="clipPath410"><path
         d="m 1165.592,240.013 h -141.79 c -1.767,0 -3.198,1.432 -3.198,3.198 v 33.737 c 0,1.767 1.431,3.198 3.198,3.198 h 141.79 c 1.766,0 3.197,-1.431 3.197,-3.198 v -33.737 c 0,-1.766 -1.431,-3.198 -3.197,-3.198"
         id="path408"
         inkscape:connector-curvature="0" /></clipPath><clipPath
       clipPathUnits="userSpaceOnUse"
       id="clipPath424"><path
         d="m 1049.932,318.736 h 77.18 v 37.047 h -77.18 z"
         id="path422"
         inkscape:connector-curvature="0" /></clipPath><clipPath
       clipPathUnits="userSpaceOnUse"
       id="clipPath432"><path
         d="m 1165.592,240.013 h -141.79 c -1.767,0 -3.198,1.432 -3.198,3.198 v 33.737 c 0,1.767 1.431,3.198 3.198,3.198 h 141.79 c 1.766,0 3.197,-1.431 3.197,-3.198 v -33.737 c 0,-1.766 -1.431,-3.198 -3.197,-3.198"
         id="path430"
         inkscape:connector-curvature="0" /></clipPath><clipPath
       clipPathUnits="userSpaceOnUse"
       id="clipPath446"><path
         d="m 960.404,277.312 c 0,-29.978 40.083,-54.279 89.528,-54.279 v 0 c 49.445,0 89.529,24.301 89.529,54.279 v 0 c 0,29.977 -40.084,54.279 -89.529,54.279 v 0 c -49.445,0 -89.528,-24.302 -89.528,-54.279"
         id="path444"
         inkscape:connector-curvature="0" /></clipPath><clipPath
       clipPathUnits="userSpaceOnUse"
       id="clipPath458"><path
         d="m 1049.932,309.475 v -86.442 c 49.445,0 89.529,24.301 89.529,54.279 v 0 c 0,12.039 -6.463,23.161 -17.404,32.163 v 0 z"
         id="path456"
         inkscape:connector-curvature="0" /></clipPath><clipPath
       clipPathUnits="userSpaceOnUse"
       id="clipPath470"><path
         d="M 0,768 H 1366 V 0 H 0 Z"
         id="path468"
         inkscape:connector-curvature="0" /></clipPath><clipPath
       clipPathUnits="userSpaceOnUse"
       id="clipPath478"><path
         d="m 851,541 h 395 V 146 H 851 Z"
         id="path476"
         inkscape:connector-curvature="0" /></clipPath><clipPath
       clipPathUnits="userSpaceOnUse"
       id="clipPath502"><path
         d="M 0,768 H 1366 V 0 H 0 Z"
         id="path500"
         inkscape:connector-curvature="0" /></clipPath><clipPath
       clipPathUnits="userSpaceOnUse"
       id="clipPath522"><path
         d="M 0,768 H 1366 V 0 H 0 Z"
         id="path520"
         inkscape:connector-curvature="0" /></clipPath></defs><sodipodi:namedview
     pagecolor="#ffffff"
     bordercolor="#666666"
     borderopacity="1"
     objecttolerance="10"
     gridtolerance="10"
     guidetolerance="10"
     inkscape:pageopacity="0"
     inkscape:pageshadow="2"
     inkscape:window-width="1366"
     inkscape:window-height="715"
     id="namedview4"
     showgrid="false"
     fit-margin-top="0.3"
     fit-margin-left="0.5"
     fit-margin-right="0.5"
     fit-margin-bottom="0.3"
     inkscape:zoom="0.34260616"
     inkscape:cx="-803.12266"
     inkscape:cy="568.30537"
     inkscape:window-x="0"
     inkscape:window-y="0"
     inkscape:window-maximized="1"
     inkscape:current-layer="g10" /><g
     id="g10"
     inkscape:groupmode="layer"
     inkscape:label="Consumo"
     transform="matrix(1.3333333,0,0,-1.3333333,-1119.5,721.63332)"><g
       id="g262"><g
         id="g264"
         clip-path="url(#clipPath268)"><g
           id="g270"
           transform="translate(1219.6041,362)"><path
             d="m 0,0 h -336.208 c -23.967,0 -43.396,-19.429 -43.396,-43.396 v -320.208 c 0,-23.967 19.429,-43.396 43.396,-43.396 L 0,-407 c 23.967,0 43.396,19.429 43.396,43.396 V -43.396 C 43.396,-19.429 23.967,0 0,0"
             style="fill:#74c4fb;fill-opacity:1;fill-rule:nonzero;stroke:none"
             id="path272"
             inkscape:connector-curvature="0" /></g></g></g><g
       id="g274"><g
         id="g276"
         clip-path="url(#clipPath280)"><path
           d="m 840,363 h 425 V 7 H 840 Z"
           style="fill:#74c4fb;fill-opacity:1;fill-rule:nonzero;stroke:none"
           id="path282"
           inkscape:connector-curvature="0" /></g></g><g
       id="g284"><g
         id="g286"
         clip-path="url(#clipPath290)"><g
           id="g292"><g
             id="g294"
             clip-path="url(#clipPath298)"><g
               id="g300"><g
                 id="g302"
                 clip-path="url(#clipPath306)"><g
                   id="g308"><g
                     id="g310"
                     clip-path="url(#clipPath314)"><g
                       id="g316"
                       transform="translate(1482.6071,-32.5908)"><path
                         d="m 0,0 h -105.214 c -16.233,0 -29.393,13.16 -29.393,29.393 v 639.358 c 0,16.233 13.16,29.393 29.393,29.393 H 0 c 16.233,0 29.393,-13.16 29.393,-29.393 V 29.393 C 29.393,13.16 16.233,0 0,0"
                         style="fill:#4d9b2c;fill-opacity:1;fill-rule:nonzero;stroke:none"
                         id="path318"
                         inkscape:connector-curvature="0" /></g></g></g></g></g></g></g></g></g><text
       transform="matrix(1,0,0,-0.87518235,889.6416,66.5789)"
       style="font-variant:normal;font-weight:500;font-stretch:normal;font-size:56.96469879px;font-family:Futura;-inkscape-font-specification:Futura-Medium;writing-mode:lr-tb;fill:#ffffff;fill-opacity:1;fill-rule:nonzero;stroke:none"
       id="text322"><tspan
         x="0 39.63604 90.533997 138.6122 171.82263 213.91954 268.66263"
         y="0"
         sodipodi:role="line"
         id="tspan320">CONSUMO</tspan></text>
<g
       id="g324"><g
         id="g326"
         clip-path="url(#clipPath330)"><g
           id="g332"
           transform="translate(1051.1194,517.3269)"><path
             d="m 0,0 c 95.359,0 172.663,-77.304 172.663,-172.663 0,-95.36 -77.304,-172.664 -172.663,-172.664 -95.359,0 -172.664,77.304 -172.664,172.664 C -172.664,-77.304 -95.359,0 0,0"
             style="fill:#ffbe66;fill-opacity:1;fill-rule:nonzero;stroke:none"
             id="path334"
             inkscape:connector-curvature="0" /></g><g
           id="g336"
           transform="translate(1222.5956,344.6636)"><path
             d="M 0,0 C 0,95.358 -77.303,172.663 -172.664,172.663 V -172.664 C -77.303,-172.664 0,-95.358 0,0"
             style="fill:#f8b238;fill-opacity:1;fill-rule:nonzero;stroke:none"
             id="path338"
             inkscape:connector-curvature="0" /></g><g
           id="g340"
           transform="translate(1023.5227,404.2007)"><path
             d="m 0,0 c -3.816,0 -6.91,3.094 -6.91,6.91 0,7.62 -6.198,13.818 -13.818,13.818 -7.621,0 -13.819,-6.198 -13.819,-13.818 0,-3.816 -3.094,-6.91 -6.91,-6.91 -3.815,0 -6.909,3.094 -6.909,6.91 0,15.239 12.398,27.637 27.637,27.637 C -5.491,34.547 6.908,22.148 6.908,6.91 6.91,3.093 3.817,0 0,0"
             style="fill:#272525;fill-opacity:1;fill-rule:nonzero;stroke:none"
             id="path342"
             inkscape:connector-curvature="0" /></g><g
           id="g344"
           transform="translate(1129.4658,404.2007)"><path
             d="m 0,0 c -3.816,0 -6.91,3.094 -6.91,6.91 0,7.62 -6.198,13.818 -13.818,13.818 -7.621,0 -13.819,-6.198 -13.819,-13.818 0,-3.816 -3.094,-6.91 -6.91,-6.91 -3.815,0 -6.909,3.094 -6.909,6.91 0,15.239 12.398,27.637 27.637,27.637 C -5.491,34.547 6.908,22.148 6.908,6.91 6.91,3.093 3.817,0 0,0"
             style="fill:#272525;fill-opacity:1;fill-rule:nonzero;stroke:none"
             id="path346"
             inkscape:connector-curvature="0" /></g></g></g><g
       id="g348"><g
         id="g350"
         clip-path="url(#clipPath354)"><g
           id="g356"
           transform="translate(1139.1581,260.45)"><path
             d="m 0,0 h -178.37 c -4.287,0 -7.794,3.508 -7.794,7.794 v 80.732 c 0,4.287 3.507,7.795 7.794,7.795 H 0 c 4.287,0 7.794,-3.508 7.794,-7.795 V 7.794 C 7.794,3.508 4.287,0 0,0"
             style="fill:#e52929;fill-opacity:1;fill-rule:nonzero;stroke:none"
             id="path358"
             inkscape:connector-curvature="0" /></g></g></g><g
       id="g360"><g
         id="g362"
         clip-path="url(#clipPath366)"><g
           id="g368"
           transform="translate(1147.179,299.4414)"><path
             d="m 0,0 c 0,-41.347 -43.539,-74.865 -97.247,-74.865 -53.708,0 -97.247,33.518 -97.247,74.865 0,41.347 43.539,74.865 97.247,74.865 C -43.539,74.865 0,41.347 0,0"
             style="fill:#e52929;fill-opacity:1;fill-rule:nonzero;stroke:none"
             id="path370"
             inkscape:connector-curvature="0" /></g></g></g><g
       id="g372"><g
         id="g374"
         clip-path="url(#clipPath378)"><g
           id="g380"
           transform="translate(1150.2661,302.8025)"><path
             d="m 0,0 c 0,-42.68 -43.539,-77.28 -97.247,-77.28 -53.708,0 -97.247,34.6 -97.247,77.28 0,42.68 43.539,77.28 97.247,77.28 C -43.539,77.28 0,42.68 0,0"
             style="fill:#ce0202;fill-opacity:1;fill-rule:nonzero;stroke:none"
             id="path382"
             inkscape:connector-curvature="0" /></g></g></g><g
       id="g384"><g
         id="g386"
         clip-path="url(#clipPath390)"><g
           id="g392"
           transform="translate(1142.2454,260.45)"><path
             d="m 0,0 h -178.37 c -4.287,0 -7.794,3.508 -7.794,7.794 v 80.732 c 0,4.287 3.507,7.795 7.794,7.795 H 0 c 4.287,0 7.794,-3.508 7.794,-7.795 V 7.794 C 7.794,3.508 4.287,0 0,0"
             style="fill:#ce0202;fill-opacity:1;fill-rule:nonzero;stroke:none"
             id="path394"
             inkscape:connector-curvature="0" /></g></g></g><g
       id="g396"><g
         id="g398"
         clip-path="url(#clipPath402)"><g
           id="g404"><g
             id="g406"
             clip-path="url(#clipPath410)"><path
               d="m 1124.025,318.736 h -80.267 v 37.047 h 80.267 z"
               style="fill:#e8e9ea;fill-opacity:1;fill-rule:nonzero;stroke:none"
               id="path412"
               inkscape:connector-curvature="0" /></g></g><g
           id="g414"
           transform="translate(1119.2834,323.3672)"><path
             d="m 0,0 h -141.79 c -1.766,0 -3.198,1.432 -3.198,3.198 v 33.738 c 0,1.766 1.432,3.198 3.198,3.198 H 0 c 1.766,0 3.198,-1.432 3.198,-3.198 V 3.198 C 3.198,1.432 1.766,0 0,0"
             style="fill:#ffffff;fill-opacity:1;fill-rule:nonzero;stroke:none"
             id="path416"
             inkscape:connector-curvature="0" /></g></g></g><g
       id="g418"><g
         id="g420"
         clip-path="url(#clipPath424)"><g
           id="g426"><g
             id="g428"
             clip-path="url(#clipPath432)"><path
               d="m 1124.025,318.736 h -80.267 v 37.047 h 80.267 z"
               style="fill:#e8e9ea;fill-opacity:1;fill-rule:nonzero;stroke:none"
               id="path434"
               inkscape:connector-curvature="0" /></g></g><g
           id="g436"
           transform="translate(1119.2834,323.3672)"><path
             d="m 0,0 h -141.79 c -1.766,0 -3.198,1.432 -3.198,3.198 v 33.738 c 0,1.766 1.432,3.198 3.198,3.198 H 0 c 1.766,0 3.198,-1.432 3.198,-3.198 V 3.198 C 3.198,1.432 1.766,0 0,0"
             style="fill:#f2f2f2;fill-opacity:1;fill-rule:nonzero;stroke:none"
             id="path438"
             inkscape:connector-curvature="0" /></g></g></g><g
       id="g440"><g
         id="g442"
         clip-path="url(#clipPath446)"><g
           id="g448"
           transform="translate(1137.6338,248.4763)"><path
             d="m 0,0 c 0,-29.977 -40.083,-54.279 -89.529,-54.279 -49.445,0 -89.529,24.302 -89.529,54.279 0,29.977 40.084,54.279 89.529,54.279 C -40.083,54.279 0,29.977 0,0"
             style="fill:#f0d5df;fill-opacity:1;fill-rule:nonzero;stroke:none"
             id="path450"
             inkscape:connector-curvature="0" /></g></g></g><g
       id="g452"><g
         id="g454"
         clip-path="url(#clipPath458)"><g
           id="g460"
           transform="translate(1137.6338,248.4763)"><path
             d="m 0,0 c 0,-29.977 -40.083,-54.279 -89.529,-54.279 -49.445,0 -89.529,24.302 -89.529,54.279 0,29.977 40.084,54.279 89.529,54.279 C -40.083,54.279 0,29.977 0,0"
             style="fill:#f2bbd0;fill-opacity:1;fill-rule:nonzero;stroke:none"
             id="path462"
             inkscape:connector-curvature="0" /></g></g></g><g
       id="g464"><g
         id="g466"
         clip-path="url(#clipPath470)"><g
           id="g472"><g
             id="g474" /><g
             id="g486"><g
               clip-path="url(#clipPath478)"
               id="g484"
               style="opacity:0.25999505"><g
                 transform="translate(1246,343.5)"
                 id="g482"><path
                   d="m 0,0 c 0,-109.076 -88.424,-197.5 -197.5,-197.5 -109.076,0 -197.5,88.424 -197.5,197.5 0,109.076 88.424,197.5 197.5,197.5 C -88.424,197.5 0,109.076 0,0"
                   style="fill:#ffffff;fill-opacity:1;fill-rule:nonzero;stroke:none"
                   id="path480"
                   inkscape:connector-curvature="0" /></g></g></g></g></g></g></g></svg>