<?xml version="1.0" encoding="UTF-8" standalone="no"?>
<!-- Created with Inkscape (http://www.inkscape.org/) -->

<svg
   xmlns:dc="http://purl.org/dc/elements/1.1/"
   xmlns:cc="http://creativecommons.org/ns#"
   xmlns:rdf="http://www.w3.org/1999/02/22-rdf-syntax-ns#"
   xmlns:svg="http://www.w3.org/2000/svg"
   xmlns="http://www.w3.org/2000/svg"
   xmlns:sodipodi="http://sodipodi.sourceforge.net/DTD/sodipodi-0.dtd"
   xmlns:inkscape="http://www.inkscape.org/namespaces/inkscape"
   version="1.1"
   id="svg644"
   xml:space="preserve"
   width="433.83832"
   height="137.43973"
   viewBox="0 0 433.83833 137.43973"
   sodipodi:docname="Consumo.svg"
   inkscape:version="0.92.4 5da689c313, 2019-01-14"><metadata
     id="metadata650"><rdf:RDF><cc:Work
         rdf:about=""><dc:format>image/svg+xml</dc:format><dc:type
           rdf:resource="http://purl.org/dc/dcmitype/StillImage" /><dc:title></dc:title></cc:Work></rdf:RDF></metadata><defs
     id="defs648"><clipPath
       clipPathUnits="userSpaceOnUse"
       id="clipPath660"><path
         d="M 0,768 H 1366 V 0 H 0 Z"
         id="path658"
         inkscape:connector-curvature="0" /></clipPath><clipPath
       clipPathUnits="userSpaceOnUse"
       id="clipPath668"><path
         d="m 1487,34 h -40 v 679 h 40 z"
         id="path666"
         inkscape:connector-curvature="0" /></clipPath><clipPath
       clipPathUnits="userSpaceOnUse"
       id="clipPath676"><path
         d="M 1584,-333 H 1453 V 733 h 131 z"
         id="path674"
         inkscape:connector-curvature="0" /></clipPath><clipPath
       clipPathUnits="userSpaceOnUse"
       id="clipPath684"><path
         d="m 1532,44 h -188 v 670 h 188 z"
         id="path682"
         inkscape:connector-curvature="0" /></clipPath><clipPath
       clipPathUnits="userSpaceOnUse"
       id="clipPath696"><path
         d="M 5,4 H 105 V 671.001 H 5 Z"
         id="path694"
         inkscape:connector-curvature="0" /></clipPath><clipPath
       clipPathUnits="userSpaceOnUse"
       id="clipPath712"><path
         d="M 5,4 H 83.999 V 671.001 H 5 Z"
         id="path710"
         inkscape:connector-curvature="0" /></clipPath><clipPath
       clipPathUnits="userSpaceOnUse"
       id="clipPath728"><path
         d="M 0,768 H 1366 V 0 H 0 Z"
         id="path726"
         inkscape:connector-curvature="0" /></clipPath><clipPath
       clipPathUnits="userSpaceOnUse"
       id="clipPath752"><path
         d="m 1233.959,681.335 h 60.962 v 20.856 h -60.962 z"
         id="path750"
         inkscape:connector-curvature="0" /></clipPath><clipPath
       clipPathUnits="userSpaceOnUse"
       id="clipPath764"><path
         d="m 1235.564,656.47 h 62.565 v 24.865 h -62.565 z"
         id="path762"
         inkscape:connector-curvature="0" /></clipPath><clipPath
       clipPathUnits="userSpaceOnUse"
       id="clipPath776"><path
         d="m 1265.242,662.887 h 27.272 v 18.448 h -27.272 z"
         id="path774"
         inkscape:connector-curvature="0" /></clipPath><clipPath
       clipPathUnits="userSpaceOnUse"
       id="clipPath788"><path
         d="m 1265.242,681.335 h 27.272 v 18.449 h -27.272 z"
         id="path786"
         inkscape:connector-curvature="0" /></clipPath><clipPath
       clipPathUnits="userSpaceOnUse"
       id="clipPath800"><path
         d="m 1245.19,688.555 h 40.106 v 9.625 h -40.106 z"
         id="path798"
         inkscape:connector-curvature="0" /></clipPath><clipPath
       clipPathUnits="userSpaceOnUse"
       id="clipPath808"><path
         d="m 1292.926,668.101 h -32.106 c -1.766,0 -3.197,1.431 -3.197,3.197 v 4.032 c 0,1.766 1.431,3.198 3.197,3.198 h 32.106 c 1.766,0 3.199,-1.432 3.199,-3.198 v -4.032 c 0,-1.766 -1.433,-3.197 -3.199,-3.197"
         id="path806"
         inkscape:connector-curvature="0" /></clipPath><clipPath
       clipPathUnits="userSpaceOnUse"
       id="clipPath822"><path
         d="m 1265.242,688.555 h 20.053 v 9.625 h -20.053 z"
         id="path820"
         inkscape:connector-curvature="0" /></clipPath><clipPath
       clipPathUnits="userSpaceOnUse"
       id="clipPath830"><path
         d="m 1292.926,668.101 h -32.106 c -1.766,0 -3.197,1.431 -3.197,3.197 v 4.032 c 0,1.766 1.431,3.198 3.197,3.198 h 32.106 c 1.766,0 3.199,-1.432 3.199,-3.198 v -4.032 c 0,-1.766 -1.433,-3.197 -3.199,-3.197"
         id="path828"
         inkscape:connector-curvature="0" /></clipPath><clipPath
       clipPathUnits="userSpaceOnUse"
       id="clipPath844"><path
         d="m 1241.981,677.792 c 0,-7.789 10.415,-14.103 23.261,-14.103 v 0 c 12.847,0 23.262,6.314 23.262,14.103 v 0 c 0,7.788 -10.415,14.103 -23.262,14.103 v 0 c -12.846,0 -23.261,-6.315 -23.261,-14.103"
         id="path842"
         inkscape:connector-curvature="0" /></clipPath><clipPath
       clipPathUnits="userSpaceOnUse"
       id="clipPath856"><path
         d="m 1265.242,686.148 v -22.459 c 12.847,0 23.262,6.314 23.262,14.103 v 0 c 0,3.127 -1.68,6.018 -4.522,8.356 v 0 z"
         id="path854"
         inkscape:connector-curvature="0" /></clipPath><clipPath
       clipPathUnits="userSpaceOnUse"
       id="clipPath868"><path
         d="M 0,768 H 1366 V 0 H 0 Z"
         id="path866"
         inkscape:connector-curvature="0" /></clipPath><clipPath
       clipPathUnits="userSpaceOnUse"
       id="clipPath876"><path
         d="m 1213.56,746.304 h 102.63 v -102.63 h -102.63 z"
         id="path874"
         inkscape:connector-curvature="0" /></clipPath><clipPath
       clipPathUnits="userSpaceOnUse"
       id="clipPath900"><path
         d="M 0,768 H 1366 V 0 H 0 Z"
         id="path898"
         inkscape:connector-curvature="0" /></clipPath><clipPath
       clipPathUnits="userSpaceOnUse"
       id="clipPath908"><path
         d="M 789.314,577.657 H 1092.49 V 282.271 H 789.314 Z"
         id="path906"
         inkscape:connector-curvature="0" /></clipPath><clipPath
       clipPathUnits="userSpaceOnUse"
       id="clipPath924"><path
         d="M 257,574.539 H 560.177 V 279.154 H 257 Z"
         id="path922"
         inkscape:connector-curvature="0" /></clipPath><clipPath
       clipPathUnits="userSpaceOnUse"
       id="clipPath944"><path
         d="m 667.5,248 h 10.205 V 237.795 H 667.5 Z"
         id="path942"
         inkscape:connector-curvature="0" /></clipPath><clipPath
       clipPathUnits="userSpaceOnUse"
       id="clipPath964"><path
         d="M 698.795,248 H 709 v -10.205 h -10.205 z"
         id="path962"
         inkscape:connector-curvature="0" /></clipPath><clipPath
       clipPathUnits="userSpaceOnUse"
       id="clipPath980"><path
         d="m 651.5,248 h 10.205 V 237.795 H 651.5 Z"
         id="path978"
         inkscape:connector-curvature="0" /></clipPath><clipPath
       clipPathUnits="userSpaceOnUse"
       id="clipPath996"><path
         d="m 636.5,248 h 10.205 V 237.795 H 636.5 Z"
         id="path994"
         inkscape:connector-curvature="0" /></clipPath><clipPath
       clipPathUnits="userSpaceOnUse"
       id="clipPath1026"><path
         d="M 0,768 H 1366 V 0 H 0 Z"
         id="path1024"
         inkscape:connector-curvature="0" /></clipPath><clipPath
       clipPathUnits="userSpaceOnUse"
       id="clipPath1034"><path
         d="M 575.126,528.088 H 790.327 V 312.887 H 575.126 Z"
         id="path1032"
         inkscape:connector-curvature="0" /></clipPath><clipPath
       clipPathUnits="userSpaceOnUse"
       id="clipPath1102"><path
         d="m 854.068,535.213 h 211.042 v -218 H 854.068 Z"
         id="path1100"
         inkscape:connector-curvature="0" /></clipPath><clipPath
       clipPathUnits="userSpaceOnUse"
       id="clipPath1106"><path
         d="m 854.068,535.213 h 211.042 v -218 H 854.068 Z"
         id="path1104"
         inkscape:connector-curvature="0" /></clipPath><clipPath
       clipPathUnits="userSpaceOnUse"
       id="clipPath1198"><path
         d="m 282.281,536.489 h 209.58 V 320 h -209.58 z"
         id="path1196"
         inkscape:connector-curvature="0" /></clipPath><clipPath
       clipPathUnits="userSpaceOnUse"
       id="clipPath1202"><path
         d="m 282.281,536.489 h 209.58 V 320 h -209.58 z"
         id="path1200"
         inkscape:connector-curvature="0" /></clipPath><clipPath
       clipPathUnits="userSpaceOnUse"
       id="clipPath1206"><path
         d="M 434.981,533.425 H 373.494 V 508.2 h 61.487 z"
         id="path1204"
         inkscape:connector-curvature="0" /></clipPath><clipPath
       clipPathUnits="userSpaceOnUse"
       id="clipPath1210"><path
         d="m 398.72,508.2 h 25.225 v 25.225 H 398.72 Z"
         id="path1208"
         inkscape:connector-curvature="0" /></clipPath></defs><sodipodi:namedview
     pagecolor="#ffffff"
     bordercolor="#666666"
     borderopacity="1"
     objecttolerance="10"
     gridtolerance="10"
     guidetolerance="10"
     inkscape:pageopacity="0"
     inkscape:pageshadow="2"
     inkscape:window-width="1366"
     inkscape:window-height="715"
     id="namedview646"
     showgrid="false"
     fit-margin-left="0.4"
     fit-margin-right="0.4"
     fit-margin-bottom="0.3"
     fit-margin-top="0.3"
     inkscape:zoom="0.48451828"
     inkscape:cx="-433.31094"
     inkscape:cy="-199.94706"
     inkscape:window-x="0"
     inkscape:window-y="0"
     inkscape:window-maximized="1"
     inkscape:current-layer="g864" /><g
     id="g652"
     inkscape:groupmode="layer"
     inkscape:label="Consumo"
     transform="matrix(1.3333333,0,0,-1.3333333,-1321.4756,995.37171)"><g
       id="g654"><g
         id="g656"
         clip-path="url(#clipPath660)"><g
           id="g662"><g
             id="g664"
             clip-path="url(#clipPath668)"><g
               id="g670"><g
                 id="g672"
                 clip-path="url(#clipPath676)"><g
                   id="g678"><g
                     id="g680"
                     clip-path="url(#clipPath684)"><g
                       id="g686"
                       transform="translate(1453.6069,10.4092)"><path
                         d="m 0,0 h -105.214 c -16.233,0 -29.393,13.16 -29.393,29.393 V 668.75 c 0,16.234 13.16,29.394 29.393,29.394 H 0 c 16.233,0 29.393,-13.16 29.393,-29.394 V 29.393 C 29.393,13.16 16.233,0 0,0"
                         style="fill:#4d9b2c;fill-opacity:1;fill-rule:nonzero;stroke:none"
                         id="path688"
                         inkscape:connector-curvature="0" /></g></g></g></g></g></g></g></g></g><text
       transform="matrix(1,0,0,-1,988.7368,686.2598)"
       style="font-variant:normal;font-weight:300;font-stretch:normal;font-size:47.5481987px;font-family:'Helvetica Light';-inkscape-font-specification:Helvetica-Light;writing-mode:lr-tb;fill:#94c282;fill-opacity:1;fill-rule:nonzero;stroke:none"
       id="text720"><tspan
         x="0 34.3298 60.766598 87.2034 110.9775 137.41429 177.02194"
         y="0"
         sodipodi:role="line"
         id="tspan718">Consumo</tspan></text>
<g
       id="g722"><g
         id="g724"
         clip-path="url(#clipPath728)"><g
           id="g730"
           transform="translate(1265.5508,740.1528)"><path
             d="m 0,0 c 24.777,0 44.862,-20.085 44.862,-44.862 0,-24.776 -20.085,-44.862 -44.862,-44.862 -24.776,0 -44.862,20.086 -44.862,44.862 C -44.862,-20.085 -24.776,0 0,0"
             style="fill:#ffbe66;fill-opacity:1;fill-rule:nonzero;stroke:none"
             id="path732"
             inkscape:connector-curvature="0" /></g><g
           id="g734"
           transform="translate(1310.1045,695.291)"><path
             d="M 0,0 C 0,24.776 -20.085,44.862 -44.862,44.862 V -44.862 C -20.085,-44.862 0,-24.776 0,0"
             style="fill:#f8b238;fill-opacity:1;fill-rule:nonzero;stroke:none"
             id="path736"
             inkscape:connector-curvature="0" /></g><g
           id="g738"
           transform="translate(1258.3809,710.7603)"><path
             d="m 0,0 c -0.991,0 -1.795,0.804 -1.795,1.795 0,1.98 -1.611,3.59 -3.591,3.59 -1.98,0 -3.59,-1.61 -3.59,-3.59 C -8.976,0.804 -9.78,0 -10.771,0 c -0.992,0 -1.796,0.804 -1.796,1.795 0,3.959 3.222,7.181 7.181,7.181 3.959,0 7.181,-3.222 7.181,-7.181 C 1.795,0.804 0.992,0 0,0"
             style="fill:#272525;fill-opacity:1;fill-rule:nonzero;stroke:none"
             id="path740"
             inkscape:connector-curvature="0" /></g><g
           id="g742"
           transform="translate(1285.9072,710.7603)"><path
             d="m 0,0 c -0.991,0 -1.795,0.804 -1.795,1.795 0,1.98 -1.611,3.59 -3.591,3.59 -1.98,0 -3.59,-1.61 -3.59,-3.59 C -8.976,0.804 -9.78,0 -10.771,0 c -0.992,0 -1.796,0.804 -1.796,1.795 0,3.959 3.222,7.181 7.181,7.181 3.959,0 7.181,-3.222 7.181,-7.181 C 1.795,0.804 0.992,0 0,0"
             style="fill:#272525;fill-opacity:1;fill-rule:nonzero;stroke:none"
             id="path744"
             inkscape:connector-curvature="0" /></g></g></g><g
       id="g746"><g
         id="g748"
         clip-path="url(#clipPath752)"><g
           id="g754"
           transform="translate(1282.6563,673.4106)"><path
             d="m 0,0 h -34.806 c -4.287,0 -7.795,3.507 -7.795,7.794 v 9.437 c 0,4.288 3.508,7.795 7.795,7.795 H 0 c 4.287,0 7.794,-3.507 7.794,-7.795 V 7.794 C 7.794,3.507 4.287,0 0,0"
             style="fill:#e52929;fill-opacity:1;fill-rule:nonzero;stroke:none"
             id="path756"
             inkscape:connector-curvature="0" /></g></g></g><g
       id="g758"><g
         id="g760"
         clip-path="url(#clipPath764)"><g
           id="g766"
           transform="translate(1290.5093,683.5415)"><path
             d="m 0,0 c 0,-10.743 -11.312,-19.452 -25.267,-19.452 -13.954,0 -25.267,8.709 -25.267,19.452 0,10.743 11.313,19.451 25.267,19.451 C -11.312,19.451 0,10.743 0,0"
             style="fill:#e52929;fill-opacity:1;fill-rule:nonzero;stroke:none"
             id="path768"
             inkscape:connector-curvature="0" /></g></g></g><g
       id="g770"><g
         id="g772"
         clip-path="url(#clipPath776)"><g
           id="g778"
           transform="translate(1291.3115,684.4146)"><path
             d="m 0,0 c 0,-11.089 -11.313,-20.079 -25.267,-20.079 -13.954,0 -25.267,8.99 -25.267,20.079 0,11.089 11.313,20.079 25.267,20.079 C -11.313,20.079 0,11.089 0,0"
             style="fill:#ce0202;fill-opacity:1;fill-rule:nonzero;stroke:none"
             id="path780"
             inkscape:connector-curvature="0" /></g></g></g><g
       id="g782"><g
         id="g784"
         clip-path="url(#clipPath788)"><g
           id="g790"
           transform="translate(1283.4585,673.4106)"><path
             d="m 0,0 h -34.806 c -4.287,0 -7.795,3.507 -7.795,7.794 v 9.437 c 0,4.288 3.508,7.795 7.795,7.795 H 0 c 4.287,0 7.794,-3.507 7.794,-7.795 V 7.794 C 7.794,3.507 4.287,0 0,0"
             style="fill:#ce0202;fill-opacity:1;fill-rule:nonzero;stroke:none"
             id="path792"
             inkscape:connector-curvature="0" /></g></g></g><g
       id="g794"><g
         id="g796"
         clip-path="url(#clipPath800)"><g
           id="g802"><g
             id="g804"
             clip-path="url(#clipPath808)"><path
               d="m 1284.494,688.555 h -20.855 v 9.625 h 20.855 z"
               style="fill:#e8e9ea;fill-opacity:1;fill-rule:nonzero;stroke:none"
               id="path810"
               inkscape:connector-curvature="0" /></g></g><g
           id="g812"
           transform="translate(1280.8945,689.7578)"><path
             d="m 0,0 h -32.106 c -1.766,0 -3.198,1.432 -3.198,3.198 v 4.031 c 0,1.767 1.432,3.199 3.198,3.199 H 0 c 1.766,0 3.198,-1.432 3.198,-3.199 V 3.198 C 3.198,1.432 1.766,0 0,0"
             style="fill:#ffffff;fill-opacity:1;fill-rule:nonzero;stroke:none"
             id="path814"
             inkscape:connector-curvature="0" /></g></g></g><g
       id="g816"><g
         id="g818"
         clip-path="url(#clipPath822)"><g
           id="g824"><g
             id="g826"
             clip-path="url(#clipPath830)"><path
               d="m 1284.494,688.555 h -20.855 v 9.625 h 20.855 z"
               style="fill:#e8e9ea;fill-opacity:1;fill-rule:nonzero;stroke:none"
               id="path832"
               inkscape:connector-curvature="0" /></g></g><g
           id="g834"
           transform="translate(1280.8945,689.7578)"><path
             d="m 0,0 h -32.106 c -1.766,0 -3.198,1.432 -3.198,3.198 v 4.031 c 0,1.767 1.432,3.199 3.198,3.199 H 0 c 1.766,0 3.198,-1.432 3.198,-3.199 V 3.198 C 3.198,1.432 1.766,0 0,0"
             style="fill:#f2f2f2;fill-opacity:1;fill-rule:nonzero;stroke:none"
             id="path836"
             inkscape:connector-curvature="0" /></g></g></g><g
       id="g838"><g
         id="g840"
         clip-path="url(#clipPath844)"><g
           id="g846"
           transform="translate(1288.0293,670.2993)"><path
             d="m 0,0 c 0,-7.789 -10.415,-14.103 -23.262,-14.103 -12.846,0 -23.261,6.314 -23.261,14.103 0,7.789 10.415,14.103 23.261,14.103 C -10.415,14.103 0,7.789 0,0"
             style="fill:#f0d5df;fill-opacity:1;fill-rule:nonzero;stroke:none"
             id="path848"
             inkscape:connector-curvature="0" /></g></g></g><g
       id="g850"><g
         id="g852"
         clip-path="url(#clipPath856)"><g
           id="g858"
           transform="translate(1288.0293,670.2993)"><path
             d="m 0,0 c 0,-7.789 -10.415,-14.103 -23.262,-14.103 -12.846,0 -23.261,6.314 -23.261,14.103 0,7.789 10.415,14.103 23.261,14.103 C -10.415,14.103 0,7.789 0,0"
             style="fill:#f2bbd0;fill-opacity:1;fill-rule:nonzero;stroke:none"
             id="path860"
             inkscape:connector-curvature="0" /></g></g></g><g
       id="g862"><g
         id="g864"
         clip-path="url(#clipPath868)"><g
           id="g870"><g
             id="g872" /><g
             id="g884"><g
               clip-path="url(#clipPath876)"
               id="g882"
               style="opacity:0.25999505"><g
                 transform="translate(1316.1855,694.9888)"
                 id="g880"><path
                   d="m 0,0 c 0,-28.34 -22.975,-51.315 -51.315,-51.315 -28.34,0 -51.315,22.975 -51.315,51.315 0,28.34 22.975,51.315 51.315,51.315 C -22.975,51.315 0,28.34 0,0"
                   style="fill:#ffffff;fill-opacity:1;fill-rule:nonzero;stroke:none"
                   id="path878"
                   inkscape:connector-curvature="0" /></g></g></g></g></g></g></g></svg>