<?xml version="1.0" encoding="UTF-8" standalone="no"?>
<!-- Created with Inkscape (http://www.inkscape.org/) -->

<svg
   xmlns:dc="http://purl.org/dc/elements/1.1/"
   xmlns:cc="http://creativecommons.org/ns#"
   xmlns:rdf="http://www.w3.org/1999/02/22-rdf-syntax-ns#"
   xmlns:svg="http://www.w3.org/2000/svg"
   xmlns="http://www.w3.org/2000/svg"
   xmlns:sodipodi="http://sodipodi.sourceforge.net/DTD/sodipodi-0.dtd"
   xmlns:inkscape="http://www.inkscape.org/namespaces/inkscape"
   version="1.1"
   id="svg2"
   xml:space="preserve"
   width="129"
   height="128.59999"
   viewBox="0 0 129 128.59999"
   sodipodi:docname="Consumoq.svg"
   inkscape:version="0.92.4 5da689c313, 2019-01-14"><metadata
     id="metadata8"><rdf:RDF><cc:Work
         rdf:about=""><dc:format>image/svg+xml</dc:format><dc:type
           rdf:resource="http://purl.org/dc/dcmitype/StillImage" /><dc:title></dc:title></cc:Work></rdf:RDF></metadata><defs
     id="defs6"><clipPath
       clipPathUnits="userSpaceOnUse"
       id="clipPath18"><path
         d="M 0,768 H 1366 V 0 H 0 Z"
         id="path16"
         inkscape:connector-curvature="0" /></clipPath><clipPath
       clipPathUnits="userSpaceOnUse"
       id="clipPath30"><path
         d="m 860.5,736 h 418 v -44 h -418 z"
         id="path28"
         inkscape:connector-curvature="0" /></clipPath><clipPath
       clipPathUnits="userSpaceOnUse"
       id="clipPath66"><path
         d="M 30,4 H 218 V 674 H 30 Z"
         id="path64"
         inkscape:connector-curvature="0" /></clipPath><clipPath
       clipPathUnits="userSpaceOnUse"
       id="clipPath78"><path
         d="M 0,7 H 188 V 677 H 0 Z"
         id="path76"
         inkscape:connector-curvature="0" /></clipPath><clipPath
       clipPathUnits="userSpaceOnUse"
       id="clipPath116"><path
         d="M 0,768 H 1366 V 0 H 0 Z"
         id="path114"
         inkscape:connector-curvature="0" /></clipPath><clipPath
       clipPathUnits="userSpaceOnUse"
       id="clipPath128"><path
         d="M 83,225.5 C 83,219.701 87.701,215 93.5,215 v 0 c 5.799,0 10.5,4.701 10.5,10.5 v 0 c 0,5.799 -4.701,10.5 -10.5,10.5 v 0 C 87.701,236 83,231.299 83,225.5"
         id="path126"
         inkscape:connector-curvature="0" /></clipPath><clipPath
       clipPathUnits="userSpaceOnUse"
       id="clipPath138"><path
         d="M 65,232.5 C 65,226.701 69.701,222 75.5,222 v 0 c 5.799,0 10.5,4.701 10.5,10.5 v 0 c 0,5.799 -4.701,10.5 -10.5,10.5 v 0 C 69.701,243 65,238.299 65,232.5"
         id="path136"
         inkscape:connector-curvature="0" /></clipPath><clipPath
       clipPathUnits="userSpaceOnUse"
       id="clipPath148"><path
         d="M 46,225.5 C 46,219.701 50.701,215 56.5,215 v 0 c 5.799,0 10.5,4.701 10.5,10.5 v 0 c 0,5.799 -4.701,10.5 -10.5,10.5 v 0 C 50.701,236 46,231.299 46,225.5"
         id="path146"
         inkscape:connector-curvature="0" /></clipPath><clipPath
       clipPathUnits="userSpaceOnUse"
       id="clipPath158"><path
         d="M 0,768 H 1366 V 0 H 0 Z"
         id="path156"
         inkscape:connector-curvature="0" /></clipPath><clipPath
       clipPathUnits="userSpaceOnUse"
       id="clipPath268"><path
         d="m 830,0 h 446 V 364 H 830 Z"
         id="path266"
         inkscape:connector-curvature="0" /></clipPath><clipPath
       clipPathUnits="userSpaceOnUse"
       id="clipPath280"><path
         d="M 883.396,362 C 859.429,362 840,342.571 840,318.604 v 0 V 0 h 423 v 318.604 c 0,23.967 -19.429,43.396 -43.396,43.396 v 0 z"
         id="path278"
         inkscape:connector-curvature="0" /></clipPath><clipPath
       clipPathUnits="userSpaceOnUse"
       id="clipPath290"><path
         d="M 0,768 H 1366 V 0 H 0 Z"
         id="path288"
         inkscape:connector-curvature="0" /></clipPath><clipPath
       clipPathUnits="userSpaceOnUse"
       id="clipPath298"><path
         d="m 1582,1 h -100 v 667 h 100 z"
         id="path296"
         inkscape:connector-curvature="0" /></clipPath><clipPath
       clipPathUnits="userSpaceOnUse"
       id="clipPath306"><path
         d="M 1613,-376 H 1482 V 690 h 131 z"
         id="path304"
         inkscape:connector-curvature="0" /></clipPath><clipPath
       clipPathUnits="userSpaceOnUse"
       id="clipPath314"><path
         d="m 1561,1 h -188 v 670 h 188 z"
         id="path312"
         inkscape:connector-curvature="0" /></clipPath><clipPath
       clipPathUnits="userSpaceOnUse"
       id="clipPath330"><path
         d="M 0,768 H 1366 V 0 H 0 Z"
         id="path328"
         inkscape:connector-curvature="0" /></clipPath><clipPath
       clipPathUnits="userSpaceOnUse"
       id="clipPath354"><path
         d="m 929.531,290.952 h 234.627 v 80.267 H 929.531 Z"
         id="path352"
         inkscape:connector-curvature="0" /></clipPath><clipPath
       clipPathUnits="userSpaceOnUse"
       id="clipPath366"><path
         d="m 935.706,195.249 h 240.801 v 95.703 H 935.706 Z"
         id="path364"
         inkscape:connector-curvature="0" /></clipPath><clipPath
       clipPathUnits="userSpaceOnUse"
       id="clipPath378"><path
         d="m 1049.932,219.946 h 104.965 v 71.006 h -104.965 z"
         id="path376"
         inkscape:connector-curvature="0" /></clipPath><clipPath
       clipPathUnits="userSpaceOnUse"
       id="clipPath390"><path
         d="m 1049.932,290.952 h 104.965 v 71.005 h -104.965 z"
         id="path388"
         inkscape:connector-curvature="0" /></clipPath><clipPath
       clipPathUnits="userSpaceOnUse"
       id="clipPath402"><path
         d="m 972.751,318.736 h 154.361 v 37.047 H 972.751 Z"
         id="path400"
         inkscape:connector-curvature="0" /></clipPath><clipPath
       clipPathUnits="userSpaceOnUse"
       id="clipPath410"><path
         d="m 1165.592,240.013 h -141.79 c -1.767,0 -3.198,1.432 -3.198,3.198 v 33.737 c 0,1.767 1.431,3.198 3.198,3.198 h 141.79 c 1.766,0 3.197,-1.431 3.197,-3.198 v -33.737 c 0,-1.766 -1.431,-3.198 -3.197,-3.198"
         id="path408"
         inkscape:connector-curvature="0" /></clipPath><clipPath
       clipPathUnits="userSpaceOnUse"
       id="clipPath424"><path
         d="m 1049.932,318.736 h 77.18 v 37.047 h -77.18 z"
         id="path422"
         inkscape:connector-curvature="0" /></clipPath><clipPath
       clipPathUnits="userSpaceOnUse"
       id="clipPath432"><path
         d="m 1165.592,240.013 h -141.79 c -1.767,0 -3.198,1.432 -3.198,3.198 v 33.737 c 0,1.767 1.431,3.198 3.198,3.198 h 141.79 c 1.766,0 3.197,-1.431 3.197,-3.198 v -33.737 c 0,-1.766 -1.431,-3.198 -3.197,-3.198"
         id="path430"
         inkscape:connector-curvature="0" /></clipPath><clipPath
       clipPathUnits="userSpaceOnUse"
       id="clipPath446"><path
         d="m 960.404,277.312 c 0,-29.978 40.083,-54.279 89.528,-54.279 v 0 c 49.445,0 89.529,24.301 89.529,54.279 v 0 c 0,29.977 -40.084,54.279 -89.529,54.279 v 0 c -49.445,0 -89.528,-24.302 -89.528,-54.279"
         id="path444"
         inkscape:connector-curvature="0" /></clipPath><clipPath
       clipPathUnits="userSpaceOnUse"
       id="clipPath458"><path
         d="m 1049.932,309.475 v -86.442 c 49.445,0 89.529,24.301 89.529,54.279 v 0 c 0,12.039 -6.463,23.161 -17.404,32.163 v 0 z"
         id="path456"
         inkscape:connector-curvature="0" /></clipPath><clipPath
       clipPathUnits="userSpaceOnUse"
       id="clipPath470"><path
         d="M 0,768 H 1366 V 0 H 0 Z"
         id="path468"
         inkscape:connector-curvature="0" /></clipPath><clipPath
       clipPathUnits="userSpaceOnUse"
       id="clipPath478"><path
         d="m 851,541 h 395 V 146 H 851 Z"
         id="path476"
         inkscape:connector-curvature="0" /></clipPath><clipPath
       clipPathUnits="userSpaceOnUse"
       id="clipPath502"><path
         d="M 0,768 H 1366 V 0 H 0 Z"
         id="path500"
         inkscape:connector-curvature="0" /></clipPath><clipPath
       clipPathUnits="userSpaceOnUse"
       id="clipPath522"><path
         d="M 0,768 H 1366 V 0 H 0 Z"
         id="path520"
         inkscape:connector-curvature="0" /></clipPath></defs><sodipodi:namedview
     pagecolor="#ffffff"
     bordercolor="#666666"
     borderopacity="1"
     objecttolerance="10"
     gridtolerance="10"
     guidetolerance="10"
     inkscape:pageopacity="0"
     inkscape:pageshadow="2"
     inkscape:window-width="1366"
     inkscape:window-height="715"
     id="namedview4"
     showgrid="false"
     fit-margin-top="0.3"
     fit-margin-left="0.5"
     fit-margin-right="0.5"
     fit-margin-bottom="0.3"
     inkscape:zoom="1.3704247"
     inkscape:cx="197.03395"
     inkscape:cy="-7.398166"
     inkscape:window-x="0"
     inkscape:window-y="0"
     inkscape:window-maximized="1"
     inkscape:current-layer="g10" /><g
     id="g10"
     inkscape:groupmode="layer"
     inkscape:label="Consumo"
     transform="matrix(1.3333333,0,0,-1.3333333,-575.42739,686.4523)"><g
       id="g284"><g
         id="g286"
         clip-path="url(#clipPath290)"><g
           id="g292"><g
             id="g294"
             clip-path="url(#clipPath298)"><g
               id="g300"><g
                 id="g302"
                 clip-path="url(#clipPath306)"><g
                   id="g308"><g
                     id="g310"
                     clip-path="url(#clipPath314)"><g
                       id="g316"
                       transform="translate(1482.6071,-32.5908)"><path
                         d="m 0,0 h -105.214 c -16.233,0 -29.393,13.16 -29.393,29.393 v 639.358 c 0,16.233 13.16,29.393 29.393,29.393 H 0 c 16.233,0 29.393,-13.16 29.393,-29.393 V 29.393 C 29.393,13.16 16.233,0 0,0"
                         style="fill:#4d9b2c;fill-opacity:1;fill-rule:nonzero;stroke:none"
                         id="path318"
                         inkscape:connector-curvature="0" /></g></g></g></g></g></g></g></g></g><g
       id="g496"
       transform="translate(-34.054443,213.61424)"><g
         id="g498"
         clip-path="url(#clipPath502)"><g
           id="g504"
           transform="translate(550,205)"><path
             d="m 0,0 h -72 c -6.6,0 -12,5.4 -12,12 v 72 c 0,6.6 5.4,12 12,12 H 0 C 6.6,96 12,90.6 12,84 V 12 C 12,5.4 6.6,0 0,0"
             style="fill:#74c4fb;fill-opacity:1;fill-rule:nonzero;stroke:none"
             id="path506"
             inkscape:connector-curvature="0" /></g><g
           id="g508"
           transform="translate(537.0703,223.5696)"><path
             d="m 0,0 h -48.042 c -4.844,0 -8.771,3.927 -8.771,8.771 V 50.6 c 0,4.844 3.927,8.771 8.771,8.771 H 0 c 4.844,0 8.771,-3.927 8.771,-8.771 V 8.771 C 8.771,3.927 4.844,0 0,0 Z"
             style="fill:none;stroke:#fcfcfc;stroke-width:3;stroke-linecap:butt;stroke-linejoin:miter;stroke-miterlimit:10;stroke-dasharray:none;stroke-opacity:1"
             id="path510"
             inkscape:connector-curvature="0" /></g></g></g><text
       transform="scale(1.0689345,-0.93551101)"
       style="font-variant:normal;font-weight:bold;font-stretch:normal;font-size:39.77408981px;font-family:Comfortaa;-inkscape-font-specification:Comfortaa-Bold;writing-mode:lr-tb;fill:#fcfcfc;fill-opacity:1;fill-rule:nonzero;stroke:none;stroke-width:0.93551099"
       id="text514"
       x="437.63638"
       y="-477.21091"><tspan
         x="437.63638"
         y="-477.21091"
         id="tspan512"
         style="stroke-width:0.93551099">?</tspan></text>
<g
       id="g516"
       transform="translate(-34.054443,213.61424)"><g
         id="g518"
         clip-path="url(#clipPath522)"><g
           id="g524"
           transform="translate(524.9086,271.2717)"><path
             d="m 0,0 h -22.096 c -1.094,0 -1.981,0.887 -1.981,1.981 v 2.305 c 0,1.094 0.887,1.981 1.981,1.981 H 0 c 1.094,0 1.981,-0.887 1.981,-1.981 V 1.981 C 1.981,0.887 1.094,0 0,0 Z"
             style="fill:none;stroke:#fcfcfc;stroke-width:2;stroke-linecap:butt;stroke-linejoin:miter;stroke-miterlimit:10;stroke-dasharray:none;stroke-opacity:1"
             id="path526"
             inkscape:connector-curvature="0" /></g></g></g></g></svg>