<?xml version="1.0" encoding="UTF-8" standalone="no"?>
<!-- Created with Inkscape (http://www.inkscape.org/) -->

<svg
   xmlns:dc="http://purl.org/dc/elements/1.1/"
   xmlns:cc="http://creativecommons.org/ns#"
   xmlns:rdf="http://www.w3.org/1999/02/22-rdf-syntax-ns#"
   xmlns:svg="http://www.w3.org/2000/svg"
   xmlns="http://www.w3.org/2000/svg"
   xmlns:sodipodi="http://sodipodi.sourceforge.net/DTD/sodipodi-0.dtd"
   xmlns:inkscape="http://www.inkscape.org/namespaces/inkscape"
   version="1.1"
   id="svg1635"
   xml:space="preserve"
   width="77.077332"
   height="76.877335"
   viewBox="0 0 77.077334 76.877335"
   sodipodi:docname="Flecha.svg"
   inkscape:version="0.92.4 5da689c313, 2019-01-14"><metadata
     id="metadata1641"><rdf:RDF><cc:Work
         rdf:about=""><dc:format>image/svg+xml</dc:format><dc:type
           rdf:resource="http://purl.org/dc/dcmitype/StillImage" /><dc:title></dc:title></cc:Work></rdf:RDF></metadata><defs
     id="defs1639"><clipPath
       clipPathUnits="userSpaceOnUse"
       id="clipPath1651"><path
         d="M 0,768 H 1366 V 0 H 0 Z"
         id="path1649"
         inkscape:connector-curvature="0" /></clipPath><clipPath
       clipPathUnits="userSpaceOnUse"
       id="clipPath1659"><path
         d="m 1519,147 h -100 v 667 h 100 z"
         id="path1657"
         inkscape:connector-curvature="0" /></clipPath><clipPath
       clipPathUnits="userSpaceOnUse"
       id="clipPath1667"><path
         d="M 1550,-230 H 1419 V 836 h 131 z"
         id="path1665"
         inkscape:connector-curvature="0" /></clipPath><clipPath
       clipPathUnits="userSpaceOnUse"
       id="clipPath1675"><path
         d="m 1528,144 h -188 v 670 h 188 z"
         id="path1673"
         inkscape:connector-curvature="0" /></clipPath><clipPath
       clipPathUnits="userSpaceOnUse"
       id="clipPath1687"><path
         d="m 1498,147 h -188 v 670 h 188 z"
         id="path1685"
         inkscape:connector-curvature="0" /></clipPath><clipPath
       clipPathUnits="userSpaceOnUse"
       id="clipPath1721"><path
         d="M 0,768 H 1366 V 0 H 0 Z"
         id="path1719"
         inkscape:connector-curvature="0" /></clipPath><clipPath
       clipPathUnits="userSpaceOnUse"
       id="clipPath1749"><path
         d="M 1,1 H 101 V 668 H 1 Z"
         id="path1747"
         inkscape:connector-curvature="0" /></clipPath><clipPath
       clipPathUnits="userSpaceOnUse"
       id="clipPath1765"><path
         d="M 1,1 H 80 V 668 H 1 Z"
         id="path1763"
         inkscape:connector-curvature="0" /></clipPath><clipPath
       clipPathUnits="userSpaceOnUse"
       id="clipPath1789"><path
         d="M 0,768 H 1366 V 0 H 0 Z"
         id="path1787"
         inkscape:connector-curvature="0" /></clipPath><clipPath
       clipPathUnits="userSpaceOnUse"
       id="clipPath1813"><path
         d="m 1231.96,682.335 h 60.961 v 20.856 h -60.961 z"
         id="path1811"
         inkscape:connector-curvature="0" /></clipPath><clipPath
       clipPathUnits="userSpaceOnUse"
       id="clipPath1825"><path
         d="m 1233.564,657.47 h 62.565 v 24.865 h -62.565 z"
         id="path1823"
         inkscape:connector-curvature="0" /></clipPath><clipPath
       clipPathUnits="userSpaceOnUse"
       id="clipPath1837"><path
         d="m 1263.243,663.887 h 27.272 v 18.448 h -27.272 z"
         id="path1835"
         inkscape:connector-curvature="0" /></clipPath><clipPath
       clipPathUnits="userSpaceOnUse"
       id="clipPath1849"><path
         d="m 1263.243,682.335 h 27.272 v 18.449 h -27.272 z"
         id="path1847"
         inkscape:connector-curvature="0" /></clipPath><clipPath
       clipPathUnits="userSpaceOnUse"
       id="clipPath1861"><path
         d="m 1243.19,689.555 h 40.106 v 9.625 h -40.106 z"
         id="path1859"
         inkscape:connector-curvature="0" /></clipPath><clipPath
       clipPathUnits="userSpaceOnUse"
       id="clipPath1869"><path
         d="m 1290.926,669.101 h -32.106 c -1.766,0 -3.197,1.431 -3.197,3.197 v 4.032 c 0,1.766 1.431,3.198 3.197,3.198 h 32.106 c 1.766,0 3.199,-1.432 3.199,-3.198 v -4.032 c 0,-1.766 -1.433,-3.197 -3.199,-3.197"
         id="path1867"
         inkscape:connector-curvature="0" /></clipPath><clipPath
       clipPathUnits="userSpaceOnUse"
       id="clipPath1883"><path
         d="m 1263.243,689.555 h 20.053 v 9.625 h -20.053 z"
         id="path1881"
         inkscape:connector-curvature="0" /></clipPath><clipPath
       clipPathUnits="userSpaceOnUse"
       id="clipPath1891"><path
         d="m 1290.926,669.101 h -32.106 c -1.766,0 -3.197,1.431 -3.197,3.197 v 4.032 c 0,1.766 1.431,3.198 3.197,3.198 h 32.106 c 1.766,0 3.199,-1.432 3.199,-3.198 v -4.032 c 0,-1.766 -1.433,-3.197 -3.199,-3.197"
         id="path1889"
         inkscape:connector-curvature="0" /></clipPath><clipPath
       clipPathUnits="userSpaceOnUse"
       id="clipPath1905"><path
         d="m 1239.981,678.792 c 0,-7.789 10.414,-14.103 23.262,-14.103 v 0 c 12.846,0 23.261,6.314 23.261,14.103 v 0 c 0,7.788 -10.415,14.103 -23.261,14.103 v 0 c -12.848,0 -23.262,-6.315 -23.262,-14.103"
         id="path1903"
         inkscape:connector-curvature="0" /></clipPath><clipPath
       clipPathUnits="userSpaceOnUse"
       id="clipPath1917"><path
         d="m 1263.243,687.148 v -22.459 c 12.846,0 23.261,6.314 23.261,14.103 v 0 c 0,3.127 -1.68,6.017 -4.522,8.356 v 0 z"
         id="path1915"
         inkscape:connector-curvature="0" /></clipPath><clipPath
       clipPathUnits="userSpaceOnUse"
       id="clipPath1929"><path
         d="M 0,768 H 1366 V 0 H 0 Z"
         id="path1927"
         inkscape:connector-curvature="0" /></clipPath><clipPath
       clipPathUnits="userSpaceOnUse"
       id="clipPath1937"><path
         d="m 1211.56,747.304 h 102.63 v -102.63 h -102.63 z"
         id="path1935"
         inkscape:connector-curvature="0" /></clipPath><clipPath
       clipPathUnits="userSpaceOnUse"
       id="clipPath1953"><path
         d="m 882,325.036 h 372.96 V 198.888 H 882 Z"
         id="path1951"
         inkscape:connector-curvature="0" /></clipPath></defs><sodipodi:namedview
     pagecolor="#ffffff"
     bordercolor="#666666"
     borderopacity="1"
     objecttolerance="10"
     gridtolerance="10"
     guidetolerance="10"
     inkscape:pageopacity="0"
     inkscape:pageshadow="2"
     inkscape:window-width="1366"
     inkscape:window-height="715"
     id="namedview1637"
     showgrid="false"
     fit-margin-left="0.4"
     fit-margin-top="0.3"
     fit-margin-bottom="0.3"
     fit-margin-right="0.4"
     inkscape:zoom="0.48451828"
     inkscape:cx="-353.83494"
     inkscape:cy="-331.01391"
     inkscape:window-x="0"
     inkscape:window-y="0"
     inkscape:window-maximized="1"
     inkscape:current-layer="g1717" /><g
     id="g1643"
     inkscape:groupmode="layer"
     inkscape:label="Consumo"
     transform="matrix(1.3333333,0,0,-1.3333333,-1345.3447,915.19965)"><g
       id="g1645"><g
         id="g1647"
         clip-path="url(#clipPath1651)"><g
           id="g1653"><g
             id="g1655"
             clip-path="url(#clipPath1659)"><g
               id="g1661"><g
                 id="g1663"
                 clip-path="url(#clipPath1667)"><g
                   id="g1669"><g
                     id="g1671"
                     clip-path="url(#clipPath1675)"><g
                       id="g1677"
                       transform="translate(1449.6069,110.4092)"><path
                         d="m 0,0 h -105.214 c -16.233,0 -29.393,13.16 -29.393,29.393 V 668.75 c 0,16.234 13.16,29.394 29.393,29.394 H 0 c 16.233,0 29.393,-13.16 29.393,-29.394 V 29.393 C 29.393,13.16 16.233,0 0,0"
                         style="fill:#5cc4f2;fill-opacity:1;fill-rule:nonzero;stroke:none"
                         id="path1679"
                         inkscape:connector-curvature="0" /></g></g></g><g
                   id="g1681"><g
                     id="g1683"
                     clip-path="url(#clipPath1687)"><g
                       id="g1689"
                       transform="translate(1419.6069,113.4092)"><path
                         d="m 0,0 h -105.214 c -16.233,0 -29.393,13.16 -29.393,29.393 V 668.75 c 0,16.234 13.16,29.394 29.393,29.394 H 0 c 16.233,0 29.393,-13.16 29.393,-29.394 V 29.393 C 29.393,13.16 16.233,0 0,0"
                         style="fill:#4d9b2c;fill-opacity:1;fill-rule:nonzero;stroke:none"
                         id="path1691"
                         inkscape:connector-curvature="0" /></g></g></g></g></g></g></g></g></g><g
       id="g1715"
       transform="translate(-38.698231,66.560957)"><g
         id="g1717"
         clip-path="url(#clipPath1721)"><g
           id="g1723"
           transform="translate(1076.6108,562.4058)"><path
             d="m 0,0 c -15.798,0 -28.604,12.807 -28.604,28.604 0,15.798 12.806,28.604 28.604,28.604 15.797,0 28.604,-12.806 28.604,-28.604 C 28.604,12.807 15.797,0 0,0"
             style="fill:#74c4fb;fill-opacity:1;fill-rule:nonzero;stroke:none"
             id="path1725"
             inkscape:connector-curvature="0" /></g><g
           id="g1727"
           transform="translate(1073.9302,607.6812)"><path
             d="m 0,0 -13.5,-23.384 c -1.17,-2.026 0.292,-4.558 2.631,-4.558 h 27.001 c 2.34,0 3.802,2.532 2.632,4.558 L 5.263,0 C 4.094,2.026 1.169,2.026 0,0"
             style="fill:#ffffff;fill-opacity:1;fill-rule:nonzero;stroke:none"
             id="path1729"
             inkscape:connector-curvature="0" /></g></g></g></g></svg>