<?xml version="1.0" encoding="UTF-8" standalone="no"?>
<!-- Created with Inkscape (http://www.inkscape.org/) -->

<svg
   xmlns:dc="http://purl.org/dc/elements/1.1/"
   xmlns:cc="http://creativecommons.org/ns#"
   xmlns:rdf="http://www.w3.org/1999/02/22-rdf-syntax-ns#"
   xmlns:svg="http://www.w3.org/2000/svg"
   xmlns="http://www.w3.org/2000/svg"
   xmlns:sodipodi="http://sodipodi.sourceforge.net/DTD/sodipodi-0.dtd"
   xmlns:inkscape="http://www.inkscape.org/namespaces/inkscape"
   version="1.1"
   id="svg867"
   xml:space="preserve"
   width="445.36533"
   height="434.13333"
   viewBox="0 0 445.36534 434.13333"
   sodipodi:docname="Impulsiva.svg"
   inkscape:version="0.92.4 5da689c313, 2019-01-14"><metadata
     id="metadata873"><rdf:RDF><cc:Work
         rdf:about=""><dc:format>image/svg+xml</dc:format><dc:type
           rdf:resource="http://purl.org/dc/dcmitype/StillImage" /><dc:title></dc:title></cc:Work></rdf:RDF></metadata><defs
     id="defs871"><clipPath
       clipPathUnits="userSpaceOnUse"
       id="clipPath883"><path
         d="M 1,4 H 101 V 671.001 H 1 Z"
         id="path881"
         inkscape:connector-curvature="0" /></clipPath><clipPath
       clipPathUnits="userSpaceOnUse"
       id="clipPath899"><path
         d="M 1,4 H 80 V 671.001 H 1 Z"
         id="path897"
         inkscape:connector-curvature="0" /></clipPath><clipPath
       clipPathUnits="userSpaceOnUse"
       id="clipPath911"><path
         d="M 0,768 H 1366 V 0 H 0 Z"
         id="path909"
         inkscape:connector-curvature="0" /></clipPath><clipPath
       clipPathUnits="userSpaceOnUse"
       id="clipPath919"><path
         d="M 1552,-348 H 1421 V 718 h 131 z"
         id="path917"
         inkscape:connector-curvature="0" /></clipPath><clipPath
       clipPathUnits="userSpaceOnUse"
       id="clipPath927"><path
         d="m 1500,29 h -188 v 670 h 188 z"
         id="path925"
         inkscape:connector-curvature="0" /></clipPath><clipPath
       clipPathUnits="userSpaceOnUse"
       id="clipPath943"><path
         d="M 0,768 H 1366 V 0 H 0 Z"
         id="path941"
         inkscape:connector-curvature="0" /></clipPath><clipPath
       clipPathUnits="userSpaceOnUse"
       id="clipPath967"><path
         d="m 1229.96,681.335 h 60.962 v 20.856 h -60.962 z"
         id="path965"
         inkscape:connector-curvature="0" /></clipPath><clipPath
       clipPathUnits="userSpaceOnUse"
       id="clipPath979"><path
         d="m 1231.564,656.47 h 62.566 v 24.865 h -62.566 z"
         id="path977"
         inkscape:connector-curvature="0" /></clipPath><clipPath
       clipPathUnits="userSpaceOnUse"
       id="clipPath991"><path
         d="m 1261.243,662.887 h 27.272 v 18.448 h -27.272 z"
         id="path989"
         inkscape:connector-curvature="0" /></clipPath><clipPath
       clipPathUnits="userSpaceOnUse"
       id="clipPath1003"><path
         d="m 1261.243,681.335 h 27.272 v 18.449 h -27.272 z"
         id="path1001"
         inkscape:connector-curvature="0" /></clipPath><clipPath
       clipPathUnits="userSpaceOnUse"
       id="clipPath1015"><path
         d="m 1241.189,688.554 h 40.107 v 9.625 h -40.107 z"
         id="path1013"
         inkscape:connector-curvature="0" /></clipPath><clipPath
       clipPathUnits="userSpaceOnUse"
       id="clipPath1023"><path
         d="m 1288.926,668.1 h -32.106 c -1.766,0 -3.197,1.432 -3.197,3.198 v 4.032 c 0,1.766 1.431,3.198 3.197,3.198 h 32.106 c 1.766,0 3.199,-1.432 3.199,-3.198 v -4.032 c 0,-1.766 -1.433,-3.198 -3.199,-3.198"
         id="path1021"
         inkscape:connector-curvature="0" /></clipPath><clipPath
       clipPathUnits="userSpaceOnUse"
       id="clipPath1037"><path
         d="m 1261.243,688.554 h 20.053 v 9.625 h -20.053 z"
         id="path1035"
         inkscape:connector-curvature="0" /></clipPath><clipPath
       clipPathUnits="userSpaceOnUse"
       id="clipPath1045"><path
         d="m 1288.926,668.1 h -32.106 c -1.766,0 -3.197,1.432 -3.197,3.198 v 4.032 c 0,1.766 1.431,3.198 3.197,3.198 h 32.106 c 1.766,0 3.199,-1.432 3.199,-3.198 v -4.032 c 0,-1.766 -1.433,-3.198 -3.199,-3.198"
         id="path1043"
         inkscape:connector-curvature="0" /></clipPath><clipPath
       clipPathUnits="userSpaceOnUse"
       id="clipPath1059"><path
         d="m 1237.981,677.792 c 0,-7.79 10.414,-14.103 23.262,-14.103 v 0 c 12.846,0 23.261,6.313 23.261,14.103 v 0 c 0,7.788 -10.415,14.102 -23.261,14.102 v 0 c -12.848,0 -23.262,-6.314 -23.262,-14.102"
         id="path1057"
         inkscape:connector-curvature="0" /></clipPath><clipPath
       clipPathUnits="userSpaceOnUse"
       id="clipPath1071"><path
         d="m 1261.243,686.148 v -22.459 c 12.846,0 23.261,6.313 23.261,14.103 v 0 c 0,3.128 -1.679,6.018 -4.522,8.356 v 0 z"
         id="path1069"
         inkscape:connector-curvature="0" /></clipPath><clipPath
       clipPathUnits="userSpaceOnUse"
       id="clipPath1083"><path
         d="M 0,768 H 1366 V 0 H 0 Z"
         id="path1081"
         inkscape:connector-curvature="0" /></clipPath><clipPath
       clipPathUnits="userSpaceOnUse"
       id="clipPath1091"><path
         d="m 1209.56,746.304 h 102.63 v -102.63 h -102.63 z"
         id="path1089"
         inkscape:connector-curvature="0" /></clipPath><clipPath
       clipPathUnits="userSpaceOnUse"
       id="clipPath1111"><path
         d="M 0,768 H 1366 V 0 H 0 Z"
         id="path1109"
         inkscape:connector-curvature="0" /></clipPath><clipPath
       clipPathUnits="userSpaceOnUse"
       id="clipPath1135"><path
         d="m 1229.96,681.335 h 60.962 v 20.856 h -60.962 z"
         id="path1133"
         inkscape:connector-curvature="0" /></clipPath><clipPath
       clipPathUnits="userSpaceOnUse"
       id="clipPath1147"><path
         d="m 1231.564,656.47 h 62.566 v 24.865 h -62.566 z"
         id="path1145"
         inkscape:connector-curvature="0" /></clipPath><clipPath
       clipPathUnits="userSpaceOnUse"
       id="clipPath1159"><path
         d="m 1261.243,662.887 h 27.272 v 18.448 h -27.272 z"
         id="path1157"
         inkscape:connector-curvature="0" /></clipPath><clipPath
       clipPathUnits="userSpaceOnUse"
       id="clipPath1171"><path
         d="m 1261.243,681.335 h 27.272 v 18.449 h -27.272 z"
         id="path1169"
         inkscape:connector-curvature="0" /></clipPath><clipPath
       clipPathUnits="userSpaceOnUse"
       id="clipPath1183"><path
         d="m 1241.189,688.554 h 40.107 v 9.625 h -40.107 z"
         id="path1181"
         inkscape:connector-curvature="0" /></clipPath><clipPath
       clipPathUnits="userSpaceOnUse"
       id="clipPath1191"><path
         d="m 1288.926,668.1 h -32.106 c -1.766,0 -3.197,1.432 -3.197,3.198 v 4.032 c 0,1.766 1.431,3.198 3.197,3.198 h 32.106 c 1.766,0 3.199,-1.432 3.199,-3.198 v -4.032 c 0,-1.766 -1.433,-3.198 -3.199,-3.198"
         id="path1189"
         inkscape:connector-curvature="0" /></clipPath><clipPath
       clipPathUnits="userSpaceOnUse"
       id="clipPath1205"><path
         d="m 1261.243,688.554 h 20.053 v 9.625 h -20.053 z"
         id="path1203"
         inkscape:connector-curvature="0" /></clipPath><clipPath
       clipPathUnits="userSpaceOnUse"
       id="clipPath1213"><path
         d="m 1288.926,668.1 h -32.106 c -1.766,0 -3.197,1.432 -3.197,3.198 v 4.032 c 0,1.766 1.431,3.198 3.197,3.198 h 32.106 c 1.766,0 3.199,-1.432 3.199,-3.198 v -4.032 c 0,-1.766 -1.433,-3.198 -3.199,-3.198"
         id="path1211"
         inkscape:connector-curvature="0" /></clipPath><clipPath
       clipPathUnits="userSpaceOnUse"
       id="clipPath1227"><path
         d="m 1237.981,677.792 c 0,-7.79 10.414,-14.103 23.262,-14.103 v 0 c 12.846,0 23.261,6.313 23.261,14.103 v 0 c 0,7.788 -10.415,14.102 -23.261,14.102 v 0 c -12.848,0 -23.262,-6.314 -23.262,-14.102"
         id="path1225"
         inkscape:connector-curvature="0" /></clipPath><clipPath
       clipPathUnits="userSpaceOnUse"
       id="clipPath1239"><path
         d="m 1261.243,686.148 v -22.459 c 12.846,0 23.261,6.313 23.261,14.103 v 0 c 0,3.128 -1.679,6.018 -4.522,8.356 v 0 z"
         id="path1237"
         inkscape:connector-curvature="0" /></clipPath><clipPath
       clipPathUnits="userSpaceOnUse"
       id="clipPath1251"><path
         d="M 0,768 H 1366 V 0 H 0 Z"
         id="path1249"
         inkscape:connector-curvature="0" /></clipPath><clipPath
       clipPathUnits="userSpaceOnUse"
       id="clipPath1259"><path
         d="m 1209.56,746.304 h 102.63 v -102.63 h -102.63 z"
         id="path1257"
         inkscape:connector-curvature="0" /></clipPath><clipPath
       clipPathUnits="userSpaceOnUse"
       id="clipPath1279"><path
         d="M 0,768 H 1366 V 0 H 0 Z"
         id="path1277"
         inkscape:connector-curvature="0" /></clipPath><clipPath
       clipPathUnits="userSpaceOnUse"
       id="clipPath1305"><path
         d="M 0,768 H 1366 V 0 H 0 Z"
         id="path1303"
         inkscape:connector-curvature="0" /></clipPath><clipPath
       clipPathUnits="userSpaceOnUse"
       id="clipPath1313"><path
         d="M 827.314,551.657 H 1130.49 V 256.271 H 827.314 Z"
         id="path1311"
         inkscape:connector-curvature="0" /></clipPath><clipPath
       clipPathUnits="userSpaceOnUse"
       id="clipPath1329"><path
         d="M 295,548.539 H 598.177 V 253.154 H 295 Z"
         id="path1327"
         inkscape:connector-curvature="0" /></clipPath><clipPath
       clipPathUnits="userSpaceOnUse"
       id="clipPath1345"><path
         d="m 697.5,214 h 10.205 V 203.795 H 697.5 Z"
         id="path1343"
         inkscape:connector-curvature="0" /></clipPath><clipPath
       clipPathUnits="userSpaceOnUse"
       id="clipPath1361"><path
         d="m 713.148,214 h 10.204 v -10.205 h -10.204 z"
         id="path1359"
         inkscape:connector-curvature="0" /></clipPath><clipPath
       clipPathUnits="userSpaceOnUse"
       id="clipPath1377"><path
         d="M 728.795,214 H 739 v -10.205 h -10.205 z"
         id="path1375"
         inkscape:connector-curvature="0" /></clipPath><clipPath
       clipPathUnits="userSpaceOnUse"
       id="clipPath1393"><path
         d="m 681.5,214 h 10.205 V 203.795 H 681.5 Z"
         id="path1391"
         inkscape:connector-curvature="0" /></clipPath><clipPath
       clipPathUnits="userSpaceOnUse"
       id="clipPath1417"><path
         d="M 894.675,496.607 H 1085 V 320.685 H 894.675 Z"
         id="path1415"
         inkscape:connector-curvature="0" /></clipPath><clipPath
       clipPathUnits="userSpaceOnUse"
       id="clipPath1421"><path
         d="m 1000.565,403.714 h -35.633 v -14.618 h 35.633 z"
         id="path1419"
         inkscape:connector-curvature="0" /></clipPath><clipPath
       clipPathUnits="userSpaceOnUse"
       id="clipPath1425"><path
         d="m 979.551,389.095 h 14.618 v 14.619 h -14.618 z"
         id="path1423"
         inkscape:connector-curvature="0" /></clipPath><clipPath
       clipPathUnits="userSpaceOnUse"
       id="clipPath1429"><path
         d="M 946.091,419.788 H 910.459 V 405.17 h 35.632 z"
         id="path1427"
         inkscape:connector-curvature="0" /></clipPath><clipPath
       clipPathUnits="userSpaceOnUse"
       id="clipPath1433"><path
         d="m 925.077,405.17 h 14.619 v 14.618 h -14.619 z"
         id="path1431"
         inkscape:connector-curvature="0" /></clipPath><clipPath
       clipPathUnits="userSpaceOnUse"
       id="clipPath1437"><path
         d="m 1013.607,412.777 h -25.546 v -56.77 h 25.546 z"
         id="path1435"
         inkscape:connector-curvature="0" /></clipPath><clipPath
       clipPathUnits="userSpaceOnUse"
       id="clipPath1441"><path
         d="M 908.583,496.607 H 1067.54 V 337.652 H 908.583 Z"
         id="path1439"
         inkscape:connector-curvature="0" /></clipPath><clipPath
       clipPathUnits="userSpaceOnUse"
       id="clipPath1445"><path
         d="m 1072.005,413.537 h -35.633 v -14.618 h 35.633 z"
         id="path1443"
         inkscape:connector-curvature="0" /></clipPath><clipPath
       clipPathUnits="userSpaceOnUse"
       id="clipPath1449"><path
         d="m 1050.991,398.919 h 14.618 v 14.618 h -14.618 z"
         id="path1447"
         inkscape:connector-curvature="0" /></clipPath><clipPath
       clipPathUnits="userSpaceOnUse"
       id="clipPath1649"><path
         d="M 587.38,537.141 H 826.339 V 298.183 H 587.38 Z"
         id="path1647"
         inkscape:connector-curvature="0" /></clipPath><clipPath
       clipPathUnits="userSpaceOnUse"
       id="clipPath1669"><path
         d="m 784.501,326.981 -33.005,-33.005 c -0.905,-0.904 -0.905,-2.372 0,-3.277 v 0 l 12.126,-12.126 c 0.905,-0.904 2.373,-0.904 3.277,0 v 0 l 33.005,33.005 c 0.905,0.906 0.905,2.373 0,3.278 v 0 l -12.126,12.125 c -0.452,0.453 -1.045,0.679 -1.638,0.679 v 0 c -0.593,0 -1.186,-0.226 -1.639,-0.679"
         id="path1667"
         inkscape:connector-curvature="0" /></clipPath><clipPath
       clipPathUnits="userSpaceOnUse"
       id="clipPath1681"><path
         d="M 0,768 H 1366 V 0 H 0 Z"
         id="path1679"
         inkscape:connector-curvature="0" /></clipPath><clipPath
       clipPathUnits="userSpaceOnUse"
       id="clipPath1689"><path
         d="m 317.068,497.213 h 211.043 v -218 H 317.068 Z"
         id="path1687"
         inkscape:connector-curvature="0" /></clipPath><clipPath
       clipPathUnits="userSpaceOnUse"
       id="clipPath1693"><path
         d="m 317.068,497.213 h 211.043 v -218 H 317.068 Z"
         id="path1691"
         inkscape:connector-curvature="0" /></clipPath></defs><sodipodi:namedview
     pagecolor="#ffffff"
     bordercolor="#666666"
     borderopacity="1"
     objecttolerance="10"
     gridtolerance="10"
     guidetolerance="10"
     inkscape:pageopacity="0"
     inkscape:pageshadow="2"
     inkscape:window-width="1366"
     inkscape:window-height="715"
     id="namedview869"
     showgrid="false"
     fit-margin-bottom="0.4"
     fit-margin-left="0.3"
     fit-margin-right="0.3"
     fit-margin-top="0.4"
     inkscape:zoom="0.34260616"
     inkscape:cx="185.4555"
     inkscape:cy="55.758723"
     inkscape:window-x="0"
     inkscape:window-y="0"
     inkscape:window-maximized="1"
     inkscape:current-layer="g1301" /><g
     id="g875"
     inkscape:groupmode="layer"
     inkscape:label="Consumo"
     transform="matrix(1.3333333,0,0,-1.3333333,-720.37078,757.73331)"><g
       id="g905"><g
         id="g907"
         clip-path="url(#clipPath911)"><g
           id="g913"><g
             id="g915"
             clip-path="url(#clipPath919)"><g
               id="g921"><g
                 id="g923"
                 clip-path="url(#clipPath927)"><g
                   id="g929"
                   transform="translate(1421.6069,-4.5908)"><path
                     d="m 0,0 h -105.214 c -16.233,0 -29.393,13.16 -29.393,29.393 v 639.358 c 0,16.233 13.16,29.393 29.393,29.393 H 0 c 16.233,0 29.393,-13.16 29.393,-29.393 V 29.393 C 29.393,13.16 16.233,0 0,0"
                     style="fill:#4d9b2c;fill-opacity:1;fill-rule:nonzero;stroke:none"
                     id="path931"
                     inkscape:connector-curvature="0" /></g></g></g></g></g></g></g><g
       clip-path="url(#clipPath1305)"
       id="g1301"><g
         transform="translate(817.3721,243)"
         id="g1407"><path
           inkscape:connector-curvature="0"
           id="path1409"
           style="fill:#74c4fb;fill-opacity:1;fill-rule:nonzero;stroke:none"
           d="m 0,0 h -220.164 c -31.317,0 -56.705,25.387 -56.705,56.705 v 211.59 c 0,31.318 25.388,56.705 56.705,56.705 H 0 c 31.317,0 56.705,-25.387 56.705,-56.705 V 56.705 C 56.705,25.387 31.317,0 0,0" /></g><g
         transform="translate(706.0303,525.8228)"
         id="g1615"><path
           inkscape:connector-curvature="0"
           id="path1617"
           style="fill:#ffbe66;fill-opacity:1;fill-rule:nonzero;stroke:none"
           d="m 0,0 c 60.48,0 109.509,-49.029 109.509,-109.509 0,-60.48 -49.029,-109.509 -109.509,-109.509 -60.48,0 -109.509,49.029 -109.509,109.509 C -109.509,-49.029 -60.48,0 0,0" /></g><g
         transform="translate(814.7861,416.314)"
         id="g1619"><path
           inkscape:connector-curvature="0"
           id="path1621"
           style="fill:#f8b238;fill-opacity:1;fill-rule:nonzero;stroke:none"
           d="M 0,0 C 0,60.479 -49.028,109.509 -109.509,109.509 V -109.509 C -49.028,-109.509 0,-60.479 0,0" /></g><g
         transform="translate(679.9185,422.0168)"
         id="g1623"><path
           inkscape:connector-curvature="0"
           id="path1625"
           style="fill:#272525;fill-opacity:1;fill-rule:nonzero;stroke:none"
           d="m 0,0 v 0 c -4.694,0 -8.535,3.84 -8.535,8.534 v 8.534 c 0,4.694 3.841,8.535 8.535,8.535 4.694,0 8.534,-3.841 8.534,-8.535 V 8.534 C 8.534,3.84 4.694,0 0,0" /></g><g
         transform="translate(735.3906,422.0168)"
         id="g1627"><path
           inkscape:connector-curvature="0"
           id="path1629"
           style="fill:#272525;fill-opacity:1;fill-rule:nonzero;stroke:none"
           d="m 0,0 v 0 c -4.694,0 -8.534,3.84 -8.534,8.534 v 8.534 c 0,4.694 3.84,8.535 8.534,8.535 4.694,0 8.534,-3.841 8.534,-8.535 V 8.534 C 8.534,3.84 4.694,0 0,0" /></g><g
         transform="translate(690.5859,456.1538)"
         id="g1631"><path
           inkscape:connector-curvature="0"
           id="path1633"
           style="fill:#353535;fill-opacity:1;fill-rule:nonzero;stroke:none"
           d="m 0,0 h -34.137 c -3.52,0 -6.401,2.88 -6.401,6.401 0,3.52 2.881,6.4 6.401,6.4 H 0 c 3.521,0 6.401,-2.88 6.401,-6.4 C 6.401,2.88 3.521,0 0,0" /></g><g
         transform="translate(755.7407,463.2354)"
         id="g1635"><path
           inkscape:connector-curvature="0"
           id="path1637"
           style="fill:#272525;fill-opacity:1;fill-rule:nonzero;stroke:none"
           d="m 0,0 -31.494,-13.172 c -3.247,-1.358 -7.016,0.188 -8.374,3.436 -1.359,3.247 0.187,7.016 3.435,8.374 L -4.939,11.81 C -1.692,13.168 2.077,11.622 3.435,8.375 4.793,5.127 3.248,1.358 0,0" /></g><g
         transform="translate(716.1885,375.0786)"
         id="g1639"><path
           inkscape:connector-curvature="0"
           id="path1641"
           style="fill:#353535;fill-opacity:1;fill-rule:nonzero;stroke:none"
           d="m 0,0 h -21.335 c -3.521,0 -6.401,2.88 -6.401,6.401 0,3.52 2.88,6.4 6.401,6.4 H 0 c 3.521,0 6.401,-2.88 6.401,-6.4 C 6.401,2.88 3.521,0 0,0" /></g><g
         id="g1643"><g
           id="g1645" /><g
           id="g1657"><g
             style="opacity:0.25999505"
             id="g1655"
             clip-path="url(#clipPath1649)"><g
               id="g1653"
               transform="translate(826.3384,417.6616)"><path
                 inkscape:connector-curvature="0"
                 id="path1651"
                 style="fill:#ffffff;fill-opacity:1;fill-rule:nonzero;stroke:none"
                 d="m 0,0 c 0,-65.987 -53.492,-119.479 -119.479,-119.479 -65.986,0 -119.479,53.492 -119.479,119.479 0,65.987 53.493,119.479 119.479,119.479 C -53.492,119.479 0,65.987 0,0" /></g></g></g></g><g
         transform="translate(795.269,310.0244)"
         id="g1659"><path
           inkscape:connector-curvature="0"
           id="path1661"
           style="fill:#ffd164;fill-opacity:1;fill-rule:nonzero;stroke:none"
           d="M 0,0 V 0 C 2.169,2.169 2.211,5.676 0.093,7.794 -2.025,9.912 -5.532,9.87 -7.701,7.701 L -9.115,6.288 -7.143,8.26 c 2.169,2.168 2.211,5.676 0.093,7.794 -2.118,2.118 -5.625,2.076 -7.794,-0.093 l 0.039,0.039 1.894,1.894 c 2.876,1.29 2.917,4.66 0.882,6.694 -2.034,2.035 -7.043,-0.533 -7.043,-0.533 L 4.071,47.198 c 2.179,2.178 2.22,5.668 0.094,7.795 C 2.038,57.12 -1.452,57.078 -3.63,54.9 L -39.356,19.173 c -3.139,-3.138 -8.167,-3.198 -11.231,-0.134 l -11.78,11.78 c -2.127,2.126 -5.616,2.084 -7.794,-0.094 -2.178,-2.178 -2.22,-5.667 -0.093,-7.794 l 8.045,-8.045 c 2.52,-2.52 4.086,-5.843 4.442,-9.423 l 0.457,-4.61 c 0.475,-4.773 2.563,-9.204 5.923,-12.564 l 8.741,-8.741 c 6.129,-6.129 16.186,-6.009 22.462,0.268 z" /></g></g><g
       id="g1663"><g
         id="g1665"
         clip-path="url(#clipPath1669)"><g
           id="g1671"
           transform="translate(796.8091,308.4844)"><path
             d="m 0,0 v 0 c 2.169,2.169 2.019,5.869 -0.335,8.222 -2.353,2.353 -6.053,2.504 -8.222,0.335 L -9.97,7.143 -7.999,9.115 c 2.17,2.169 2.019,5.869 -0.334,8.222 -2.354,2.353 -6.053,2.504 -8.222,0.335 l 0.038,0.039 1.894,1.894 c 2.965,1.202 2.821,4.757 0.56,7.017 -2.26,2.261 -7.405,-0.172 -7.405,-0.172 L 1.676,49.594 c 2.178,2.178 2.028,5.86 -0.335,8.222 -2.363,2.363 -6.044,2.513 -8.222,0.335 L -42.608,22.425 c -3.138,-3.139 -8.442,-2.923 -11.847,0.482 l -13.088,13.088 c -2.364,2.363 -6.045,2.513 -8.223,0.335 -2.178,-2.178 -2.028,-5.859 0.335,-8.222 l 8.939,-8.939 c 2.8,-2.8 4.638,-6.395 5.212,-10.194 l 0.739,-4.891 c 0.766,-5.064 3.217,-9.858 6.95,-13.591 l 9.713,-9.712 c 6.809,-6.81 17.418,-7.242 23.694,-0.965 z"
             style="fill:#f8b238;fill-opacity:1;fill-rule:nonzero;stroke:none"
             id="path1673"
             inkscape:connector-curvature="0" /></g></g></g><g
       id="g1675" /></g></svg>