<?xml version="1.0" encoding="UTF-8" standalone="no"?>
<!-- Created with Inkscape (http://www.inkscape.org/) -->

<svg
   xmlns:dc="http://purl.org/dc/elements/1.1/"
   xmlns:cc="http://creativecommons.org/ns#"
   xmlns:rdf="http://www.w3.org/1999/02/22-rdf-syntax-ns#"
   xmlns:svg="http://www.w3.org/2000/svg"
   xmlns="http://www.w3.org/2000/svg"
   xmlns:sodipodi="http://sodipodi.sourceforge.net/DTD/sodipodi-0.dtd"
   xmlns:inkscape="http://www.inkscape.org/namespaces/inkscape"
   version="1.1"
   id="svg2910"
   xml:space="preserve"
   width="1821.3333"
   height="1024"
   viewBox="0 0 1821.3333 1024"
   sodipodi:docname="Pura.svg"
   inkscape:version="0.92.4 5da689c313, 2019-01-14"><metadata
     id="metadata2916"><rdf:RDF><cc:Work
         rdf:about=""><dc:format>image/svg+xml</dc:format><dc:type
           rdf:resource="http://purl.org/dc/dcmitype/StillImage" /><dc:title></dc:title></cc:Work></rdf:RDF></metadata><defs
     id="defs2914"><clipPath
       clipPathUnits="userSpaceOnUse"
       id="clipPath2926"><path
         d="M 0,768 H 1366 V 0 H 0 Z"
         id="path2924"
         inkscape:connector-curvature="0" /></clipPath><clipPath
       clipPathUnits="userSpaceOnUse"
       id="clipPath2934"><path
         d="M 1571,-323 H 1440 V 743 h 131 z"
         id="path2932"
         inkscape:connector-curvature="0" /></clipPath><clipPath
       clipPathUnits="userSpaceOnUse"
       id="clipPath2942"><path
         d="m 1519,54 h -188 v 670 h 188 z"
         id="path2940"
         inkscape:connector-curvature="0" /></clipPath><clipPath
       clipPathUnits="userSpaceOnUse"
       id="clipPath2954"><path
         d="M 1,0 H 101 V 666 H 1 Z"
         id="path2952"
         inkscape:connector-curvature="0" /></clipPath><clipPath
       clipPathUnits="userSpaceOnUse"
       id="clipPath2970"><path
         d="M 1,0 H 80 V 666 H 1 Z"
         id="path2968"
         inkscape:connector-curvature="0" /></clipPath><clipPath
       clipPathUnits="userSpaceOnUse"
       id="clipPath2986"><path
         d="M 0,768 H 1366 V 0 H 0 Z"
         id="path2984"
         inkscape:connector-curvature="0" /></clipPath><clipPath
       clipPathUnits="userSpaceOnUse"
       id="clipPath3010"><path
         d="m 1229.96,676.336 h 60.962 v 20.855 h -60.962 z"
         id="path3008"
         inkscape:connector-curvature="0" /></clipPath><clipPath
       clipPathUnits="userSpaceOnUse"
       id="clipPath3022"><path
         d="m 1231.564,651.469 h 62.566 v 24.866 h -62.566 z"
         id="path3020"
         inkscape:connector-curvature="0" /></clipPath><clipPath
       clipPathUnits="userSpaceOnUse"
       id="clipPath3034"><path
         d="m 1261.243,657.886 h 27.272 v 18.449 h -27.272 z"
         id="path3032"
         inkscape:connector-curvature="0" /></clipPath><clipPath
       clipPathUnits="userSpaceOnUse"
       id="clipPath3046"><path
         d="m 1261.243,676.336 h 27.272 v 18.448 h -27.272 z"
         id="path3044"
         inkscape:connector-curvature="0" /></clipPath><clipPath
       clipPathUnits="userSpaceOnUse"
       id="clipPath3058"><path
         d="m 1241.189,683.555 h 40.107 v 9.625 h -40.107 z"
         id="path3056"
         inkscape:connector-curvature="0" /></clipPath><clipPath
       clipPathUnits="userSpaceOnUse"
       id="clipPath3066"><path
         d="m 1288.926,663.1 h -32.106 c -1.766,0 -3.197,1.432 -3.197,3.198 v 4.032 c 0,1.766 1.431,3.198 3.197,3.198 h 32.106 c 1.766,0 3.199,-1.432 3.199,-3.198 v -4.032 c 0,-1.766 -1.433,-3.198 -3.199,-3.198"
         id="path3064"
         inkscape:connector-curvature="0" /></clipPath><clipPath
       clipPathUnits="userSpaceOnUse"
       id="clipPath3080"><path
         d="m 1261.243,683.555 h 20.053 v 9.625 h -20.053 z"
         id="path3078"
         inkscape:connector-curvature="0" /></clipPath><clipPath
       clipPathUnits="userSpaceOnUse"
       id="clipPath3088"><path
         d="m 1288.926,663.1 h -32.106 c -1.766,0 -3.197,1.432 -3.197,3.198 v 4.032 c 0,1.766 1.431,3.198 3.197,3.198 h 32.106 c 1.766,0 3.199,-1.432 3.199,-3.198 v -4.032 c 0,-1.766 -1.433,-3.198 -3.199,-3.198"
         id="path3086"
         inkscape:connector-curvature="0" /></clipPath><clipPath
       clipPathUnits="userSpaceOnUse"
       id="clipPath3102"><path
         d="m 1237.981,672.791 c 0,-7.788 10.414,-14.103 23.262,-14.103 v 0 c 12.846,0 23.261,6.315 23.261,14.103 v 0 c 0,7.789 -10.415,14.103 -23.261,14.103 v 0 c -12.848,0 -23.262,-6.314 -23.262,-14.103"
         id="path3100"
         inkscape:connector-curvature="0" /></clipPath><clipPath
       clipPathUnits="userSpaceOnUse"
       id="clipPath3114"><path
         d="m 1261.243,681.148 v -22.46 c 12.846,0 23.261,6.315 23.261,14.103 v 0 c 0,3.128 -1.68,6.018 -4.521,8.357 v 0 z"
         id="path3112"
         inkscape:connector-curvature="0" /></clipPath><clipPath
       clipPathUnits="userSpaceOnUse"
       id="clipPath3126"><path
         d="M 0,768 H 1366 V 0 H 0 Z"
         id="path3124"
         inkscape:connector-curvature="0" /></clipPath><clipPath
       clipPathUnits="userSpaceOnUse"
       id="clipPath3134"><path
         d="m 1209.56,741.304 h 102.63 v -102.63 h -102.63 z"
         id="path3132"
         inkscape:connector-curvature="0" /></clipPath><clipPath
       clipPathUnits="userSpaceOnUse"
       id="clipPath3168"><path
         d="M 0,768 H 1366 V 0 H 0 Z"
         id="path3166"
         inkscape:connector-curvature="0" /></clipPath><clipPath
       clipPathUnits="userSpaceOnUse"
       id="clipPath3176"><path
         d="M 823.314,532.657 H 1126.49 V 237.271 H 823.314 Z"
         id="path3174"
         inkscape:connector-curvature="0" /></clipPath><clipPath
       clipPathUnits="userSpaceOnUse"
       id="clipPath3192"><path
         d="M 291,529.539 H 594.177 V 234.154 H 291 Z"
         id="path3190"
         inkscape:connector-curvature="0" /></clipPath><clipPath
       clipPathUnits="userSpaceOnUse"
       id="clipPath3212"><path
         d="M 0,768 H 1366 V 0 H 0 Z"
         id="path3210"
         inkscape:connector-curvature="0" /></clipPath><clipPath
       clipPathUnits="userSpaceOnUse"
       id="clipPath3220"><path
         d="m 732.5,208 h 10.205 V 197.795 H 732.5 Z"
         id="path3218"
         inkscape:connector-curvature="0" /></clipPath><clipPath
       clipPathUnits="userSpaceOnUse"
       id="clipPath3240"><path
         d="M 748.795,208 H 759 v -10.205 h -10.205 z"
         id="path3238"
         inkscape:connector-curvature="0" /></clipPath><clipPath
       clipPathUnits="userSpaceOnUse"
       id="clipPath3256"><path
         d="m 689.5,208 h 10.205 V 197.795 H 689.5 Z"
         id="path3254"
         inkscape:connector-curvature="0" /></clipPath><clipPath
       clipPathUnits="userSpaceOnUse"
       id="clipPath3272"><path
         d="m 717.5,208 h 10.205 V 197.795 H 717.5 Z"
         id="path3270"
         inkscape:connector-curvature="0" /></clipPath><clipPath
       clipPathUnits="userSpaceOnUse"
       id="clipPath3296"><path
         d="m 675.041,360.413 h 50.903 v 20.884 h -50.903 z"
         id="path3294"
         inkscape:connector-curvature="0" /></clipPath><clipPath
       clipPathUnits="userSpaceOnUse"
       id="clipPath3308"><path
         d="M 0,768 H 1366 V 0 H 0 Z"
         id="path3306"
         inkscape:connector-curvature="0" /></clipPath><clipPath
       clipPathUnits="userSpaceOnUse"
       id="clipPath3332"><path
         d="m 695.925,360.413 h 20.883 v 20.884 h -20.883 z"
         id="path3330"
         inkscape:connector-curvature="0" /></clipPath><clipPath
       clipPathUnits="userSpaceOnUse"
       id="clipPath3344"><path
         d="M 0,768 H 1366 V 0 H 0 Z"
         id="path3342"
         inkscape:connector-curvature="0" /></clipPath><clipPath
       clipPathUnits="userSpaceOnUse"
       id="clipPath3360"><path
         d="m 597.223,383.377 h 50.903 v 20.883 h -50.903 z"
         id="path3358"
         inkscape:connector-curvature="0" /></clipPath><clipPath
       clipPathUnits="userSpaceOnUse"
       id="clipPath3372"><path
         d="M 0,768 H 1366 V 0 H 0 Z"
         id="path3370"
         inkscape:connector-curvature="0" /></clipPath><clipPath
       clipPathUnits="userSpaceOnUse"
       id="clipPath3396"><path
         d="m 618.107,383.377 h 20.884 v 20.883 h -20.884 z"
         id="path3394"
         inkscape:connector-curvature="0" /></clipPath><clipPath
       clipPathUnits="userSpaceOnUse"
       id="clipPath3408"><path
         d="M 0,768 H 1366 V 0 H 0 Z"
         id="path3406"
         inkscape:connector-curvature="0" /></clipPath><clipPath
       clipPathUnits="userSpaceOnUse"
       id="clipPath3440"><path
         d="m 708.082,313.145 h 36.495 v 81.099 h -36.495 z"
         id="path3438"
         inkscape:connector-curvature="0" /></clipPath><clipPath
       clipPathUnits="userSpaceOnUse"
       id="clipPath3452"><path
         d="M 0,768 H 1366 V 0 H 0 Z"
         id="path3450"
         inkscape:connector-curvature="0" /></clipPath><clipPath
       clipPathUnits="userSpaceOnUse"
       id="clipPath3460"><path
         d="M 594.544,514 H 821.621 V 286.924 H 594.544 Z"
         id="path3458"
         inkscape:connector-curvature="0" /></clipPath><clipPath
       clipPathUnits="userSpaceOnUse"
       id="clipPath3480"><path
         d="m 777.099,374.446 h 50.903 v 20.884 h -50.903 z"
         id="path3478"
         inkscape:connector-curvature="0" /></clipPath><clipPath
       clipPathUnits="userSpaceOnUse"
       id="clipPath3492"><path
         d="M 0,768 H 1366 V 0 H 0 Z"
         id="path3490"
         inkscape:connector-curvature="0" /></clipPath><clipPath
       clipPathUnits="userSpaceOnUse"
       id="clipPath3516"><path
         d="m 797.982,374.446 h 20.883 v 20.884 h -20.883 z"
         id="path3514"
         inkscape:connector-curvature="0" /></clipPath><clipPath
       clipPathUnits="userSpaceOnUse"
       id="clipPath3528"><path
         d="M 0,768 H 1366 V 0 H 0 Z"
         id="path3526"
         inkscape:connector-curvature="0" /></clipPath><clipPath
       clipPathUnits="userSpaceOnUse"
       id="clipPath3540"><path
         d="M 344.38,474 H 530.598 V 272.185 H 344.38 Z"
         id="path3538"
         inkscape:connector-curvature="0" /></clipPath><clipPath
       clipPathUnits="userSpaceOnUse"
       id="clipPath3544"><path
         d="M 344.38,474 H 530.598 V 287.783 H 344.38 Z"
         id="path3542"
         inkscape:connector-curvature="0" /></clipPath><clipPath
       clipPathUnits="userSpaceOnUse"
       id="clipPath3548"><path
         d="m 509.636,297.86 -24.997,-24.996 c -0.905,-0.906 -2.372,-0.906 -3.278,0 l -8.725,8.725 c -0.905,0.905 -0.905,2.373 0,3.277 l 24.997,24.998 c 0.905,0.905 2.372,0.905 3.277,0 l 8.726,-8.726 c 0.905,-0.905 0.905,-2.373 0,-3.278"
         id="path3546"
         inkscape:connector-curvature="0" /></clipPath><clipPath
       clipPathUnits="userSpaceOnUse"
       id="clipPath3612"><path
         d="M 889.465,488.383 H 1099 V 278 H 889.465 Z"
         id="path3610"
         inkscape:connector-curvature="0" /></clipPath><clipPath
       clipPathUnits="userSpaceOnUse"
       id="clipPath3616"><path
         d="M 889.465,488.383 H 1099 V 278 H 889.465 Z"
         id="path3614"
         inkscape:connector-curvature="0" /></clipPath><clipPath
       clipPathUnits="userSpaceOnUse"
       id="clipPath3620"><path
         d="m 1042.133,485.405 h -61.474 v -24.514 h 61.474 z"
         id="path3618"
         inkscape:connector-curvature="0" /></clipPath><clipPath
       clipPathUnits="userSpaceOnUse"
       id="clipPath3624"><path
         d="m 1005.88,460.891 h 25.22 v 24.514 h -25.22 z"
         id="path3622"
         inkscape:connector-curvature="0" /></clipPath></defs><sodipodi:namedview
     pagecolor="#ffffff"
     bordercolor="#666666"
     borderopacity="1"
     objecttolerance="10"
     gridtolerance="10"
     guidetolerance="10"
     inkscape:pageopacity="0"
     inkscape:pageshadow="2"
     inkscape:window-width="1366"
     inkscape:window-height="715"
     id="namedview2912"
     showgrid="false"
     inkscape:zoom="0.34260616"
     inkscape:cx="833.22105"
     inkscape:cy="401.01841"
     inkscape:window-x="0"
     inkscape:window-y="0"
     inkscape:window-maximized="1"
     inkscape:current-layer="g3208" /><g
     id="g2918"
     inkscape:groupmode="layer"
     inkscape:label="Consumo"
     transform="matrix(1.3333333,0,0,-1.3333333,0,1024)"><g
       id="g2920"><g
         id="g2922"
         clip-path="url(#clipPath2926)"><g
           id="g2928"><g
             id="g2930"
             clip-path="url(#clipPath2934)"><g
               id="g2936"><g
                 id="g2938"
                 clip-path="url(#clipPath2942)"><g
                   id="g2944"
                   transform="translate(1440.6069,20.4092)"><path
                     d="m 0,0 h -105.214 c -16.233,0 -29.393,13.16 -29.393,29.393 v 639.358 c 0,16.233 13.16,29.393 29.393,29.393 H 0 c 16.233,0 29.393,-13.16 29.393,-29.393 V 29.393 C 29.393,13.16 16.233,0 0,0"
                     style="fill:#4d9b2c;fill-opacity:1;fill-rule:nonzero;stroke:none"
                     id="path2946"
                     inkscape:connector-curvature="0" /></g></g></g></g></g></g></g><g
       id="g3162" /><g
       clip-path="url(#clipPath3212)"
       id="g3208"><g
         id="g3214"><g
           id="g3216" /></g><g
         id="g3234"><g
           id="g3236" /></g><g
         transform="translate(813.3721,224)"
         id="g3282"><path
           inkscape:connector-curvature="0"
           id="path3284"
           style="fill:#74c4fb;fill-opacity:1;fill-rule:nonzero;stroke:none"
           d="m 0,0 h -220.164 c -31.317,0 -56.705,25.388 -56.705,56.705 v 211.59 c 0,31.318 25.388,56.705 56.705,56.705 H 0 c 31.317,0 56.705,-25.387 56.705,-56.705 V 56.705 C 56.705,25.388 31.317,0 0,0" /></g><path
         inkscape:connector-curvature="0"
         id="path3286"
         style="fill:#f7931e;fill-opacity:1;fill-rule:nonzero;stroke:none"
         d="m 653.54,342.996 h 90.969 V 288.564 H 653.54 Z" /><path
         inkscape:connector-curvature="0"
         id="path3288"
         style="fill:#fbb03b;fill-opacity:1;fill-rule:nonzero;stroke:none"
         d="m 652.493,342.996 h 40.176 v -54.432 h -40.176 z" /></g><g
       id="g3290"><g
         id="g3292"
         clip-path="url(#clipPath3296)"><g
           id="g3298"
           transform="translate(715.0371,360.4133)"><path
             d="M 0,0 C 0,8.65 -8.14,15.662 -18.18,15.662 -28.22,15.662 -36.359,8.65 -36.359,0 c 0,-8.65 8.139,-15.663 18.179,-15.663 C -8.14,-15.663 0,-8.65 0,0 Z"
             style="fill:none;stroke:#f99273;stroke-width:3;stroke-linecap:butt;stroke-linejoin:miter;stroke-miterlimit:10;stroke-dasharray:none;stroke-opacity:1"
             id="path3300"
             inkscape:connector-curvature="0" /></g></g></g><g
       id="g3302"><g
         id="g3304"
         clip-path="url(#clipPath3308)"><g
           id="g3310"
           transform="translate(715.0371,322.5623)"><path
             d="m 0,0 v 36.569 1.282"
             style="fill:none;stroke:#f37e53;stroke-width:3;stroke-linecap:butt;stroke-linejoin:miter;stroke-miterlimit:10;stroke-dasharray:none;stroke-opacity:1"
             id="path3312"
             inkscape:connector-curvature="0" /></g><g
           id="g3314"
           transform="translate(678.9575,322.5623)"><path
             d="m 0,0 v 36.569 1.282"
             style="fill:none;stroke:#f99273;stroke-width:3;stroke-linecap:butt;stroke-linejoin:miter;stroke-miterlimit:10;stroke-dasharray:none;stroke-opacity:1"
             id="path3316"
             inkscape:connector-curvature="0" /></g><g
           id="g3318"
           transform="translate(674.3892,323.2148)"><path
             d="M 0,0 H 9.136"
             style="fill:none;stroke:#f99273;stroke-width:3;stroke-linecap:butt;stroke-linejoin:miter;stroke-miterlimit:10;stroke-dasharray:none;stroke-opacity:1"
             id="path3320"
             inkscape:connector-curvature="0" /></g><g
           id="g3322"
           transform="translate(710.2822,323.2148)"><path
             d="M 0,0 H 9.137"
             style="fill:none;stroke:#f27e53;stroke-width:3;stroke-linecap:butt;stroke-linejoin:miter;stroke-miterlimit:10;stroke-dasharray:none;stroke-opacity:1"
             id="path3324"
             inkscape:connector-curvature="0" /></g></g></g><g
       id="g3326"><g
         id="g3328"
         clip-path="url(#clipPath3332)"><g
           id="g3334"
           transform="translate(715.0371,360.4133)"><path
             d="M 0,0 C 0,8.65 -8.14,15.662 -18.18,15.662 -28.22,15.662 -36.359,8.65 -36.359,0 c 0,-8.65 8.139,-15.663 18.179,-15.663 C -8.14,-15.663 0,-8.65 0,0 Z"
             style="fill:none;stroke:#f37e53;stroke-width:3;stroke-linecap:butt;stroke-linejoin:miter;stroke-miterlimit:10;stroke-dasharray:none;stroke-opacity:1"
             id="path3336"
             inkscape:connector-curvature="0" /></g></g></g><g
       id="g3338"><g
         id="g3340"
         clip-path="url(#clipPath3344)"><path
           d="m 652.493,288.605 h 92.016 v -25.92 h -92.016 z"
           style="fill:#f37e53;fill-opacity:1;fill-rule:nonzero;stroke:none"
           id="path3346"
           inkscape:connector-curvature="0" /><path
           d="M 658.213,284.896 H 692.64 V 262.685 H 658.213 Z"
           style="fill:#f99273;fill-opacity:1;fill-rule:nonzero;stroke:none"
           id="path3348"
           inkscape:connector-curvature="0" /><path
           d="M 575.721,365.959 H 666.69 V 311.527 H 575.721 Z"
           style="fill:#f7931e;fill-opacity:1;fill-rule:nonzero;stroke:none"
           id="path3350"
           inkscape:connector-curvature="0" /><path
           d="m 574.675,365.959 h 40.176 v -54.432 h -40.176 z"
           style="fill:#fbb03b;fill-opacity:1;fill-rule:nonzero;stroke:none"
           id="path3352"
           inkscape:connector-curvature="0" /></g></g><g
       id="g3354"><g
         id="g3356"
         clip-path="url(#clipPath3360)"><g
           id="g3362"
           transform="translate(637.2187,383.3762)"><path
             d="M 0,0 C 0,8.65 -8.14,15.662 -18.18,15.662 -28.22,15.662 -36.359,8.65 -36.359,0 c 0,-8.65 8.139,-15.663 18.179,-15.663 C -8.14,-15.663 0,-8.65 0,0 Z"
             style="fill:none;stroke:#f99273;stroke-width:3;stroke-linecap:butt;stroke-linejoin:miter;stroke-miterlimit:10;stroke-dasharray:none;stroke-opacity:1"
             id="path3364"
             inkscape:connector-curvature="0" /></g></g></g><g
       id="g3366"><g
         id="g3368"
         clip-path="url(#clipPath3372)"><g
           id="g3374"
           transform="translate(637.2187,345.5251)"><path
             d="m 0,0 v 36.569 1.282"
             style="fill:none;stroke:#f37e53;stroke-width:3;stroke-linecap:butt;stroke-linejoin:miter;stroke-miterlimit:10;stroke-dasharray:none;stroke-opacity:1"
             id="path3376"
             inkscape:connector-curvature="0" /></g><g
           id="g3378"
           transform="translate(601.1392,345.5251)"><path
             d="m 0,0 v 36.569 1.282"
             style="fill:none;stroke:#f99273;stroke-width:3;stroke-linecap:butt;stroke-linejoin:miter;stroke-miterlimit:10;stroke-dasharray:none;stroke-opacity:1"
             id="path3380"
             inkscape:connector-curvature="0" /></g><g
           id="g3382"
           transform="translate(596.5708,346.1777)"><path
             d="M 0,0 H 9.136"
             style="fill:none;stroke:#f99273;stroke-width:3;stroke-linecap:butt;stroke-linejoin:miter;stroke-miterlimit:10;stroke-dasharray:none;stroke-opacity:1"
             id="path3384"
             inkscape:connector-curvature="0" /></g><g
           id="g3386"
           transform="translate(632.4639,346.1777)"><path
             d="M 0,0 H 9.137"
             style="fill:none;stroke:#f27e53;stroke-width:3;stroke-linecap:butt;stroke-linejoin:miter;stroke-miterlimit:10;stroke-dasharray:none;stroke-opacity:1"
             id="path3388"
             inkscape:connector-curvature="0" /></g></g></g><g
       id="g3390"><g
         id="g3392"
         clip-path="url(#clipPath3396)"><g
           id="g3398"
           transform="translate(637.2187,383.3762)"><path
             d="M 0,0 C 0,8.65 -8.14,15.662 -18.18,15.662 -28.22,15.662 -36.359,8.65 -36.359,0 c 0,-8.65 8.139,-15.663 18.179,-15.663 C -8.14,-15.663 0,-8.65 0,0 Z"
             style="fill:none;stroke:#f37e53;stroke-width:3;stroke-linecap:butt;stroke-linejoin:miter;stroke-miterlimit:10;stroke-dasharray:none;stroke-opacity:1"
             id="path3400"
             inkscape:connector-curvature="0" /></g></g></g><g
       id="g3402"><g
         id="g3404"
         clip-path="url(#clipPath3408)"><path
           d="m 574.675,311.568 h 92.016 v -25.92 h -92.016 z"
           style="fill:#f37e53;fill-opacity:1;fill-rule:nonzero;stroke:none"
           id="path3410"
           inkscape:connector-curvature="0" /><path
           d="m 580.395,307.859 h 34.427 v -22.211 h -34.427 z"
           style="fill:#f99273;fill-opacity:1;fill-rule:nonzero;stroke:none"
           id="path3412"
           inkscape:connector-curvature="0" /><g
           id="g3414"
           transform="translate(708.5664,505.0535)"><path
             d="m 0,0 c 57.473,0 104.064,-46.591 104.064,-104.064 0,-57.473 -46.591,-104.064 -104.064,-104.064 -57.473,0 -104.064,46.591 -104.064,104.064 C -104.064,-46.591 -57.473,0 0,0"
             style="fill:#ffbe66;fill-opacity:1;fill-rule:nonzero;stroke:none"
             id="path3416"
             inkscape:connector-curvature="0" /></g><g
           id="g3418"
           transform="translate(811.9146,400.9895)"><path
             d="M 0,0 C 0,57.472 -46.59,104.064 -104.064,104.064 V -104.064 C -46.59,-104.064 0,-57.472 0,0"
             style="fill:#f8b238;fill-opacity:1;fill-rule:nonzero;stroke:none"
             id="path3420"
             inkscape:connector-curvature="0" /></g><g
           id="g3422"
           transform="translate(705.8984,321.8499)"><path
             d="m 0,0 v 0 c -17.679,0 -32.143,14.464 -32.143,32.142 v 0 c 0,17.679 14.464,32.142 32.143,32.142 17.678,0 32.142,-14.463 32.142,-32.142 v 0 C 32.142,14.464 17.678,0 0,0"
             style="fill:#fe5857;fill-opacity:1;fill-rule:nonzero;stroke:none"
             id="path3424"
             inkscape:connector-curvature="0" /></g><g
           id="g3426"
           transform="translate(683.7529,430.7385)"><path
             d="m 0,0 v 0 c -4.46,0 -8.11,3.65 -8.11,8.11 v 8.11 c 0,4.46 3.65,8.11 8.11,8.11 4.46,0 8.11,-3.65 8.11,-8.11 V 8.11 C 8.11,3.65 4.46,0 0,0"
             style="fill:#272525;fill-opacity:1;fill-rule:nonzero;stroke:none"
             id="path3428"
             inkscape:connector-curvature="0" /></g><g
           id="g3430"
           transform="translate(736.4673,430.7385)"><path
             d="m 0,0 v 0 c -4.46,0 -8.11,3.65 -8.11,8.11 v 8.11 c 0,4.46 3.65,8.11 8.11,8.11 4.46,0 8.11,-3.65 8.11,-8.11 V 8.11 C 8.11,3.65 4.46,0 0,0"
             style="fill:#272525;fill-opacity:1;fill-rule:nonzero;stroke:none"
             id="path3432"
             inkscape:connector-curvature="0" /></g></g></g><g
       id="g3434"><g
         id="g3436"
         clip-path="url(#clipPath3440)"><g
           id="g3442"
           transform="translate(709.9531,321.8499)"><path
             d="m 0,0 v 0 c -17.678,0 -32.142,14.464 -32.142,32.142 v 0 c 0,17.679 14.464,32.142 32.142,32.142 17.678,0 32.142,-14.463 32.142,-32.142 v 0 C 32.142,14.464 17.678,0 0,0"
             style="fill:#ce0202;fill-opacity:1;fill-rule:nonzero;stroke:none"
             id="path3444"
             inkscape:connector-curvature="0" /></g></g></g><g
       id="g3446"><g
         id="g3448"
         clip-path="url(#clipPath3452)"><g
           id="g3454"><g
             id="g3456" /><g
             id="g3468"><g
               clip-path="url(#clipPath3460)"
               id="g3466"
               style="opacity:0.25999505"><g
                 transform="translate(821.6206,400.4617)"
                 id="g3464"><path
                   d="m 0,0 c 0,-62.705 -50.833,-113.538 -113.538,-113.538 -62.706,0 -113.538,50.833 -113.538,113.538 0,62.706 50.832,113.538 113.538,113.538 C -50.833,113.538 0,62.706 0,0"
                   style="fill:#ffffff;fill-opacity:1;fill-rule:nonzero;stroke:none"
                   id="path3462"
                   inkscape:connector-curvature="0" /></g></g></g></g><path
           d="m 755.597,357.029 h 90.969 v -54.432 h -90.969 z"
           style="fill:#f7931e;fill-opacity:1;fill-rule:nonzero;stroke:none"
           id="path3470"
           inkscape:connector-curvature="0" /><path
           d="m 754.55,357.029 h 40.176 V 302.597 H 754.55 Z"
           style="fill:#fbb03b;fill-opacity:1;fill-rule:nonzero;stroke:none"
           id="path3472"
           inkscape:connector-curvature="0" /></g></g><g
       id="g3474"><g
         id="g3476"
         clip-path="url(#clipPath3480)"><g
           id="g3482"
           transform="translate(817.0937,374.446)"><path
             d="M 0,0 C 0,8.65 -8.139,15.663 -18.18,15.663 -28.22,15.663 -36.359,8.65 -36.359,0 c 0,-8.65 8.139,-15.662 18.179,-15.662 C -8.139,-15.662 0,-8.65 0,0 Z"
             style="fill:none;stroke:#f99273;stroke-width:3;stroke-linecap:butt;stroke-linejoin:miter;stroke-miterlimit:10;stroke-dasharray:none;stroke-opacity:1"
             id="path3484"
             inkscape:connector-curvature="0" /></g></g></g><g
       id="g3486"><g
         id="g3488"
         clip-path="url(#clipPath3492)"><g
           id="g3494"
           transform="translate(817.0937,336.5952)"><path
             d="m 0,0 v 36.569 1.282"
             style="fill:none;stroke:#f37e53;stroke-width:3;stroke-linecap:butt;stroke-linejoin:miter;stroke-miterlimit:10;stroke-dasharray:none;stroke-opacity:1"
             id="path3496"
             inkscape:connector-curvature="0" /></g><g
           id="g3498"
           transform="translate(781.0142,336.5952)"><path
             d="m 0,0 v 36.569 1.282"
             style="fill:none;stroke:#f99273;stroke-width:3;stroke-linecap:butt;stroke-linejoin:miter;stroke-miterlimit:10;stroke-dasharray:none;stroke-opacity:1"
             id="path3500"
             inkscape:connector-curvature="0" /></g><g
           id="g3502"
           transform="translate(776.4458,337.2478)"><path
             d="M 0,0 H 9.137"
             style="fill:none;stroke:#f99273;stroke-width:3;stroke-linecap:butt;stroke-linejoin:miter;stroke-miterlimit:10;stroke-dasharray:none;stroke-opacity:1"
             id="path3504"
             inkscape:connector-curvature="0" /></g><g
           id="g3506"
           transform="translate(812.3394,337.2478)"><path
             d="M 0,0 H 9.136"
             style="fill:none;stroke:#f27e53;stroke-width:3;stroke-linecap:butt;stroke-linejoin:miter;stroke-miterlimit:10;stroke-dasharray:none;stroke-opacity:1"
             id="path3508"
             inkscape:connector-curvature="0" /></g></g></g><g
       id="g3510"><g
         id="g3512"
         clip-path="url(#clipPath3516)"><g
           id="g3518"
           transform="translate(817.0937,374.446)"><path
             d="M 0,0 C 0,8.65 -8.139,15.663 -18.18,15.663 -28.22,15.663 -36.359,8.65 -36.359,0 c 0,-8.65 8.139,-15.662 18.179,-15.662 C -8.139,-15.662 0,-8.65 0,0 Z"
             style="fill:none;stroke:#f37e53;stroke-width:3;stroke-linecap:butt;stroke-linejoin:miter;stroke-miterlimit:10;stroke-dasharray:none;stroke-opacity:1"
             id="path3520"
             inkscape:connector-curvature="0" /></g></g></g><g
       id="g3522"><g
         id="g3524"
         clip-path="url(#clipPath3528)"><path
           d="m 754.55,302.638 h 92.016 v -25.92 H 754.55 Z"
           style="fill:#f37e53;fill-opacity:1;fill-rule:nonzero;stroke:none"
           id="path3530"
           inkscape:connector-curvature="0" /><path
           d="m 760.27,298.929 h 34.427 V 276.718 H 760.27 Z"
           style="fill:#f99273;fill-opacity:1;fill-rule:nonzero;stroke:none"
           id="path3532"
           inkscape:connector-curvature="0" /><g
           id="g3606"><g
             id="g3608" /></g></g></g></g></svg>