<?xml version="1.0" encoding="UTF-8" standalone="no"?>
<!-- Created with Inkscape (http://www.inkscape.org/) -->

<svg
   xmlns:dc="http://purl.org/dc/elements/1.1/"
   xmlns:cc="http://creativecommons.org/ns#"
   xmlns:rdf="http://www.w3.org/1999/02/22-rdf-syntax-ns#"
   xmlns:svg="http://www.w3.org/2000/svg"
   xmlns="http://www.w3.org/2000/svg"
   xmlns:sodipodi="http://sodipodi.sourceforge.net/DTD/sodipodi-0.dtd"
   xmlns:inkscape="http://www.inkscape.org/namespaces/inkscape"
   version="1.1"
   id="svg3809"
   xml:space="preserve"
   width="445.56531"
   height="433.93332"
   viewBox="0 0 445.56532 433.93332"
   sodipodi:docname="Racional.svg"
   inkscape:version="0.92.4 5da689c313, 2019-01-14"><metadata
     id="metadata3815"><rdf:RDF><cc:Work
         rdf:about=""><dc:format>image/svg+xml</dc:format><dc:type
           rdf:resource="http://purl.org/dc/dcmitype/StillImage" /><dc:title></dc:title></cc:Work></rdf:RDF></metadata><defs
     id="defs3813"><clipPath
       clipPathUnits="userSpaceOnUse"
       id="clipPath3825"><path
         d="M 1,1 H 101 V 668 H 1 Z"
         id="path3823"
         inkscape:connector-curvature="0" /></clipPath><clipPath
       clipPathUnits="userSpaceOnUse"
       id="clipPath3841"><path
         d="M 1,1 H 80 V 668 H 1 Z"
         id="path3839"
         inkscape:connector-curvature="0" /></clipPath><clipPath
       clipPathUnits="userSpaceOnUse"
       id="clipPath3857"><path
         d="M 0,768 H 1366 V 0 H 0 Z"
         id="path3855"
         inkscape:connector-curvature="0" /></clipPath><clipPath
       clipPathUnits="userSpaceOnUse"
       id="clipPath3881"><path
         d="m 1229.96,678.335 h 60.962 v 20.855 h -60.962 z"
         id="path3879"
         inkscape:connector-curvature="0" /></clipPath><clipPath
       clipPathUnits="userSpaceOnUse"
       id="clipPath3893"><path
         d="m 1231.564,653.469 h 62.566 v 24.866 h -62.566 z"
         id="path3891"
         inkscape:connector-curvature="0" /></clipPath><clipPath
       clipPathUnits="userSpaceOnUse"
       id="clipPath3905"><path
         d="m 1261.243,659.886 h 27.272 v 18.449 h -27.272 z"
         id="path3903"
         inkscape:connector-curvature="0" /></clipPath><clipPath
       clipPathUnits="userSpaceOnUse"
       id="clipPath3917"><path
         d="m 1261.243,678.335 h 27.272 v 18.449 h -27.272 z"
         id="path3915"
         inkscape:connector-curvature="0" /></clipPath><clipPath
       clipPathUnits="userSpaceOnUse"
       id="clipPath3929"><path
         d="m 1241.189,685.554 h 40.107 v 9.626 h -40.107 z"
         id="path3927"
         inkscape:connector-curvature="0" /></clipPath><clipPath
       clipPathUnits="userSpaceOnUse"
       id="clipPath3937"><path
         d="m 1288.926,665.101 h -32.106 c -1.766,0 -3.197,1.431 -3.197,3.197 v 4.032 c 0,1.766 1.431,3.198 3.197,3.198 h 32.106 c 1.766,0 3.199,-1.432 3.199,-3.198 v -4.032 c 0,-1.766 -1.433,-3.197 -3.199,-3.197"
         id="path3935"
         inkscape:connector-curvature="0" /></clipPath><clipPath
       clipPathUnits="userSpaceOnUse"
       id="clipPath3951"><path
         d="m 1261.243,685.554 h 20.053 v 9.626 h -20.053 z"
         id="path3949"
         inkscape:connector-curvature="0" /></clipPath><clipPath
       clipPathUnits="userSpaceOnUse"
       id="clipPath3959"><path
         d="m 1288.926,665.101 h -32.106 c -1.766,0 -3.197,1.431 -3.197,3.197 v 4.032 c 0,1.766 1.431,3.198 3.197,3.198 h 32.106 c 1.766,0 3.199,-1.432 3.199,-3.198 v -4.032 c 0,-1.766 -1.433,-3.197 -3.199,-3.197"
         id="path3957"
         inkscape:connector-curvature="0" /></clipPath><clipPath
       clipPathUnits="userSpaceOnUse"
       id="clipPath3973"><path
         d="m 1237.981,674.791 c 0,-7.788 10.414,-14.103 23.262,-14.103 v 0 c 12.846,0 23.261,6.315 23.261,14.103 v 0 c 0,7.789 -10.415,14.103 -23.261,14.103 v 0 c -12.848,0 -23.262,-6.314 -23.262,-14.103"
         id="path3971"
         inkscape:connector-curvature="0" /></clipPath><clipPath
       clipPathUnits="userSpaceOnUse"
       id="clipPath3985"><path
         d="m 1261.243,683.148 v -22.46 c 12.846,0 23.261,6.315 23.261,14.103 v 0 c 0,3.128 -1.68,6.018 -4.521,8.357 v 0 z"
         id="path3983"
         inkscape:connector-curvature="0" /></clipPath><clipPath
       clipPathUnits="userSpaceOnUse"
       id="clipPath3997"><path
         d="M 0,768 H 1366 V 0 H 0 Z"
         id="path3995"
         inkscape:connector-curvature="0" /></clipPath><clipPath
       clipPathUnits="userSpaceOnUse"
       id="clipPath4005"><path
         d="m 1209.56,743.304 h 102.63 v -102.63 h -102.63 z"
         id="path4003"
         inkscape:connector-curvature="0" /></clipPath><clipPath
       clipPathUnits="userSpaceOnUse"
       id="clipPath4029"><path
         d="M 0,768 H 1366 V 0 H 0 Z"
         id="path4027"
         inkscape:connector-curvature="0" /></clipPath><clipPath
       clipPathUnits="userSpaceOnUse"
       id="clipPath4037"><path
         d="M 802.314,577.657 H 1105.49 V 282.271 H 802.314 Z"
         id="path4035"
         inkscape:connector-curvature="0" /></clipPath><clipPath
       clipPathUnits="userSpaceOnUse"
       id="clipPath4053"><path
         d="M 270,574.539 H 573.177 V 279.154 H 270 Z"
         id="path4051"
         inkscape:connector-curvature="0" /></clipPath><clipPath
       clipPathUnits="userSpaceOnUse"
       id="clipPath4073"><path
         d="m 680.5,248 h 10.205 V 237.795 H 680.5 Z"
         id="path4071"
         inkscape:connector-curvature="0" /></clipPath><clipPath
       clipPathUnits="userSpaceOnUse"
       id="clipPath4089"><path
         d="m 696.148,248 h 10.204 v -10.205 h -10.204 z"
         id="path4087"
         inkscape:connector-curvature="0" /></clipPath><clipPath
       clipPathUnits="userSpaceOnUse"
       id="clipPath4109"><path
         d="m 664.5,248 h 10.205 V 237.795 H 664.5 Z"
         id="path4107"
         inkscape:connector-curvature="0" /></clipPath><clipPath
       clipPathUnits="userSpaceOnUse"
       id="clipPath4125"><path
         d="m 649.5,248 h 10.205 V 237.795 H 649.5 Z"
         id="path4123"
         inkscape:connector-curvature="0" /></clipPath><clipPath
       clipPathUnits="userSpaceOnUse"
       id="clipPath4141"><path
         d="M 288.726,520.498 H 512.582 V 323.423 H 288.726 Z"
         id="path4139"
         inkscape:connector-curvature="0" /></clipPath><clipPath
       clipPathUnits="userSpaceOnUse"
       id="clipPath4145"><path
         d="M 327.535,508.47 H 512.582 V 323.423 H 327.535 Z"
         id="path4143"
         inkscape:connector-curvature="0" /></clipPath><clipPath
       clipPathUnits="userSpaceOnUse"
       id="clipPath4221"><path
         d="M 568,565 H 810.989 V 314 H 568 Z"
         id="path4219"
         inkscape:connector-curvature="0" /></clipPath><clipPath
       clipPathUnits="userSpaceOnUse"
       id="clipPath4319"><path
         d="M 0,768 H 1366 V 0 H 0 Z"
         id="path4317"
         inkscape:connector-curvature="0" /></clipPath><clipPath
       clipPathUnits="userSpaceOnUse"
       id="clipPath4327"><path
         d="M 862.38,533 H 1048.6 V 331.185 H 862.38 Z"
         id="path4325"
         inkscape:connector-curvature="0" /></clipPath><clipPath
       clipPathUnits="userSpaceOnUse"
       id="clipPath4331"><path
         d="M 862.38,533 H 1048.6 V 346.783 H 862.38 Z"
         id="path4329"
         inkscape:connector-curvature="0" /></clipPath><clipPath
       clipPathUnits="userSpaceOnUse"
       id="clipPath4335"><path
         d="m 1027.636,356.86 -24.997,-24.997 c -0.905,-0.905 -2.372,-0.905 -3.278,0 l -8.725,8.726 c -0.905,0.905 -0.905,2.372 0,3.278 l 24.997,24.996 c 0.905,0.906 2.372,0.906 3.277,0 l 8.726,-8.725 c 0.905,-0.905 0.905,-2.372 0,-3.278"
         id="path4333"
         inkscape:connector-curvature="0" /></clipPath></defs><sodipodi:namedview
     pagecolor="#ffffff"
     bordercolor="#666666"
     borderopacity="1"
     objecttolerance="10"
     gridtolerance="10"
     guidetolerance="10"
     inkscape:pageopacity="0"
     inkscape:pageshadow="2"
     inkscape:window-width="1366"
     inkscape:window-height="715"
     id="namedview3811"
     showgrid="false"
     fit-margin-left="0.4"
     fit-margin-right="0.4"
     fit-margin-bottom="0.3"
     fit-margin-top="0.3"
     inkscape:zoom="0.34260616"
     inkscape:cx="290.58513"
     inkscape:cy="71.890112"
     inkscape:window-x="0"
     inkscape:window-y="0"
     inkscape:window-maximized="1"
     inkscape:current-layer="g4025" /><g
     id="g3817"
     inkscape:groupmode="layer"
     inkscape:label="Consumo"
     transform="matrix(1.3333333,0,0,-1.3333333,-686.93745,792.29998)"><g
       clip-path="url(#clipPath4029)"
       id="g4025"><g
         id="g4047"><g
           id="g4049" /></g><g
         transform="translate(792.3721,269)"
         id="g4063"><path
           inkscape:connector-curvature="0"
           id="path4065"
           style="fill:#74c4fb;fill-opacity:1;fill-rule:nonzero;stroke:none"
           d="m 0,0 h -220.164 c -31.317,0 -56.705,25.388 -56.705,56.705 v 211.59 c 0,31.317 25.388,56.705 56.705,56.705 H 0 c 31.317,0 56.705,-25.388 56.705,-56.705 V 56.705 C 56.705,25.388 31.317,0 0,0" /></g><g
         id="g4215"><g
           id="g4217" /><g
           id="g4229"><g
             style="opacity:0.25999505"
             id="g4227"
             clip-path="url(#clipPath4221)"><g
               id="g4225"
               transform="translate(810.9893,439.5)"><path
                 inkscape:connector-curvature="0"
                 id="path4223"
                 style="fill:#ffffff;fill-opacity:1;fill-rule:nonzero;stroke:none"
                 d="m 0,0 c 0,-69.312 -54.395,-125.5 -121.495,-125.5 -67.099,0 -121.494,56.188 -121.494,125.5 0,69.312 54.395,125.5 121.494,125.5 C -54.395,125.5 0,69.312 0,0" /></g></g></g></g><g
         transform="translate(661.5195,495.0283)"
         id="g4231"><path
           inkscape:connector-curvature="0"
           id="path4233"
           style="fill:#ceeabe;fill-opacity:1;fill-rule:nonzero;stroke:none"
           d="m 0,0 c -0.282,-0.619 -0.788,-1.09 -1.422,-1.328 -0.289,-0.108 -0.59,-0.162 -0.89,-0.162 -0.358,0 -0.716,0.078 -1.053,0.232 -0.617,0.283 -1.087,0.789 -1.324,1.426 -0.238,0.637 -0.212,1.329 0.069,1.947 0.282,0.618 0.787,1.09 1.423,1.327 0.635,0.238 1.326,0.213 1.942,-0.069 C 0.019,2.79 0.582,1.276 0,0 m -11.918,0 c -0.282,-0.619 -0.788,-1.091 -1.423,-1.328 -0.288,-0.108 -0.589,-0.162 -0.888,-0.162 -0.36,0 -0.718,0.078 -1.055,0.232 -1.272,0.583 -1.835,2.096 -1.254,3.373 0.282,0.618 0.788,1.09 1.423,1.327 0.636,0.238 1.325,0.213 1.942,-0.069 0.617,-0.283 1.088,-0.79 1.324,-1.427 C -11.611,1.31 -11.636,0.618 -11.918,0 M 12.6,13.706 9.058,16.299 4.446,10.055 c -3.494,2.479 -7.776,3.941 -12.398,3.941 -4.059,0 -7.857,-1.128 -11.089,-3.082 l -3.977,5.385 -3.543,-2.593 4.017,-5.438 c -4.127,-3.84 -6.708,-9.285 -6.708,-15.314 V -9.234 H 13.35 v 2.188 c 0,5.465 -2.121,10.45 -5.592,14.195 z" /></g><g
         transform="translate(622.7993,482.6382)"
         id="g4235"><path
           inkscape:connector-curvature="0"
           id="path4237"
           style="fill:#ceeabe;fill-opacity:1;fill-rule:nonzero;stroke:none"
           d="M 0,0 H -0.014 C -3.492,0 -6.311,-2.819 -6.311,-6.296 V -22.09 c 0,-3.486 2.826,-6.311 6.311,-6.311 h 0.001 c 3.485,0 6.311,2.825 6.311,6.311 V -6.312 C 6.312,-2.84 3.472,0 0,0" /></g><g
         transform="translate(684.3364,482.6382)"
         id="g4239"><path
           inkscape:connector-curvature="0"
           id="path4241"
           style="fill:#ceeabe;fill-opacity:1;fill-rule:nonzero;stroke:none"
           d="m 0,0 v 0 c -3.486,0 -6.312,-2.826 -6.312,-6.312 v -15.793 c 0,-3.478 2.819,-6.296 6.296,-6.296 h 0.032 c 3.477,0 6.296,2.818 6.296,6.296 V -6.312 C 6.312,-2.84 3.471,0 0,0" /></g><g
         transform="translate(632.2671,451.0811)"
         id="g4243"><path
           inkscape:connector-curvature="0"
           id="path4245"
           style="fill:#ceeabe;fill-opacity:1;fill-rule:nonzero;stroke:none"
           d="m 0,0 h 6.312 v -8.289 c 0,-3.058 2.026,-5.892 5.023,-6.502 4.041,-0.822 7.599,2.335 7.599,6.327 V 0 h 3.156 v -8.289 c 0,-3.058 2.027,-5.892 5.023,-6.502 4.042,-0.822 7.6,2.335 7.6,6.327 V 0 h 7.889 V 29.979 H 0 Z" /></g><g
         transform="translate(684.3364,482.6382)"
         id="g4247"><path
           inkscape:connector-curvature="0"
           id="path4249"
           style="fill:#94c282;fill-opacity:1;fill-rule:nonzero;stroke:none"
           d="m 0,0 v 0 c -3.486,0 -6.312,-2.826 -6.312,-6.312 v -15.793 c 0,-3.478 2.819,-6.296 6.296,-6.296 h 0.032 c 3.477,0 6.296,2.818 6.296,6.296 V -6.312 C 6.312,-2.84 3.471,0 0,0" /></g><g
         transform="translate(661.5195,495.0283)"
         id="g4251"><path
           inkscape:connector-curvature="0"
           id="path4253"
           style="fill:#94c282;fill-opacity:1;fill-rule:nonzero;stroke:none"
           d="m 0,0 c -0.282,-0.619 -0.788,-1.09 -1.422,-1.328 -0.289,-0.108 -0.59,-0.162 -0.89,-0.162 -0.358,0 -0.716,0.078 -1.053,0.232 -0.617,0.283 -1.087,0.789 -1.324,1.426 -0.238,0.637 -0.212,1.329 0.069,1.947 0.282,0.618 0.787,1.09 1.423,1.327 0.635,0.238 1.326,0.213 1.942,-0.069 C 0.019,2.79 0.582,1.276 0,0 m 13.35,-7.046 c 0,5.465 -2.042,10.45 -5.385,14.195 l 4.663,6.557 -3.412,2.593 -4.441,-6.244 c -3.364,2.479 -7.487,3.941 -11.938,3.941 V -9.234 H 13.35 Z" /></g><g
         transform="translate(654.3569,481.0601)"
         id="g4255"><path
           inkscape:connector-curvature="0"
           id="path4257"
           style="fill:#94c282;fill-opacity:1;fill-rule:nonzero;stroke:none"
           d="m 0,0 v -29.979 -8.289 c 0,-3.058 2.027,-5.892 5.023,-6.502 4.042,-0.822 7.6,2.335 7.6,6.327 v 8.464 h 7.889 V 0 Z" /></g><g
         transform="translate(726.5073,436.2236)"
         id="g4259"><path
           inkscape:connector-curvature="0"
           id="path4261"
           style="fill:#ffffff;fill-opacity:1;fill-rule:nonzero;stroke:none"
           d="m 0,0 c -2.664,0.104 -6.644,3.009 -8.368,4.963 -4.412,5.002 -8.005,10.545 -10.547,16.721 -2.893,7.03 -4.618,14.321 -4.531,21.975 0.063,5.505 1.137,10.785 3.894,15.591 3.407,5.941 8.438,9.849 15.161,11.429 2.676,0.628 5.403,0.88 8.077,0.089 2.673,-0.791 5.307,-1.725 7.93,-2.673 2.273,-0.823 4.503,-1.417 6.889,-0.384 1.568,0.68 3.199,1.215 4.804,1.806 2.63,0.968 5.288,1.865 8.119,1.949 5.475,0.164 10.526,-1.179 14.982,-4.457 1.838,-1.352 3.382,-2.994 4.664,-4.919 -0.177,-0.132 -0.311,-0.242 -0.454,-0.341 -1.919,-1.319 -3.619,-2.876 -5.089,-4.684 -3.902,-4.797 -5.257,-10.273 -4.336,-16.346 0.643,-4.237 2.469,-7.894 5.448,-10.977 1.82,-1.885 4.877,-3.856 7.229,-4.998 -0.41,-0.972 -1.214,-2.54 -1.604,-3.521 C 50.601,17.036 48.359,13.17 45.72,9.525 43.843,6.932 41.955,4.362 39.391,2.371 37.045,0.55 34.449,-0.361 31.457,-0.153 29.178,0.005 27.068,0.717 25.026,1.663 20.564,3.729 15.984,4.141 11.278,2.667 10.104,2.3 8.997,1.724 7.826,1.343 5.968,0.739 1.953,-0.076 0,0" /></g><g
         transform="translate(773.5312,465.9653)"
         id="g4263"><path
           inkscape:connector-curvature="0"
           id="path4265"
           style="fill:#ececec;fill-opacity:1;fill-rule:nonzero;stroke:none"
           d="m 0,0 c -2.979,3.083 -4.805,6.74 -5.447,10.978 -0.921,6.072 0.433,11.548 4.336,16.345 1.47,1.808 3.169,3.365 5.088,4.684 0.143,0.099 0.278,0.209 0.454,0.342 -1.282,1.924 -2.826,3.567 -4.663,4.918 -4.456,3.278 -9.508,4.621 -14.983,4.458 -2.831,-0.085 -5.489,-0.982 -8.118,-1.95 -1.606,-0.59 -3.237,-1.126 -4.804,-1.805 -1.165,-0.505 -2.292,-0.62 -3.405,-0.512 V -26.29 c 3.373,0.336 6.68,-0.287 9.925,-1.789 2.042,-0.945 4.153,-1.657 6.431,-1.816 2.993,-0.208 5.589,0.703 7.935,2.524 2.564,1.991 4.452,4.561 6.328,7.154 2.639,3.645 4.881,7.511 6.548,11.698 0.39,0.981 1.194,2.549 1.604,3.521 C 4.877,-3.855 1.82,-1.884 0,0" /></g><g
         transform="translate(760.3296,530.5776)"
         id="g4267"><path
           inkscape:connector-curvature="0"
           id="path4269"
           style="fill:#ececec;fill-opacity:1;fill-rule:nonzero;stroke:none"
           d="m 0,0 c -0.011,-1.502 0.16,-3.032 -0.067,-4.5 -0.842,-5.441 -3.396,-9.98 -7.697,-13.437 -3.188,-2.563 -6.796,-4.093 -11.061,-3.828 -0.242,1.643 -0.188,3.274 0.166,4.87 1.267,5.71 4.304,10.255 9.181,13.499 2.517,1.675 5.279,2.818 8.299,3.259 C -1.034,-0.116 -0.252,0 0,0" /></g><g
         transform="translate(612.5308,361.4048)"
         id="g4271"><path
           inkscape:connector-curvature="0"
           id="path4273"
           style="fill:#fe5857;fill-opacity:1;fill-rule:nonzero;stroke:none"
           d="m 0,0 c -2.374,0 -4.632,1.39 -5.627,3.71 l -24.475,57.108 c -0.639,1.492 -0.66,3.177 -0.057,4.683 0.603,1.507 1.78,2.712 3.271,3.352 l 22.495,9.64 c 3.106,1.331 6.703,-0.108 8.035,-3.214 L 28.117,18.171 c 0.639,-1.492 0.659,-3.176 0.056,-4.683 -0.602,-1.507 -1.779,-2.712 -3.271,-3.351 L 2.408,0.497 C 1.622,0.16 0.804,0 0,0" /></g><g
         transform="translate(635.855,371.0469)"
         id="g4275"><path
           inkscape:connector-curvature="0"
           id="path4277"
           style="fill:#ffc2aa;fill-opacity:1;fill-rule:nonzero;stroke:none"
           d="m 0,0 h 86.441 c 3.987,0 7.833,1.473 10.799,4.137 l 56.095,50.367 c 1.73,1.554 2.807,3.762 2.796,6.088 -0.08,17.123 -16.547,22.363 -25.888,14.22 L 87.864,37.874 C 87.275,37.361 86.521,37.078 85.74,37.078 H 40.633 l 7.743,27.875 -5.585,6.37 C 40.856,73.53 38.595,75.446 36.076,76.952 15.323,89.357 -8.309,86.992 -24.781,73.1 l -5.462,-4.607 z" /></g><g
         transform="translate(729.96,423.8286)"
         id="g4279"><path
           inkscape:connector-curvature="0"
           id="path4281"
           style="fill:#ffc2aa;fill-opacity:1;fill-rule:nonzero;stroke:none"
           d="m 0,0 c 0,-8.673 -7.031,-15.704 -15.704,-15.704 h -46.253 c -1.582,0 -3.143,0.441 -4.321,1.321 -2.012,1.5 -2.62,3.83 -1.673,5.835 l 9.878,20.902 c 0.945,1.999 3.259,3.314 5.837,3.317 l 36.519,0.033 C -7.039,15.712 0,8.679 0,0" /></g><g
         transform="translate(713.043,439.5)"
         id="g4283"><path
           inkscape:connector-curvature="0"
           id="path4285"
           style="fill:#fab493;fill-opacity:1;fill-rule:nonzero;stroke:none"
           d="m 0,0 -28.1,-0.025 v -31.35 h 27.915 c 6.782,0 13.087,4.185 15.104,10.659 C 18.287,-9.908 10.299,0.009 0,0" /></g><g
         transform="translate(764.418,445.5537)"
         id="g4287"><path
           inkscape:connector-curvature="0"
           id="path4289"
           style="fill:#fab493;fill-opacity:1;fill-rule:nonzero;stroke:none"
           d="m 0,0 -41.218,-35.926 c -1.111,-0.969 -2.536,-1.503 -4.011,-1.503 h -34.246 v -37.078 h 30.523 c 7.528,0 14.791,2.782 20.392,7.811 l 49.146,44.128 c 7.042,6.323 6.84,17.715 -1.195,23.711 C 13.598,5.465 5.448,4.749 0,0" /></g><g
         transform="translate(667.8296,396.7158)"
         id="g4291"><path
           inkscape:connector-curvature="0"
           id="path4293"
           style="fill:#fab493;fill-opacity:1;fill-rule:nonzero;stroke:none"
           d="m 0,0 h 41.986 c 14.44,0 26.133,11.987 25.651,26.533 -0.006,0.003 -0.003,0.002 -0.009,0.004 L 52,12.915 C 50.887,11.944 49.458,11.409 47.98,11.409 H 0 Z" /></g><g
         transform="translate(716.4834,408.125)"
         id="g4295"><path
           inkscape:connector-curvature="0"
           id="path4297"
           style="fill:#f5a07d;fill-opacity:1;fill-rule:nonzero;stroke:none"
           d="m 0,0 h -31.54 v -11.409 h 25.546 c 14.44,0 26.132,11.987 25.65,26.532 -0.006,0.002 -0.003,0.002 -0.009,0.004 L 4.02,1.506 C 2.906,0.535 1.478,0 0,0" /></g></g></g></svg>