<?xml version="1.0" encoding="UTF-8" standalone="no"?>
<!-- Created with Inkscape (http://www.inkscape.org/) -->

<svg
   xmlns:dc="http://purl.org/dc/elements/1.1/"
   xmlns:cc="http://creativecommons.org/ns#"
   xmlns:rdf="http://www.w3.org/1999/02/22-rdf-syntax-ns#"
   xmlns:svg="http://www.w3.org/2000/svg"
   xmlns="http://www.w3.org/2000/svg"
   xmlns:sodipodi="http://sodipodi.sourceforge.net/DTD/sodipodi-0.dtd"
   xmlns:inkscape="http://www.inkscape.org/namespaces/inkscape"
   version="1.1"
   id="svg2"
   xml:space="preserve"
   width="445.36533"
   height="434.13333"
   viewBox="0 0 445.36534 434.13333"
   sodipodi:docname="Recordada.svg"
   inkscape:version="0.92.4 5da689c313, 2019-01-14"><metadata
     id="metadata8"><rdf:RDF><cc:Work
         rdf:about=""><dc:format>image/svg+xml</dc:format><dc:type
           rdf:resource="http://purl.org/dc/dcmitype/StillImage" /><dc:title></dc:title></cc:Work></rdf:RDF></metadata><defs
     id="defs6"><clipPath
       clipPathUnits="userSpaceOnUse"
       id="clipPath18"><path
         d="M 0,768 H 1366 V 0 H 0 Z"
         id="path16"
         inkscape:connector-curvature="0" /></clipPath><clipPath
       clipPathUnits="userSpaceOnUse"
       id="clipPath26"><path
         d="m 1487,34 h -40 v 679 h 40 z"
         id="path24"
         inkscape:connector-curvature="0" /></clipPath><clipPath
       clipPathUnits="userSpaceOnUse"
       id="clipPath34"><path
         d="M 1584,-333 H 1453 V 733 h 131 z"
         id="path32"
         inkscape:connector-curvature="0" /></clipPath><clipPath
       clipPathUnits="userSpaceOnUse"
       id="clipPath42"><path
         d="m 1532,44 h -188 v 670 h 188 z"
         id="path40"
         inkscape:connector-curvature="0" /></clipPath><clipPath
       clipPathUnits="userSpaceOnUse"
       id="clipPath54"><path
         d="M 5,4 H 105 V 671.001 H 5 Z"
         id="path52"
         inkscape:connector-curvature="0" /></clipPath><clipPath
       clipPathUnits="userSpaceOnUse"
       id="clipPath70"><path
         d="M 5,4 H 83.999 V 671.001 H 5 Z"
         id="path68"
         inkscape:connector-curvature="0" /></clipPath><clipPath
       clipPathUnits="userSpaceOnUse"
       id="clipPath86"><path
         d="M 0,768 H 1366 V 0 H 0 Z"
         id="path84"
         inkscape:connector-curvature="0" /></clipPath><clipPath
       clipPathUnits="userSpaceOnUse"
       id="clipPath110"><path
         d="m 1233.959,681.335 h 60.962 v 20.856 h -60.962 z"
         id="path108"
         inkscape:connector-curvature="0" /></clipPath><clipPath
       clipPathUnits="userSpaceOnUse"
       id="clipPath122"><path
         d="m 1235.564,656.47 h 62.565 v 24.865 h -62.565 z"
         id="path120"
         inkscape:connector-curvature="0" /></clipPath><clipPath
       clipPathUnits="userSpaceOnUse"
       id="clipPath134"><path
         d="m 1265.242,662.887 h 27.272 v 18.448 h -27.272 z"
         id="path132"
         inkscape:connector-curvature="0" /></clipPath><clipPath
       clipPathUnits="userSpaceOnUse"
       id="clipPath146"><path
         d="m 1265.242,681.335 h 27.272 v 18.449 h -27.272 z"
         id="path144"
         inkscape:connector-curvature="0" /></clipPath><clipPath
       clipPathUnits="userSpaceOnUse"
       id="clipPath158"><path
         d="m 1245.19,688.555 h 40.106 v 9.625 h -40.106 z"
         id="path156"
         inkscape:connector-curvature="0" /></clipPath><clipPath
       clipPathUnits="userSpaceOnUse"
       id="clipPath166"><path
         d="m 1292.926,668.101 h -32.106 c -1.766,0 -3.197,1.431 -3.197,3.197 v 4.032 c 0,1.766 1.431,3.198 3.197,3.198 h 32.106 c 1.766,0 3.199,-1.432 3.199,-3.198 v -4.032 c 0,-1.766 -1.433,-3.197 -3.199,-3.197"
         id="path164"
         inkscape:connector-curvature="0" /></clipPath><clipPath
       clipPathUnits="userSpaceOnUse"
       id="clipPath180"><path
         d="m 1265.242,688.555 h 20.053 v 9.625 h -20.053 z"
         id="path178"
         inkscape:connector-curvature="0" /></clipPath><clipPath
       clipPathUnits="userSpaceOnUse"
       id="clipPath188"><path
         d="m 1292.926,668.101 h -32.106 c -1.766,0 -3.197,1.431 -3.197,3.197 v 4.032 c 0,1.766 1.431,3.198 3.197,3.198 h 32.106 c 1.766,0 3.199,-1.432 3.199,-3.198 v -4.032 c 0,-1.766 -1.433,-3.197 -3.199,-3.197"
         id="path186"
         inkscape:connector-curvature="0" /></clipPath><clipPath
       clipPathUnits="userSpaceOnUse"
       id="clipPath202"><path
         d="m 1241.981,677.792 c 0,-7.789 10.415,-14.103 23.261,-14.103 v 0 c 12.847,0 23.262,6.314 23.262,14.103 v 0 c 0,7.788 -10.415,14.103 -23.262,14.103 v 0 c -12.846,0 -23.261,-6.315 -23.261,-14.103"
         id="path200"
         inkscape:connector-curvature="0" /></clipPath><clipPath
       clipPathUnits="userSpaceOnUse"
       id="clipPath214"><path
         d="m 1265.242,686.148 v -22.459 c 12.847,0 23.262,6.314 23.262,14.103 v 0 c 0,3.127 -1.68,6.018 -4.522,8.356 v 0 z"
         id="path212"
         inkscape:connector-curvature="0" /></clipPath><clipPath
       clipPathUnits="userSpaceOnUse"
       id="clipPath226"><path
         d="M 0,768 H 1366 V 0 H 0 Z"
         id="path224"
         inkscape:connector-curvature="0" /></clipPath><clipPath
       clipPathUnits="userSpaceOnUse"
       id="clipPath234"><path
         d="m 1213.56,746.304 h 102.63 v -102.63 h -102.63 z"
         id="path232"
         inkscape:connector-curvature="0" /></clipPath><clipPath
       clipPathUnits="userSpaceOnUse"
       id="clipPath258"><path
         d="M 0,768 H 1366 V 0 H 0 Z"
         id="path256"
         inkscape:connector-curvature="0" /></clipPath><clipPath
       clipPathUnits="userSpaceOnUse"
       id="clipPath266"><path
         d="M 789.314,577.657 H 1092.49 V 282.271 H 789.314 Z"
         id="path264"
         inkscape:connector-curvature="0" /></clipPath><clipPath
       clipPathUnits="userSpaceOnUse"
       id="clipPath282"><path
         d="M 257,574.539 H 560.177 V 279.154 H 257 Z"
         id="path280"
         inkscape:connector-curvature="0" /></clipPath><clipPath
       clipPathUnits="userSpaceOnUse"
       id="clipPath302"><path
         d="m 667.5,248 h 10.205 V 237.795 H 667.5 Z"
         id="path300"
         inkscape:connector-curvature="0" /></clipPath><clipPath
       clipPathUnits="userSpaceOnUse"
       id="clipPath322"><path
         d="M 698.795,248 H 709 v -10.205 h -10.205 z"
         id="path320"
         inkscape:connector-curvature="0" /></clipPath><clipPath
       clipPathUnits="userSpaceOnUse"
       id="clipPath338"><path
         d="m 651.5,248 h 10.205 V 237.795 H 651.5 Z"
         id="path336"
         inkscape:connector-curvature="0" /></clipPath><clipPath
       clipPathUnits="userSpaceOnUse"
       id="clipPath354"><path
         d="m 636.5,248 h 10.205 V 237.795 H 636.5 Z"
         id="path352"
         inkscape:connector-curvature="0" /></clipPath><clipPath
       clipPathUnits="userSpaceOnUse"
       id="clipPath384"><path
         d="M 0,768 H 1366 V 0 H 0 Z"
         id="path382"
         inkscape:connector-curvature="0" /></clipPath><clipPath
       clipPathUnits="userSpaceOnUse"
       id="clipPath392"><path
         d="M 575.126,528.088 H 790.327 V 312.887 H 575.126 Z"
         id="path390"
         inkscape:connector-curvature="0" /></clipPath><clipPath
       clipPathUnits="userSpaceOnUse"
       id="clipPath460"><path
         d="m 854.068,535.213 h 211.042 v -218 H 854.068 Z"
         id="path458"
         inkscape:connector-curvature="0" /></clipPath><clipPath
       clipPathUnits="userSpaceOnUse"
       id="clipPath464"><path
         d="m 854.068,535.213 h 211.042 v -218 H 854.068 Z"
         id="path462"
         inkscape:connector-curvature="0" /></clipPath><clipPath
       clipPathUnits="userSpaceOnUse"
       id="clipPath556"><path
         d="m 282.281,536.489 h 209.58 V 320 h -209.58 z"
         id="path554"
         inkscape:connector-curvature="0" /></clipPath><clipPath
       clipPathUnits="userSpaceOnUse"
       id="clipPath560"><path
         d="m 282.281,536.489 h 209.58 V 320 h -209.58 z"
         id="path558"
         inkscape:connector-curvature="0" /></clipPath><clipPath
       clipPathUnits="userSpaceOnUse"
       id="clipPath564"><path
         d="M 434.981,533.425 H 373.494 V 508.2 h 61.487 z"
         id="path562"
         inkscape:connector-curvature="0" /></clipPath><clipPath
       clipPathUnits="userSpaceOnUse"
       id="clipPath568"><path
         d="m 398.72,508.2 h 25.225 v 25.225 H 398.72 Z"
         id="path566"
         inkscape:connector-curvature="0" /></clipPath></defs><sodipodi:namedview
     pagecolor="#ffffff"
     bordercolor="#666666"
     borderopacity="1"
     objecttolerance="10"
     gridtolerance="10"
     guidetolerance="10"
     inkscape:pageopacity="0"
     inkscape:pageshadow="2"
     inkscape:window-width="1366"
     inkscape:window-height="715"
     id="namedview4"
     showgrid="false"
     fit-margin-left="0.3"
     fit-margin-right="0.3"
     fit-margin-top="0.4"
     fit-margin-bottom="0.4"
     inkscape:zoom="0.34260616"
     inkscape:cx="51.800564"
     inkscape:cy="-39.644846"
     inkscape:window-x="0"
     inkscape:window-y="0"
     inkscape:window-maximized="1"
     inkscape:current-layer="g10" /><g
     id="g10"
     inkscape:groupmode="layer"
     inkscape:label="Consumo"
     transform="matrix(1.3333333,0,0,-1.3333333,-669.70412,792.39998)"><g
       id="g12"><g
         id="g14"
         clip-path="url(#clipPath18)"><g
           id="g20"><g
             id="g22"
             clip-path="url(#clipPath26)"><g
               id="g28"><g
                 id="g30"
                 clip-path="url(#clipPath34)"><g
                   id="g36"><g
                     id="g38"
                     clip-path="url(#clipPath42)"><g
                       id="g44"
                       transform="translate(1453.6069,10.4092)"><path
                         d="m 0,0 h -105.214 c -16.233,0 -29.393,13.16 -29.393,29.393 V 668.75 c 0,16.234 13.16,29.394 29.393,29.394 H 0 c 16.233,0 29.393,-13.16 29.393,-29.394 V 29.393 C 29.393,13.16 16.233,0 0,0"
                         style="fill:#4d9b2c;fill-opacity:1;fill-rule:nonzero;stroke:none"
                         id="path46"
                         inkscape:connector-curvature="0" /></g></g></g></g></g></g></g></g></g><g
       id="g260"><g
         id="g262" /></g><g
       id="g276"><g
         id="g278" /></g><g
       id="g292"
       transform="translate(779.3721,269)"><path
         d="m 0,0 h -220.164 c -31.317,0 -56.705,25.388 -56.705,56.705 v 211.59 c 0,31.317 25.388,56.705 56.705,56.705 H 0 c 31.317,0 56.705,-25.388 56.705,-56.705 V 56.705 C 56.705,25.388 31.317,0 0,0"
         style="fill:#74c4fb;fill-opacity:1;fill-rule:nonzero;stroke:none"
         id="path294"
         inkscape:connector-curvature="0" /></g><g
       clip-path="url(#clipPath384)"
       id="g380"
       transform="translate(-8.7564102,10.945516)"><g
         id="g386"><g
           id="g388" /><g
           id="g400"><g
             style="opacity:0.25999505"
             id="g398"
             clip-path="url(#clipPath392)"><g
               id="g396"
               transform="translate(790.3267,420.4873)"><path
                 inkscape:connector-curvature="0"
                 id="path394"
                 style="fill:#ffffff;fill-opacity:1;fill-rule:nonzero;stroke:none"
                 d="m 0,0 c 0,-59.426 -48.174,-107.6 -107.6,-107.6 -59.426,0 -107.601,48.174 -107.601,107.6 0,59.426 48.175,107.6 107.601,107.6 C -48.174,107.6 0,59.426 0,0" /></g></g></g></g><g
         transform="translate(682.8584,520.126)"
         id="g402"><path
           inkscape:connector-curvature="0"
           id="path404"
           style="fill:#ffbe66;fill-opacity:1;fill-rule:nonzero;stroke:none"
           d="m 0,0 c 54.467,0 98.621,-44.154 98.621,-98.621 0,-54.467 -44.154,-98.622 -98.621,-98.622 -54.467,0 -98.622,44.155 -98.622,98.622 C -98.622,-44.154 -54.467,0 0,0" /></g><g
         transform="translate(780.8018,421.5049)"
         id="g406"><path
           inkscape:connector-curvature="0"
           id="path408"
           style="fill:#f8b238;fill-opacity:1;fill-rule:nonzero;stroke:none"
           d="M 0,0 C 0,54.466 -44.154,98.621 -98.622,98.621 V -98.622 C -44.154,-98.622 0,-54.466 0,0" /></g><g
         transform="translate(659.3428,426.6406)"
         id="g410"><path
           inkscape:connector-curvature="0"
           id="path412"
           style="fill:#272525;fill-opacity:1;fill-rule:nonzero;stroke:none"
           d="m 0,0 v 0 c -4.228,0 -7.686,3.458 -7.686,7.686 v 7.686 c 0,4.227 3.458,7.685 7.686,7.685 v 0 c 4.227,0 7.686,-3.458 7.686,-7.685 V 7.686 C 7.686,3.458 4.227,0 0,0" /></g><g
         transform="translate(709.2998,426.6406)"
         id="g414"><path
           inkscape:connector-curvature="0"
           id="path416"
           style="fill:#272525;fill-opacity:1;fill-rule:nonzero;stroke:none"
           d="m 0,0 v 0 c -4.227,0 -7.686,3.458 -7.686,7.686 v 7.686 c 0,4.227 3.459,7.685 7.686,7.685 4.227,0 7.686,-3.458 7.686,-7.685 V 7.686 C 7.686,3.458 4.227,0 0,0" /></g><g
         transform="translate(668.9497,457.3838)"
         id="g418"><path
           inkscape:connector-curvature="0"
           id="path420"
           style="fill:#353535;fill-opacity:1;fill-rule:nonzero;stroke:none"
           d="m 0,0 h -30.743 c -3.17,0 -5.764,2.594 -5.764,5.764 0,3.171 2.594,5.764 5.764,5.764 H 0 c 3.17,0 5.764,-2.593 5.764,-5.764 C 5.764,2.594 3.17,0 0,0" /></g><g
         transform="translate(726.5928,457.3838)"
         id="g422"><path
           inkscape:connector-curvature="0"
           id="path424"
           style="fill:#272525;fill-opacity:1;fill-rule:nonzero;stroke:none"
           d="m 0,0 h -30.743 c -3.171,0 -5.764,2.594 -5.764,5.764 0,3.171 2.593,5.764 5.764,5.764 H 0 c 3.17,0 5.764,-2.593 5.764,-5.764 C 5.764,2.594 3.17,0 0,0" /></g><g
         transform="translate(683.2495,384.3691)"
         id="g426"><path
           inkscape:connector-curvature="0"
           id="path428"
           style="fill:#353535;fill-opacity:1;fill-rule:nonzero;stroke:none"
           d="m 0,0 h -0.517 c -3.171,0 -5.764,2.594 -5.764,5.764 0,3.171 2.593,5.765 5.764,5.765 H 0 c 3.17,0 5.764,-2.594 5.764,-5.765 C 5.764,2.594 3.17,0 0,0" /></g><g
         transform="translate(572.9414,465.7095)"
         id="g430"><path
           inkscape:connector-curvature="0"
           id="path432"
           style="fill:#ffffff;fill-opacity:1;fill-rule:nonzero;stroke:none"
           d="m 0,0 c -6.212,0 -11.266,-5.054 -11.266,-11.266 0,-6.212 5.054,-11.265 11.266,-11.265 6.212,0 11.266,5.053 11.266,11.265 C 11.266,-5.054 6.212,0 0,0" /></g><g
         transform="translate(572.9414,465.7095)"
         id="g434"><path
           inkscape:connector-curvature="0"
           id="path436"
           style="fill:#ececec;fill-opacity:1;fill-rule:nonzero;stroke:none"
           d="m 0,0 c -1.753,0 -3.414,-0.403 -4.895,-1.12 3.768,-1.825 6.372,-5.687 6.372,-10.146 0,-4.459 -2.604,-8.321 -6.372,-10.145 1.481,-0.717 3.142,-1.12 4.895,-1.12 6.212,0 11.266,5.053 11.266,11.265 C 11.266,-5.054 6.212,0 0,0" /></g><g
         transform="translate(592.0483,444.1831)"
         id="g438"><path
           inkscape:connector-curvature="0"
           id="path440"
           style="fill:#ffffff;fill-opacity:1;fill-rule:nonzero;stroke:none"
           d="m 0,0 c -4.953,0 -8.982,-4.03 -8.982,-8.982 0,-4.952 4.029,-8.981 8.982,-8.981 4.953,0 8.981,4.029 8.981,8.981 C 8.981,-4.029 4.953,0 0,0" /></g><g
         transform="translate(592.0483,444.1831)"
         id="g442"><path
           inkscape:connector-curvature="0"
           id="path444"
           style="fill:#ececec;fill-opacity:1;fill-rule:nonzero;stroke:none"
           d="M 0,0 C -1.637,0 -3.168,-0.447 -4.491,-1.215 -1.811,-2.771 0,-5.667 0,-8.981 c 0,-3.316 -1.811,-6.21 -4.491,-7.767 1.323,-0.768 2.854,-1.215 4.491,-1.215 4.953,0 8.981,4.03 8.981,8.982 C 8.981,-4.029 4.953,0 0,0" /></g><g
         transform="translate(616.7979,520.9038)"
         id="g446"><path
           inkscape:connector-curvature="0"
           id="path448"
           style="fill:#ffffff;fill-opacity:1;fill-rule:nonzero;stroke:none"
           d="m 0,0 c -6.015,12.927 -18.849,21.171 -33.236,21.171 -13.442,0 -25.576,-7.185 -32.056,-18.86 -12.378,-2.115 -21.513,-12.818 -21.513,-25.559 0,-14.302 11.636,-25.937 25.937,-25.937 3.293,0 6.484,0.605 9.508,1.802 5.515,-3.142 11.745,-4.795 18.124,-4.795 7.033,0 13.796,1.976 19.682,5.734 3.481,-1.798 7.346,-2.741 11.293,-2.741 13.59,0 24.646,11.057 24.646,24.646 C 22.385,-11.751 12.52,-1.149 0,0" /></g><g
         transform="translate(616.7979,520.9038)"
         id="g450"><path
           inkscape:connector-curvature="0"
           id="path452"
           style="fill:#ececec;fill-opacity:1;fill-rule:nonzero;stroke:none"
           d="m 0,0 c -6.015,12.927 -18.849,21.171 -33.236,21.171 -2.701,0 -5.347,-0.295 -7.906,-0.853 11.054,-2.417 20.431,-9.824 25.313,-20.318 12.52,-1.149 22.386,-11.751 22.386,-24.539 0,-10.819 -7.011,-20.025 -16.725,-23.333 2.533,-0.859 5.199,-1.313 7.907,-1.313 13.59,0 24.647,11.057 24.647,24.646 C 22.385,-11.751 12.52,-1.149 0,0" /></g><g
         id="g454"><g
           id="g456" /></g></g></g></svg>