<?xml version="1.0" encoding="UTF-8" standalone="no"?>
<!-- Created with Inkscape (http://www.inkscape.org/) -->

<svg
   xmlns:dc="http://purl.org/dc/elements/1.1/"
   xmlns:cc="http://creativecommons.org/ns#"
   xmlns:rdf="http://www.w3.org/1999/02/22-rdf-syntax-ns#"
   xmlns:svg="http://www.w3.org/2000/svg"
   xmlns="http://www.w3.org/2000/svg"
   xmlns:sodipodi="http://sodipodi.sourceforge.net/DTD/sodipodi-0.dtd"
   xmlns:inkscape="http://www.inkscape.org/namespaces/inkscape"
   version="1.1"
   id="svg1945"
   xml:space="preserve"
   width="445.56531"
   height="433.93332"
   viewBox="0 0 445.56532 433.93332"
   sodipodi:docname="Sugerida.svg"
   inkscape:version="0.92.4 5da689c313, 2019-01-14"><metadata
     id="metadata1951"><rdf:RDF><cc:Work
         rdf:about=""><dc:format>image/svg+xml</dc:format><dc:type
           rdf:resource="http://purl.org/dc/dcmitype/StillImage" /><dc:title></dc:title></cc:Work></rdf:RDF></metadata><defs
     id="defs1949"><clipPath
       clipPathUnits="userSpaceOnUse"
       id="clipPath1961"><path
         d="M 0,768 H 1366 V 0 H 0 Z"
         id="path1959"
         inkscape:connector-curvature="0" /></clipPath><clipPath
       clipPathUnits="userSpaceOnUse"
       id="clipPath1969"><path
         d="M 1565,-291 H 1434 V 775 h 131 z"
         id="path1967"
         inkscape:connector-curvature="0" /></clipPath><clipPath
       clipPathUnits="userSpaceOnUse"
       id="clipPath1977"><path
         d="m 1513,86 h -188 v 670 h 188 z"
         id="path1975"
         inkscape:connector-curvature="0" /></clipPath><clipPath
       clipPathUnits="userSpaceOnUse"
       id="clipPath1989"><path
         d="M 5,6 H 105 V 673 H 5 Z"
         id="path1987"
         inkscape:connector-curvature="0" /></clipPath><clipPath
       clipPathUnits="userSpaceOnUse"
       id="clipPath2005"><path
         d="M 5,6 H 83.999 V 673 H 5 Z"
         id="path2003"
         inkscape:connector-curvature="0" /></clipPath><clipPath
       clipPathUnits="userSpaceOnUse"
       id="clipPath2021"><path
         d="M 0,768 H 1366 V 0 H 0 Z"
         id="path2019"
         inkscape:connector-curvature="0" /></clipPath><clipPath
       clipPathUnits="userSpaceOnUse"
       id="clipPath2045"><path
         d="m 1233.959,683.336 h 60.962 v 20.855 h -60.962 z"
         id="path2043"
         inkscape:connector-curvature="0" /></clipPath><clipPath
       clipPathUnits="userSpaceOnUse"
       id="clipPath2057"><path
         d="m 1235.564,658.47 h 62.565 v 24.866 h -62.565 z"
         id="path2055"
         inkscape:connector-curvature="0" /></clipPath><clipPath
       clipPathUnits="userSpaceOnUse"
       id="clipPath2069"><path
         d="m 1265.242,664.887 h 27.272 v 18.449 h -27.272 z"
         id="path2067"
         inkscape:connector-curvature="0" /></clipPath><clipPath
       clipPathUnits="userSpaceOnUse"
       id="clipPath2081"><path
         d="m 1265.242,683.336 h 27.272 v 18.448 h -27.272 z"
         id="path2079"
         inkscape:connector-curvature="0" /></clipPath><clipPath
       clipPathUnits="userSpaceOnUse"
       id="clipPath2093"><path
         d="m 1245.19,690.555 h 40.106 v 9.625 h -40.106 z"
         id="path2091"
         inkscape:connector-curvature="0" /></clipPath><clipPath
       clipPathUnits="userSpaceOnUse"
       id="clipPath2101"><path
         d="m 1292.926,670.101 h -32.106 c -1.766,0 -3.197,1.431 -3.197,3.197 v 4.032 c 0,1.766 1.431,3.198 3.197,3.198 h 32.106 c 1.766,0 3.199,-1.432 3.199,-3.198 v -4.032 c 0,-1.766 -1.433,-3.197 -3.199,-3.197"
         id="path2099"
         inkscape:connector-curvature="0" /></clipPath><clipPath
       clipPathUnits="userSpaceOnUse"
       id="clipPath2115"><path
         d="m 1265.242,690.555 h 20.053 v 9.625 h -20.053 z"
         id="path2113"
         inkscape:connector-curvature="0" /></clipPath><clipPath
       clipPathUnits="userSpaceOnUse"
       id="clipPath2123"><path
         d="m 1292.926,670.101 h -32.106 c -1.766,0 -3.197,1.431 -3.197,3.197 v 4.032 c 0,1.766 1.431,3.198 3.197,3.198 h 32.106 c 1.766,0 3.199,-1.432 3.199,-3.198 v -4.032 c 0,-1.766 -1.433,-3.197 -3.199,-3.197"
         id="path2121"
         inkscape:connector-curvature="0" /></clipPath><clipPath
       clipPathUnits="userSpaceOnUse"
       id="clipPath2137"><path
         d="m 1241.981,679.792 c 0,-7.789 10.415,-14.103 23.261,-14.103 v 0 c 12.847,0 23.262,6.314 23.262,14.103 v 0 c 0,7.788 -10.415,14.103 -23.262,14.103 v 0 c -12.846,0 -23.261,-6.315 -23.261,-14.103"
         id="path2135"
         inkscape:connector-curvature="0" /></clipPath><clipPath
       clipPathUnits="userSpaceOnUse"
       id="clipPath2149"><path
         d="m 1265.242,688.148 v -22.459 c 12.847,0 23.262,6.314 23.262,14.103 v 0 c 0,3.127 -1.68,6.017 -4.522,8.356 v 0 z"
         id="path2147"
         inkscape:connector-curvature="0" /></clipPath><clipPath
       clipPathUnits="userSpaceOnUse"
       id="clipPath2161"><path
         d="M 0,768 H 1366 V 0 H 0 Z"
         id="path2159"
         inkscape:connector-curvature="0" /></clipPath><clipPath
       clipPathUnits="userSpaceOnUse"
       id="clipPath2169"><path
         d="m 1213.56,748.304 h 102.63 v -102.63 h -102.63 z"
         id="path2167"
         inkscape:connector-curvature="0" /></clipPath><clipPath
       clipPathUnits="userSpaceOnUse"
       id="clipPath2207"><path
         d="M 0,768 H 1366 V 0 H 0 Z"
         id="path2205"
         inkscape:connector-curvature="0" /></clipPath><clipPath
       clipPathUnits="userSpaceOnUse"
       id="clipPath2215"><path
         d="M 826.314,575.657 H 1129.49 V 280.271 H 826.314 Z"
         id="path2213"
         inkscape:connector-curvature="0" /></clipPath><clipPath
       clipPathUnits="userSpaceOnUse"
       id="clipPath2231"><path
         d="M 867.726,520.498 H 1091.58 V 323.423 H 867.726 Z"
         id="path2229"
         inkscape:connector-curvature="0" /></clipPath><clipPath
       clipPathUnits="userSpaceOnUse"
       id="clipPath2235"><path
         d="M 906.535,508.47 H 1091.58 V 323.423 H 906.535 Z"
         id="path2233"
         inkscape:connector-curvature="0" /></clipPath><clipPath
       clipPathUnits="userSpaceOnUse"
       id="clipPath2315"><path
         d="m 723.148,241 h 10.204 v -10.205 h -10.204 z"
         id="path2313"
         inkscape:connector-curvature="0" /></clipPath><clipPath
       clipPathUnits="userSpaceOnUse"
       id="clipPath2331"><path
         d="M 738.795,241 H 749 v -10.205 h -10.205 z"
         id="path2329"
         inkscape:connector-curvature="0" /></clipPath><clipPath
       clipPathUnits="userSpaceOnUse"
       id="clipPath2347"><path
         d="m 691.5,241 h 10.205 V 230.795 H 691.5 Z"
         id="path2345"
         inkscape:connector-curvature="0" /></clipPath><clipPath
       clipPathUnits="userSpaceOnUse"
       id="clipPath2363"><path
         d="m 676.5,241 h 10.205 V 230.795 H 676.5 Z"
         id="path2361"
         inkscape:connector-curvature="0" /></clipPath><clipPath
       clipPathUnits="userSpaceOnUse"
       id="clipPath2379"><path
         d="M 294,572.539 H 597.177 V 277.154 H 294 Z"
         id="path2377"
         inkscape:connector-curvature="0" /></clipPath><clipPath
       clipPathUnits="userSpaceOnUse"
       id="clipPath2399"><path
         d="M 571.465,563.383 H 828.341 V 298.039 H 571.465 Z"
         id="path2397"
         inkscape:connector-curvature="0" /></clipPath><clipPath
       clipPathUnits="userSpaceOnUse"
       id="clipPath2419"><path
         d="m 683.263,528.709 h 75.362 v 30.918 h -75.362 z"
         id="path2417"
         inkscape:connector-curvature="0" /></clipPath><clipPath
       clipPathUnits="userSpaceOnUse"
       id="clipPath2431"><path
         d="M 0,768 H 1366 V 0 H 0 Z"
         id="path2429"
         inkscape:connector-curvature="0" /></clipPath><clipPath
       clipPathUnits="userSpaceOnUse"
       id="clipPath2455"><path
         d="m 714.181,528.709 h 30.918 v 30.918 h -30.918 z"
         id="path2453"
         inkscape:connector-curvature="0" /></clipPath><clipPath
       clipPathUnits="userSpaceOnUse"
       id="clipPath2467"><path
         d="M 0,768 H 1366 V 0 H 0 Z"
         id="path2465"
         inkscape:connector-curvature="0" /></clipPath><clipPath
       clipPathUnits="userSpaceOnUse"
       id="clipPath2507"><path
         d="M 343.675,507.607 H 534 V 331.685 H 343.675 Z"
         id="path2505"
         inkscape:connector-curvature="0" /></clipPath><clipPath
       clipPathUnits="userSpaceOnUse"
       id="clipPath2511"><path
         d="m 449.565,414.714 h -35.633 v -14.618 h 35.633 z"
         id="path2509"
         inkscape:connector-curvature="0" /></clipPath><clipPath
       clipPathUnits="userSpaceOnUse"
       id="clipPath2515"><path
         d="m 428.551,400.096 h 14.618 v 14.618 h -14.618 z"
         id="path2513"
         inkscape:connector-curvature="0" /></clipPath><clipPath
       clipPathUnits="userSpaceOnUse"
       id="clipPath2519"><path
         d="m 395.091,430.788 h -35.632 v -14.619 h 35.632 z"
         id="path2517"
         inkscape:connector-curvature="0" /></clipPath><clipPath
       clipPathUnits="userSpaceOnUse"
       id="clipPath2523"><path
         d="m 374.077,416.169 h 14.619 v 14.619 h -14.619 z"
         id="path2521"
         inkscape:connector-curvature="0" /></clipPath><clipPath
       clipPathUnits="userSpaceOnUse"
       id="clipPath2527"><path
         d="m 462.607,423.777 h -25.546 v -56.77 h 25.546 z"
         id="path2525"
         inkscape:connector-curvature="0" /></clipPath><clipPath
       clipPathUnits="userSpaceOnUse"
       id="clipPath2531"><path
         d="M 357.584,507.607 H 516.539 V 348.652 H 357.584 Z"
         id="path2529"
         inkscape:connector-curvature="0" /></clipPath><clipPath
       clipPathUnits="userSpaceOnUse"
       id="clipPath2535"><path
         d="m 521.005,424.537 h -35.633 v -14.619 h 35.633 z"
         id="path2533"
         inkscape:connector-curvature="0" /></clipPath><clipPath
       clipPathUnits="userSpaceOnUse"
       id="clipPath2539"><path
         d="m 499.991,409.918 h 14.618 v 14.619 h -14.618 z"
         id="path2537"
         inkscape:connector-curvature="0" /></clipPath></defs><sodipodi:namedview
     pagecolor="#ffffff"
     bordercolor="#666666"
     borderopacity="1"
     objecttolerance="10"
     gridtolerance="10"
     guidetolerance="10"
     inkscape:pageopacity="0"
     inkscape:pageshadow="2"
     inkscape:window-width="1366"
     inkscape:window-height="715"
     id="namedview1947"
     showgrid="false"
     fit-margin-left="0.4"
     fit-margin-right="0.4"
     fit-margin-top="0.3"
     fit-margin-bottom="0.3"
     inkscape:zoom="0.34260616"
     inkscape:cx="360.60652"
     inkscape:cy="195.7904"
     inkscape:window-x="0"
     inkscape:window-y="0"
     inkscape:window-maximized="1"
     inkscape:current-layer="g2225" /><g
     id="g1953"
     inkscape:groupmode="layer"
     inkscape:label="Consumo"
     transform="matrix(1.3333333,0,0,-1.3333333,-716.27078,790.96665)"><g
       id="g1955"><g
         id="g1957"
         clip-path="url(#clipPath1961)"><g
           id="g1963"><g
             id="g1965"
             clip-path="url(#clipPath1969)"><g
               id="g1971"><g
                 id="g1973"
                 clip-path="url(#clipPath1977)"><g
                   id="g1979"
                   transform="translate(1434.6069,52.4092)"><path
                     d="m 0,0 h -105.214 c -16.233,0 -29.393,13.16 -29.393,29.393 V 668.75 c 0,16.234 13.16,29.394 29.393,29.394 H 0 c 16.233,0 29.393,-13.16 29.393,-29.394 V 29.393 C 29.393,13.16 16.233,0 0,0"
                     style="fill:#4d9b2c;fill-opacity:1;fill-rule:nonzero;stroke:none"
                     id="path1981"
                     inkscape:connector-curvature="0" /></g></g></g></g></g></g></g><g
       clip-path="url(#clipPath2207)"
       id="g2203"><g
         id="g2225"><g
           id="g2227" /></g><g
         transform="translate(814.3721,268)"
         id="g2389"><path
           inkscape:connector-curvature="0"
           id="path2391"
           style="fill:#74c4fb;fill-opacity:1;fill-rule:nonzero;stroke:none"
           d="m 0,0 h -220.164 c -31.317,0 -56.705,25.388 -56.705,56.705 v 211.59 c 0,31.317 25.388,56.705 56.705,56.705 H 0 c 31.317,0 56.705,-25.388 56.705,-56.705 V 56.705 C 56.705,25.388 31.317,0 0,0" /></g><g
         id="g2393"><g
           id="g2395" /><g
           id="g2407"><g
             style="opacity:0.25999505"
             id="g2405"
             clip-path="url(#clipPath2399)"><g
               id="g2403"
               transform="translate(828.3403,430.7104)"><path
                 inkscape:connector-curvature="0"
                 id="path2401"
                 style="fill:#ffffff;fill-opacity:1;fill-rule:nonzero;stroke:none"
                 d="m 0,0 c 0,-73.272 -57.503,-132.672 -128.437,-132.672 -70.935,0 -128.438,59.4 -128.438,132.672 0,73.273 57.503,132.672 128.438,132.672 C -57.503,132.672 0,73.273 0,0" /></g></g></g></g><path
         inkscape:connector-curvature="0"
         id="path2409"
         style="fill:#f7931e;fill-opacity:1;fill-rule:nonzero;stroke:none"
         d="m 651.429,502.923 h 134.68 v -80.587 h -134.68 z" /><path
         inkscape:connector-curvature="0"
         id="path2411"
         style="fill:#fbb03b;fill-opacity:1;fill-rule:nonzero;stroke:none"
         d="M 649.879,502.923 H 709.36 V 422.336 H 649.879 Z" /></g><g
       id="g2413"><g
         id="g2415"
         clip-path="url(#clipPath2419)"><g
           id="g2421"
           transform="translate(742.4761,528.7095)"><path
             d="M 0,0 C 0,12.807 -12.05,23.188 -26.915,23.188 -41.78,23.188 -53.83,12.807 -53.83,0 c 0,-12.807 12.05,-23.188 26.915,-23.188 C -12.05,-23.188 0,-12.807 0,0 Z"
             style="fill:none;stroke:#f99273;stroke-width:3;stroke-linecap:butt;stroke-linejoin:miter;stroke-miterlimit:10;stroke-dasharray:none;stroke-opacity:1"
             id="path2423"
             inkscape:connector-curvature="0" /></g></g></g><g
       id="g2425"><g
         id="g2427"
         clip-path="url(#clipPath2431)"><g
           id="g2433"
           transform="translate(742.4761,472.6709)"><path
             d="m 0,0 v 54.141 1.898"
             style="fill:none;stroke:#f37e53;stroke-width:3;stroke-linecap:butt;stroke-linejoin:miter;stroke-miterlimit:10;stroke-dasharray:none;stroke-opacity:1"
             id="path2435"
             inkscape:connector-curvature="0" /></g><g
           id="g2437"
           transform="translate(689.0601,472.6709)"><path
             d="m 0,0 v 54.141 1.898"
             style="fill:none;stroke:#f99273;stroke-width:3;stroke-linecap:butt;stroke-linejoin:miter;stroke-miterlimit:10;stroke-dasharray:none;stroke-opacity:1"
             id="path2439"
             inkscape:connector-curvature="0" /></g><g
           id="g2441"
           transform="translate(682.2969,473.6372)"><path
             d="M 0,0 H 13.526"
             style="fill:none;stroke:#f99273;stroke-width:3;stroke-linecap:butt;stroke-linejoin:miter;stroke-miterlimit:10;stroke-dasharray:none;stroke-opacity:1"
             id="path2443"
             inkscape:connector-curvature="0" /></g><g
           id="g2445"
           transform="translate(735.437,473.6372)"><path
             d="M 0,0 H 13.526"
             style="fill:none;stroke:#f27e53;stroke-width:3;stroke-linecap:butt;stroke-linejoin:miter;stroke-miterlimit:10;stroke-dasharray:none;stroke-opacity:1"
             id="path2447"
             inkscape:connector-curvature="0" /></g></g></g><g
       id="g2449"><g
         id="g2451"
         clip-path="url(#clipPath2455)"><g
           id="g2457"
           transform="translate(742.4761,528.7095)"><path
             d="M 0,0 C 0,12.807 -12.05,23.188 -26.915,23.188 -41.78,23.188 -53.83,12.807 -53.83,0 c 0,-12.807 12.05,-23.188 26.915,-23.188 C -12.05,-23.188 0,-12.807 0,0 Z"
             style="fill:none;stroke:#f37e53;stroke-width:3;stroke-linecap:butt;stroke-linejoin:miter;stroke-miterlimit:10;stroke-dasharray:none;stroke-opacity:1"
             id="path2459"
             inkscape:connector-curvature="0" /></g></g></g><g
       clip-path="url(#clipPath2467)"
       id="g2463"><path
         inkscape:connector-curvature="0"
         id="path2469"
         style="fill:#f37e53;fill-opacity:1;fill-rule:nonzero;stroke:none"
         d="m 649.879,422.397 h 136.23 v -38.375 h -136.23 z" /><path
         inkscape:connector-curvature="0"
         id="path2471"
         style="fill:#f99273;fill-opacity:1;fill-rule:nonzero;stroke:none"
         d="m 658.348,416.905 h 50.969 v -32.883 h -50.969 z" /><g
         transform="translate(630.6499,331.8398)"
         id="g2473"><path
           inkscape:connector-curvature="0"
           id="path2475"
           style="fill:#fe5857;fill-opacity:1;fill-rule:nonzero;stroke:none"
           d="M 0,0 C -2.349,0 -4.584,1.375 -5.569,3.672 L -29.791,60.19 c -0.632,1.477 -0.653,3.143 -0.057,4.634 0.597,1.491 1.762,2.684 3.238,3.317 l 22.262,9.541 c 3.074,1.317 6.634,-0.107 7.952,-3.181 L 27.826,17.983 c 0.632,-1.477 0.653,-3.143 0.056,-4.634 -0.596,-1.492 -1.76,-2.684 -3.237,-3.317 L 2.382,0.491 C 1.604,0.158 0.795,0 0,0" /></g><g
         transform="translate(653.7329,341.3823)"
         id="g2477"><path
           inkscape:connector-curvature="0"
           id="path2479"
           style="fill:#ffc2aa;fill-opacity:1;fill-rule:nonzero;stroke:none"
           d="m 0,0 h 85.549 c 3.945,0 7.751,1.458 10.687,4.094 l 55.515,49.847 c 1.713,1.538 2.778,3.723 2.767,6.025 -0.079,16.946 -16.376,22.132 -25.621,14.073 L 86.957,37.482 c -0.583,-0.507 -1.33,-0.787 -2.103,-0.787 H 40.213 l 7.663,27.587 -5.527,6.304 c -1.915,2.184 -4.153,4.08 -6.645,5.57 -20.538,12.278 -43.927,9.938 -60.229,-3.812 l -5.405,-4.558 z" /></g><g
         transform="translate(746.8662,393.6187)"
         id="g2481"><path
           inkscape:connector-curvature="0"
           id="path2483"
           style="fill:#ffc2aa;fill-opacity:1;fill-rule:nonzero;stroke:none"
           d="m 0,0 c 0,-8.583 -6.958,-15.542 -15.542,-15.542 h -45.775 c -1.566,0 -3.11,0.437 -4.277,1.307 -1.99,1.485 -2.593,3.791 -1.655,5.776 l 9.775,20.685 c 0.935,1.978 3.225,3.28 5.777,3.283 l 36.142,0.033 C -6.967,15.55 0,8.589 0,0" /></g><g
         transform="translate(730.1235,409.1279)"
         id="g2485"><path
           inkscape:connector-curvature="0"
           id="path2487"
           style="fill:#fab493;fill-opacity:1;fill-rule:nonzero;stroke:none"
           d="m 0,0 -27.81,-0.024 v -31.027 h 27.627 c 6.712,0 12.952,4.141 14.949,10.549 C 18.099,-9.806 10.193,0.009 0,0" /></g><g
         transform="translate(780.9683,415.1196)"
         id="g2489"><path
           inkscape:connector-curvature="0"
           id="path2491"
           style="fill:#fab493;fill-opacity:1;fill-rule:nonzero;stroke:none"
           d="m 0,0 -40.792,-35.555 c -1.1,-0.959 -2.51,-1.487 -3.97,-1.487 h -33.892 v -36.696 h 30.207 c 7.451,0 14.638,2.754 20.182,7.731 l 48.638,43.672 C 27.342,-16.077 27.142,-4.803 19.19,1.131 13.458,5.408 5.392,4.7 0,0" /></g><g
         transform="translate(685.3774,366.7861)"
         id="g2493"><path
           inkscape:connector-curvature="0"
           id="path2495"
           style="fill:#fab493;fill-opacity:1;fill-rule:nonzero;stroke:none"
           d="m 0,0 h 41.553 c 14.29,0 25.863,11.863 25.385,26.259 -0.005,0.002 -0.003,0.001 -0.008,0.004 L 51.463,12.782 C 50.361,11.82 48.948,11.291 47.485,11.291 H 0 Z" /></g><g
         transform="translate(733.5288,378.0771)"
         id="g2497"><path
           inkscape:connector-curvature="0"
           id="path2499"
           style="fill:#f5a07d;fill-opacity:1;fill-rule:nonzero;stroke:none"
           d="m 0,0 h -31.215 v -11.291 h 25.283 c 14.29,0 25.862,11.863 25.385,26.258 -0.006,0.002 -0.003,10e-4 -0.009,0.004 L 3.979,1.491 C 2.876,0.529 1.462,0 0,0" /></g><g
         id="g2501"><g
           id="g2503" /></g></g></g></svg>