<?xml version="1.0" encoding="UTF-8" standalone="no"?>
<!-- Created with Inkscape (http://www.inkscape.org/) -->

<svg
   xmlns:dc="http://purl.org/dc/elements/1.1/"
   xmlns:cc="http://creativecommons.org/ns#"
   xmlns:rdf="http://www.w3.org/1999/02/22-rdf-syntax-ns#"
   xmlns:svg="http://www.w3.org/2000/svg"
   xmlns="http://www.w3.org/2000/svg"
   xmlns:sodipodi="http://sodipodi.sourceforge.net/DTD/sodipodi-0.dtd"
   xmlns:inkscape="http://www.inkscape.org/namespaces/inkscape"
   version="1.1"
   id="svg449"
   xml:space="preserve"
   width="571.46667"
   height="556.59998"
   viewBox="0 0 571.46669 556.59998"
   sodipodi:docname="Tecnologia.svg"
   inkscape:version="0.92.4 5da689c313, 2019-01-14"><metadata
     id="metadata455"><rdf:RDF><cc:Work
         rdf:about=""><dc:format>image/svg+xml</dc:format><dc:type
           rdf:resource="http://purl.org/dc/dcmitype/StillImage" /><dc:title></dc:title></cc:Work></rdf:RDF></metadata><defs
     id="defs453"><clipPath
       clipPathUnits="userSpaceOnUse"
       id="clipPath465"><path
         d="M 0,768 H 1366 V 0 H 0 Z"
         id="path463"
         inkscape:connector-curvature="0" /></clipPath><clipPath
       clipPathUnits="userSpaceOnUse"
       id="clipPath473"><path
         d="m 1515,291 h -100 v 667 h 100 z"
         id="path471"
         inkscape:connector-curvature="0" /></clipPath><clipPath
       clipPathUnits="userSpaceOnUse"
       id="clipPath481"><path
         d="M 1546,-86 H 1415 V 980 h 131 z"
         id="path479"
         inkscape:connector-curvature="0" /></clipPath><clipPath
       clipPathUnits="userSpaceOnUse"
       id="clipPath489"><path
         d="m 1524,288 h -188 v 670 h 188 z"
         id="path487"
         inkscape:connector-curvature="0" /></clipPath><clipPath
       clipPathUnits="userSpaceOnUse"
       id="clipPath501"><path
         d="m 1494,291 h -188 v 670 h 188 z"
         id="path499"
         inkscape:connector-curvature="0" /></clipPath><clipPath
       clipPathUnits="userSpaceOnUse"
       id="clipPath513"><path
         d="M 0,768 H 1366 V 0 H 0 Z"
         id="path511"
         inkscape:connector-curvature="0" /></clipPath><clipPath
       clipPathUnits="userSpaceOnUse"
       id="clipPath551"><path
         d="M 0,768 H 1366 V 0 H 0 Z"
         id="path549"
         inkscape:connector-curvature="0" /></clipPath><clipPath
       clipPathUnits="userSpaceOnUse"
       id="clipPath563"><path
         d="M 4,0 H 104.001 V 664 H 4 Z"
         id="path561"
         inkscape:connector-curvature="0" /></clipPath><clipPath
       clipPathUnits="userSpaceOnUse"
       id="clipPath579"><path
         d="M 4,0 H 83 V 664 H 4 Z"
         id="path577"
         inkscape:connector-curvature="0" /></clipPath><clipPath
       clipPathUnits="userSpaceOnUse"
       id="clipPath603"><path
         d="M 0,768 H 1366 V 0 H 0 Z"
         id="path601"
         inkscape:connector-curvature="0" /></clipPath><clipPath
       clipPathUnits="userSpaceOnUse"
       id="clipPath627"><path
         d="m 1234.959,678.335 h 60.962 v 20.855 h -60.962 z"
         id="path625"
         inkscape:connector-curvature="0" /></clipPath><clipPath
       clipPathUnits="userSpaceOnUse"
       id="clipPath639"><path
         d="m 1236.564,653.469 h 62.565 v 24.866 h -62.565 z"
         id="path637"
         inkscape:connector-curvature="0" /></clipPath><clipPath
       clipPathUnits="userSpaceOnUse"
       id="clipPath651"><path
         d="m 1266.242,659.886 h 27.272 v 18.449 h -27.272 z"
         id="path649"
         inkscape:connector-curvature="0" /></clipPath><clipPath
       clipPathUnits="userSpaceOnUse"
       id="clipPath663"><path
         d="m 1266.242,678.335 h 27.272 v 18.449 h -27.272 z"
         id="path661"
         inkscape:connector-curvature="0" /></clipPath><clipPath
       clipPathUnits="userSpaceOnUse"
       id="clipPath675"><path
         d="m 1246.189,685.554 h 40.106 v 9.626 h -40.106 z"
         id="path673"
         inkscape:connector-curvature="0" /></clipPath><clipPath
       clipPathUnits="userSpaceOnUse"
       id="clipPath683"><path
         d="m 1293.926,665.101 h -32.106 c -1.766,0 -3.197,1.431 -3.197,3.197 v 4.032 c 0,1.766 1.431,3.198 3.197,3.198 h 32.106 c 1.766,0 3.199,-1.432 3.199,-3.198 v -4.032 c 0,-1.766 -1.433,-3.197 -3.199,-3.197"
         id="path681"
         inkscape:connector-curvature="0" /></clipPath><clipPath
       clipPathUnits="userSpaceOnUse"
       id="clipPath697"><path
         d="m 1266.242,685.554 h 20.053 v 9.626 h -20.053 z"
         id="path695"
         inkscape:connector-curvature="0" /></clipPath><clipPath
       clipPathUnits="userSpaceOnUse"
       id="clipPath705"><path
         d="m 1293.926,665.101 h -32.106 c -1.766,0 -3.197,1.431 -3.197,3.197 v 4.032 c 0,1.766 1.431,3.198 3.197,3.198 h 32.106 c 1.766,0 3.199,-1.432 3.199,-3.198 v -4.032 c 0,-1.766 -1.433,-3.197 -3.199,-3.197"
         id="path703"
         inkscape:connector-curvature="0" /></clipPath><clipPath
       clipPathUnits="userSpaceOnUse"
       id="clipPath719"><path
         d="m 1242.981,674.791 c 0,-7.788 10.415,-14.103 23.261,-14.103 v 0 c 12.847,0 23.262,6.315 23.262,14.103 v 0 c 0,7.789 -10.415,14.103 -23.262,14.103 v 0 c -12.846,0 -23.261,-6.314 -23.261,-14.103"
         id="path717"
         inkscape:connector-curvature="0" /></clipPath><clipPath
       clipPathUnits="userSpaceOnUse"
       id="clipPath731"><path
         d="m 1266.242,683.148 v -22.46 c 12.847,0 23.262,6.315 23.262,14.103 v 0 c 0,3.128 -1.68,6.018 -4.522,8.357 v 0 z"
         id="path729"
         inkscape:connector-curvature="0" /></clipPath><clipPath
       clipPathUnits="userSpaceOnUse"
       id="clipPath743"><path
         d="M 0,768 H 1366 V 0 H 0 Z"
         id="path741"
         inkscape:connector-curvature="0" /></clipPath><clipPath
       clipPathUnits="userSpaceOnUse"
       id="clipPath751"><path
         d="m 1214.56,743.304 h 102.63 v -102.63 h -102.63 z"
         id="path749"
         inkscape:connector-curvature="0" /></clipPath><clipPath
       clipPathUnits="userSpaceOnUse"
       id="clipPath767"><path
         d="m 944,260.933 h 265.89 V 171 H 944 Z"
         id="path765"
         inkscape:connector-curvature="0" /></clipPath><clipPath
       clipPathUnits="userSpaceOnUse"
       id="clipPath787"><path
         d="m 1079.23,216.077 h 75.128 V 464 h -75.128 z"
         id="path785"
         inkscape:connector-curvature="0" /></clipPath><clipPath
       clipPathUnits="userSpaceOnUse"
       id="clipPath799"><path
         d="M 0,768 H 1366 V 0 H 0 Z"
         id="path797"
         inkscape:connector-curvature="0" /></clipPath><clipPath
       clipPathUnits="userSpaceOnUse"
       id="clipPath815"><path
         d="m 1079.23,257.397 h 52.59 v 187.82 h -52.59 z"
         id="path813"
         inkscape:connector-curvature="0" /></clipPath></defs><sodipodi:namedview
     pagecolor="#ffffff"
     bordercolor="#666666"
     borderopacity="1"
     objecttolerance="10"
     gridtolerance="10"
     guidetolerance="10"
     inkscape:pageopacity="0"
     inkscape:pageshadow="2"
     inkscape:window-width="1366"
     inkscape:window-height="715"
     id="namedview451"
     showgrid="false"
     inkscape:zoom="0.34260616"
     inkscape:cx="-496.4864"
     inkscape:cy="264.97452"
     inkscape:window-x="0"
     inkscape:window-y="0"
     inkscape:window-maximized="1"
     inkscape:current-layer="g457"
     fit-margin-left="0.4"
     fit-margin-right="0.4"
     fit-margin-top="0.3"
     fit-margin-bottom="0.3" /><g
     id="g457"
     inkscape:groupmode="layer"
     inkscape:label="Consumo"
     transform="matrix(1.3333333,0,0,-1.3333333,-1140.9338,705.63332)"><g
       id="g459"><g
         id="g461"
         clip-path="url(#clipPath465)"><g
           id="g467"><g
             id="g469"
             clip-path="url(#clipPath473)"><g
               id="g475"><g
                 id="g477"
                 clip-path="url(#clipPath481)"><g
                   id="g483"><g
                     id="g485"
                     clip-path="url(#clipPath489)"><g
                       id="g491"
                       transform="translate(1445.6069,254.4092)"><path
                         d="m 0,0 h -105.214 c -16.233,0 -29.393,13.16 -29.393,29.393 V 668.75 c 0,16.234 13.16,29.394 29.393,29.394 H 0 c 16.233,0 29.393,-13.16 29.393,-29.394 V 29.393 C 29.393,13.16 16.233,0 0,0"
                         style="fill:#5cc4f2;fill-opacity:1;fill-rule:nonzero;stroke:none"
                         id="path493"
                         inkscape:connector-curvature="0" /></g></g></g><g
                   id="g495"><g
                     id="g497"
                     clip-path="url(#clipPath501)"><g
                       id="g503"
                       transform="translate(1415.6069,257.4092)"><path
                         d="m 0,0 h -105.214 c -16.233,0 -29.393,13.16 -29.393,29.393 V 668.75 c 0,16.234 13.16,29.394 29.393,29.394 H 0 c 16.233,0 29.393,-13.16 29.393,-29.394 V 29.393 C 29.393,13.16 16.233,0 0,0"
                         style="fill:#4d9b2c;fill-opacity:1;fill-rule:nonzero;stroke:none"
                         id="path505"
                         inkscape:connector-curvature="0" /></g></g></g></g></g></g></g></g></g><g
       id="g545"><g
         id="g547"
         clip-path="url(#clipPath551)"><g
           id="g553"
           transform="translate(1227.2954,112)"><path
             d="m 0,0 h -314.591 c -31.317,0 -56.704,25.388 -56.704,56.705 v 303.59 c 0,31.317 25.387,56.705 56.704,56.705 L 0,417 c 31.317,0 56.705,-25.388 56.705,-56.705 V 56.705 C 56.705,25.388 31.317,0 0,0"
             style="fill:#74c4fb;fill-opacity:1;fill-rule:nonzero;stroke:none"
             id="path555"
             inkscape:connector-curvature="0" /></g></g></g><g
       id="g737"><g
         id="g739"
         clip-path="url(#clipPath743)"><g
           id="g745"><g
             id="g747" /></g><g
           id="g761"><g
             id="g763" /><g
             id="g775"><g
               clip-path="url(#clipPath767)"
               id="g773"
               style="opacity:0.25999505"><g
                 transform="translate(1209.8887,215.9663)"
                 id="g771"><path
                   d="m 0,0 c 0,-24.834 -59.521,-44.966 -132.944,-44.966 -73.424,0 -132.945,20.132 -132.945,44.966 0,24.834 59.521,44.967 132.945,44.967 C -59.521,44.967 0,24.834 0,0"
                   style="fill:#ffffff;fill-opacity:1;fill-rule:nonzero;stroke:none"
                   id="path769"
                   inkscape:connector-curvature="0" /></g></g></g></g><g
           id="g777"
           transform="translate(1130.5693,215.6938)"><path
             d="m 0,0 h -106.434 c -13.084,0 -23.789,10.705 -23.789,23.79 v 200.727 c 0,13.084 10.705,23.789 23.789,23.789 H 0 c 13.084,0 23.79,-10.705 23.79,-23.789 V 23.79 C 23.79,10.705 13.084,0 0,0"
             style="fill:#353535;fill-opacity:1;fill-rule:nonzero;stroke:none"
             id="path779"
             inkscape:connector-curvature="0" /></g></g></g><g
       id="g781"><g
         id="g783"
         clip-path="url(#clipPath787)"><g
           id="g789"
           transform="translate(1132.2695,215.6938)"><path
             d="m 0,0 h -109.834 c -12.149,0 -22.089,9.94 -22.089,22.089 v 204.128 c 0,12.149 9.94,22.089 22.089,22.089 H 0 c 12.149,0 22.089,-9.94 22.089,-22.089 V 22.089 C 22.089,9.94 12.149,0 0,0"
             style="fill:#272525;fill-opacity:1;fill-rule:nonzero;stroke:none"
             id="path791"
             inkscape:connector-curvature="0" /></g></g></g><g
       id="g793"><g
         id="g795"
         clip-path="url(#clipPath799)"><g
           id="g801"
           transform="translate(1077.4863,228.2661)"><path
             d="m 0,0 v 0 c -4.322,0 -7.858,3.536 -7.858,7.858 0,4.322 3.536,7.857 7.858,7.857 4.322,0 7.858,-3.535 7.858,-7.857 C 7.858,3.536 4.322,0 0,0"
             style="fill:#ffffff;fill-opacity:1;fill-rule:nonzero;stroke:none"
             id="path803"
             inkscape:connector-curvature="0" /></g><g
           id="g805"
           transform="translate(1121.8911,256.8813)"><path
             d="m 0,0 h -89.077 c -4.428,0 -8.051,3.624 -8.051,8.052 v 170.585 c 0,4.428 3.623,8.051 8.051,8.051 H 0 c 4.428,0 8.051,-3.623 8.051,-8.051 V 8.052 C 8.051,3.624 4.428,0 0,0"
             style="fill:#ffffff;fill-opacity:1;fill-rule:nonzero;stroke:none"
             id="path807"
             inkscape:connector-curvature="0" /></g></g></g><g
       id="g809"><g
         id="g811"
         clip-path="url(#clipPath815)"><g
           id="g817"
           transform="translate(1122.1216,256.8813)"><path
             d="m 0,0 h -89.538 c -4.301,0 -7.821,3.52 -7.821,7.821 v 171.047 c 0,4.301 3.52,7.82 7.821,7.82 H 0 c 4.301,0 7.821,-3.519 7.821,-7.82 V 7.821 C 7.821,3.52 4.301,0 0,0"
             style="fill:#ececec;fill-opacity:1;fill-rule:nonzero;stroke:none"
             id="path819"
             inkscape:connector-curvature="0" /></g></g></g></g></svg>