<?xml version="1.0" encoding="UTF-8" standalone="no"?>
<!-- Created with Inkscape (http://www.inkscape.org/) -->

<svg
   xmlns:dc="http://purl.org/dc/elements/1.1/"
   xmlns:cc="http://creativecommons.org/ns#"
   xmlns:rdf="http://www.w3.org/1999/02/22-rdf-syntax-ns#"
   xmlns:svg="http://www.w3.org/2000/svg"
   xmlns="http://www.w3.org/2000/svg"
   xmlns:sodipodi="http://sodipodi.sourceforge.net/DTD/sodipodi-0.dtd"
   xmlns:inkscape="http://www.inkscape.org/namespaces/inkscape"
   version="1.1"
   id="svg859"
   xml:space="preserve"
   width="571.46667"
   height="556.59998"
   viewBox="0 0 571.46669 556.59998"
   sodipodi:docname="Textil.svg"
   inkscape:version="0.92.4 5da689c313, 2019-01-14"><metadata
     id="metadata865"><rdf:RDF><cc:Work
         rdf:about=""><dc:format>image/svg+xml</dc:format><dc:type
           rdf:resource="http://purl.org/dc/dcmitype/StillImage" /><dc:title></dc:title></cc:Work></rdf:RDF></metadata><defs
     id="defs863"><clipPath
       clipPathUnits="userSpaceOnUse"
       id="clipPath875"><path
         d="M 0,768 H 1366 V 0 H 0 Z"
         id="path873"
         inkscape:connector-curvature="0" /></clipPath><clipPath
       clipPathUnits="userSpaceOnUse"
       id="clipPath883"><path
         d="m 1519,69 h -100 v 667 h 100 z"
         id="path881"
         inkscape:connector-curvature="0" /></clipPath><clipPath
       clipPathUnits="userSpaceOnUse"
       id="clipPath891"><path
         d="M 1550,-308 H 1419 V 758 h 131 z"
         id="path889"
         inkscape:connector-curvature="0" /></clipPath><clipPath
       clipPathUnits="userSpaceOnUse"
       id="clipPath899"><path
         d="m 1528,66 h -188 v 670 h 188 z"
         id="path897"
         inkscape:connector-curvature="0" /></clipPath><clipPath
       clipPathUnits="userSpaceOnUse"
       id="clipPath911"><path
         d="m 1498,69 h -188 v 670 h 188 z"
         id="path909"
         inkscape:connector-curvature="0" /></clipPath><clipPath
       clipPathUnits="userSpaceOnUse"
       id="clipPath923"><path
         d="M 0,768 H 1366 V 0 H 0 Z"
         id="path921"
         inkscape:connector-curvature="0" /></clipPath><clipPath
       clipPathUnits="userSpaceOnUse"
       id="clipPath967"><path
         d="M 0,768 H 1366 V 0 H 0 Z"
         id="path965"
         inkscape:connector-curvature="0" /></clipPath><clipPath
       clipPathUnits="userSpaceOnUse"
       id="clipPath979"><path
         d="M 0,0 H 100 V 667 H 0 Z"
         id="path977"
         inkscape:connector-curvature="0" /></clipPath><clipPath
       clipPathUnits="userSpaceOnUse"
       id="clipPath995"><path
         d="M 0,0 H 79 V 667 H 0 Z"
         id="path993"
         inkscape:connector-curvature="0" /></clipPath><clipPath
       clipPathUnits="userSpaceOnUse"
       id="clipPath1019"><path
         d="M 0,768 H 1366 V 0 H 0 Z"
         id="path1017"
         inkscape:connector-curvature="0" /></clipPath><clipPath
       clipPathUnits="userSpaceOnUse"
       id="clipPath1043"><path
         d="m 1230.96,681.335 h 60.961 v 20.856 h -60.961 z"
         id="path1041"
         inkscape:connector-curvature="0" /></clipPath><clipPath
       clipPathUnits="userSpaceOnUse"
       id="clipPath1055"><path
         d="m 1232.563,656.47 h 62.566 v 24.865 h -62.566 z"
         id="path1053"
         inkscape:connector-curvature="0" /></clipPath><clipPath
       clipPathUnits="userSpaceOnUse"
       id="clipPath1067"><path
         d="m 1262.243,662.887 h 27.272 v 18.448 h -27.272 z"
         id="path1065"
         inkscape:connector-curvature="0" /></clipPath><clipPath
       clipPathUnits="userSpaceOnUse"
       id="clipPath1079"><path
         d="m 1262.243,681.335 h 27.272 v 18.449 h -27.272 z"
         id="path1077"
         inkscape:connector-curvature="0" /></clipPath><clipPath
       clipPathUnits="userSpaceOnUse"
       id="clipPath1091"><path
         d="m 1242.189,688.555 h 40.107 v 9.625 h -40.107 z"
         id="path1089"
         inkscape:connector-curvature="0" /></clipPath><clipPath
       clipPathUnits="userSpaceOnUse"
       id="clipPath1099"><path
         d="m 1289.926,668.101 h -32.106 c -1.766,0 -3.197,1.431 -3.197,3.197 v 4.032 c 0,1.766 1.431,3.198 3.197,3.198 h 32.106 c 1.766,0 3.199,-1.432 3.199,-3.198 v -4.032 c 0,-1.766 -1.433,-3.197 -3.199,-3.197"
         id="path1097"
         inkscape:connector-curvature="0" /></clipPath><clipPath
       clipPathUnits="userSpaceOnUse"
       id="clipPath1113"><path
         d="m 1262.243,688.555 h 20.053 v 9.625 h -20.053 z"
         id="path1111"
         inkscape:connector-curvature="0" /></clipPath><clipPath
       clipPathUnits="userSpaceOnUse"
       id="clipPath1121"><path
         d="m 1289.926,668.101 h -32.106 c -1.766,0 -3.197,1.431 -3.197,3.197 v 4.032 c 0,1.766 1.431,3.198 3.197,3.198 h 32.106 c 1.766,0 3.199,-1.432 3.199,-3.198 v -4.032 c 0,-1.766 -1.433,-3.197 -3.199,-3.197"
         id="path1119"
         inkscape:connector-curvature="0" /></clipPath><clipPath
       clipPathUnits="userSpaceOnUse"
       id="clipPath1135"><path
         d="m 1238.98,677.792 c 0,-7.789 10.415,-14.103 23.263,-14.103 v 0 c 12.846,0 23.261,6.314 23.261,14.103 v 0 c 0,7.788 -10.415,14.103 -23.261,14.103 v 0 c -12.848,0 -23.263,-6.315 -23.263,-14.103"
         id="path1133"
         inkscape:connector-curvature="0" /></clipPath><clipPath
       clipPathUnits="userSpaceOnUse"
       id="clipPath1147"><path
         d="m 1262.243,686.148 v -22.459 c 12.846,0 23.261,6.314 23.261,14.103 v 0 c 0,3.127 -1.68,6.018 -4.521,8.356 v 0 z"
         id="path1145"
         inkscape:connector-curvature="0" /></clipPath><clipPath
       clipPathUnits="userSpaceOnUse"
       id="clipPath1159"><path
         d="M 0,768 H 1366 V 0 H 0 Z"
         id="path1157"
         inkscape:connector-curvature="0" /></clipPath><clipPath
       clipPathUnits="userSpaceOnUse"
       id="clipPath1167"><path
         d="m 1210.56,746.304 h 102.63 v -102.63 h -102.63 z"
         id="path1165"
         inkscape:connector-curvature="0" /></clipPath><clipPath
       clipPathUnits="userSpaceOnUse"
       id="clipPath1183"><path
         d="m 920,262.618 h 303 V 160.132 H 920 Z"
         id="path1181"
         inkscape:connector-curvature="0" /></clipPath><clipPath
       clipPathUnits="userSpaceOnUse"
       id="clipPath1199"><path
         d="m 973.471,211.375 h 229.478 V 444.868 H 973.471 Z"
         id="path1197"
         inkscape:connector-curvature="0" /></clipPath><clipPath
       clipPathUnits="userSpaceOnUse"
       id="clipPath1211"><path
         d="M 0,768 H 1366 V 0 H 0 Z"
         id="path1209"
         inkscape:connector-curvature="0" /></clipPath></defs><sodipodi:namedview
     pagecolor="#ffffff"
     bordercolor="#666666"
     borderopacity="1"
     objecttolerance="10"
     gridtolerance="10"
     guidetolerance="10"
     inkscape:pageopacity="0"
     inkscape:pageshadow="2"
     inkscape:window-width="1366"
     inkscape:window-height="715"
     id="namedview861"
     showgrid="false"
     fit-margin-left="0.4"
     fit-margin-right="0.4"
     fit-margin-top="0.3"
     fit-margin-bottom="0.3"
     inkscape:zoom="0.34260616"
     inkscape:cx="-218.47576"
     inkscape:cy="214.47695"
     inkscape:window-x="0"
     inkscape:window-y="0"
     inkscape:window-maximized="1"
     inkscape:current-layer="g917" /><g
     id="g867"
     inkscape:groupmode="layer"
     inkscape:label="Consumo"
     transform="matrix(1.3333333,0,0,-1.3333333,-1135.6005,709.63332)"><g
       id="g869"><g
         id="g871"
         clip-path="url(#clipPath875)"><g
           id="g877"><g
             id="g879"
             clip-path="url(#clipPath883)"><g
               id="g885"><g
                 id="g887"
                 clip-path="url(#clipPath891)"><g
                   id="g893"><g
                     id="g895"
                     clip-path="url(#clipPath899)"><g
                       id="g901"
                       transform="translate(1449.6069,32.4092)"><path
                         d="m 0,0 h -105.214 c -16.233,0 -29.393,13.16 -29.393,29.393 V 668.75 c 0,16.234 13.16,29.394 29.393,29.394 H 0 c 16.233,0 29.393,-13.16 29.393,-29.394 V 29.393 C 29.393,13.16 16.233,0 0,0"
                         style="fill:#5cc4f2;fill-opacity:1;fill-rule:nonzero;stroke:none"
                         id="path903"
                         inkscape:connector-curvature="0" /></g></g></g><g
                   id="g905"><g
                     id="g907"
                     clip-path="url(#clipPath911)"><g
                       id="g913"
                       transform="translate(1419.6069,35.4092)"><path
                         d="m 0,0 h -105.214 c -16.233,0 -29.393,13.16 -29.393,29.393 V 668.75 c 0,16.234 13.16,29.394 29.393,29.394 H 0 c 16.233,0 29.393,-13.16 29.393,-29.394 V 29.393 C 29.393,13.16 16.233,0 0,0"
                         style="fill:#4d9b2c;fill-opacity:1;fill-rule:nonzero;stroke:none"
                         id="path915"
                         inkscape:connector-curvature="0" /></g></g></g></g></g></g></g></g></g><g
       id="g917" /><g
       id="g961"><g
         id="g963"
         clip-path="url(#clipPath967)"><g
           id="g969"
           transform="translate(1223.2954,115)"><path
             d="m 0,0 h -314.591 c -31.317,0 -56.704,25.388 -56.704,56.705 v 303.59 c 0,31.317 25.387,56.705 56.704,56.705 L 0,417 c 31.317,0 56.705,-25.388 56.705,-56.705 V 56.705 C 56.705,25.388 31.317,0 0,0"
             style="fill:#74c4fb;fill-opacity:1;fill-rule:nonzero;stroke:none"
             id="path971"
             inkscape:connector-curvature="0" /></g></g></g><g
       id="g1193"><g
         id="g1195"
         clip-path="url(#clipPath1199)"><g
           id="g1201"
           transform="translate(1202.9487,435.9351)"><path
             d="m 0,0 v -72.81 c 0,-4.934 -4.294,-8.934 -9.592,-8.934 h -29.35 v -133.882 c 0,-4.935 -4.295,-8.934 -9.592,-8.934 h -86.716 l -115.44,106.668 v 36.148 h -29.351 c -5.297,0 -9.591,4 -9.591,8.934 V 0 c 0,4.934 4.294,8.934 9.591,8.934 h 77.555 c 5.191,0 9.611,-3.962 9.611,-8.828 -0.192,-24.862 21.531,-45.218 48.059,-45.218 26.527,0 48.251,20.356 48.058,45.218 0,4.866 4.421,8.828 9.612,8.828 H -9.592 C -4.294,8.934 0,4.934 0,0"
             style="fill:#4d9b2c;fill-opacity:1;fill-rule:nonzero;stroke:none"
             id="path1203"
             inkscape:connector-curvature="0" /></g></g></g><g
       id="g1205"><g
         id="g1207"
         clip-path="url(#clipPath1211)"><g
           id="g1213"
           transform="translate(936.3291,435.8477)"><path
             d="m 0,0 v -71.235 c 0,-4.982 4.042,-9.021 9.029,-9.021 h 27.628 v -135.196 c 0,-4.982 4.042,-9.021 9.028,-9.021 h 80.514 l 8.972,8.935 v 170.951 c -24.76,0 -45.038,20.191 -44.858,44.852 0,4.826 -4.125,8.756 -8.971,8.756 H 9.029 C 4.042,9.021 0,4.982 0,0"
             style="fill:#94c282;fill-opacity:1;fill-rule:nonzero;stroke:none"
             id="path1215"
             inkscape:connector-curvature="0" /></g></g></g></g></svg>